<svg width="626" height="362" viewBox="0 0 626 362" fill="none" xmlns="http://www.w3.org/2000/svg">
<g clip-path="url(#clip0_0_12)">
<path d="M14.5 269H139V309H205.5V269H235V215H205.5V53H117.5L14.5 215V269ZM140.5 215H83V213L138.5 125H140.5V215ZM375.656 316C445.281 316.125 488.531 266.25 488.656 181.5C488.781 97.25 445.281 49.5 375.656 49.5C305.906 49.5 262.906 97 262.656 181.5C262.406 265.875 305.906 315.875 375.656 316ZM375.656 259.5C351.656 259.5 334.406 235.375 334.656 181.5C334.906 128.875 351.656 105.5 375.656 105.5C399.656 105.5 416.531 128.875 416.656 181.5C416.781 235.375 399.656 259.5 375.656 259.5ZM518.781 269H643.281V309H709.781V269H739.281V215H709.781V53H621.781L518.781 215V269ZM644.781 215H587.281V213L642.781 125H644.781V215Z" fill="white" fill-opacity="0.01"/>
<path d="M14.5 269H14V269.5H14.5V269ZM139 269H139.5V268.5H139V269ZM139 309H138.5V309.5H139V309ZM205.5 309V309.5H206V309H205.5ZM205.5 269V268.5H205V269H205.5ZM235 269V269.5H235.5V269H235ZM235 215H235.5V214.5H235V215ZM205.5 215H205V215.5H205.5V215ZM205.5 53H206V52.5H205.5V53ZM117.5 53V52.5H117.225L117.078 52.7317L117.5 53ZM14.5 215L14.0781 214.732L14 214.855V215H14.5ZM140.5 215V215.5H141V215H140.5ZM83 215H82.5V215.5H83V215ZM83 213L82.5771 212.733L82.5 212.855V213H83ZM138.5 125V124.5H138.224L138.077 124.733L138.5 125ZM140.5 125H141V124.5H140.5V125ZM14.5 269.5H139V268.5H14.5V269.5ZM138.5 269V309H139.5V269H138.5ZM139 309.5H205.5V308.5H139V309.5ZM206 309V269H205V309H206ZM205.5 269.5H235V268.5H205.5V269.5ZM235.5 269V215H234.5V269H235.5ZM235 214.5H205.5V215.5H235V214.5ZM206 215V53H205V215H206ZM205.5 52.5H117.5V53.5H205.5V52.5ZM117.078 52.7317L14.0781 214.732L14.9219 215.268L117.922 53.2683L117.078 52.7317ZM14 215V269H15V215H14ZM140.5 214.5H83V215.5H140.5V214.5ZM83.5 215V213H82.5V215H83.5ZM83.4229 213.267L138.923 125.267L138.077 124.733L82.5771 212.733L83.4229 213.267ZM138.5 125.5H140.5V124.5H138.5V125.5ZM140 125V215H141V125H140ZM375.656 316L375.657 315.5L375.656 316ZM488.656 181.5L488.156 181.499V181.499L488.656 181.5ZM262.656 181.5L263.156 181.501L262.656 181.5ZM334.656 181.5L334.156 181.498V181.498L334.656 181.5ZM416.656 181.5L417.156 181.499V181.499L416.656 181.5ZM375.655 316.5C410.596 316.563 438.962 304.074 458.6 280.901C478.229 257.739 489.094 223.955 489.156 181.501L488.156 181.499C488.094 223.795 477.271 257.324 457.837 280.255C438.413 303.176 410.341 315.562 375.657 315.5L375.655 316.5ZM489.156 181.501C489.219 139.294 478.354 106.164 458.69 83.5779C439.018 60.9833 410.59 49 375.656 49V50C410.348 50 438.482 61.8917 457.935 84.2346C477.396 106.586 488.219 139.456 488.156 181.499L489.156 181.501ZM375.656 49C340.661 49 312.326 60.9204 292.716 83.4845C273.114 106.039 262.281 139.169 262.156 181.499L263.156 181.501C263.281 139.331 274.073 106.461 293.471 84.1405C312.861 61.8296 340.901 50 375.656 50V49ZM262.156 181.499C262.031 223.767 272.864 257.489 292.525 280.667C312.194 303.855 340.653 316.437 375.655 316.5L375.657 315.5C340.91 315.438 312.744 302.957 293.288 280.02C273.823 257.074 263.031 223.608 263.156 181.501L262.156 181.499ZM375.656 259C363.859 259 353.701 253.086 346.497 240.455C339.277 227.798 335.031 208.399 335.156 181.502L334.156 181.498C334.031 208.476 338.285 228.077 345.628 240.951C352.987 253.852 363.454 260 375.656 260V259ZM335.156 181.502C335.281 155.23 339.526 136.33 346.682 124.017C353.821 111.732 363.853 106 375.656 106V105C363.459 105 353.116 110.955 345.818 123.514C338.536 136.045 334.281 155.145 334.156 181.498L335.156 181.502ZM375.656 106C387.46 106 397.523 111.733 404.677 124.017C411.848 136.33 416.094 155.229 416.156 181.501L417.156 181.499C417.094 155.146 412.839 136.045 405.541 123.514C398.227 110.955 387.853 105 375.656 105V106ZM416.156 181.501C416.219 208.398 411.973 227.798 404.769 240.456C397.58 253.086 387.453 259 375.656 259V260C387.859 260 398.295 253.851 405.638 240.95C412.965 228.077 417.219 208.477 417.156 181.499L416.156 181.501ZM518.781 269H518.281V269.5H518.781V269ZM643.281 269H643.781V268.5H643.281V269ZM643.281 309H642.781V309.5H643.281V309ZM709.781 309V309.5H710.281V309H709.781ZM709.781 269V268.5H709.281V269H709.781ZM739.281 269V269.5H739.781V269H739.281ZM739.281 215H739.781V214.5H739.281V215ZM709.781 215H709.281V215.5H709.781V215ZM709.781 53H710.281V52.5H709.781V53ZM621.781 53V52.5H621.507L621.359 52.7317L621.781 53ZM518.781 215L518.359 214.732L518.281 214.855V215H518.781ZM644.781 215V215.5H645.281V215H644.781ZM587.281 215H586.781V215.5H587.281V215ZM587.281 213L586.858 212.733L586.781 212.855V213H587.281ZM642.781 125V124.5H642.505L642.358 124.733L642.781 125ZM644.781 125H645.281V124.5H644.781V125ZM518.781 269.5H643.281V268.5H518.781V269.5ZM642.781 269V309H643.781V269H642.781ZM643.281 309.5H709.781V308.5H643.281V309.5ZM710.281 309V269H709.281V309H710.281ZM709.781 269.5H739.281V268.5H709.781V269.5ZM739.781 269V215H738.781V269H739.781ZM739.281 214.5H709.781V215.5H739.281V214.5ZM710.281 215V53H709.281V215H710.281ZM709.781 52.5H621.781V53.5H709.781V52.5ZM621.359 52.7317L518.359 214.732L519.203 215.268L622.203 53.2683L621.359 52.7317ZM518.281 215V269H519.281V215H518.281ZM644.781 214.5H587.281V215.5H644.781V214.5ZM587.781 215V213H586.781V215H587.781ZM587.704 213.267L643.204 125.267L642.358 124.733L586.858 212.733L587.704 213.267ZM642.781 125.5H644.781V124.5H642.781V125.5ZM644.281 125V215H645.281V125H644.281Z" fill="#436972"/>
</g>
<defs>
<clipPath id="clip0_0_12">
<rect width="626" height="362" fill="white"/>
</clipPath>
</defs>
</svg>
