<svg width="142" height="137" viewBox="0 0 142 137" fill="none" xmlns="http://www.w3.org/2000/svg">
<g clipPath="url(#clip0_0_812)">
<path d="M141.702 68.418C141.702 75.8812 137.135 82.5303 134.954 89.2565C132.691 96.2354 132.402 104.285 128.178 110.095C123.911 115.963 116.322 118.706 110.459 122.976C104.654 127.204 99.7245 133.604 92.7529 135.871C86.0243 138.057 78.3066 135.85 70.8511 135.85C63.3956 135.85 55.678 138.057 48.9513 135.871C41.9778 133.604 37.048 127.204 31.2428 122.976C25.3799 118.706 17.7913 115.963 13.5247 110.095C9.30055 104.287 9.01135 96.2374 6.74791 89.2565C4.56351 82.5225 0 75.8735 0 68.418C0 60.9624 4.56737 54.3057 6.74791 47.5795C9.01135 40.6005 9.30055 32.5507 13.5247 26.741C17.7913 20.8753 25.3799 18.1297 31.2428 13.8617C37.048 9.63414 41.9778 3.23209 48.9513 0.966872C55.678 -1.21924 63.3956 0.986167 70.8511 0.986167C78.3066 0.986167 86.0243 -1.21924 92.751 0.966872C99.7245 3.23209 104.654 9.63414 110.459 13.8617C116.322 18.1297 123.911 20.8753 128.178 26.741C132.402 32.5507 132.691 40.6005 134.954 47.5795C137.135 54.3057 141.702 60.9566 141.702 68.418Z" fill="#326CE5"/>
<path d="M13.5883 60.53C21.7687 60.53 21.7687 64.389 29.9472 64.389C38.1256 64.389 38.1276 60.53 46.3079 60.53C54.4883 60.53 54.4864 64.389 62.6668 64.389C70.8472 64.389 70.8453 60.53 79.0257 60.53C87.2061 60.53 87.206 64.389 95.3845 64.389C103.563 64.389 103.565 60.53 111.745 60.53C119.926 60.53 119.926 64.389 128.106 64.389" stroke="white" strokeMiterlimit="10"/>
<path d="M13.5883 68.248C21.7687 68.248 21.7687 72.107 29.9472 72.107C38.1256 72.107 38.1276 68.248 46.3079 68.248C54.4883 68.248 54.4864 72.107 62.6668 72.107C70.8472 72.107 70.8453 68.248 79.0257 68.248C87.2061 68.248 87.206 72.107 95.3845 72.107C103.563 72.107 103.565 68.248 111.745 68.248C119.926 68.248 119.926 72.107 128.106 72.107" stroke="white" strokeMiterlimit="10"/>
<path d="M13.5883 77.5095C21.7687 77.5095 21.7687 81.3685 29.9472 81.3685C38.1256 81.3685 38.1276 77.5095 46.3079 77.5095C54.4883 77.5095 54.4864 81.3685 62.6668 81.3685C70.8472 81.3685 70.8453 77.5095 79.0257 77.5095C87.2061 77.5095 87.206 81.3685 95.3845 81.3685C103.563 81.3685 103.565 77.5095 111.745 77.5095C119.926 77.5095 119.926 81.3685 128.106 81.3685" stroke="white" strokeMiterlimit="10"/>
<path d="M70.8473 8.18683C37.609 8.18683 10.6636 35.1534 10.6636 68.4178C10.6636 101.682 37.609 128.649 70.8473 128.649C104.086 128.649 131.031 101.69 131.031 68.4178C131.031 35.1457 104.086 8.18683 70.8473 8.18683ZM70.8319 123.408C40.4778 123.408 15.9058 98.8053 15.9 68.4274C15.9 38.0167 40.5357 13.3791 70.9109 13.437C101.286 13.4949 125.822 38.0959 125.795 68.4699C125.768 98.8439 101.186 123.418 70.8319 123.408Z" fill="white"/>
<path d="M43.0844 95.7085C42.8916 95.0429 41.9758 94.381 41.2644 94.4698C40.2542 94.5991 39.2478 94.7669 38.0331 94.9483C38.4804 93.7617 38.8583 92.7487 39.2439 91.7357C39.5774 90.8558 38.8583 90.4294 38.4072 89.9586C37.956 89.4878 37.6032 90.0821 37.2966 90.3252C35.6636 91.6199 34.0808 92.9783 32.4324 94.2518C31.6496 94.8557 32.2396 95.2069 32.5558 95.641C32.8719 96.0751 33.1939 96.5633 33.8398 95.9941C34.584 95.34 35.3706 94.7322 36.1534 94.0974C36.1823 94.1707 36.2093 94.2055 36.2016 94.2286C36.0473 94.6763 35.8796 95.12 35.7292 95.5696C35.4149 96.5189 36.0222 97.2116 37.019 97.0553C37.4335 96.9897 37.8558 96.8624 38.3493 97.0746C37.5473 97.7326 36.8513 98.35 36.1071 98.8999C35.4959 99.3514 35.789 99.7199 36.1572 100.058C36.5255 100.395 36.6797 101.275 37.4682 100.636C39.2407 99.2061 41.0073 97.7712 42.7682 96.3318C42.9495 96.1832 43.1827 96.0443 43.0844 95.7085Z" fill="white"/>
<path d="M75.3105 30.8024C76.5714 31.3233 77.0708 31.0841 77.331 29.7798C77.3889 29.4961 77.4409 29.2144 77.5103 28.9346C77.5663 28.707 77.5103 28.323 77.8593 28.3712C78.2083 28.4195 78.6556 28.3481 78.7828 28.869C78.9101 29.39 79.0682 29.8512 79.2108 30.3412C79.6118 31.6919 79.8875 31.9022 81.2622 31.9736C81.7789 32.0006 81.8946 31.825 81.7577 31.3639C81.5418 30.6287 81.3547 29.884 81.1253 29.1527C81.0193 28.8189 80.9325 28.6221 81.3894 28.431C82.5038 27.9603 82.8046 26.9492 82.8836 25.9092C82.8836 24.6242 82.1124 23.6845 80.6703 23.2986C79.4981 22.986 78.295 22.7911 77.1074 22.5268C76.6639 22.4303 76.4422 22.6098 76.3593 23.0343C75.9043 25.3497 75.4416 27.6805 74.9924 30.0074C74.9326 30.3219 74.8883 30.6287 75.3105 30.8024ZM78.6922 24.821C79.6658 24.7226 80.6048 25.286 80.5951 25.8629C80.5855 26.4398 80.2481 26.7196 79.5945 26.737C79.1915 26.3974 78.2565 26.9492 78.1196 26.0867C78.0617 25.722 77.9268 24.9078 78.6922 24.8287V24.821Z" fill="white"/>
<path d="M62.6148 106.286C62.0673 106.106 61.5082 105.881 61.3154 106.791C61.1052 107.793 60.7852 108.769 60.4536 109.975C59.9465 108.466 59.4761 107.174 59.0847 105.858C58.8283 104.997 58.0918 105.005 57.471 104.893C56.7866 104.781 56.9099 105.472 56.802 105.858C56.2236 107.857 55.7262 109.883 55.1054 111.87C54.8007 112.85 55.5237 112.761 56.0057 112.929C56.5186 113.105 57.0603 113.315 57.2551 112.466C57.4883 111.449 57.7988 110.45 58.113 109.313C58.2422 109.61 58.3309 109.78 58.3906 109.958C58.7762 111.115 59.1792 112.26 59.5474 113.419C59.8116 114.276 60.5828 114.224 61.1978 114.309C61.8128 114.394 61.6856 113.73 61.7877 113.381C62.3661 111.378 62.8539 109.35 63.4844 107.366C63.7716 106.406 63.1065 106.448 62.6148 106.286Z" fill="white"/>
<path d="M109.052 94.082C108.42 93.9913 107.797 93.8041 107.163 93.7443C106.64 93.6961 106.509 93.5147 106.492 92.9725C106.449 91.6219 105.229 90.5143 103.9 90.4989C102.988 90.4738 102.291 90.9311 101.731 91.5717C101.035 92.3686 100.438 93.2503 99.7398 94.0453C99.2655 94.5875 99.3253 94.9232 99.8902 95.3496C101.579 96.6269 103.255 97.9255 104.891 99.2665C105.47 99.7295 105.761 99.6813 106.187 99.1005C106.958 98.049 106.989 98.0741 105.95 97.2675C105.722 97.09 105.483 96.9241 105.275 96.7253C105.115 96.5729 104.718 96.5112 104.941 96.1639C105.123 95.8841 105.279 95.5175 105.744 95.612C106.208 95.7066 106.708 95.7201 107.157 95.8841C108.192 96.27 108.836 95.8667 109.399 95.0081C109.771 94.4505 109.79 94.1861 109.052 94.082ZM103.268 95.1297C103.123 95.1412 102.086 94.2498 102.096 94.1205C102.121 93.781 103.307 92.6445 103.638 92.6445C104.084 92.7332 104.409 92.9551 104.446 93.4452C104.467 93.7443 103.488 95.1104 103.268 95.1297Z" fill="white"/>
<path d="M61.1226 30.9934C61.1901 31.3793 61.3154 31.688 61.7954 31.6127C63.5306 31.3117 65.2774 31.0513 67.001 30.6924C67.911 30.4994 67.2844 29.8125 67.294 29.3417C67.3037 28.8381 67.0299 28.6857 66.5363 28.7822C65.5936 28.9655 64.6373 29.0909 63.6945 29.2781C63.2048 29.3745 63.0756 29.1507 63.0293 28.732C62.9889 28.3596 62.9349 28.0702 63.4728 28.0104C64.269 27.9255 65.0479 27.6997 65.8442 27.6148C66.706 27.5222 66.5479 26.98 66.4553 26.4321C66.3628 25.8841 66.2471 25.4345 65.4914 25.6429C64.7838 25.8358 64.0338 25.8667 63.3205 26.0462C62.8192 26.1735 62.5743 26.1426 62.4702 25.5561C62.3565 24.9232 62.7074 24.8711 63.1547 24.8036C63.9471 24.6859 64.7356 24.5334 65.528 24.4177C66.0351 24.3405 66.4245 24.1996 66.2201 23.561C66.0563 23.0477 66.2895 22.2374 65.2311 22.4573C63.7253 22.7718 62.208 23.0362 60.6849 23.2291C59.9562 23.3217 59.8559 23.6478 59.9639 24.2537C60.3552 26.5054 60.7389 28.7552 61.1226 30.9934Z" fill="white"/>
<path d="M86.8455 107.197C86.2832 107.425 85.7092 107.622 85.1258 107.789C84.6419 107.943 84.2929 108.14 84.5821 108.754C84.8115 109.228 84.7498 110.018 85.6656 109.651C85.8334 109.583 86.0127 109.425 86.1765 109.63C86.3404 109.834 86.2324 110.077 86.1515 110.27C85.9163 110.824 85.4227 111.061 84.8694 111.158C84.316 111.254 83.8591 110.99 83.5834 110.508C83.1969 109.84 82.9355 109.108 82.8122 108.347C82.6329 107.222 83.7029 106.238 84.7228 106.73C85.5634 107.135 86.1958 106.811 86.9092 106.602C87.3969 106.46 87.3989 106.168 87.1174 105.813C86.4657 104.991 85.575 104.731 84.5647 104.688C83.5016 104.685 82.4735 105.069 81.6728 105.769C80.7088 106.633 80.3232 107.729 80.7088 108.981C81.1966 110.62 81.48 112.455 83.5159 112.995C85.0776 113.406 86.4542 112.921 87.5647 111.814C88.7658 110.61 88.4747 109.207 87.9503 107.777C87.7208 107.168 87.4972 106.909 86.8455 107.197Z" fill="white"/>
<path d="M98.8029 103.552C98.0972 104.104 97.3299 104.576 96.6223 105.128C96.2367 105.429 96.0439 105.335 95.7952 104.972C95.5465 104.609 95.4694 104.393 95.8839 104.121C96.5259 103.698 97.141 103.235 97.7656 102.788C97.97 102.641 98.2168 102.521 98.1937 102.166C98.0295 101.728 97.7505 101.341 97.3858 101.047C97.0272 100.795 96.7496 101.18 96.47 101.373C95.8916 101.775 95.2862 102.145 94.7464 102.597C94.2972 102.971 94.168 102.63 93.9463 102.363C93.6802 102.053 93.6764 101.86 94.0485 101.617C94.7715 101.144 95.4405 100.588 96.1693 100.129C96.7669 99.7546 96.6397 99.3918 96.2888 98.9596C95.9784 98.5737 95.7894 97.9949 95.1031 98.5158C93.846 99.4536 92.5543 100.347 91.2683 101.25C90.8634 101.534 90.8461 101.815 91.1295 102.215C92.4598 104.061 93.7728 105.919 95.0896 107.777C95.3287 108.113 95.5619 108.246 95.9572 107.959C97.2759 106.994 98.6056 106.045 99.9462 105.113C100.577 104.675 100.195 104.31 99.925 103.915C99.6551 103.519 99.3986 103.083 98.8029 103.552Z" fill="white"/>
<path d="M49.0033 100.42C48.7333 100.227 48.448 100.318 48.2051 100.507C46.254 102.025 44.3048 103.545 42.3575 105.068C42.1011 105.261 41.9102 105.545 42.2804 105.751C42.9629 106.137 43.5876 107.102 44.4957 106.083C44.5398 106.016 44.6086 105.969 44.6872 105.952C44.7659 105.935 44.848 105.95 44.9159 105.993C45.6409 106.467 46.3716 106.932 47.0946 107.407C47.2874 107.538 47.2237 107.743 47.2006 107.932C47.0984 108.76 47.671 109.691 48.4943 109.736C49.3541 109.78 48.9493 108.871 49.2192 108.445C49.251 108.389 49.2732 108.327 49.2847 108.264C49.786 106.209 50.2873 104.152 50.8271 101.925C50.6112 101.092 49.6568 100.918 49.0033 100.42ZM47.7693 105.576C46.2636 104.69 46.2636 104.69 47.4859 103.714C47.7327 103.521 47.9872 103.328 48.3497 103.05C48.2576 103.912 48.0628 104.76 47.7693 105.576Z" fill="white"/>
<path d="M46.5143 35.383C47.4782 36.7221 48.9589 37.1195 50.5283 36.5407C52.1594 35.9503 53.4203 34.3565 53.3547 32.8997C53.3205 32.5504 53.2401 32.2072 53.1156 31.879C53.0982 31.7835 53.0472 31.6974 52.9719 31.6362C52.8966 31.575 52.802 31.5427 52.705 31.5452C52.1459 31.5452 51.1183 32.5466 51.1106 33.1467C51.1009 33.9552 50.5842 34.3604 49.9383 34.6189C49.3272 34.862 48.7816 34.6189 48.421 34.1115C47.9909 33.5152 47.608 32.8862 47.2758 32.2302C47.0059 31.6764 47.056 31.0725 47.5592 30.6422C48.0624 30.212 48.6852 29.9206 49.4004 30.3123C49.9017 30.5882 51.2532 30.1193 51.5405 29.6312C51.7333 29.3186 51.4865 29.143 51.3303 28.9694C51.0706 28.6754 50.7494 28.4421 50.3896 28.286C50.0298 28.13 49.6401 28.055 49.2481 28.0664C46.6685 28.076 44.6576 30.0634 44.9295 32.236C45.0837 33.4593 45.8414 34.424 46.5143 35.383Z" fill="white"/>
<path d="M73.905 108.661C73.2515 106.959 72.8022 106.732 71.0536 107.118C70.9109 107.133 70.7757 107.189 70.6639 107.279C70.5521 107.369 70.4685 107.489 70.4231 107.625C69.6905 109.971 68.9604 112.321 68.233 114.675C68.1693 114.882 68.0768 115.125 68.3236 115.287C68.8499 115.634 70.2323 115.148 70.4694 114.536C70.5677 114.282 70.5697 113.971 70.9919 113.979C71.7631 113.994 72.5343 113.979 73.3054 113.942C73.5792 113.931 73.7489 114.035 73.7971 114.282C73.9455 115.054 74.4082 115.281 75.0464 115.115C76.3516 115.083 76.3574 115.079 75.9294 113.958C75.2559 112.188 74.5811 110.422 73.905 108.661ZM71.8691 112.148C71.2907 112.148 71.2059 111.986 71.3794 111.494C71.5896 110.892 71.765 110.278 72.0098 109.495C72.2663 110.151 72.4552 110.623 72.6345 111.098C73.0355 112.173 73.0259 112.136 71.8691 112.148Z" fill="white"/>
<path d="M90.848 36.4114C91.2992 36.6584 91.7291 37.3164 92.2497 36.4462C92.9379 35.2885 93.6841 34.1713 94.4013 33.0348C95.265 31.6687 95.2881 31.6282 96.6763 32.5023C97.4147 32.9692 97.6094 32.4656 97.9198 32.0161C98.2514 31.5337 98.3825 31.1652 97.727 30.7793C96.1846 29.8595 94.6712 28.8999 93.1867 27.9005C92.5562 27.4798 92.2439 27.5917 91.8371 28.2169C91.3859 28.9057 91.4785 29.2723 92.1764 29.6428C92.5813 29.857 93.0343 30.0538 93.3139 30.4551C93.1712 30.6847 93.0555 30.8777 92.9283 31.0668C92.0549 32.4483 91.2066 33.8452 90.3024 35.2055C89.8166 35.9541 90.3776 36.1529 90.848 36.4114Z" fill="white"/>
<path d="M92.6701 78.4241C92.1746 76.3904 91.6849 74.3876 91.1894 72.3616C91.164 72.2559 91.1112 72.1587 91.0363 72.08C90.9614 72.0012 90.867 71.9436 90.7627 71.9131C90.6584 71.8825 90.548 71.8801 90.4424 71.906C90.3369 71.9319 90.2401 71.9853 90.1618 72.0606L85.3958 76.6258C85.3214 76.6975 85.2671 76.7875 85.2384 76.8868C85.2096 76.9861 85.2075 77.0913 85.232 77.1917C85.2566 77.2921 85.3071 77.3843 85.3785 77.459C85.4499 77.5337 85.5396 77.5884 85.6387 77.6176C85.8161 77.6677 85.9896 77.716 86.167 77.7526C86.5526 77.8356 86.514 77.9649 86.3347 78.2369C85.336 79.7592 84.0207 81.0479 82.4788 82.0149L82.4402 82.038C81.1111 82.6704 79.7044 83.1246 78.2565 83.3887C76.7594 83.676 75.2431 83.8514 73.72 83.9135C73.6719 83.9151 73.6241 83.9069 73.5793 83.8894C73.5345 83.8719 73.4938 83.8454 73.4595 83.8117C73.4253 83.7779 73.3982 83.7376 73.38 83.6931C73.3618 83.6485 73.3529 83.6008 73.3537 83.5527V62.255C73.3537 62.2276 73.3591 62.2005 73.3695 62.1752C73.38 62.1499 73.3953 62.127 73.4147 62.1076C73.434 62.0883 73.457 62.0729 73.4822 62.0625C73.5075 62.052 73.5346 62.0466 73.5619 62.0466C73.7547 62.0466 73.9899 62.0852 74.5548 62.0794C75.6653 62.0678 76.8221 62.0678 77.9365 62.0022C78.2989 61.981 78.5014 61.9926 78.7327 62.1662C79.2026 62.5378 79.7951 62.7185 80.3922 62.6724C80.9893 62.6263 81.5471 62.3566 81.9544 61.9173C82.3567 61.4762 82.5815 60.9017 82.5854 60.3045C82.5893 59.7073 82.3721 59.1298 81.9756 58.6835C81.5774 58.2365 81.0251 57.9567 80.4294 57.9001C79.8337 57.8436 79.2386 58.0145 78.7636 58.3786C78.6301 58.5026 78.4576 58.5763 78.2758 58.587C76.7231 58.5793 75.1718 58.5793 73.6217 58.587C73.5264 58.5993 73.4302 58.5736 73.3537 58.5156V56.0806C73.3526 55.9975 73.3813 55.9167 73.4347 55.8529C73.5446 55.7383 73.6755 55.646 73.8202 55.5809C76.3266 54.3074 77.6261 52.2158 77.628 49.4316C77.628 45.0266 73.3344 41.8217 69.089 42.9755C65.7228 43.8901 63.5364 47.2358 64.1707 50.6491C64.6373 53.1574 66.1122 54.9133 68.5106 55.8433C68.6006 55.8759 68.6866 55.9186 68.767 55.9706C68.8106 56.0038 68.8457 56.0467 68.8694 56.096C68.8932 56.1453 68.905 56.1995 68.9039 56.2543V58.2455C68.9039 58.2909 68.8949 58.3359 68.8774 58.3778C68.8599 58.4197 68.8343 58.4578 68.802 58.4897C68.7698 58.5217 68.7315 58.5469 68.6894 58.5639C68.6473 58.5809 68.6023 58.5894 68.5569 58.5889C66.8892 58.5696 65.2196 58.5774 63.5441 58.5889C63.3137 58.5878 63.0898 58.512 62.906 58.3728C62.4297 58.0111 61.834 57.8438 61.2392 57.9047C60.6444 57.9655 60.0949 58.2501 59.7017 58.7009C59.3074 59.1439 59.0921 59.718 59.0978 60.3113C59.1035 60.9046 59.3298 61.4745 59.7326 61.9099C60.1353 62.3452 60.6857 62.6149 61.2763 62.6662C61.8669 62.7175 62.4555 62.5468 62.9272 62.1874C63.1082 62.0453 63.3335 61.9716 63.5634 61.9791C65.181 61.9791 66.8005 62.0022 68.4181 61.9791C68.5636 61.9576 68.7121 61.9891 68.8364 62.0678C68.8562 62.0866 68.8717 62.1094 68.882 62.1347C68.8924 62.16 68.8972 62.1872 68.8962 62.2145V83.4022C68.8961 83.4514 68.8858 83.5001 68.866 83.5452C68.8462 83.5903 68.8172 83.6308 68.781 83.6641C68.7448 83.6975 68.7021 83.7229 68.6555 83.739C68.609 83.755 68.5597 83.7612 68.5106 83.7572C66.546 83.5911 64.5977 83.2685 62.6843 82.7925C61.5106 82.5092 60.3685 82.1077 59.2756 81.5942C59.2566 81.5858 59.2385 81.5755 59.2216 81.5634C57.6798 80.4802 56.3939 79.0721 55.4544 77.4381C55.4279 77.4 55.4119 77.3556 55.4079 77.3093C55.4039 77.2631 55.4121 77.2166 55.4315 77.1745C55.451 77.1324 55.4812 77.0961 55.519 77.0692C55.5568 77.0424 55.601 77.0259 55.6472 77.0214L56.1581 76.9172C56.2595 76.8943 56.3532 76.8452 56.4297 76.7748C56.5062 76.7044 56.5629 76.6151 56.5941 76.5159C56.6254 76.4167 56.63 76.311 56.6076 76.2094C56.5852 76.1078 56.5366 76.0139 56.4666 75.937L51.9821 71.0457C51.9137 70.968 51.8257 70.9101 51.7273 70.878C51.6289 70.8459 51.5237 70.8409 51.4226 70.8633C51.3216 70.8858 51.2285 70.935 51.1529 71.0058C51.0773 71.0765 51.0221 71.1663 50.993 71.2657C50.3298 73.3669 49.6839 75.4199 49.0284 77.5018C48.994 77.6104 48.9888 77.7262 49.0134 77.8375C49.0381 77.9487 49.0917 78.0515 49.1688 78.1353C49.2459 78.2191 49.3438 78.2811 49.4526 78.3149C49.5613 78.3486 49.677 78.353 49.788 78.3276L50.1351 78.2485C50.3485 78.1997 50.5721 78.2232 50.7707 78.3154C50.9692 78.4076 51.1316 78.5633 51.2321 78.7579C53.8117 83.7746 57.6908 87.4039 62.8231 89.6981C64.8282 90.5953 65.6225 90.8558 67.3538 91.1201C67.427 91.1313 67.4946 91.1658 67.5466 91.2185L70.1822 93.833C70.3589 94.0052 70.5958 94.1015 70.8425 94.1015C71.0892 94.1015 71.3261 94.0052 71.5028 93.833L74.0632 91.3247C74.1218 91.2678 74.1979 91.2325 74.2791 91.2243C76.8433 90.9831 77.9866 90.3483 80.7455 89.0845C85.016 87.1299 88.4073 83.7283 90.5898 79.5683C90.7826 79.1978 90.9522 79.1534 91.28 79.2634C91.4053 79.3059 91.5325 79.3464 91.6656 79.385C91.801 79.4272 91.9452 79.4323 92.0832 79.3999C92.2213 79.3675 92.3481 79.2987 92.4506 79.2006C92.5531 79.1026 92.6275 78.9789 92.6661 78.8423C92.7047 78.7057 92.7061 78.5613 92.6701 78.4241ZM70.6719 52.9876C70.2209 52.9718 69.7776 52.8667 69.3675 52.6784C68.9574 52.4901 68.5886 52.2224 68.2824 51.8907C67.9762 51.559 67.7388 51.1699 67.5837 50.7458C67.4286 50.3217 67.359 49.8711 67.3789 49.42C67.4714 47.4018 69.1488 45.9122 71.042 46.0569C73.0356 46.2113 74.4083 47.8147 74.308 49.6631C74.2001 51.6736 72.5536 53.1285 70.6719 52.9876Z" fill="white"/>
</g>
<defs>
<clipPath id="clip0_0_812">
<rect width="141.702" height="136.837" fill="white"/>
</clipPath>
</defs>
</svg>
