<svg version="1.1" id="Layer_1" xmlns="http://www.w3.org/2000/svg" x="0" y="0" viewBox="0 0 800 200" style="enable-background:new 0 0 800 200" xml:space="preserve">
    <style>
        .st0{fill:#010101}.st1{fill:#1f1f23}.st2{fill:none;stroke:#f2653a;stroke-width:13.5432;stroke-linecap:round;stroke-linejoin:round;stroke-miterlimit:10}
    </style>
    <switch>
        <g>
            <path class="st0" d="M183.5 118.1h-11.4V114h27.8v4.1h-11.5v33.4h-4.9v-33.4zM204.1 114h4.8v33.5h16v4.1H204V114zM229.7 145.6c2.2 1.3 5.3 2.5 8.7 2.5 5 0 7.9-2.6 7.9-6.4 0-3.5-2-5.5-7.1-7.5-6.1-2.2-9.9-5.3-9.9-10.6 0-5.8 4.8-10.2 12.1-10.2 3.8 0 6.6.9 8.3 1.8l-1.3 4c-1.2-.7-3.7-1.8-7.1-1.8-5.1 0-7.1 3.1-7.1 5.6 0 3.5 2.3 5.2 7.5 7.2 6.3 2.5 9.6 5.5 9.6 11 0 5.8-4.3 10.8-13.1 10.8-3.6 0-7.6-1.1-9.6-2.4l1.1-4zM269.6 114.4c2.3-.4 5.4-.7 9.3-.7 4.8 0 8.3 1.1 10.5 3.1 2.1 1.8 3.3 4.5 3.3 7.9 0 3.4-1 6.1-2.9 8-2.6 2.7-6.7 4.1-11.5 4.1-1.4 0-2.8-.1-3.9-.3v15h-4.8v-37.1zm4.9 18.1c1.1.3 2.4.4 4 .4 5.8 0 9.4-2.8 9.4-8 0-5-3.5-7.4-8.9-7.4-2.1 0-3.7.2-4.6.4v14.6zM298.2 133c0-3.2-.1-5.9-.2-8.4h4.3l.2 5.3h.2c1.2-3.6 4.2-5.9 7.5-5.9.6 0 .9.1 1.4.2v4.6c-.5-.1-1-.2-1.7-.2-3.5 0-5.9 2.6-6.6 6.3-.1.7-.2 1.4-.2 2.3v14.4h-4.8V133zM340.2 137.8c0 10-6.9 14.3-13.4 14.3-7.3 0-12.9-5.3-12.9-13.9 0-9 5.9-14.3 13.4-14.3 7.7.1 12.9 5.7 12.9 13.9zm-21.3.3c0 5.9 3.4 10.4 8.2 10.4 4.7 0 8.2-4.4 8.2-10.5 0-4.6-2.3-10.4-8.1-10.4s-8.3 5.4-8.3 10.5zM352.3 116.8v7.7h7v3.7h-7v14.5c0 3.3.9 5.2 3.7 5.2 1.3 0 2.2-.2 2.8-.3l.2 3.7c-.9.4-2.5.7-4.3.7-2.3 0-4.1-.7-5.3-2.1-1.4-1.4-1.9-3.8-1.9-7v-14.7h-4.2v-3.7h4.2V118l4.8-1.2zM367.3 138.9c.1 6.6 4.3 9.4 9.2 9.4 3.5 0 5.6-.6 7.5-1.4l.8 3.5c-1.7.8-4.7 1.7-9 1.7-8.3 0-13.3-5.5-13.3-13.6s4.8-14.5 12.6-14.5c8.8 0 11.1 7.7 11.1 12.7 0 1-.1 1.8-.2 2.3h-18.7zm14.3-3.5c.1-3.1-1.3-8-6.8-8-5 0-7.1 4.6-7.5 8h14.3zM411.6 150.5c-1.3.7-4.1 1.6-7.7 1.6-8.1 0-13.4-5.5-13.4-13.8S396.2 124 405 124c2.9 0 5.5.7 6.8 1.4l-1.1 3.8c-1.2-.7-3-1.3-5.7-1.3-6.2 0-9.5 4.6-9.5 10.2 0 6.2 4 10.1 9.4 10.1 2.8 0 4.6-.7 6-1.3l.7 3.6zM424 116.8v7.7h7v3.7h-7v14.5c0 3.3.9 5.2 3.7 5.2 1.3 0 2.2-.2 2.8-.3l.2 3.7c-.9.4-2.5.7-4.3.7-2.3 0-4.1-.7-5.3-2.1-1.4-1.4-1.9-3.8-1.9-7v-14.7H415v-3.7h4.2V118l4.8-1.2zM448.9 151.5v-23.2h-3.8v-3.7h3.8v-1.3c0-3.8.8-7.2 3.1-9.4 1.8-1.8 4.3-2.5 6.6-2.5 1.7 0 3.2.4 4.2.8l-.7 3.8c-.7-.3-1.7-.6-3.1-.6-4.2 0-5.2 3.7-5.2 7.8v1.4h6.5v3.7h-6.5v23.2h-4.9zM488.3 137.8c0 10-6.9 14.3-13.4 14.3-7.3 0-12.9-5.3-12.9-13.9 0-9 5.9-14.3 13.4-14.3 7.6.1 12.9 5.7 12.9 13.9zm-21.4.3c0 5.9 3.4 10.4 8.2 10.4 4.7 0 8.2-4.4 8.2-10.5 0-4.6-2.3-10.4-8.1-10.4s-8.3 5.4-8.3 10.5zM494.5 133c0-3.2-.1-5.9-.2-8.4h4.3l.2 5.3h.2c1.2-3.6 4.2-5.9 7.5-5.9.6 0 .9.1 1.4.2v4.6c-.5-.1-1-.2-1.7-.2-3.5 0-5.9 2.6-6.6 6.3-.1.7-.2 1.4-.2 2.3v14.4h-4.8V133zM524.7 114h4.8v18.1h.2c1-1.4 2-2.8 3-4l11.5-14.1h6l-13.6 15.9 14.6 21.6h-5.7l-12.4-18.4-3.6 4.1v14.3h-4.8V114zM576.9 144.2c0 2.8.1 5.2.2 7.4h-4.3l-.3-4.4h-.1c-1.3 2.2-4.1 5-8.9 5-4.2 0-9.3-2.3-9.3-11.8v-15.8h4.9v14.9c0 5.1 1.6 8.6 6 8.6 3.3 0 5.6-2.3 6.5-4.5.3-.7.4-1.6.4-2.5v-16.5h4.9v19.6zM584.8 151.5c.1-1.8.2-4.6.2-7V112h4.8v16.9h.1c1.7-3 4.8-5 9.2-5 6.7 0 11.4 5.6 11.4 13.8 0 9.6-6.1 14.4-12.1 14.4-3.9 0-7-1.5-9-5.1h-.2l-.2 4.5h-4.2zm5.1-10.8c0 .6.1 1.2.2 1.8.9 3.4 3.8 5.7 7.4 5.7 5.1 0 8.2-4.2 8.2-10.4 0-5.4-2.8-10-8-10-3.3 0-6.5 2.3-7.5 6-.1.6-.3 1.2-.3 2v4.9zM619.5 138.9c.1 6.6 4.3 9.4 9.2 9.4 3.5 0 5.6-.6 7.5-1.4l.8 3.5c-1.7.8-4.7 1.7-9 1.7-8.3 0-13.3-5.5-13.3-13.6s4.8-14.5 12.6-14.5c8.8 0 11.1 7.7 11.1 12.7 0 1-.1 1.8-.2 2.3h-18.7zm14.3-3.5c.1-3.1-1.3-8-6.8-8-5 0-7.1 4.6-7.5 8h14.3zM644.6 133c0-3.2-.1-5.9-.2-8.4h4.3l.2 5.3h.2c1.2-3.6 4.2-5.9 7.5-5.9.6 0 .9.1 1.4.2v4.6c-.5-.1-1-.2-1.7-.2-3.5 0-5.9 2.6-6.6 6.3-.1.7-.2 1.4-.2 2.3v14.4h-4.8V133zM663.1 131.9c0-2.8-.1-5.1-.2-7.3h4.3l.3 4.5h.1c1.3-2.6 4.5-5.1 8.9-5.1 3.7 0 9.5 2.2 9.5 11.5v16.1h-4.9V136c0-4.3-1.6-8-6.2-8-3.2 0-5.7 2.3-6.6 5-.2.6-.3 1.4-.3 2.3v16.2h-4.9v-19.6zM696.7 138.9c.1 6.6 4.3 9.4 9.2 9.4 3.5 0 5.6-.6 7.5-1.4l.8 3.5c-1.7.8-4.7 1.7-9 1.7-8.3 0-13.3-5.5-13.3-13.6s4.8-14.5 12.6-14.5c8.8 0 11.1 7.7 11.1 12.7 0 1-.1 1.8-.2 2.3h-18.7zm14.4-3.5c.1-3.1-1.3-8-6.8-8-5 0-7.1 4.6-7.5 8h14.3zM727.8 116.8v7.7h7v3.7h-7v14.5c0 3.3.9 5.2 3.7 5.2 1.3 0 2.2-.2 2.8-.3l.2 3.7c-.9.4-2.5.7-4.3.7-2.3 0-4.1-.7-5.3-2.1-1.4-1.4-1.9-3.8-1.9-7v-14.7h-4.2v-3.7h4.2V118l4.8-1.2zM742.7 138.9c.1 6.6 4.3 9.4 9.2 9.4 3.5 0 5.6-.6 7.5-1.4l.8 3.5c-1.7.8-4.7 1.7-9 1.7-8.3 0-13.3-5.5-13.3-13.6s4.8-14.5 12.6-14.5c8.8 0 11.1 7.7 11.1 12.7 0 1-.1 1.8-.2 2.3h-18.7zm14.4-3.5c.1-3.1-1.3-8-6.8-8-5 0-7.1 4.6-7.5 8h14.3zM767.2 146.5c1.4.9 4 1.9 6.5 1.9 3.6 0 5.2-1.8 5.2-4 0-2.3-1.4-3.6-5-5-4.8-1.7-7.1-4.4-7.1-7.6 0-4.3 3.5-7.9 9.3-7.9 2.7 0 5.1.8 6.6 1.7l-1.2 3.6c-1.1-.7-3-1.6-5.5-1.6-2.9 0-4.5 1.7-4.5 3.7 0 2.2 1.6 3.2 5.1 4.6 4.7 1.8 7.1 4.1 7.1 8.1 0 4.7-3.7 8.1-10.1 8.1-3 0-5.7-.7-7.6-1.8l1.2-3.8z"/>
            <path class="st1" d="m189.2 91.5-17.8-39.9h7.8l14.3 33.5h-2.4l14.3-33.5h7.6l-17.8 39.9h-6zM226.2 92.1c-3.2 0-6-.6-8.2-1.8-2.3-1.2-4.1-2.9-5.3-5.1-1.2-2.2-1.9-4.9-1.9-7.9s.6-5.6 1.7-7.8c1.2-2.2 2.8-4 4.9-5.2 2.1-1.3 4.5-1.9 7.3-1.9 2.7 0 5.1.6 6.9 1.7 1.9 1.2 3.3 2.8 4.2 4.9 1 2.1 1.5 4.6 1.5 7.4v1.9h-20.9v-3.7h15.8l-1 .8c0-2.6-.6-4.6-1.7-6-1.1-1.4-2.7-2.1-4.8-2.1-1.6 0-2.9.4-4 1.2-1.1.8-1.9 1.9-2.4 3.3-.6 1.4-.9 3.1-.9 5.1v.8c0 3.1.8 5.4 2.3 6.9 1.5 1.5 3.7 2.3 6.5 2.3 1.6 0 3.1-.2 4.5-.6 1.4-.4 2.8-1.2 4.1-2.1l2.1 4.8c-1.3 1.1-3 1.9-4.9 2.6-1.7.2-3.7.5-5.8.5zM242.4 91.5V70.1c0-1.2-.1-2.4-.1-3.5-.1-1.2-.2-2.4-.3-3.5h6.9l.6 5.7h-.7c.9-2 2.3-3.5 4-4.6 1.8-1.1 3.8-1.6 6.2-1.6 3.4 0 5.9.9 7.6 2.8 1.7 1.9 2.6 4.8 2.6 8.8v17.5H262V74.4c0-2.3-.5-4-1.3-4.9s-2.2-1.5-4-1.5c-2.2 0-4 .7-5.2 2s-1.9 3.2-1.9 5.5v16.1h-7.2zM286.7 92.1c-2.5 0-4.7-.6-6.6-1.8-1.9-1.2-3.4-2.9-4.4-5.1-1-2.2-1.6-4.9-1.6-8 0-3.1.5-5.8 1.6-8 1-2.2 2.6-3.9 4.4-5.1 1.9-1.2 4.1-1.8 6.6-1.8 2.4 0 4.5.6 6.4 1.8 1.9 1.2 3 2.8 3.7 4.8h-.6l.6-6h6.8c-.1 1.2-.2 2.4-.3 3.5-.1 1.2-.1 2.4-.1 3.5v21.5h-7.1l-.1-5.9h.7c-.6 2-1.9 3.5-3.7 4.7-1.9 1.3-4 1.9-6.3 1.9zm2-5.4c2.2 0 4-.8 5.4-2.3 1.3-1.6 2-4 2-7.1s-.7-5.5-2-7.1c-1.3-1.6-3.1-2.3-5.4-2.3-2.2 0-4 .8-5.4 2.3-1.3 1.6-2 3.9-2 7.1 0 3.2.7 5.5 2 7.1 1.3 1.5 3.1 2.3 5.4 2.3zM312.5 91.5V68.3H307V63h7.5l-2 1.8v-4.4c0-3.5.9-6.2 2.7-8 1.8-1.8 4.4-2.7 7.8-2.7.8 0 1.7.1 2.6.2.9.1 1.7.3 2.4.6V56c-.5-.2-1.1-.3-1.7-.5-.7-.1-1.3-.2-2-.2-1.5 0-2.6.4-3.5 1.3-.9.9-1.3 2.2-1.3 4.1v3.4l-1-1.2h19.9v28.6h-7.1V68.3h-11.7v23.3h-7.1zm18.4-33.9v-6.9h7.9v6.9h-7.9z"/>
            <path class="st2" d="m22 103.4 26-26M32.7 129.8 85 77.4M48.5 151.1l31.6-31.7"/>
            <path d="M70.8 167.1C9.4 137.2 17.1 53.3 17.1 53.3l53.8-19.9 53.8 19.9s7.6 83.9-53.9 113.8z" style="fill:none;stroke:#3e3f63;stroke-width:13.5432;stroke-linecap:round;stroke-linejoin:round;stroke-miterlimit:10"/>
        </g>
    </switch>
</svg>
