<?xml version="1.0" encoding="utf-8"?>
<!-- Generator: Adobe Illustrator 16.0.4, SVG Export Plug-In . SVG Version: 6.00 Build 0)  -->
<!DOCTYPE svg PUBLIC "-//W3C//DTD SVG 1.1//EN" "http://www.w3.org/Graphics/SVG/1.1/DTD/svg11.dtd">
<svg version="1.1" id="Layer_1" xmlns="http://www.w3.org/2000/svg" xmlns:xlink="http://www.w3.org/1999/xlink" x="0px" y="0px"
	 width="85px" height="85px" viewBox="0 0 85 85" enable-background="new 0 0 85 85" xml:space="preserve">
<path fill-rule="evenodd" clip-rule="evenodd" fill="#3F56EA" d="M42.498,0C19.027,0,0,19.509,0,43.578
	C0,62.83,12.174,79.165,29.065,84.926c2.127,0.4,2.901-0.948,2.901-2.101c0-1.033-0.036-3.774-0.056-7.415
	c-11.823,2.635-14.317-5.835-14.317-5.835c-1.933-5.037-4.718-6.382-4.718-6.382c-3.861-2.696,0.295-2.643,0.295-2.643
	c4.26,0.306,6.507,4.49,6.507,4.49c3.79,6.659,9.946,4.734,12.369,3.615c0.382-2.814,1.482-4.735,2.702-5.818
	c-9.444-1.103-19.362-4.846-19.362-21.54c0-4.76,1.654-8.646,4.372-11.693c-0.435-1.103-1.893-5.532,0.418-11.534
	c0,0,3.566-1.168,11.691,4.47c3.391-0.968,7.021-1.451,10.635-1.467c3.61,0.016,7.244,0.499,10.64,1.467
	c8.113-5.638,11.676-4.47,11.676-4.47c2.318,6.002,0.86,10.431,0.422,11.534c2.726,3.048,4.371,6.934,4.371,11.693
	c0,16.744-9.938,20.424-19.401,21.503c1.521,1.344,2.881,4.004,2.881,8.065c0,5.83-0.052,10.528-0.052,11.958
	c0,1.161,0.769,2.518,2.921,2.097C72.838,79.148,85,62.826,85,43.578C85,19.509,65.969,0,42.498,0"/>
</svg>
