<svg xmlns="http://www.w3.org/2000/svg" width="375.763" height="377.7" viewBox="0 0 375.763 377.7">
    <g transform="translate(-1487.669 -722.133)">
        <g transform="translate(1572.893 722.133)">
            <path fill="#ff6382" d="M27.974,291.343c-5.534,0-11.068-2.214-14.389-5.534a20.72,20.72,0,0,1,0-28.777L263.725,5.786a20.72,20.72,0,0,1,28.777,0,20.72,20.72,0,0,1,0,28.777L42.363,285.809C39.042,290.237,33.508,291.343,27.974,291.343Z" transform="translate(-7.775 0.025)"/>
        </g>
        <g transform="translate(1686.895 858.271)">
            <path fill="#ff6382" d="M38.274,173.039c-5.534,0-11.068-2.214-14.389-5.534a20.72,20.72,0,0,1,0-28.777L144.528,18.086a20.72,20.72,0,0,1,28.777,0,20.72,20.72,0,0,1,0,28.777L52.663,167.505C49.342,170.826,43.808,173.039,38.274,173.039Z" transform="translate(-18.075 -12.275)"/>
        </g>
        <g transform="translate(1568.466 738.735)">
            <path fill="#ff6382" d="M27.574,162.24c-5.534,0-11.068-2.214-14.389-5.534a20.72,20.72,0,0,1,0-28.777L132.721,7.286a20.72,20.72,0,0,1,28.777,0,20.72,20.72,0,0,1,0,28.777L41.963,156.705C37.536,160.026,32,162.24,27.574,162.24Z" transform="translate(-7.375 -1.475)"/>
        </g>
        <g transform="translate(1725.633 1006.584)">
            <path fill="#ff6382" d="M41.774,118.924c-5.534,0-11.068-2.214-14.389-5.534a20.72,20.72,0,0,1,0-28.777L80.513,31.486a20.72,20.72,0,0,1,28.777,0,20.72,20.72,0,0,1,0,28.777L56.163,113.39C52.842,116.71,47.308,118.924,41.774,118.924Z" transform="translate(-21.575 -25.675)"/>
        </g>
        <g transform="translate(1487.669 767.512)">
            <path fill="#ff6382" d="M20.274,97.324c-5.534,0-11.068-2.214-14.389-5.534a20.72,20.72,0,0,1,0-28.777L59.013,9.886a20.72,20.72,0,0,1,28.777,0,20.72,20.72,0,0,1,0,28.777L34.663,91.79A19.84,19.84,0,0,1,20.274,97.324Z" transform="translate(-0.075 -4.075)"/>
        </g>
    </g>
</svg>
