<svg xmlns="http://www.w3.org/2000/svg" width="1280.331" height="648.833" viewBox="0 0 1280.331 648.833"><g transform="translate(46.331 -2384)"><rect width="1234" height="626" transform="translate(0 2384)" fill="#ff6382"/><g transform="translate(-46.406 2429.025)"><g transform="translate(136.324 -0.025)"><path d="M40.068,465.789c-8.847,0-17.695-3.539-23-8.847-12.386-12.386-12.386-33.62,0-46.006l399.9-401.67c12.386-12.386,33.62-12.386,46.006,0s12.386,33.62,0,46.006l-399.9,401.67C57.763,464.019,48.915,465.789,40.068,465.789Z" transform="translate(-7.775 0.025)" fill="#7032e5"/></g><g transform="translate(318.58 217.62)"><path d="M50.368,269.291c-8.847,0-17.695-3.539-23-8.847-12.386-12.386-12.386-33.62,0-46.006L220.237,21.565c12.386-12.386,33.62-12.386,46.006,0s12.386,33.62,0,46.006L73.371,260.444C68.063,265.752,59.215,269.291,50.368,269.291Z" transform="translate(-18.075 -12.275)" fill="#7032e5"/></g><g transform="translate(129.247 26.517)"><path d="M39.668,258.491c-8.847,0-17.695-3.539-23-8.847-12.386-12.386-12.386-33.62,0-46.006l191.1-192.873c12.386-12.386,33.62-12.386,46.006,0s12.386,33.62,0,46.006L62.671,249.644C55.593,254.952,46.746,258.491,39.668,258.491Z" transform="translate(-7.375 -1.475)" fill="#7032e5"/></g><g transform="translate(380.512 454.729)"><path d="M53.868,174.753c-8.847,0-17.695-3.539-23-8.847-12.386-12.386-12.386-33.62,0-46.006L115.8,34.965c12.386-12.386,33.62-12.386,46.006,0s12.386,33.62,0,46.006L76.871,165.906C71.563,171.214,62.715,174.753,53.868,174.753Z" transform="translate(-21.575 -25.675)" fill="#7032e5"/></g><g transform="translate(0.075 72.523)"><path d="M32.368,153.153c-8.847,0-17.695-3.539-23-8.847-12.386-12.386-12.386-33.62,0-46.006L94.3,13.365c12.386-12.386,33.62-12.386,46.006,0s12.386,33.62,0,46.006L55.371,144.306C48.293,151.384,39.446,153.153,32.368,153.153Z" transform="translate(-0.075 -4.075)" fill="#7032e5"/></g></g></g></svg>