<svg xmlns="http://www.w3.org/2000/svg" width="176.392" height="52.619" viewBox="0 0 176.392 52.619">
  <g transform="translate(-1064.643 -4585.649)">
    <g transform="translate(1064.643 4585.649)">
      <path d="M116.2,38.867a.37.37,0,0,0-.425-.228l-.055.016a1.579,1.579,0,0,1-1.216-.109c-.4-.268-.6-.875-.6-1.854V27.847c0-3.455-2.087-5.208-6.209-5.208-3.69,0-6.581,1.722-6.581,3.922a1.957,1.957,0,0,0,1.73,2.071,2.146,2.146,0,0,0,1.783-.707c.907-.944.791-2.068-.309-3.273a4.38,4.38,0,0,1,3.117-1.068c2.141,0,3.055,1.252,3.055,4.189v2.236c-.5.153-.971.3-1.831.5a24.388,24.388,0,0,0-5.907,1.914,4.011,4.011,0,0,0-2.233,3.759c0,1.843,1.227,4,4.684,4,1.936,0,3.67-.905,5.45-2.848.155,2.019.93,2.777,2.811,2.777a5.438,5.438,0,0,0,2.489-.619.483.483,0,0,0,.247-.616Zm-5.71-2.7c-.42.577-1.792,2.294-3.5,2.294-2.31,0-2.8-1.6-2.8-2.941,0-2.207,1.714-3.227,6.3-4.345Zm44.3,4.085a8.509,8.509,0,0,1-8.59-8.8,8.766,8.766,0,0,1,8.59-8.914A8.571,8.571,0,0,1,163.34,31.3,8.768,8.768,0,0,1,154.786,40.249ZM154.6,23.474c-2.116,0-4.547.9-4.547,7.9,0,5.339,1.6,7.933,4.881,7.933,3.142,0,4.545-2.445,4.545-7.933C159.48,26.057,157.883,23.474,154.6,23.474Zm-75.521-.628c0,4.073-1.017,6.314-6.22,6.314H70.1v-12.3h2.87C78.354,16.858,79.079,19.885,79.079,22.846ZM70.1,36.692v-6.4h2.5c3.727,0,6.561-.777,8.426-2.312a6.365,6.365,0,0,0,2.36-5.06c0-5.851-5.724-7.079-10.526-7.079l.02,0H63.14a.4.4,0,0,0-.4.395v.019a.472.472,0,0,0,.315.447c.868.316,3.224-.126,3.224,2.366V36.688c0,1.282-.576,2.187-3.209,2.433a.4.4,0,0,0-.366.391v.061a.4.4,0,0,0,.4.393H73.507a.4.4,0,0,0,.4-.393v-.054a.4.4,0,0,0-.373-.393c-2.861-.226-3.435-1.1-3.435-2.438V30.3Zm21.159-14.17c-4.529,0-8.215,4.045-8.215,9.017,0,5.034,3.455,8.687,8.215,8.687A7.893,7.893,0,0,0,98.322,36.1a.392.392,0,0,0-.108-.528l-.053-.037a.406.406,0,0,0-.546.079c-1.47,1.819-2.758,2.871-4.98,2.871-2.811,0-5.814-1.91-5.814-7.274V31.17c-.005-.237,0-.561.009-.865h11.5a.058.058,0,0,0,.059-.056l.007-.091a6.713,6.713,0,0,0-7.136-7.637Zm-4.369,6.655c.379-3.669,1.83-5.681,4.109-5.681a3.331,3.331,0,0,1,2.584.954c.822.879,1.17,2.47,1.033,4.727Zm52.045.2h0c-3.145-.872-4.371-1.752-4.371-3.143a2.8,2.8,0,0,1,3.032-2.734c2.066,0,2.952.975,5.133,4.573l.028.047a.085.085,0,0,0,.03.03h.32a.4.4,0,0,0,.4-.395V22.579a.094.094,0,0,0-.027-.058h-.429a.4.4,0,0,0-.308.144l-.7.835a8.352,8.352,0,0,0-3.746-.979c-3.613,0-6.136,2.2-6.136,5.355,0,2.961,1.99,4.069,5.425,4.985,3.338.9,4.522,1.84,4.522,3.582,0,1.938-1.9,2.808-3.254,2.808-2.514,0-3.576-.921-5.985-5.19l-.028-.051a.1.1,0,0,0-.03-.032h-.324a.4.4,0,0,0-.4.395v5.793a.06.06,0,0,0,.06.06h.409a.406.406,0,0,0,.283-.116l1.1-1.086a9.611,9.611,0,0,0,4.468,1.2,5.937,5.937,0,0,0,4.468-1.7,5.71,5.71,0,0,0,1.444-3.952C144.323,31.879,142.864,30.469,138.938,29.373ZM119.9,37.888c0,.893-.229,1.186-1.671,1.275a.393.393,0,0,0,.027.786h7.118a.389.389,0,0,0,.014-.779c-1.647-.079-2.073-.342-2.073-1.282v-10.3c1.172-1.922,2.013-2.929,3.435-3.233a3,3,0,0,0-.114.77,2.135,2.135,0,0,0,4.269,0,2.545,2.545,0,0,0-2.861-2.564c-1.73,0-3.384.979-4.8,3.32V23.237a.484.484,0,0,0-.5-.481l-4.484.119a.394.394,0,0,0-.388.393v.056a.39.39,0,0,0,.332.388c1.5.209,1.7.91,1.7,1.638Zm49.23-15.142a.393.393,0,0,1,.276.112.382.382,0,0,1,.124.281l.014,2.936s1.462-3.445,6.2-3.445h.043c2.955,0,4.65,1.859,4.65,5.1V37.872c0,.893.231,1.186,1.671,1.275a.393.393,0,0,1-.025.786h-6.4a.4.4,0,0,1-.036-.795c1.163-.1,1.348-.388,1.348-1.266V28.72c0-3.024-.871-4.2-3.106-4.2-1.511,0-2.747,1.3-3.519,2.391a7.331,7.331,0,0,0-.821,1.407l.046,9.552c0,.879.181,1.168,1.31,1.266a.4.4,0,0,1-.036.8h-6.357a.394.394,0,0,1-.025-.788c1.44-.089,1.67-.381,1.67-1.273V25.352c0-.73-.206-1.435-1.709-1.645a.393.393,0,0,1-.334-.389V23.26a.4.4,0,0,1,.389-.395Z" transform="translate(-6.095 -1.528)" fill="#3d3935"/>
      <path d="M38.331,3.435C49.6,9.77,52.227,23.974,44.384,38.346c-6.892,12.632-21.942,18.027-33.156,11.6s-13.405-24.379-8.585-34.7c7-15,23.235-18.806,35.688-11.8" transform="translate(-0.233 -0.047)" fill="#007fa3"/>
    </g>
    <path d="M38.966,15.3a10.918,10.918,0,0,1,2.511,8.742,11.646,11.646,0,0,1-5.836,8.372A19.4,19.4,0,0,1,26,34.687c-.028.54-.137,2.4-.192,2.7a1.894,1.894,0,0,1-.423.91,3.188,3.188,0,0,1-1.655.966,5.43,5.43,0,0,1-1.367.2c-.059,0-.117-.005-.176-.011A1.607,1.607,0,0,1,20.7,37.9l-.028-.368c-.073-.316-.473-16.34-.4-16.054.059-1.921,3.2-2.254,4.906-1.915s1.277,2.387,1.23,4.9c0,0-.082,3.31-.24,6.807a13.259,13.259,0,0,0,5.521-1.486c3.266-1.6,4.995-4.05,4.995-7.658s-3.56-7.649-10.13-7.649-9.39,1.635-12.571,4.231c-.717.586-1.27,1.175-1.791,1.563s-1.911.447-2.281-.461c-.45-1.094.388-2.315.88-2.906a17.394,17.394,0,0,1,4.79-3.882,20.888,20.888,0,0,1,9.5-2.691c3.727-.091,9.612.205,13.851,4.929M24.716,41.827a2.7,2.7,0,0,0-1.117-.519,2.068,2.068,0,0,0-.4-.04,2.393,2.393,0,0,0-1.922,1.066,2.532,2.532,0,0,0-.45,1.861,2.065,2.065,0,0,0,.453,1.033,2.325,2.325,0,0,0,1.143.667,3.278,3.278,0,0,0,.862.119h0a2.616,2.616,0,0,0,1.645-.54,2.074,2.074,0,0,0,.788-1.661,2.559,2.559,0,0,0-1-1.986" transform="translate(1063.514 4584.638)" fill="#fff"/>
  </g>
</svg>