<svg xmlns="http://www.w3.org/2000/svg" width="213.197" height="47" viewBox="0 0 213.197 47">
  <defs>
    <style>.a{fill:#e34b5f;}.b{fill:#e7ce9c;}.c{fill:#1e7889;}.d{fill:#97baa6;}</style>
  </defs>
  <path class="a" d="M33.76,30.022a2.412,2.412,0,0,1-.705,1.705l-10.8,10.8a.965.965,0,0,1-1.645-.682v-24.2l13-12.932h.15Z" transform="translate(18.329 4.191)"/>
  <path class="b" d="M31.314.282a.965.965,0,0,0-1.364,0L13.89,16.342h-.223V34.469l.223.476L26.779,22.057,39.933,8.9Z" transform="translate(12.156 0)"/>
  <path class="c" d="M0,30.022a2.412,2.412,0,0,0,.705,1.706l10.8,10.8a.965.965,0,0,0,1.645-.682v-24.2L.15,4.712H0Z" transform="translate(0 4.191)"/>
  <path class="d" d="M9.984.282a.965.965,0,0,0-1.364,0L0,8.9,13.155,22.057l12.89,12.89v-18.6Z" transform="translate(0 0)"/>
  <path d="M36.125,29.686V5.538h6.43V8.776a7.143,7.143,0,0,1,6.566-3.687,7.351,7.351,0,0,1,6.7,3.867C58.34,6.3,60.273,5.088,63.286,5.088c5.441,0,8.5,3.058,8.5,8.679V29.686H64.861V16.6c0-3.373-.72-4.9-3.373-4.9-2.7,0-4.137,1.664-4.137,4.9V29.686H50.379V16.6c0-3.373-.72-4.9-3.373-4.9-2.7,0-4.137,1.664-4.137,4.9V29.686Z" transform="translate(32.13 4.526)"/>
  <path d="M61.26,8.773a12.748,12.748,0,0,1,21.809,8.769,12.3,12.3,0,0,1-3.643,9.084A12.519,12.519,0,0,1,70.252,30.4a11.935,11.935,0,0,1-9.129-3.867,12.62,12.62,0,0,1-3.553-8.9A12.378,12.378,0,0,1,61.26,8.773ZM70.3,23.658a5.828,5.828,0,0,0,5.711-5.936,5.717,5.717,0,1,0-11.422,0A5.858,5.858,0,0,0,70.3,23.658Z" transform="translate(51.204 4.438)"/>
  <path d="M73.639,29.686V5.538h6.745l-.09,3.238a7.509,7.509,0,0,1,6.925-3.687c4.992,0,8.229,3.148,8.229,8.679V29.686H88.344V16.6c0-3.373-.72-4.9-3.463-4.9-2.788,0-4.272,1.664-4.272,4.9V29.686Z" transform="translate(65.495 4.526)"/>
  <path d="M103.031,8.774a12.748,12.748,0,0,1,21.81,8.769,12.3,12.3,0,0,1-3.643,9.084,12.519,12.519,0,0,1-9.174,3.777,11.935,11.935,0,0,1-9.129-3.867,12.62,12.62,0,0,1-3.553-8.9,12.378,12.378,0,0,1,3.688-8.859Zm9.039,14.884a5.828,5.828,0,0,0,5.711-5.936,5.717,5.717,0,1,0-11.423,0,5.858,5.858,0,0,0,5.712,5.937Z" transform="translate(88.356 4.438)"/>
  <path d="M88.01,29.475V24.438l9.938-12.861H88.01V5.326h17.943v5.711L97.184,23.224h8.949v6.251Z" transform="translate(78.277 4.737)"/>
</svg>