<svg xmlns="http://www.w3.org/2000/svg" width="166.331" height="42.085" viewBox="0 0 166.331 42.085">
  <defs>
    <style>.a{fill:#d51007;}</style>
  </defs>
  <path class="a" d="M81.519,79.2l-1.96-5.329A11.667,11.667,0,0,1,71.6,77.422c-4.227,0-7.229-3.676-7.229-9.556,0-7.535,3.8-10.23,7.535-10.23,5.39,0,7.105,3.492,8.576,7.964l1.96,6.126c1.96,5.942,5.635,10.72,16.233,10.72,7.6,0,12.742-2.328,12.742-8.453,0-4.962-2.818-7.535-8.086-8.76l-3.92-.858c-2.7-.613-3.491-1.715-3.491-3.553,0-2.083,1.654-3.308,4.349-3.308,2.94,0,4.533,1.1,4.778,3.737l6.126-.735c-.49-5.513-4.288-7.78-10.536-7.78-5.513,0-10.9,2.083-10.9,8.76,0,4.166,2.022,6.8,7.105,8.025L101,70.5c3.124.735,4.165,2.022,4.165,3.8,0,2.266-2.205,3.185-6.371,3.185-6.187,0-8.759-3.247-10.23-7.719l-2.022-6.125c-2.572-7.964-6.677-10.9-14.824-10.9-9,0-13.783,5.7-13.783,15.375,0,9.311,4.778,14.334,13.355,14.334,6.921,0,10.23-3.247,10.23-3.247Z" transform="translate(-44.339 -40.359)"/>
  <path class="a" d="M10.966,37.358a6.671,6.671,0,0,1-2.022.306,2.215,2.215,0,0,1-2.512-2.45V1.827H0V36.745c0,4.594,3.186,6.494,6.922,6.494a15.426,15.426,0,0,0,3.859-.551l.184-5.33Z" transform="translate(0 -1.398)"/>
  <path class="a" d="M315.18,55.356a7.8,7.8,0,0,1-4.778,1.655c-2.328,0-3.614-1.225-3.614-4.227V38.448h8.454V33.425h-8.393v-6.8l-6.493.8v6h-4.1v5.023h4.1V54.131c0,5.637,3.247,8.331,8.515,8.331a14.983,14.983,0,0,0,7.474-1.714l-1.164-5.391Z" transform="translate(-226.728 -20.377)"/>
  <path class="a" d="M400.718,143.668a4.533,4.533,0,1,0,4.472-4.532,4.471,4.471,0,0,0-4.472,4.532Z" transform="translate(-306.679 -106.484)"/>
  <path class="a" d="M454.342,18.072V41.35h6.432V18.072H468V13.049h-7.229V10.476c0-3.859,1.654-5.084,4.349-5.084a8.937,8.937,0,0,1,4.656,1.225l1.041-5.391A14.462,14.462,0,0,0,464.634,0c-5.391,0-10.292,2.573-10.292,10.23v2.818h-4.1v5.023Z" transform="translate(-344.578)"/>
  <path class="a" d="M562.035,58.978c-.735-4.595-3.737-6.249-7.657-6.249s-7.29,1.777-8.76,6.126l-.8-5.452h-5.207v28.3h6.432V65.717c0-5.453,2.818-7.535,5.82-7.535,3.124,0,4.411,2.083,4.411,5.452V81.7h6.371V65.655c0-5.391,2.879-7.474,5.881-7.474,3.063,0,4.349,2.083,4.349,5.452V81.7h6.432V61.367c0-6.065-3.553-8.638-8.27-8.638-3.981,0-7.535,1.777-9,6.249Z" transform="translate(-412.979 -40.355)"/>
</svg>