<svg xmlns="http://www.w3.org/2000/svg" width="240.706" height="35.58" viewBox="0 0 240.706 35.58">
  <g transform="translate(0 0)">
    <path d="M73.165,76.135h-.793q-3.126,0-3.847-5.657t-2.9-6.7c-2.935,1.869-3.595,2.433-4.394,4.4-1.082,2.661-1.044,5.459-1.339,7.443a1.316,1.316,0,0,1-.232.342c-.135.126-.284.2-1.022.433s-.469.268-1.228.268-1.16-.727-1.387-1.091a6.174,6.174,0,0,1-.518-1.588q-.729-2.383-.978-9.526c-.11-3.24-.405-1.388-.306-6.5s0-4.579.115-7.025a3.425,3.425,0,0,1,.347-1.513.894.894,0,0,1,.793-.522c1.456,0,2.592-.228,3.21,3.412a50.423,50.423,0,0,1,.818,6.709,13.6,13.6,0,0,1,.005,2.966,22.332,22.332,0,0,1,2.742-3.325,4.3,4.3,0,0,1,3.676-1.141q3.77,0,5.831,7.692A35.519,35.519,0,0,1,73.165,76.135Z" transform="translate(-54.201 -47.981)" fill="#542e91"/>
    <path d="M132.811,76.48q0,4.943-6.314,9.008a20.6,20.6,0,0,1-11.062,3.649q-2.856,0-3.987-1.476a7.241,7.241,0,0,1-1.129-4.436,13.977,13.977,0,0,1,1.866-7.022,16.1,16.1,0,0,1,5.094-5.451c.767-.648,1.353-1.122,1.752-1.431a3.435,3.435,0,0,1,2.074-.881,15.087,15.087,0,0,1,7.561,1.988Q132.812,72.784,132.811,76.48Zm-4.2.366a2.85,2.85,0,0,0-1.381-2.432,5.14,5.14,0,0,0-2.951-.949,9.978,9.978,0,0,0-6.451,2.824q-3.276,2.825-3.274,5.926a1.839,1.839,0,0,0,.923,1.758,4.61,4.61,0,0,0,2.257.509q2.767,0,6.639-2.408Q128.617,79.436,128.616,76.846Z" transform="translate(-89.443 -60.25)" fill="#542e91"/>
    <path d="M180.482,75.741l-1.176.094a4.554,4.554,0,0,1-1.318-.187,1.517,1.517,0,0,1-.894-.66q-.046-.185-.471-5.785c-.376-5.238-.627-4-.752-5.881-.252-3.858-.378-5.27-.378-5.834V49.066a5.651,5.651,0,0,1,.165-1.46,1.077,1.077,0,0,1,.729-.8,4.05,4.05,0,0,1,2.072,1.647,7.57,7.57,0,0,1,.845,2.587,29.666,29.666,0,0,1,.377,3.528q.094,1.883.095,4.094v3.81c0,2.008.117.219.351,4.234S180.482,73.733,180.482,75.741Z" transform="translate(-130.374 -46.665)" fill="#542e91"/>
    <path d="M199.64,50.235a2.436,2.436,0,0,1-.376,1.342,1.253,1.253,0,0,1-1.129.588,1.965,1.965,0,0,1-1.672-1.247,5.05,5.05,0,0,1-.681-2.423,3.123,3.123,0,0,1,.33-1.412,1.086,1.086,0,0,1,1.034-.658q.989,0,1.742,1.341A5.125,5.125,0,0,1,199.64,50.235Zm2.541,14.307q0,3.295-.166,5.627a34.475,34.475,0,0,1-.73,4.919,3.689,3.689,0,0,1-3.056-1.79q-.142-.28-.989-3.624a11.806,11.806,0,0,1-.281-1.766c-.064-.675-.1-1.341-.1-2q0-1.223.189-3.72t.187-3.766A5.848,5.848,0,0,0,198.888,58a3.3,3.3,0,0,1,.941-.236q.609,0,1.48,1.954a8.235,8.235,0,0,1,.871,2.754v2.072Z" transform="translate(-143.113 -46.424)" fill="#542e91"/>
    <path d="M238.523,54.194c0,3.485-.017,3.108-.047,5.273q-.188,12.944-.19,14.214c-.186-.031-.736-.117-1.644-.257a14.664,14.664,0,0,0-2.072-.212q-2.072,1.365-3.976,2.4a8.486,8.486,0,0,1-4.116,1.034,5.971,5.971,0,0,1-4.611-2.164,7.161,7.161,0,0,1-1.928-4.893q0-3.291,2.87-7.01,3.06-3.953,6.259-3.952a9.235,9.235,0,0,1,1.716.14c.487.1,1.184.268,2.094.52.188-.628.337-1.218.447-4.97s.712-4.609,1.811-5.769a4.874,4.874,0,0,1,2.589,2.141A7.129,7.129,0,0,1,238.523,54.194Zm-4.941,10.924a2.462,2.462,0,0,0-.589-1.67,1.927,1.927,0,0,0-1.527-.682q-2.119,0-4.188,2.495a7.508,7.508,0,0,0-2.07,4.658,2.7,2.7,0,0,0,.519,1.646,1.7,1.7,0,0,0,1.456.705q1.7,0,4.048-2.729T233.581,65.118Z" transform="translate(-158.284 -47.758)" fill="#542e91"/>
    <path d="M292.758,79.369a18.878,18.878,0,0,1-.214,2.938,11.665,11.665,0,0,1-.728,2.605,5.139,5.139,0,0,1-2.868-1.868,22.509,22.509,0,0,1-1.7-3.037q-.188.472-3.387,2.565t-3.859,2.094a4.135,4.135,0,0,1-3.646-1.648,7.211,7.211,0,0,1-1.152-4.234q0-3.669,4.045-10.306,4.283-7.007,7.293-7.009,3.152,0,4.682,4.463T292.758,79.369Zm-5.317-11.593c0-.189-.009-.415-.024-.682a7.113,7.113,0,0,0-.165-1.06,2.286,2.286,0,0,0-1.1.425,6.257,6.257,0,0,0-1.154.894,24.291,24.291,0,0,0-3.011,5.032q-1.976,3.955-1.977,5.317v.517a8.643,8.643,0,0,0,5.365-3.857A11.681,11.681,0,0,0,287.441,67.775Z" transform="translate(-192.994 -55.872)" fill="#542e91"/>
    <path d="M342.861,66.6q0,1.412-3.057,9.646c-1.789,4.8-.431,2.306-2.7,7.779s-2.129,4.748-2.819,5.875a3.683,3.683,0,0,1-1.08,1.155,2.612,2.612,0,0,1-1.459.4,3.648,3.648,0,0,1-1.883-.471,1.615,1.615,0,0,1-.8-1.506,9.923,9.923,0,0,1,1.175-3.434c.528-1.111.869-1.452,1.412-2.619a4.357,4.357,0,0,0,.514-2.612c0-1.821-1.189-3.781-2.568-5.881q-1.931-2.683-3.859-5.411a11.485,11.485,0,0,1-2.118-6.116q3.906.658,7.339,6.586a25.491,25.491,0,0,0,3.529,5.13,60.749,60.749,0,0,0,2.448-6.492q.942-2.965,1.834-6.683l.706-.469a3.8,3.8,0,0,1,2.588,1.929A6.2,6.2,0,0,1,342.861,66.6Z" transform="translate(-223.395 -55.879)" fill="#542e91"/>
  </g>
  <g transform="translate(120.325 1.811)">
    <path d="M399.487,85.48q0,2.4-4.235,4.045a17.841,17.841,0,0,1-6.352,1.317,13.527,13.527,0,0,1-7.715-2.028,7.834,7.834,0,0,1-3.529-6.885,10.7,10.7,0,0,1,3.6-7.8,11.184,11.184,0,0,1,7.975-3.513,8.213,8.213,0,0,1,5.411,2.17,6.442,6.442,0,0,1,2.541,5q0,3.3-9.222,4.295-5.224.425-6.445.519v.894q0,1.228,2.162,2.126a8.785,8.785,0,0,0,3.294.754,13.952,13.952,0,0,0,4.565-.99q2.728-.987,5.6-2.069a2.4,2.4,0,0,1,1.6.657A1.975,1.975,0,0,1,399.487,85.48Zm-6.635-8.141q0-1.128-1.434-1.858a6,6,0,0,0-2.706-.729,5.216,5.216,0,0,0-3.057,1.036,17.859,17.859,0,0,0-2.352,2.258,20.514,20.514,0,0,0,4.824.517,20.845,20.845,0,0,0,2.339-.14q1.253-.14,2.389-.376v-.706Z" transform="translate(-377.655 -63.425)" fill="#fddc06"/>
    <path d="M455.888,84.407v2.07a7.982,7.982,0,0,1-3.756-2.192,26.38,26.38,0,0,0-5.613-4.385,37.319,37.319,0,0,1-3.458,4.663q-1.137,1.337-2.271,2.677c-.232-.271-.579-.652-1.04-1.139a3.709,3.709,0,0,1-1.282-2.156q0-1.343,3.211-5.326a5.516,5.516,0,0,0,1.482-3.332c0-1.194-2.359-2.739-3.592-4.637s-1.853-3.13-1.853-3.7a3.278,3.278,0,0,1,.3-1.4,1.5,1.5,0,0,1,.988-.833,5.565,5.565,0,0,1,1.927,1.907,20.478,20.478,0,0,0,5.592,4.75q1.531-3.489,1.729-3.856,1.532-2.64,3.211-2.639a1.207,1.207,0,0,1,1.062.547,3.436,3.436,0,0,1,.369,1.848,9.119,9.119,0,0,1-1.062,4.162q-1.064,2.089-2.2,4.2c0,.351,2.094,1.989,4.541,4.912A6.249,6.249,0,0,1,455.888,84.407Z" transform="translate(-415.374 -59.721)" fill="#fddc06"/>
    <path d="M504.322,59.233l-.329-.095-.283-.047a.942.942,0,0,0-.329.657,1.786,1.786,0,0,0,.236.7q-.424,1.973-4.377,2.089t-5.223,1.666a7,7,0,0,0-.188,1.691v2.157q0,.987-.547,4.928a22.444,22.444,0,0,0-.252,2.91,8.239,8.239,0,0,0,.424,2.629h-.942a3.034,3.034,0,0,1-2.587-1.127q-.988-1.317-.987-4.743c0-.752.047-1.641.141-2.675q.328-3.569.328-4.458,0-2.865-3.951-3.194T481.5,58.8v-.658c.03-.188.109-.578.235-1.173,1.473.252,2.305.392,2.492.425a17.175,17.175,0,0,0,2.589.235,3.836,3.836,0,0,0,3.388-1.418,4.012,4.012,0,0,0,.644-2.3,10.27,10.27,0,0,0-.122-1.16,4.8,4.8,0,0,1,.19-1.465c1.285.283,2.256.161,2.917,1.231a5.787,5.787,0,0,1,.928,1.886,3.952,3.952,0,0,1,.1,1.1,1.666,1.666,0,0,0,.14.591c.093.235.156.386.188.448a3.321,3.321,0,0,0,1.1.379,8.273,8.273,0,0,0,1.334.093c.312,0,.781-.015,1.405-.046s1.061-.047,1.311-.047a5.156,5.156,0,0,1,2.456.5A3.7,3.7,0,0,1,504.322,59.233Z" transform="translate(-442.872 -51.293)" fill="#fddc06"/>
    <path d="M555.231,71.109a1.5,1.5,0,0,1-.376.941,1.086,1.086,0,0,1-.848.472,7.813,7.813,0,0,1-1.551-.424,3.722,3.722,0,0,0-1.083-.235q-3.057,0-6.4,4.188a86.739,86.739,0,0,0-5.08,7.81q-2.541,4.234-3.623,4.236-2.211,0-3.01-6.165-.425-4.045-.847-8.14l-1.506-5.879a4.79,4.79,0,0,0,1.222-.665c.44-.316.783-.554,1.038-.711a15.085,15.085,0,0,1,3.056,2.731,2.772,2.772,0,0,1,.471,1.65,12.384,12.384,0,0,0,.117,1.955,10.01,10.01,0,0,0,.87,2.237l4.33-5.363a8.645,8.645,0,0,1,6.4-2.354,11.623,11.623,0,0,1,4.189.706Q555.228,69.136,555.231,71.109Z" transform="translate(-473.898 -60.866)" fill="#fddc06"/>
    <path d="M606.656,79.4a19,19,0,0,1-.212,2.938,11.651,11.651,0,0,1-.729,2.605,5.139,5.139,0,0,1-2.868-1.868,22.662,22.662,0,0,1-1.7-3.037q-.188.473-3.387,2.566T593.906,84.7a4.138,4.138,0,0,1-3.647-1.648,7.22,7.22,0,0,1-1.153-4.234q0-3.669,4.046-10.3,4.282-7.007,7.293-7.009,3.154,0,4.681,4.463T606.656,79.4Zm-5.317-11.593q0-.283-.023-.682a7.362,7.362,0,0,0-.164-1.06,2.291,2.291,0,0,0-1.106.425,6.34,6.34,0,0,0-1.154.894,24.283,24.283,0,0,0-3.009,5.033q-1.978,3.955-1.977,5.318v.517a8.64,8.64,0,0,0,5.364-3.855A11.691,11.691,0,0,0,601.339,67.807Z" transform="translate(-510.446 -57.703)" fill="#fddc06"/>
    <path d="M657.739,79.472q0,4.942-7.527,6.871a48.246,48.246,0,0,1-11.573,1.129,12.258,12.258,0,0,1-4-.423,3.306,3.306,0,0,1-2.682-3.388l.14-1.554q1.742,0,5.225.378a41.47,41.47,0,0,0,4.421.376,17.5,17.5,0,0,0,4.846-.565,9.559,9.559,0,0,0,4.14-2.447l-.469-.423a7.28,7.28,0,0,1-1.976-.307q-1.082-.305-2.069-.634-4.521-.893-6.259-2.588a5.061,5.061,0,0,1-1.505-3.812q0-3.105,3.293-5.316A10.944,10.944,0,0,1,648,64.794a6.381,6.381,0,0,1,3.528.94,4.534,4.534,0,0,1,1.929,2.871q-4.894.561-5.363.658a7.844,7.844,0,0,0-4.611,2.493q8.469,2.022,8.61,2.07Q657.74,75.849,657.739,79.472Z" transform="translate(-537.357 -59.772)" fill="#fddc06"/>
  </g>
</svg>