<?xml version="1.0" encoding="utf-8"?>
<!-- Generator: Adobe Illustrator 16.0.4, SVG Export Plug-In . SVG Version: 6.00 Build 0)  -->
<!DOCTYPE svg PUBLIC "-//W3C//DTD SVG 1.1//EN" "http://www.w3.org/Graphics/SVG/1.1/DTD/svg11.dtd">
<svg version="1.1" id="Layer_1" xmlns="http://www.w3.org/2000/svg" xmlns:xlink="http://www.w3.org/1999/xlink" x="0px" y="0px"
	 width="200px" height="200px" viewBox="0 0 200 200" enable-background="new 0 0 200 200" xml:space="preserve">
<g>
	<path fill="none" d="M100.01,8.84l73.376,36.135l18.142,81.146l-50.797,65.105h-81.44h81.49l50.747-65.105l-18.142-81.146
		L100.01,8.84z"/>
	<path fill="#5475F3" d="M199.692,121.709l-17.184-76.891c-0.907-3.945-3.63-7.476-7.208-9.241L105.756,1.364
		c-2.017-0.986-4.233-1.454-6.451-1.349c-1.764,0.103-3.528,0.571-5.09,1.349L24.669,35.577c-3.578,1.766-6.299,5.244-7.207,9.241
		L0.329,121.761c-0.807,3.529-0.101,7.372,1.814,10.436l0.756,1.09l48.128,61.625c2.469,3.168,6.4,5.089,10.381,5.089h77.156
		c3.981,0,7.913-1.921,10.381-5.089l48.128-61.678C199.592,130.067,200.55,125.706,199.692,121.709L199.692,121.709z
		 M191.528,126.121l-50.747,65.105h-81.49L8.492,126.121l13.96-62.509l4.183-18.689L100.01,8.84l73.426,36.135L191.528,126.121
		L191.528,126.121z"/>
	<path fill="#5779EF" d="M101.422,73.166c-0.151-0.312-0.403-0.571-0.756-0.727c-0.252-0.104-0.504-0.155-0.756-0.155
		c-0.554,0-1.109,0.363-1.361,0.882l-4.687,8.774c3.226,1.142,6.854,1.401,10.432,0.57c0.655-0.155,1.26-0.312,1.865-0.519
		L101.422,73.166z M102.883,53.592c0,0.364,0.151,0.675,0.354,0.987c0.554,0.727,1.511,0.831,2.217,0.312h0.051l7.912-5.763
		c-2.974-3.011-6.854-4.984-11.087-5.503L102.883,53.592z M88.318,108.573c-0.151-0.208-0.353-0.363-0.604-0.467
		c-0.251-0.104-0.504-0.208-0.856-0.208c-0.353,0-0.605,0.052-0.857,0.155c-0.252,0.104-0.454,0.261-0.605,0.467
		c-0.151,0.208-0.302,0.416-0.353,0.676c-0.101,0.26-0.151,0.52-0.202,0.778h3.931c0-0.259-0.05-0.519-0.151-0.778
		C88.52,108.937,88.47,108.781,88.318,108.573L88.318,108.573z M108.428,68.233c-0.102,0-0.253-0.052-0.354-0.052
		c-0.2,0-0.402,0.052-0.604,0.155c-0.806,0.416-1.159,1.35-0.806,2.181l3.729,9.293c3.629-2.388,6.3-5.918,7.711-9.967
		L108.428,68.233L108.428,68.233z M140.428,108.573c-0.15-0.208-0.353-0.363-0.604-0.467s-0.504-0.208-0.856-0.208
		c-0.354,0-0.605,0.052-0.856,0.155c-0.253,0.104-0.454,0.261-0.605,0.467c-0.15,0.208-0.302,0.416-0.352,0.676
		c-0.103,0.26-0.152,0.52-0.202,0.778h3.931c0-0.259-0.051-0.519-0.15-0.778C140.629,108.937,140.579,108.781,140.428,108.573
		L140.428,108.573z"/>
	<path fill="#5779EF" d="M170.918,46.999L100.01,12.111L29.054,46.999l-3.88,17.289l-13.607,61.106l49.085,62.872h78.719
		l49.085-62.872L170.918,46.999z M69.017,68.597C69.017,68.597,69.068,68.597,69.017,68.597
		C69.068,68.597,69.068,68.545,69.017,68.597c0.202-0.052,0.403-0.104,0.555-0.156c0.655-0.104,1.159-0.104,1.764-0.155
		c1.311-0.156,2.369-0.26,3.326-0.572c0.302-0.104,0.605-0.57,0.807-0.831l0.756-0.208c-0.857-6.177,0.604-12.252,3.779-17.184
		l-0.605-0.572c-0.05-0.259-0.101-0.778-0.353-1.09c-0.705-0.727-1.663-1.298-2.772-1.973c-0.503-0.311-1.007-0.519-1.512-0.934
		c-0.101-0.104-0.252-0.208-0.403-0.312h-0.051c-0.907-0.726-1.108-1.972-0.454-2.803c0.353-0.468,0.907-0.675,1.462-0.675
		c0.454,0,0.907,0.207,1.31,0.52c0.151,0.103,0.302,0.259,0.403,0.363c0.504,0.416,0.806,0.882,1.209,1.35
		c0.907,0.935,1.663,1.766,2.469,2.336c0.454,0.259,0.756,0.155,1.109,0.104c0.101,0.104,0.453,0.363,0.655,0.467
		c3.125-3.426,7.308-5.97,12.095-7.112c1.109-0.26,2.217-0.416,3.326-0.519l0.051-0.831c0.252-0.259,0.504-0.623,0.604-0.986
		c0.101-1.039-0.05-2.128-0.201-3.479c-0.101-0.623-0.252-1.143-0.252-1.817v-0.468v-0.052c0-1.194,0.807-2.129,1.865-2.129
		c1.007,0,1.865,0.936,1.865,2.129v0.52c0,0.674-0.151,1.194-0.253,1.817c-0.15,1.35-0.302,2.44-0.201,3.479
		c0.051,0.519,0.353,0.727,0.604,0.935c0,0.155,0.051,0.571,0.051,0.831c5.896,0.519,11.34,3.322,15.37,7.632l0.707-0.519
		c0.251,0,0.755,0.104,1.107-0.104c0.807-0.572,1.562-1.35,2.471-2.336c0.403-0.468,0.704-0.883,1.21-1.35
		c0.1-0.104,0.301-0.259,0.402-0.364c0.906-0.726,2.116-0.674,2.772,0.156c0.653,0.831,0.452,2.077-0.454,2.804
		c-0.102,0.103-0.303,0.259-0.403,0.363c-0.504,0.416-1.009,0.623-1.562,0.935c-1.108,0.727-2.016,1.298-2.771,1.973
		c-0.353,0.363-0.304,0.726-0.353,1.09c-0.102,0.104-0.454,0.415-0.655,0.623c1.612,2.44,2.771,5.243,3.476,8.254
		c0.656,3.011,0.757,6.022,0.403,8.878l0.757,0.208c0.151,0.208,0.403,0.675,0.807,0.831c0.958,0.312,2.015,0.416,3.326,0.571
		c0.604,0.052,1.108,0,1.764,0.156c0.151,0.051,0.403,0.104,0.555,0.155c1.108,0.26,1.814,1.299,1.562,2.336
		c-0.252,1.039-1.31,1.662-2.368,1.403h-0.051h-0.05c-0.152-0.053-0.354-0.053-0.453-0.105c-0.656-0.155-1.109-0.415-1.664-0.675
		c-1.21-0.467-2.218-0.831-3.225-0.986c-0.505-0.053-0.757,0.208-1.059,0.416c-0.151-0.053-0.554-0.104-0.807-0.156
		c-1.764,5.763-5.543,10.695-10.684,13.81c0.101,0.208,0.252,0.674,0.302,0.779c-0.1,0.311-0.302,0.623-0.15,1.142
		c0.352,0.935,0.957,1.922,1.663,3.012c0.353,0.519,0.705,0.935,1.008,1.505c0.05,0.155,0.151,0.363,0.251,0.519
		c0.454,1.039,0.152,2.232-0.806,2.699c-0.907,0.468-2.065,0-2.57-1.09c-0.05-0.155-0.151-0.363-0.252-0.467
		c-0.251-0.623-0.353-1.143-0.554-1.766c-0.403-1.246-0.757-2.336-1.26-3.218c-0.304-0.417-0.604-0.468-0.958-0.572
		c-0.05-0.104-0.303-0.52-0.402-0.727c-1.008,0.416-2.067,0.727-3.176,0.987c-4.788,1.141-9.626,0.674-13.91-1.039l-0.403,0.778
		c-0.302,0.104-0.604,0.155-0.806,0.416c-0.655,0.831-0.958,2.181-1.412,3.426c-0.202,0.623-0.252,1.143-0.554,1.766
		c-0.051,0.156-0.151,0.312-0.251,0.467c-0.505,1.039-1.613,1.506-2.571,1.091c-0.907-0.468-1.26-1.662-0.807-2.7
		c0.051-0.155,0.151-0.363,0.252-0.518c0.302-0.572,0.655-0.987,1.008-1.506c0.706-1.141,1.31-2.128,1.664-3.115
		c0.1-0.312-0.051-0.779-0.151-1.09l0.353-0.831c-4.939-3.012-8.819-7.788-10.684-13.707l-0.806,0.155
		c-0.201-0.104-0.655-0.416-1.058-0.363c-1.008,0.155-2.016,0.519-3.226,0.986c-0.554,0.208-1.008,0.468-1.663,0.676
		c-0.151,0.051-0.302,0.051-0.503,0.103h-0.05h-0.051c-1.108,0.26-2.167-0.363-2.368-1.401
		C67.253,69.895,67.959,68.856,69.017,68.597L69.017,68.597z M150.154,112.986c-0.302-0.208-0.756-0.415-1.36-0.623
		c-0.454-0.208-0.907-0.364-1.261-0.571c-0.403-0.208-0.705-0.416-0.957-0.727c-0.252-0.26-0.453-0.623-0.605-0.986
		c-0.15-0.363-0.201-0.83-0.201-1.402c0-1.038,0.354-1.868,1.108-2.491c0.757-0.623,1.765-0.935,3.023-0.935
		c0.656,0,1.261,0.052,1.865,0.155c0.605,0.104,1.06,0.259,1.412,0.415l-0.505,2.493c-0.353-0.104-0.705-0.261-1.108-0.364
		s-0.857-0.155-1.36-0.155c-0.957,0-1.411,0.259-1.411,0.831c0,0.103,0,0.259,0.051,0.362c0.05,0.104,0.1,0.208,0.251,0.312
		c0.102,0.104,0.303,0.208,0.505,0.312c0.201,0.104,0.453,0.208,0.806,0.363c0.655,0.26,1.21,0.52,1.613,0.779
		s0.756,0.52,1.007,0.83c0.252,0.312,0.403,0.623,0.504,0.987c0.102,0.363,0.151,0.778,0.151,1.246c0,1.09-0.403,1.921-1.159,2.491
		c-0.756,0.571-1.864,0.831-3.325,0.831c-0.957,0-1.714-0.104-2.319-0.26c-0.604-0.156-1.058-0.312-1.311-0.415l0.506-2.597
		c0.503,0.208,1.008,0.364,1.562,0.52c0.554,0.156,1.059,0.156,1.562,0.156c0.554,0,0.957-0.052,1.158-0.156
		c0.202-0.104,0.353-0.312,0.353-0.675C150.608,113.401,150.456,113.194,150.154,112.986L150.154,112.986z M137.808,113.765
		c0.504,0.364,1.209,0.572,2.016,0.572c0.555,0,1.059-0.053,1.612-0.156c0.504-0.104,0.957-0.26,1.311-0.416l0.403,2.597
		c-0.151,0.104-0.354,0.155-0.654,0.259c-0.304,0.104-0.556,0.156-0.908,0.208s-0.655,0.104-1.058,0.156
		c-0.354,0.051-0.757,0.051-1.109,0.051c-0.957,0-1.764-0.155-2.469-0.467c-0.707-0.312-1.261-0.727-1.765-1.246
		c-0.453-0.519-0.807-1.142-1.007-1.816c-0.202-0.728-0.354-1.454-0.354-2.285c0-0.986,0.151-1.869,0.453-2.595
		c0.304-0.728,0.656-1.351,1.109-1.87c0.453-0.519,1.008-0.882,1.612-1.142c0.605-0.26,1.209-0.363,1.864-0.363
		c1.513,0,2.671,0.467,3.527,1.453c0.857,0.987,1.312,2.389,1.312,4.31v0.623c0,0.207-0.051,0.415-0.051,0.57H136.9
		C137.051,112.883,137.304,113.401,137.808,113.765L137.808,113.765z M132.365,105.562v2.647h-3.578v3.945
		c0,0.675,0.101,1.194,0.353,1.609c0.201,0.416,0.655,0.572,1.31,0.572c0.303,0,0.655-0.053,1.009-0.104s0.654-0.156,0.907-0.26
		l0.403,2.492c-0.354,0.155-0.757,0.312-1.21,0.415c-0.454,0.104-0.957,0.155-1.613,0.155c-0.806,0-1.511-0.104-2.016-0.362
		c-0.554-0.261-0.957-0.572-1.26-0.987c-0.303-0.414-0.554-0.934-0.654-1.505c-0.152-0.571-0.202-1.246-0.202-1.974v-9.397
		l2.974-0.518v3.322h3.578V105.562z M117.649,113.765c0.504,0.364,1.209,0.572,2.016,0.572c0.554,0,1.059-0.053,1.613-0.156
		c0.503-0.104,0.957-0.26,1.31-0.416l0.403,2.597c-0.151,0.104-0.353,0.155-0.655,0.259c-0.302,0.104-0.555,0.156-0.907,0.208
		s-0.655,0.104-1.058,0.156c-0.354,0.051-0.757,0.051-1.109,0.051c-0.957,0-1.764-0.155-2.469-0.467
		c-0.706-0.312-1.26-0.727-1.765-1.246c-0.452-0.519-0.806-1.142-1.007-1.816c-0.202-0.728-0.354-1.454-0.354-2.285
		c0-0.986,0.151-1.869,0.454-2.595c0.302-0.728,0.654-1.351,1.107-1.87c0.454-0.519,1.009-0.882,1.613-1.142s1.21-0.363,1.865-0.363
		c1.511,0,2.67,0.467,3.527,1.453c0.857,0.987,1.311,2.389,1.311,4.31v0.623c0,0.207-0.051,0.415-0.051,0.57h-6.753
		C116.843,112.883,117.146,113.401,117.649,113.765L117.649,113.765z M108.175,108.677c-0.252-0.415-0.706-0.623-1.411-0.623
		c-0.201,0-0.454,0-0.655,0.053c-0.202,0.052-0.452,0.052-0.655,0.052v8.618h-2.973v-10.799c0.503-0.156,1.159-0.312,1.966-0.415
		c0.806-0.104,1.662-0.208,2.52-0.208c0.907,0,1.612,0.104,2.218,0.363c0.604,0.26,1.058,0.623,1.411,1.038
		c0.353,0.467,0.604,0.986,0.756,1.609c0.15,0.623,0.201,1.299,0.201,2.077v6.334h-2.974v-5.918
		C108.527,109.819,108.428,109.093,108.175,108.677z M100.817,105.771l-0.504,2.595c-0.252-0.051-0.604-0.155-0.957-0.207
		c-0.353-0.053-0.756-0.104-1.159-0.104c-0.202,0-0.403,0-0.655,0.053c-0.252,0.052-0.454,0.052-0.605,0.104v8.566h-2.973v-10.591
		c0.554-0.208,1.159-0.364,1.915-0.571c0.706-0.156,1.512-0.26,2.419-0.26c0.151,0,0.353,0,0.605,0.052
		c0.201,0,0.454,0.052,0.655,0.104c0.202,0.053,0.454,0.104,0.655,0.104C100.464,105.665,100.666,105.718,100.817,105.771
		L100.817,105.771z M85.749,113.765c0.504,0.364,1.209,0.572,2.016,0.572c0.554,0,1.058-0.053,1.612-0.156
		c0.504-0.104,0.958-0.26,1.311-0.416l0.403,2.597c-0.151,0.104-0.353,0.155-0.655,0.259c-0.252,0.104-0.555,0.156-0.907,0.208
		c-0.353,0.052-0.655,0.104-1.059,0.156c-0.353,0.051-0.756,0.051-1.108,0.051c-0.958,0-1.764-0.155-2.469-0.467
		c-0.706-0.312-1.26-0.727-1.764-1.246c-0.454-0.519-0.807-1.142-1.008-1.816c-0.202-0.728-0.353-1.454-0.353-2.285
		c0-0.986,0.151-1.869,0.454-2.595c0.302-0.728,0.655-1.351,1.109-1.87c0.454-0.519,1.008-0.882,1.612-1.142
		c0.605-0.26,1.21-0.363,1.865-0.363c1.511,0,2.671,0.467,3.528,1.453c0.856,0.987,1.31,2.389,1.31,4.31v0.623
		c0,0.207-0.05,0.415-0.05,0.57h-6.753C84.942,112.883,85.245,113.401,85.749,113.765L85.749,113.765z M74.258,105.458
		c0.353-0.104,0.756-0.104,1.159-0.104c0.756,0,1.411,0.155,1.965,0.416c0.555,0.259,1.058,0.674,1.462,1.193
		c0.403,0.52,0.655,1.142,0.856,1.817c0.202,0.675,0.302,1.505,0.302,2.389c0,0.882-0.101,1.713-0.353,2.439
		c-0.252,0.728-0.604,1.351-1.058,1.868c-0.454,0.52-1.058,0.884-1.713,1.195s-1.461,0.415-2.318,0.415
		c-0.353,0-0.756,0-1.109-0.053c-0.403-0.051-0.756-0.104-1.159-0.155s-0.756-0.104-1.109-0.207
		c-0.353-0.053-0.655-0.156-0.907-0.261v-15.627l2.974-0.518v5.554C73.553,105.665,73.906,105.562,74.258,105.458L74.258,105.458z
		 M61.71,113.661c0.252,0.468,0.706,0.676,1.411,0.676c0.202,0,0.454,0,0.655-0.053c0.251,0,0.453-0.052,0.655-0.052v-8.618h2.973
		v10.798c-0.503,0.156-1.159,0.312-1.965,0.416c-0.806,0.104-1.663,0.207-2.52,0.207c-0.907,0-1.613-0.104-2.217-0.362
		c-0.605-0.261-1.059-0.623-1.411-1.09c-0.353-0.468-0.605-0.987-0.756-1.662c-0.151-0.623-0.201-1.35-0.201-2.129v-6.229h2.973
		v5.866C61.307,112.467,61.458,113.194,61.71,113.661L61.71,113.661z M50.925,108.573l0.907-1.09
		c0.303-0.364,0.555-0.728,0.807-1.039s0.504-0.623,0.655-0.83h3.528c-0.706,0.882-1.412,1.713-2.066,2.491
		c-0.655,0.779-1.411,1.61-2.218,2.441c0.403,0.362,0.807,0.829,1.26,1.35c0.403,0.519,0.857,1.09,1.26,1.66
		c0.403,0.572,0.755,1.143,1.108,1.715c0.353,0.57,0.604,1.09,0.857,1.557h-3.427c-0.202-0.363-0.454-0.778-0.706-1.245
		c-0.252-0.468-0.554-0.884-0.856-1.351c-0.302-0.468-0.605-0.883-0.958-1.298c-0.353-0.415-0.655-0.779-1.008-1.038v4.932h-2.973
		v-15.99l2.973-0.52v9.346C50.32,109.249,50.623,108.937,50.925,108.573L50.925,108.573z M46.138,157.221v-36.032h107.745v36.032
		H46.138z"/>
	<path fill="#5779EF" d="M120.271,108.573c-0.151-0.208-0.353-0.363-0.605-0.467c-0.252-0.104-0.504-0.208-0.857-0.208
		c-0.352,0-0.604,0.052-0.856,0.155c-0.251,0.104-0.453,0.261-0.604,0.467c-0.151,0.208-0.303,0.416-0.353,0.676
		c-0.101,0.26-0.151,0.52-0.201,0.778h3.931c0-0.259-0.05-0.519-0.152-0.778C120.472,108.937,120.421,108.781,120.271,108.573
		L120.271,108.573z M73.2,114.232c0.151,0.052,0.353,0.052,0.554,0.052s0.454,0.053,0.756,0.053c0.807,0,1.412-0.312,1.865-0.884
		c0.403-0.57,0.604-1.401,0.604-2.388c0-2.024-0.706-3.062-2.116-3.062c-0.302,0-0.605,0.051-0.907,0.104
		c-0.303,0.104-0.555,0.208-0.706,0.312v5.814H73.2z M93.459,69.583c-0.151-0.778-0.807-1.298-1.563-1.298
		c-0.101,0-0.201,0-0.302,0.051l-9.575,1.662c1.461,4.206,4.233,7.632,7.71,9.917l3.679-9.189l-0.05-0.052
		C93.51,70.311,93.51,69.946,93.459,69.583L93.459,69.583z M97.339,65.429l2.671,1.299l2.671-1.299l0.654-2.958l-1.863-2.389h-2.974
		l-1.814,2.336L97.339,65.429z M94.517,54.943c0.252,0.207,0.605,0.311,0.958,0.311c0.856,0,1.612-0.726,1.612-1.609h0.05
		l0.555-10.02c-0.655,0.104-1.31,0.208-1.965,0.364c-3.629,0.83-6.753,2.699-9.172,5.139L94.517,54.943L94.517,54.943z
		 M109.081,59.563c-0.251,0.208-0.453,0.52-0.503,0.883c-0.201,0.882,0.302,1.765,1.159,1.972v0.053l9.374,2.803
		c0.201-2.077,0.1-4.257-0.403-6.385c-0.505-2.181-1.312-4.206-2.368-6.022L109.081,59.563z M90.284,62.522
		c0.353-0.104,0.655-0.312,0.856-0.623c0.555-0.727,0.454-1.713-0.201-2.336v-0.052l-7.257-6.697
		c-2.167,3.635-3.175,7.943-2.722,12.409L90.284,62.522L90.284,62.522z"/>
	<path fill="#FFFFFF" d="M191.528,126.121l-18.142-81.146L100.01,8.84L26.584,44.975l-4.183,18.69l-13.91,62.456l50.799,65.105
		h81.49L191.528,126.121L191.528,126.121z M60.651,188.267l-49.085-62.872l13.658-61.106l3.88-17.289l70.906-34.888l70.908,34.888
		l17.537,78.396l-49.085,62.872H60.651z"/>
	<path fill="#FFFFFF" d="M131.609,145.07H130.5v4.102h1.109c1.159,0,1.966-0.83,1.966-2.024
		C133.625,145.901,132.818,145.07,131.609,145.07z M82.221,129.911H79.6v3.53h2.671c1.26,0,2.016-0.727,2.016-1.765v-0.053
		C84.287,130.534,83.481,129.911,82.221,129.911z"/>
	<path fill="#FFFFFF" d="M153.883,121.188H46.138v36.032h107.745V121.188z M121.731,127.472v12.304h-2.62v-12.304H121.731z
		 M87.311,139.775h-3.074l-2.571-3.945H79.6v3.945h-2.621v-12.304h5.443c1.512,0,2.671,0.415,3.478,1.246
		c0.655,0.674,1.008,1.66,1.008,2.803v0.053c0,1.973-1.059,3.218-2.57,3.79L87.311,139.775L87.311,139.775z M73.351,132.403v2.388
		h-5.644v2.597h6.501v2.388h-9.071v-12.304h9.021v2.388h-6.4v2.492h5.594V132.403z M57.326,148.498c0,1.35-1.008,2.077-2.419,2.077
		c-1.008,0-2.016-0.364-2.772-1.091l0.856-1.038c0.605,0.519,1.21,0.831,1.966,0.831c0.604,0,0.958-0.261,0.958-0.623
		c0-0.364-0.202-0.572-1.31-0.884c-1.311-0.362-2.167-0.727-2.167-2.077c0-1.245,0.958-2.024,2.318-2.024
		c0.958,0,1.764,0.312,2.419,0.884l-0.756,1.141c-0.605-0.415-1.159-0.674-1.713-0.674s-0.857,0.259-0.857,0.571
		c0,0.467,0.303,0.57,1.411,0.882C56.57,146.785,57.326,147.304,57.326,148.498L57.326,148.498z M51.581,133.701
		c0-3.531,2.57-6.387,6.249-6.387c2.268,0,3.578,0.78,4.687,1.922l-1.663,1.973c-0.907-0.883-1.865-1.401-3.074-1.401
		c-2.016,0-3.478,1.713-3.478,3.841v0.053c0,2.129,1.411,3.842,3.478,3.842c1.36,0,2.217-0.57,3.125-1.454l1.663,1.766
		c-1.21,1.35-2.57,2.181-4.888,2.181C54.151,139.982,51.581,137.231,51.581,133.701z M63.575,150.471h-4.989v-6.749h4.939v1.349
		h-3.528v1.351h3.074v1.299h-3.074v1.401h3.578V150.471L63.575,150.471z M68.866,150.471l-1.411-2.181h-1.159v2.181h-1.461v-6.749
		h3.023c0.856,0,1.461,0.259,1.916,0.675c0.353,0.363,0.554,0.935,0.554,1.558c0,1.09-0.554,1.766-1.411,2.077l1.612,2.439H68.866z
		 M75.015,150.522h-1.26l-2.671-6.801h1.613l1.713,4.776l1.713-4.776h1.562L75.015,150.522L75.015,150.522z M80.205,150.471h-1.462
		v-6.749h1.462V150.471z M84.892,150.575c-1.916,0-3.376-1.559-3.376-3.479c0-1.921,1.411-3.479,3.426-3.479
		c1.26,0,1.966,0.415,2.571,1.037l-0.907,1.091c-0.504-0.468-1.008-0.778-1.664-0.778c-1.108,0-1.915,0.934-1.915,2.129
		c0,1.142,0.756,2.128,1.915,2.128c0.756,0,1.21-0.312,1.714-0.778l0.907,0.934C86.908,150.159,86.202,150.575,84.892,150.575
		L84.892,150.575z M93.761,150.471h-4.989v-6.749h4.939v1.349h-3.528v1.351h3.074v1.299h-3.074v1.401h3.578V150.471L93.761,150.471z
		 M95.122,139.775h-2.621v-9.812h-3.628v-2.491h9.877v2.491h-3.628V139.775L95.122,139.775z M103.034,146.058
		c0,1.558-1.158,2.389-2.671,2.389h-1.109v2.024h-1.461v-6.749h2.671C102.127,143.722,103.034,144.655,103.034,146.058
		L103.034,146.058z M103.94,139.775h-2.62v-12.304h2.62V139.775L103.94,139.775z M108.124,150.471l-1.411-2.181h-1.159v2.181h-1.461
		v-6.749h3.023c0.857,0,1.462,0.259,1.915,0.675c0.354,0.363,0.556,0.935,0.556,1.558c0,1.09-0.556,1.766-1.412,2.077l1.613,2.439
		H108.124z M109.989,139.775h-2.62v-12.304h9.07v2.439h-6.45v2.597h5.694v2.439h-5.694V139.775L109.989,139.775z M117.599,147.097
		c0,1.92-1.462,3.479-3.477,3.479c-2.017,0-3.478-1.559-3.478-3.479c0-1.921,1.461-3.479,3.478-3.479
		C116.137,143.618,117.599,145.176,117.599,147.097z M122.235,150.522h-1.261l-2.67-6.801h1.613l1.713,4.776l1.712-4.776h1.563
		L122.235,150.522z M125.106,127.472h9.022v2.388h-6.401v2.492h5.646v2.389h-5.646v2.595h6.501v2.389h-9.07v-12.252H125.106z
		 M127.427,150.471h-1.463v-6.749h1.463V150.471z M135.137,147.097c0,1.92-1.411,3.374-3.478,3.374h-2.571v-6.749h2.571
		C133.675,143.722,135.137,145.176,135.137,147.097z M141.385,150.471h-4.988v-6.749h4.938v1.349h-3.527v1.351h3.074v1.299h-3.074
		v1.401h3.577V150.471L141.385,150.471z M136.951,139.775v-12.304h4.636c3.729,0,6.35,2.647,6.35,6.126v0.051
		c0,3.479-2.57,6.179-6.35,6.179h-4.636V139.775z M146.678,150.471l-1.411-2.181h-1.16v2.181h-1.461v-6.749h3.024
		c0.855,0,1.46,0.259,1.914,0.675c0.353,0.363,0.554,0.935,0.554,1.558c0,1.09-0.554,1.766-1.41,2.077l1.612,2.439H146.678
		L146.678,150.471z"/>
	<path fill="#FFFFFF" d="M145.567,145.07h-1.411v1.922h1.463c0.705,0,1.108-0.364,1.108-0.935
		C146.678,145.383,146.274,145.07,145.567,145.07L145.567,145.07z M67.757,145.07h-1.411v1.922h1.461
		c0.706,0,1.109-0.364,1.109-0.935C68.866,145.383,68.463,145.07,67.757,145.07L67.757,145.07z M100.414,145.07h-1.108v2.077h1.159
		c0.705,0,1.159-0.467,1.159-1.038C101.572,145.435,101.119,145.07,100.414,145.07L100.414,145.07z M107.017,145.07h-1.463v1.922
		h1.463c0.704,0,1.107-0.364,1.107-0.935C108.124,145.383,107.721,145.07,107.017,145.07L107.017,145.07z M114.071,144.968
		c-1.159,0-1.966,0.934-1.966,2.129c0,1.142,0.807,2.128,1.966,2.128c1.158,0,1.965-0.935,1.965-2.128
		C116.087,145.954,115.28,144.968,114.071,144.968z M141.638,129.911h-2.017v7.424h2.017c2.167,0,3.578-1.505,3.578-3.687v-0.051
		C145.216,131.469,143.805,129.911,141.638,129.911L141.638,129.911z"/>
	<path fill="#5779EF" d="M62.567,137.803l-1.663-1.766c-0.958,0.883-1.764,1.454-3.125,1.454c-2.066,0-3.478-1.766-3.478-3.843
		v-0.051c0-2.129,1.461-3.843,3.478-3.843c1.209,0,2.116,0.521,3.074,1.402l1.663-1.973c-1.109-1.142-2.47-1.921-4.687-1.921
		c-3.679,0-6.249,2.855-6.249,6.385v0.053c0,3.53,2.621,6.334,6.148,6.334C59.997,139.982,61.357,139.152,62.567,137.803
		L62.567,137.803z M74.107,129.911v-2.439h-8.97v12.304h9.071v-2.388h-6.501v-2.597h5.644v-2.388h-5.644v-2.492H74.107z
		 M86.958,131.573c0-1.195-0.353-2.182-1.008-2.855c-0.807-0.831-1.965-1.246-3.478-1.246H77.03v12.304h2.62v-3.945h2.067
		l2.57,3.945h3.074l-2.923-4.412C85.9,134.844,86.958,133.598,86.958,131.573L86.958,131.573z M84.287,131.729
		c0,1.038-0.756,1.765-2.016,1.765H79.6v-3.53h2.621C83.481,129.911,84.287,130.534,84.287,131.729z M98.801,127.472h-9.928v2.491
		h3.628v9.812h2.621v-9.812h3.679V127.472z M101.32,127.472h2.62v12.304h-2.62V127.472z M115.684,132.559h-5.694v-2.596h6.45v-2.491
		h-9.07v12.304h2.62v-4.724h5.694V132.559z M119.111,127.472h2.62v12.304h-2.62V127.472z M134.229,137.388h-6.501v-2.597h5.646
		v-2.388h-5.646v-2.492h6.401v-2.439h-9.022v12.304h9.122V137.388z M147.987,133.648c0-3.479-2.57-6.177-6.35-6.177h-4.637v12.304
		h4.637C145.366,139.775,147.987,137.127,147.987,133.648L147.987,133.648z M145.216,133.701c0,2.18-1.462,3.687-3.578,3.687h-2.017
		v-7.425h2.017C143.805,129.911,145.216,131.469,145.216,133.701L145.216,133.701z M55.259,146.421
		c-1.159-0.312-1.411-0.467-1.411-0.883c0-0.312,0.303-0.57,0.857-0.57s1.108,0.259,1.713,0.675l0.756-1.143
		c-0.655-0.57-1.461-0.882-2.419-0.882c-1.361,0-2.318,0.83-2.318,2.024c0,1.35,0.857,1.713,2.167,2.077
		c1.108,0.312,1.31,0.467,1.31,0.882s-0.353,0.623-0.958,0.623c-0.756,0-1.361-0.312-1.966-0.831l-0.856,1.039
		c0.806,0.727,1.814,1.09,2.772,1.09c1.411,0,2.419-0.778,2.419-2.076C57.326,147.304,56.57,146.785,55.259,146.421L55.259,146.421z
		 M59.997,147.72h3.125v-1.299h-3.125v-1.401h3.528v-1.298h-4.939v6.749h4.989v-1.299h-3.578V147.72z M70.327,145.954
		c0-0.676-0.201-1.194-0.554-1.558c-0.454-0.467-1.059-0.675-1.916-0.675h-3.023v6.749h1.461v-2.181h1.159l1.411,2.181h1.713
		l-1.613-2.439C69.773,147.771,70.327,147.044,70.327,145.954L70.327,145.954z M68.866,146.058c0,0.572-0.403,0.935-1.109,0.935
		h-1.461v-1.922h1.411C68.463,145.07,68.866,145.383,68.866,146.058L68.866,146.058z M74.41,148.498l-1.713-4.776h-1.613
		l2.671,6.801h1.26l2.671-6.801h-1.562L74.41,148.498z M78.743,143.722h1.462v6.749h-1.462V143.722z M84.942,149.225
		c-1.108,0-1.915-0.986-1.915-2.128c0-1.143,0.806-2.129,1.915-2.129c0.655,0,1.159,0.311,1.664,0.778l0.907-1.091
		c-0.605-0.622-1.361-1.037-2.571-1.037c-2.016,0-3.426,1.558-3.426,3.479c0,1.92,1.411,3.479,3.376,3.479
		c1.26,0,2.016-0.469,2.67-1.195l-0.907-0.934C86.152,148.913,85.698,149.225,84.942,149.225L84.942,149.225z M90.184,147.72h3.125
		v-1.299h-3.125v-1.401h3.528v-1.298h-4.939v6.749h4.989v-1.299h-3.578V147.72z M100.564,143.722h-2.671v6.749h1.462v-2.024h1.108
		c1.462,0,2.671-0.831,2.671-2.389C103.034,144.655,102.127,143.722,100.564,143.722L100.564,143.722z M101.572,146.109
		c0,0.571-0.403,1.038-1.159,1.038h-1.159v-2.077h1.109C101.119,145.07,101.572,145.435,101.572,146.109L101.572,146.109z
		 M109.587,145.954c0-0.676-0.202-1.194-0.556-1.558c-0.453-0.467-1.058-0.675-1.915-0.675h-3.023v6.749h1.461v-2.181h1.159
		l1.411,2.181h1.714l-1.613-2.439C109.031,147.771,109.587,147.044,109.587,145.954L109.587,145.954z M108.124,146.058
		c0,0.572-0.403,0.935-1.107,0.935h-1.463v-1.922h1.412C107.721,145.07,108.124,145.383,108.124,146.058L108.124,146.058z
		 M114.122,143.618c-2.017,0-3.478,1.558-3.478,3.479c0,1.92,1.461,3.479,3.478,3.479c2.015,0,3.477-1.559,3.477-3.479
		C117.599,145.176,116.137,143.618,114.122,143.618z M116.087,147.097c0,1.142-0.807,2.128-1.965,2.128
		c-1.159,0-1.966-0.986-1.966-2.128c0-1.143,0.807-2.129,1.966-2.129C115.28,144.968,116.087,145.954,116.087,147.097z
		 M121.631,148.498l-1.713-4.776h-1.613l2.67,6.801h1.261l2.671-6.801h-1.563L121.631,148.498z M125.964,143.722h1.463v6.749h-1.463
		V143.722z M131.609,143.722h-2.57v6.749h2.57c2.065,0,3.477-1.454,3.477-3.374C135.137,145.176,133.675,143.722,131.609,143.722z
		 M133.625,147.097c0,1.193-0.807,2.024-1.966,2.024h-1.108v-4.102h1.108C132.818,145.07,133.625,145.901,133.625,147.097z
		 M137.857,147.72h3.074v-1.299h-3.074v-1.401h3.478v-1.298h-4.938v6.749h4.988v-1.299h-3.527V147.72z M148.138,145.954
		c0-0.676-0.201-1.194-0.554-1.558c-0.454-0.467-1.058-0.675-1.914-0.675h-3.024v6.749h1.461v-2.181h1.16l1.411,2.181h1.713
		l-1.613-2.439C147.584,147.771,148.138,147.044,148.138,145.954L148.138,145.954z M146.678,146.058c0,0.572-0.403,0.935-1.11,0.935
		h-1.461v-1.922h1.411C146.274,145.07,146.678,145.383,146.678,146.058L146.678,146.058z"/>
	<path fill="#FFFFFF" d="M47.045,100.785v15.991h2.973v-4.88c0.353,0.259,0.655,0.623,1.008,1.038
		c0.352,0.415,0.655,0.83,0.957,1.298c0.302,0.467,0.605,0.883,0.857,1.351c0.252,0.467,0.504,0.882,0.706,1.245h3.427
		c-0.252-0.467-0.504-0.986-0.856-1.557c-0.353-0.572-0.706-1.143-1.108-1.715c-0.403-0.57-0.807-1.142-1.26-1.66
		c-0.403-0.521-0.857-0.987-1.26-1.35c0.807-0.831,1.512-1.662,2.218-2.441c0.705-0.778,1.36-1.609,2.066-2.491h-3.527
		c-0.202,0.26-0.403,0.519-0.655,0.83s-0.554,0.675-0.806,1.039l-0.907,1.09c-0.302,0.363-0.605,0.727-0.907,1.038v-9.344
		L47.045,100.785z M58.334,105.562v6.229c0,0.779,0.05,1.453,0.201,2.129c0.151,0.623,0.403,1.194,0.756,1.662
		c0.353,0.467,0.806,0.829,1.411,1.09c0.604,0.259,1.36,0.362,2.217,0.362s1.713-0.051,2.52-0.206
		c0.807-0.156,1.462-0.261,1.965-0.417v-10.798h-2.973v8.618c-0.202,0.052-0.403,0.052-0.655,0.052
		c-0.252,0-0.454,0.053-0.655,0.053c-0.706,0-1.159-0.208-1.411-0.676c-0.252-0.467-0.403-1.194-0.403-2.232v-5.866H58.334
		L58.334,105.562z M70.227,100.785v15.627c0.252,0.104,0.555,0.156,0.907,0.261c0.353,0.104,0.706,0.156,1.109,0.207
		c0.403,0.052,0.755,0.104,1.159,0.155c0.403,0.053,0.756,0.053,1.109,0.053c0.857,0,1.663-0.156,2.318-0.415
		c0.655-0.261,1.26-0.676,1.713-1.195c0.454-0.518,0.806-1.141,1.058-1.868c0.252-0.727,0.353-1.558,0.353-2.439
		c0-0.884-0.101-1.662-0.303-2.389c-0.201-0.728-0.504-1.351-0.856-1.817c-0.403-0.52-0.856-0.883-1.461-1.193
		c-0.555-0.261-1.209-0.416-1.965-0.416c-0.403,0-0.806,0.052-1.159,0.104s-0.706,0.207-1.059,0.363v-5.554L70.227,100.785
		L70.227,100.785z M73.956,108.158c0.302-0.104,0.605-0.104,0.907-0.104c1.411,0,2.116,1.039,2.116,3.063
		c0,0.987-0.202,1.766-0.604,2.389c-0.403,0.57-1.008,0.882-1.865,0.882c-0.252,0-0.504,0-0.756-0.051
		c-0.252,0-0.403-0.053-0.555-0.053v-5.764C73.401,108.365,73.653,108.262,73.956,108.158L73.956,108.158z M91.645,111.637v-0.623
		c0-1.87-0.454-3.322-1.31-4.31c-0.857-0.986-2.067-1.453-3.528-1.453c-0.655,0-1.26,0.104-1.865,0.363
		c-0.604,0.26-1.159,0.623-1.612,1.142c-0.454,0.52-0.857,1.143-1.109,1.87c-0.302,0.726-0.454,1.608-0.454,2.595
		c0,0.831,0.101,1.609,0.353,2.285c0.201,0.727,0.554,1.298,1.008,1.816c0.454,0.52,1.059,0.935,1.764,1.246
		c0.705,0.312,1.512,0.467,2.469,0.467c0.353,0,0.755,0,1.108-0.051l1.059-0.156c0.353-0.052,0.605-0.155,0.907-0.208
		c0.252-0.104,0.504-0.155,0.655-0.259l-0.403-2.597c-0.353,0.156-0.756,0.312-1.311,0.416c-0.504,0.104-1.059,0.156-1.612,0.156
		c-0.857,0-1.512-0.208-2.016-0.572c-0.504-0.363-0.807-0.882-0.856-1.558h6.752V111.637L91.645,111.637z M84.841,110.078
		c0.051-0.259,0.101-0.519,0.202-0.778c0.101-0.259,0.202-0.467,0.353-0.674c0.151-0.208,0.353-0.364,0.605-0.468
		c0.252-0.104,0.504-0.155,0.857-0.155c0.353,0,0.655,0.051,0.856,0.207c0.252,0.104,0.403,0.311,0.604,0.467
		s0.252,0.416,0.353,0.675c0.101,0.26,0.101,0.52,0.151,0.779h-3.981V110.078z M98.902,105.406c-0.252,0-0.403-0.052-0.605-0.052
		c-0.907,0-1.713,0.104-2.419,0.26c-0.706,0.156-1.361,0.363-1.915,0.571v10.591h2.973v-8.566c0.151-0.052,0.353-0.104,0.605-0.104
		c0.252-0.052,0.504-0.052,0.655-0.052c0.403,0,0.806,0.052,1.159,0.104c0.353,0.104,0.655,0.156,0.957,0.207l0.504-2.595
		c-0.151-0.053-0.353-0.156-0.605-0.156c-0.252-0.052-0.453-0.104-0.655-0.104C99.355,105.458,99.103,105.406,98.902,105.406
		L98.902,105.406z M111.501,116.776v-6.334c0-0.778-0.05-1.454-0.202-2.077c-0.15-0.623-0.402-1.143-0.755-1.609
		c-0.353-0.468-0.807-0.778-1.411-1.038c-0.605-0.26-1.361-0.363-2.218-0.363s-1.714,0.052-2.521,0.208
		c-0.806,0.155-1.462,0.259-1.965,0.415v10.799h2.974v-8.618c0.202-0.053,0.403-0.053,0.655-0.053c0.251,0,0.453-0.052,0.654-0.052
		c0.707,0,1.16,0.208,1.411,0.623c0.253,0.416,0.403,1.143,0.403,2.182v5.918H111.501L111.501,116.776z M123.596,111.637v-0.623
		c0-1.87-0.453-3.322-1.31-4.31c-0.857-0.986-2.067-1.453-3.528-1.453c-0.654,0-1.26,0.104-1.864,0.363s-1.159,0.623-1.613,1.142
		c-0.454,0.52-0.857,1.143-1.107,1.87c-0.253,0.726-0.454,1.608-0.454,2.595c0,0.831,0.101,1.609,0.353,2.285
		c0.201,0.727,0.554,1.298,1.008,1.816c0.454,0.52,1.058,0.935,1.764,1.246c0.705,0.312,1.512,0.467,2.47,0.467
		c0.353,0,0.756,0,1.108-0.051l1.059-0.156c0.353-0.052,0.605-0.155,0.906-0.208c0.304-0.052,0.506-0.155,0.656-0.259l-0.403-2.597
		c-0.353,0.156-0.756,0.312-1.311,0.416c-0.504,0.104-1.058,0.156-1.612,0.156c-0.857,0-1.513-0.208-2.016-0.572
		c-0.505-0.363-0.807-0.882-0.857-1.558h6.753C123.545,112.052,123.545,111.844,123.596,111.637L123.596,111.637z M116.793,110.078
		c0.05-0.259,0.101-0.519,0.201-0.778c0.101-0.259,0.201-0.467,0.353-0.674c0.151-0.208,0.354-0.364,0.604-0.468
		c0.252-0.104,0.505-0.155,0.856-0.155c0.354,0,0.656,0.051,0.857,0.207l0.605,0.467c0.15,0.208,0.251,0.416,0.352,0.675
		c0.102,0.26,0.102,0.52,0.151,0.779h-3.98V110.078z M125.813,102.81v9.397c0,0.728,0.05,1.402,0.202,1.974
		c0.15,0.571,0.352,1.091,0.654,1.505c0.303,0.415,0.757,0.727,1.26,0.987c0.555,0.259,1.21,0.362,2.016,0.362
		c0.656,0,1.159-0.051,1.613-0.155c0.454-0.104,0.856-0.26,1.21-0.415l-0.403-2.492c-0.303,0.104-0.605,0.208-0.907,0.26
		c-0.303,0.052-0.655,0.104-1.009,0.104c-0.654,0-1.108-0.208-1.31-0.572c-0.202-0.415-0.353-0.935-0.353-1.609v-3.945h3.578v-2.647
		h-3.578v-3.323L125.813,102.81L125.813,102.81z M143.754,111.637v-0.623c0-1.87-0.453-3.322-1.311-4.31
		c-0.856-0.986-2.065-1.453-3.526-1.453c-0.656,0-1.261,0.104-1.866,0.363c-0.604,0.26-1.158,0.623-1.612,1.142
		c-0.453,0.52-0.855,1.143-1.108,1.87c-0.252,0.726-0.454,1.608-0.454,2.595c0,0.831,0.102,1.609,0.353,2.285
		c0.202,0.727,0.556,1.298,1.008,1.816c0.454,0.52,1.06,0.935,1.765,1.246c0.706,0.312,1.513,0.467,2.47,0.467
		c0.353,0,0.755,0,1.108-0.051l1.059-0.156c0.352-0.052,0.604-0.155,0.907-0.208c0.302-0.052,0.504-0.155,0.654-0.259l-0.403-2.597
		c-0.353,0.156-0.755,0.312-1.31,0.416c-0.505,0.104-1.059,0.156-1.612,0.156c-0.857,0-1.513-0.208-2.017-0.572
		c-0.503-0.363-0.807-0.882-0.856-1.558h6.753V111.637L143.754,111.637z M136.951,110.078c0.05-0.259,0.1-0.519,0.202-0.778
		c0.1-0.259,0.201-0.467,0.352-0.674c0.151-0.208,0.353-0.364,0.605-0.468c0.251-0.104,0.503-0.155,0.856-0.155
		c0.353,0,0.654,0.051,0.856,0.207l0.604,0.467c0.151,0.208,0.253,0.416,0.354,0.675c0.101,0.26,0.101,0.52,0.15,0.779h-3.98
		V110.078z M150.255,114.337c-0.252,0.103-0.604,0.155-1.159,0.155c-0.504,0-1.058-0.053-1.562-0.155
		c-0.503-0.104-1.057-0.312-1.562-0.52l-0.503,2.595c0.252,0.104,0.655,0.261,1.31,0.416c0.656,0.156,1.411,0.26,2.318,0.26
		c1.411,0,2.521-0.26,3.327-0.831c0.756-0.571,1.159-1.402,1.159-2.492c0-0.467-0.052-0.882-0.152-1.245
		c-0.101-0.364-0.251-0.676-0.504-0.987c-0.252-0.312-0.604-0.57-1.008-0.831c-0.403-0.259-0.957-0.519-1.613-0.778
		c-0.302-0.104-0.604-0.259-0.806-0.363c-0.201-0.104-0.353-0.208-0.504-0.311c-0.101-0.105-0.201-0.208-0.252-0.312
		c-0.05-0.104-0.05-0.208-0.05-0.363c0-0.57,0.453-0.831,1.411-0.831c0.504,0,0.957,0.053,1.36,0.156
		c0.403,0.104,0.807,0.207,1.108,0.363l0.503-2.491c-0.352-0.156-0.805-0.261-1.41-0.416c-0.604-0.104-1.21-0.156-1.864-0.156
		c-1.261,0-2.269,0.312-3.024,0.935c-0.755,0.623-1.107,1.454-1.107,2.493c0,0.518,0.05,0.985,0.201,1.401
		c0.151,0.362,0.353,0.727,0.605,0.986c0.251,0.26,0.604,0.519,0.957,0.727c0.403,0.208,0.807,0.415,1.26,0.571
		c0.604,0.26,1.058,0.467,1.36,0.623c0.302,0.207,0.453,0.415,0.453,0.675C150.608,114.025,150.507,114.232,150.255,114.337
		L150.255,114.337z M69.823,72.284C69.874,72.284,69.874,72.284,69.823,72.284h0.051c0.151-0.053,0.353-0.053,0.504-0.105
		c0.655-0.155,1.109-0.415,1.663-0.675c1.209-0.467,2.217-0.831,3.226-0.986c0.403-0.053,0.856,0.259,1.058,0.363l0.807-0.155
		c1.865,5.918,5.745,10.695,10.684,13.706l-0.352,0.831c0.1,0.313,0.251,0.78,0.151,1.091c-0.353,0.934-0.958,1.972-1.663,3.114
		c-0.353,0.52-0.706,0.935-1.008,1.505c-0.05,0.156-0.151,0.364-0.251,0.521c-0.454,1.038-0.151,2.232,0.806,2.699
		c0.907,0.467,2.066,0,2.57-1.09c0.05-0.157,0.151-0.364,0.252-0.468c0.252-0.623,0.353-1.141,0.555-1.764
		c0.504-1.247,0.756-2.597,1.411-3.427c0.202-0.208,0.505-0.312,0.807-0.416l0.403-0.778c4.284,1.713,9.122,2.128,13.91,1.038
		c1.108-0.259,2.167-0.571,3.175-0.986c0.1,0.208,0.353,0.624,0.403,0.727c0.302,0.104,0.655,0.156,0.957,0.572
		c0.504,0.882,0.857,1.921,1.261,3.218c0.202,0.623,0.252,1.143,0.554,1.766c0.051,0.155,0.151,0.363,0.252,0.467
		c0.504,1.039,1.613,1.558,2.571,1.091c0.906-0.468,1.259-1.662,0.806-2.7c-0.05-0.155-0.152-0.363-0.252-0.519
		c-0.304-0.572-0.655-0.987-1.008-1.505c-0.706-1.143-1.261-2.077-1.664-3.012c-0.15-0.519,0.051-0.778,0.151-1.143
		c-0.05-0.103-0.201-0.57-0.302-0.778c5.14-3.115,8.869-8.099,10.684-13.81c0.252,0.052,0.655,0.104,0.807,0.156
		c0.302-0.208,0.554-0.416,1.059-0.416c1.007,0.155,2.015,0.52,3.225,0.986c0.555,0.208,1.008,0.468,1.663,0.675
		c0.15,0.052,0.303,0.052,0.454,0.103h0.1c1.11,0.26,2.168-0.363,2.368-1.401c0.202-1.039-0.452-2.025-1.562-2.336
		c-0.15-0.051-0.403-0.104-0.554-0.155c-0.656-0.104-1.159-0.104-1.764-0.156c-1.311-0.155-2.369-0.259-3.326-0.571
		c-0.403-0.156-0.655-0.623-0.807-0.831l-0.756-0.208c0.403-2.908,0.302-5.866-0.402-8.877c-0.656-3.012-1.865-5.815-3.479-8.255
		c0.201-0.156,0.554-0.519,0.656-0.623c0.05-0.363,0-0.675,0.352-1.091c0.706-0.726,1.664-1.298,2.772-1.972
		c0.504-0.312,1.008-0.52,1.562-0.935c0.102-0.104,0.304-0.259,0.403-0.364c0.907-0.726,1.108-1.972,0.454-2.803
		c-0.656-0.831-1.865-0.882-2.771-0.155c-0.151,0.103-0.303,0.259-0.403,0.363c-0.504,0.415-0.807,0.882-1.21,1.35
		c-0.907,0.935-1.663,1.765-2.469,2.336c-0.354,0.208-0.907,0.155-1.109,0.104l-0.706,0.519c-4.031-4.362-9.475-7.112-15.371-7.632
		c0-0.259-0.05-0.726-0.05-0.83c-0.251-0.26-0.555-0.415-0.604-0.935c-0.101-1.039,0.05-2.128,0.201-3.479
		c0.102-0.623,0.252-1.143,0.252-1.817v-0.519c0-1.195-0.807-2.129-1.865-2.129c-1.008,0-1.864,0.934-1.864,2.129v0.519
		c0,0.674,0.151,1.194,0.252,1.817c0.151,1.35,0.302,2.44,0.202,3.479c-0.101,0.363-0.353,0.727-0.605,0.986l-0.05,0.831
		c-1.109,0.104-2.217,0.26-3.326,0.52c-4.787,1.142-8.92,3.686-12.095,7.112c-0.202-0.155-0.555-0.415-0.655-0.467
		c-0.354,0.052-0.656,0.155-1.109-0.104c-0.807-0.572-1.562-1.35-2.469-2.336c-0.403-0.468-0.706-0.883-1.21-1.35
		c-0.101-0.104-0.302-0.259-0.403-0.364c-0.403-0.311-0.856-0.467-1.31-0.518c-0.555,0-1.109,0.208-1.462,0.674
		c-0.655,0.831-0.454,2.077,0.454,2.804h0.05c0.101,0.103,0.252,0.208,0.403,0.311c0.504,0.415,1.008,0.623,1.512,0.936
		c1.109,0.726,2.016,1.298,2.771,1.972c0.303,0.312,0.353,0.883,0.353,1.09l0.605,0.572c-3.175,4.933-4.636,11.006-3.78,17.184
		l-0.756,0.208c-0.202,0.259-0.504,0.675-0.806,0.83c-0.958,0.312-2.016,0.415-3.326,0.571c-0.605,0.052-1.109,0-1.764,0.155
		c-0.151,0.053-0.353,0.104-0.504,0.104h-0.05c-1.109,0.259-1.814,1.298-1.562,2.336C67.707,71.919,68.765,72.542,69.823,72.284
		L69.823,72.284z M93.409,70.622l-3.679,9.189c-3.478-2.285-6.199-5.71-7.71-9.916l9.575-1.662c0.101,0,0.202-0.052,0.302-0.052
		c0.756,0,1.412,0.519,1.563,1.298C93.51,69.946,93.51,70.311,93.409,70.622L93.409,70.622z M104.294,82.51
		c-3.578,0.831-7.207,0.572-10.432-0.57l4.687-8.774c0.303-0.519,0.807-0.882,1.361-0.882c0.252,0,0.504,0.051,0.756,0.155
		c0.302,0.155,0.554,0.415,0.756,0.727h0.051l4.687,8.774C105.554,82.147,104.949,82.355,104.294,82.51L104.294,82.51z
		 M110.393,79.863l-3.729-9.293c-0.354-0.831,0-1.764,0.806-2.18c0.202-0.104,0.404-0.156,0.604-0.156c0.151,0,0.253,0,0.354,0.052
		l9.625,1.661C116.692,73.997,113.971,77.526,110.393,79.863L110.393,79.863z M118.708,58.836c0.503,2.181,0.604,4.31,0.403,6.387
		l-9.374-2.804v-0.051c-0.857-0.26-1.36-1.091-1.159-1.973c0.1-0.363,0.252-0.675,0.503-0.883l7.208-6.645
		C117.396,54.683,118.203,56.655,118.708,58.836z M113.416,49.127l-7.912,5.763h-0.051c-0.706,0.52-1.714,0.416-2.217-0.312
		c-0.202-0.312-0.354-0.623-0.354-0.987l-0.554-9.968C106.562,44.144,110.442,46.117,113.416,49.127z M98.499,60.083h2.974
		l1.863,2.389l-0.654,2.958l-2.671,1.299l-2.671-1.35l-0.655-2.959L98.499,60.083L98.499,60.083z M95.727,43.988
		c0.655-0.156,1.31-0.26,1.965-0.364l-0.555,10.02h-0.05c-0.05,0.883-0.756,1.609-1.612,1.609c-0.353,0-0.706-0.104-0.958-0.311
		l-7.962-5.816C88.974,46.636,92.098,44.818,95.727,43.988L95.727,43.988z M83.632,52.866l7.257,6.697v0.053
		c0.655,0.57,0.756,1.609,0.202,2.336c-0.202,0.312-0.504,0.467-0.856,0.571v0.051l-9.323,2.753
		C80.457,60.81,81.515,56.449,83.632,52.866L83.632,52.866z"/>
</g>
<g>
</g>
<g>
</g>
<g>
</g>
<g>
</g>
<g>
</g>
<g>
</g>
<g>
</g>
<g>
</g>
<g>
</g>
<g>
</g>
<g>
</g>
<g>
</g>
<g>
</g>
<g>
</g>
<g>
</g>
</svg>
