<svg xmlns="http://www.w3.org/2000/svg" 
  xmlns:xlink="http://www.w3.org/1999/xlink" width="100" height="14" viewBox="0 0 100 14">
  <defs>
    <path id="logo-oddschecker-a" d="M8.31834061,8.26419214 C8.31834061,8.26419214 8.25283843,8.36244541 8.08908297,8.55895197 C7.1720524,9.50873362 6.05851528,9.96724891 4.78122271,9.96724891 C3.50393013,9.96724891 2.39039301,9.50873362 1.47336245,8.55895197 C0.556331878,7.60917031 0.0978165939,6.49563319 0.0978165939,5.18558952 C0.0978165939,3.87554585 0.556331878,2.72925764 1.47336245,1.81222707 C2.39039301,0.862445415 3.50393013,0.403930131 4.78122271,0.403930131 C6.09126638,0.403930131 7.1720524,0.862445415 8.08908297,1.81222707 C8.28558952,2.00873362 8.08908297,1.81222707 8.3510917,2.1069869 L7.33580786,3.54803493 C7.00829694,3.22052402 6.94279476,3.15502183 6.84454148,3.05676856 C6.25502183,2.5 5.56724891,2.17248908 4.78122271,2.17248908 C3.96244541,2.17248908 3.27467249,2.46724891 2.71790393,3.05676856 C2.12838428,3.64628821 1.86637555,4.36681223 1.86637555,5.18558952 C1.86637555,6.00436681 2.16113537,6.72489083 2.71790393,7.31441048 C3.27467249,7.90393013 3.99519651,8.19868996 4.78122271,8.19868996 C5.6,8.19868996 6.28777293,7.90393013 6.87729258,7.31441048 C6.97554585,7.21615721 7.10655022,7.08515284 7.33580786,6.8231441 L8.31834061,8.26419214"/>
    <path id="logo-oddschecker-c" d="M1.87729258,1.74672489 C2.49956332,0.76419214 3.80960699,0.469432314 5.08689956,0.371179039 L5.08689956,2.20524017 C4.46462882,2.23799127 3.12183406,2.46724891 2.76157205,2.8930131 C2.20480349,3.51528384 1.91004367,4.23580786 1.91004367,5.08733624 L1.91004367,9.93449782 L0.2069869,9.93449782 L0.2069869,0.371179039 L1.91004367,0.371179039 L1.87729258,1.74672489"/>
    <path id="logo-oddschecker-e" d="M8.52576419,8.26419214 C8.52576419,8.26419214 8.46026201,8.36244541 8.29650655,8.55895197 C7.37947598,9.50873362 6.26593886,9.96724891 4.98864629,9.96724891 C3.71135371,9.96724891 2.59781659,9.50873362 1.68078603,8.55895197 C0.763755459,7.60917031 0.305240175,6.49563319 0.305240175,5.15283843 C0.305240175,3.84279476 0.763755459,2.69650655 1.68078603,1.74672489 C2.59781659,0.796943231 3.71135371,0.338427948 4.98864629,0.338427948 C6.29868996,0.338427948 7.37947598,0.796943231 8.29650655,1.74672489 C8.4930131,1.94323144 8.29650655,1.74672489 8.55851528,2.04148472 L7.54323144,3.48253275 C7.21572052,3.15502183 7.15021834,3.08951965 7.05196507,2.99126638 C6.46244541,2.43449782 5.77467249,2.1069869 4.98864629,2.1069869 C4.169869,2.1069869 3.48209607,2.40174672 2.92532751,2.99126638 C2.36855895,3.58078603 2.07379913,4.30131004 2.07379913,5.12008734 C2.07379913,5.93886463 2.36855895,6.65938865 2.92532751,7.2489083 C3.48209607,7.83842795 4.20262009,8.13318777 4.98864629,8.13318777 C5.80742358,8.13318777 6.49519651,7.83842795 7.08471616,7.2489083 C7.18296943,7.15065502 7.3139738,7.01965066 7.54323144,6.75764192"/>
    <path id="logo-oddschecker-g" d="M7.94716157,9.30131004 C7.94716157,9.82532751 7.58689956,10.3165939 7.16113537,10.7751092 C6.60436681,11.3646288 5.91659389,11.6593886 5.09781659,11.6593886 C4.2790393,11.6593886 3.59126638,11.3646288 3.03449782,10.7751092 C2.47772926,10.1855895 2.18296943,9.49781659 2.18296943,8.64628821 C2.18296943,7.82751092 2.47772926,7.1069869 3.03449782,6.51746725 C3.59126638,5.9279476 4.31179039,5.63318777 5.09781659,5.63318777 C5.91659389,5.63318777 6.60436681,5.9279476 7.16113537,6.51746725 C7.58689956,6.97598253 7.94716157,7.46724891 7.94716157,7.99126638 L7.94716157,9.30131004 Z M7.94716157,5.17467249 C7.25938865,4.3231441 6.17860262,3.86462882 5.0650655,3.86462882 C3.75502183,3.86462882 2.67423581,4.3231441 1.75720524,5.27292576 C0.840174672,6.22270742 0.381659389,7.33624454 0.381659389,8.64628821 C0.381659389,9.95633188 0.840174672,11.1026201 1.75720524,12.0196507 C2.67423581,12.9366812 3.75502183,13.4279476 5.0650655,13.4279476 C6.14585153,13.4279476 7.25938865,13.0021834 7.94716157,12.1179039 L7.94716157,13.3951965 L9.68296943,13.3951965 L9.68296943,0 L7.94716157,0 L7.94716157,5.17467249 Z"/>
    <path id="logo-oddschecker-i" d="M7.73973799,9.30131004 C7.60873362,9.82532751 7.37947598,10.3165939 6.95371179,10.7751092 C6.39694323,11.3646288 5.70917031,11.6593886 4.89039301,11.6593886 C4.07161572,11.6593886 3.38384279,11.3646288 2.82707424,10.7751092 C2.23755459,10.1855895 1.97554585,9.49781659 1.97554585,8.64628821 C1.97554585,7.82751092 2.27030568,7.1069869 2.82707424,6.51746725 C3.38384279,5.9279476 4.10436681,5.63318777 4.89039301,5.63318777 C5.70917031,5.63318777 6.39694323,5.9279476 6.95371179,6.51746725 C7.37947598,6.97598253 7.60873362,7.46724891 7.73973799,7.99126638 L7.73973799,9.30131004 Z M7.73973799,5.17467249 C6.9209607,4.29039301 5.97117904,3.86462882 4.89039301,3.86462882 C3.58034934,3.86462882 2.49956332,4.3231441 1.58253275,5.27292576 C0.665502183,6.22270742 0.2069869,7.33624454 0.2069869,8.64628821 C0.2069869,9.95633188 0.665502183,11.1026201 1.58253275,12.0196507 C2.49956332,12.9694323 3.58034934,13.4279476 4.89039301,13.4279476 C5.97117904,13.4279476 6.95371179,13.0021834 7.73973799,12.1179039 L7.73973799,13.4279476 L9.47554585,13.4279476 L9.47554585,0.0327510917 L7.73973799,0.0327510917 L7.73973799,5.17467249 Z"/>
    <path id="logo-oddschecker-k" d="M2.93624454,7.54366812 C2.54323144,7.2489083 2.21572052,6.8558952 2.01921397,6.36462882 C1.69170306,5.61135371 1.69170306,4.8580786 1.98646288,4.0720524 C2.28122271,3.31877729 2.80524017,2.76200873 3.59126638,2.43449782 C4.34454148,2.1069869 5.13056769,2.1069869 5.88384279,2.40174672 C6.08034934,2.46724891 6.2441048,2.56550218 6.40786026,2.66375546 L7.4231441,1.18995633 C7.16113537,1.02620087 6.86637555,0.862445415 6.53886463,0.731441048 C5.32707424,0.240174672 4.11528384,0.272925764 2.90349345,0.796943231 C1.69170306,1.3209607 0.840174672,2.20524017 0.348908297,3.41703057 C-0.142358079,4.62882096 -0.109606987,5.84061135 0.41441048,7.05240175 C0.774672489,7.87117904 1.26593886,8.49344978 1.9209607,8.98471616 L2.93624454,7.54366812"/>
    <path id="logo-oddschecker-m" d="M7.41222707,1.97598253 C7.05196507,1.15720524 6.5279476,0.502183406 5.87292576,0.0109170306 L4.85764192,1.48471616 C5.28340611,1.77947598 5.57816594,2.20524017 5.80742358,2.69650655 C6.1349345,3.44978166 6.1349345,4.20305677 5.84017467,4.98908297 C5.54541485,5.74235808 4.98864629,6.29912664 4.23537118,6.62663755 C3.48209607,6.95414847 2.72882096,6.95414847 1.94279476,6.65938865 C1.74628821,6.59388646 1.58253275,6.49563319 1.3860262,6.39737991 L0.337991266,7.87117904 C0.632751092,8.06768559 0.927510917,8.19868996 1.25502183,8.32969432 C2.46681223,8.8209607 3.71135371,8.78820961 4.9231441,8.26419214 C6.1349345,7.74017467 6.98646288,6.8558952 7.47772926,5.6441048 C7.93624454,4.39956332 7.93624454,3.18777293 7.41222707,1.97598253"/>
    <path id="logo-oddschecker-o" d="M2.3139738,4.13755459 C2.44497817,3.74454148 2.67423581,3.35152838 3.00174672,3.02401747 C3.55851528,2.46724891 4.24628821,2.17248908 4.99956332,2.13973799 C5.75283843,2.13973799 6.44061135,2.43449782 6.96462882,3.02401747 C7.4231441,3.51528384 7.68515284,3.87554585 7.71790393,4.10480349 L2.3139738,4.13755459 L2.3139738,4.13755459 Z M9.51921397,5.87336245 C9.55196507,5.48034934 9.55196507,5.2510917 9.55196507,5.15283843 C9.55196507,4.95633188 9.55196507,4.75982533 9.51921397,4.59606987 C9.4209607,3.51528384 8.96244541,2.56550218 8.20917031,1.77947598 C7.52139738,1.05895197 6.73537118,0.633187773 5.8510917,0.469432314 C5.62183406,0.403930131 5.35982533,0.403930131 5.09781659,0.403930131 C5.0650655,0.403930131 5.0650655,0.403930131 5.03231441,0.403930131 C4.99956332,0.403930131 4.99956332,0.403930131 4.96681223,0.403930131 C3.68951965,0.403930131 2.64148472,0.862445415 1.72445415,1.81222707 C0.840174672,2.72925764 0.41441048,3.84279476 0.381659389,5.12008734 C0.381659389,5.15283843 0.381659389,5.18558952 0.381659389,5.18558952 C0.381659389,6.49563319 0.840174672,7.6419214 1.72445415,8.55895197 C2.60873362,9.50873362 3.68951965,9.96724891 4.96681223,9.96724891 L5.0650655,9.96724891 C6.37510917,9.96724891 7.4558952,9.50873362 8.37292576,8.55895197 L7.12838428,7.28165939 C6.70262009,7.70742358 6.21135371,8.00218341 5.65458515,8.10043668 C5.39257642,8.13318777 5.19606987,8.13318777 5.0650655,8.16593886 C4.24628821,8.16593886 3.55851528,7.87117904 3.00174672,7.28165939 C2.60873362,6.88864629 2.34672489,6.39737991 2.21572052,5.87336245 L9.51921397,5.87336245 L9.51921397,5.87336245 Z"/>
    <path id="logo-oddschecker-q" d="M2.1720524,4.13755459 C2.30305677,3.74454148 2.53231441,3.35152838 2.85982533,3.02401747 C3.41659389,2.46724891 4.10436681,2.17248908 4.85764192,2.13973799 C5.61091703,2.13973799 6.29868996,2.43449782 6.82270742,3.02401747 C7.28122271,3.51528384 7.54323144,3.87554585 7.57598253,4.10480349 L2.1720524,4.13755459 L2.1720524,4.13755459 Z M9.34454148,5.87336245 C9.37729258,5.48034934 9.37729258,5.2510917 9.37729258,5.15283843 C9.37729258,4.95633188 9.37729258,4.75982533 9.34454148,4.59606987 C9.24628821,3.51528384 8.78777293,2.56550218 8.03449782,1.77947598 C7.34672489,1.05895197 6.56069869,0.633187773 5.67641921,0.469432314 C5.44716157,0.403930131 5.18515284,0.403930131 4.9231441,0.403930131 C4.89039301,0.403930131 4.89039301,0.403930131 4.85764192,0.403930131 C4.82489083,0.403930131 4.82489083,0.403930131 4.79213974,0.403930131 C3.51484716,0.403930131 2.46681223,0.862445415 1.54978166,1.81222707 C0.665502183,2.72925764 0.239737991,3.84279476 0.2069869,5.12008734 C0.2069869,5.15283843 0.2069869,5.18558952 0.2069869,5.18558952 C0.2069869,6.49563319 0.665502183,7.6419214 1.54978166,8.55895197 C2.43406114,9.50873362 3.51484716,9.96724891 4.79213974,9.96724891 L4.89039301,9.96724891 C6.20043668,9.96724891 7.28122271,9.50873362 8.19825328,8.55895197 L6.95371179,7.28165939 C6.5279476,7.70742358 6.03668122,8.00218341 5.47991266,8.10043668 C5.21790393,8.13318777 5.02139738,8.13318777 4.89039301,8.16593886 C4.07161572,8.16593886 3.38384279,7.87117904 2.82707424,7.28165939 C2.43406114,6.88864629 2.1720524,6.39737991 2.04104803,5.87336245 L9.34454148,5.87336245 L9.34454148,5.87336245 Z"/>
    <polyline id="logo-oddschecker-s" points="6.604 3.865 2.707 7.729 6.604 13.428 4.607 13.428 1.823 9.4 1.757 9.498 1.757 13.428 .087 13.428 .087 0 1.757 0 1.757 6.386 4.279 3.865 6.604 3.865"/>
    <path id="logo-oddschecker-u" d="M5.11965066,4.95633188 C4.75938865,4.62882096 4.169869,4.26855895 3.3510917,3.87554585 C2.92532751,3.61353712 2.63056769,3.44978166 2.49956332,3.35152838 C2.36855895,3.22052402 2.30305677,3.08951965 2.30305677,2.8930131 C2.30305677,2.72925764 2.36855895,2.56550218 2.49956332,2.43449782 C2.63056769,2.30349345 2.79432314,2.23799127 2.99082969,2.23799127 C3.18733624,2.23799127 3.3510917,2.30349345 3.44934498,2.40174672 C3.51484716,2.43449782 3.58034934,2.5 3.71135371,2.59825328 C3.7768559,2.63100437 3.87510917,2.72925764 3.94061135,2.79475983 L5.18515284,1.3209607 L4.89039301,1.09170306 C4.39912664,0.633187773 3.7441048,0.403930131 2.99082969,0.403930131 C2.23755459,0.403930131 1.58253275,0.633187773 1.05851528,1.12445415 C0.534497817,1.61572052 0.239737991,2.20524017 0.239737991,2.8930131 C0.239737991,3.58078603 0.501746725,4.13755459 1.05851528,4.62882096 C1.35327511,4.89082969 1.87729258,5.21834061 2.63056769,5.57860262 C3.15458515,5.87336245 3.51484716,6.10262009 3.67860262,6.26637555 C3.90786026,6.4628821 4.03886463,6.72489083 4.03886463,7.05240175 C4.03886463,7.37991266 3.90786026,7.6419214 3.67860262,7.83842795 C3.44934498,8.0349345 3.15458515,8.16593886 2.82707424,8.16593886 C2.49956332,8.16593886 2.23755459,8.0349345 1.97554585,7.83842795 C1.74628821,7.67467249 1.71353712,7.6419214 1.41877729,7.37991266 L0.272489083,8.85371179 C0.468995633,9.05021834 0.108733624,8.72270742 0.567248908,9.11572052 C1.18951965,9.70524017 1.97554585,9.96724891 2.85982533,9.96724891 C3.7441048,9.96724891 4.530131,9.67248908 5.15240175,9.11572052 C5.77467249,8.52620087 6.10218341,7.83842795 6.10218341,7.01965066 C6.06943231,6.20087336 5.77467249,5.51310044 5.11965066,4.95633188"/>
    <path id="logo-oddschecker-w" d="M6.2768559,4.87991266 C5.75283843,4.22489083 4.86855895,3.79912664 3.95152838,3.79912664 C3.91877729,3.79912664 3.78777293,3.79912664 3.78777293,3.79912664 C3.13275109,3.79912664 2.57598253,3.930131 2.01921397,4.15938865 L2.01921397,0 L0.316157205,0 L0.316157205,13.4606987 L2.01921397,13.4606987 L2.01921397,6.74672489 L2.01921397,6.15720524 C2.3139738,5.82969432 2.7069869,5.76419214 3.1,5.66593886 C3.26375546,5.63318777 3.42751092,5.60043668 3.72227074,5.60043668 C4.2790393,5.60043668 4.70480349,5.79694323 4.96681223,6.12445415 C5.22882096,6.48471616 5.39257642,6.87772926 5.39257642,7.36899563 L5.39257642,13.4279476 L7.09563319,13.4279476 L7.09563319,7.30349345 C7.09563319,6.3209607 6.80087336,5.5349345 6.2768559,4.87991266"/>
  </defs>
  <g fill="none" fill-rule="evenodd">
    <g transform="translate(38.865 3.493)">
      <mask id="logo-oddschecker-b" fill="#fff">
        <use xlink:href="#logo-oddschecker-a"/>
      </mask>
      <rect width="11.528" height="12.871" x="-1.54" y="-1.266" fill="#000" mask="url(#logo-oddschecker-b)"/>
    </g>
    <g transform="translate(94.76 3.493)">
      <mask id="logo-oddschecker-d" fill="#fff">
        <use xlink:href="#logo-oddschecker-c"/>
      </mask>
      <rect width="8.188" height="12.838" x="-1.463" y="-1.266" fill="#000" mask="url(#logo-oddschecker-d)"/>
    </g>
    <g transform="translate(67.249 3.493)">
      <mask id="logo-oddschecker-f" fill="#fff">
        <use xlink:href="#logo-oddschecker-e"/>
      </mask>
      <rect width="11.528" height="12.871" x="-1.332" y="-1.266" fill="#000" mask="url(#logo-oddschecker-f)"/>
    </g>
    <g transform="translate(10.48)">
      <mask id="logo-oddschecker-h" fill="#fff">
        <use xlink:href="#logo-oddschecker-g"/>
      </mask>
      <rect width="12.576" height="16.67" x="-1.223" y="-1.605" fill="#FDD12D" mask="url(#logo-oddschecker-h)"/>
    </g>
    <g transform="translate(21.397)">
      <mask id="logo-oddschecker-j" fill="#fff">
        <use xlink:href="#logo-oddschecker-i"/>
      </mask>
      <rect width="12.576" height="16.67" x="-1.463" y="-1.605" fill="#FDD12D" mask="url(#logo-oddschecker-j)"/>
    </g>
    <g transform="translate(0 3.493)">
      <mask id="logo-oddschecker-l" fill="#fff">
        <use xlink:href="#logo-oddschecker-k"/>
      </mask>
      <rect width="10.71" height="11.889" x="-1.649" y="-1.234" fill="#000" mask="url(#logo-oddschecker-l)"/>
    </g>
    <g transform="translate(1.747 4.803)">
      <mask id="logo-oddschecker-n" fill="#fff">
        <use xlink:href="#logo-oddschecker-m"/>
      </mask>
      <rect width="10.742" height="11.889" x="-1.3" y="-1.627" fill="#FDD12D" mask="url(#logo-oddschecker-n)"/>
    </g>
    <g transform="translate(83.843 3.493)">
      <mask id="logo-oddschecker-p" fill="#fff">
        <use xlink:href="#logo-oddschecker-o"/>
      </mask>
      <rect width="12.413" height="12.871" x="-1.256" y="-1.266" fill="#000" mask="url(#logo-oddschecker-p)"/>
    </g>
    <g transform="translate(56.769 3.493)">
      <mask id="logo-oddschecker-r" fill="#fff">
        <use xlink:href="#logo-oddschecker-q"/>
      </mask>
      <rect width="12.413" height="12.871" x="-1.398" y="-1.266" fill="#000" mask="url(#logo-oddschecker-r)"/>
    </g>
    <g transform="translate(77.293)">
      <mask id="logo-oddschecker-t" fill="#fff">
        <use xlink:href="#logo-oddschecker-s"/>
      </mask>
      <rect width="9.793" height="16.67" x="-1.551" y="-1.638" fill="#000" mask="url(#logo-oddschecker-t)"/>
    </g>
    <g transform="translate(31.878 3.493)">
      <mask id="logo-oddschecker-v" fill="#fff">
        <use xlink:href="#logo-oddschecker-u"/>
      </mask>
      <rect width="9.105" height="12.871" x="-1.365" y="-1.266" fill="#FDD12D" mask="url(#logo-oddschecker-v)"/>
    </g>
    <g transform="translate(48.472)">
      <mask id="logo-oddschecker-x" fill="#fff">
        <use xlink:href="#logo-oddschecker-w"/>
      </mask>
      <rect width="10.055" height="16.736" x="-1.321" y="-1.638" fill="#000" mask="url(#logo-oddschecker-x)"/>
    </g>
  </g>
</svg>
