<?xml version="1.0" encoding="utf-8"?>
<!-- Generator: Adobe Illustrator 16.0.4, SVG Export Plug-In . SVG Version: 6.00 Build 0)  -->
<!DOCTYPE svg PUBLIC "-//W3C//DTD SVG 1.1//EN" "http://www.w3.org/Graphics/SVG/1.1/DTD/svg11.dtd">
<svg version="1.1" id="Layer_1" xmlns="http://www.w3.org/2000/svg" xmlns:xlink="http://www.w3.org/1999/xlink" x="0px" y="0px"
	 width="264px" height="183px" viewBox="0 0 264 183" enable-background="new 0 0 264 183" xml:space="preserve">
<g>
	<path fill="#F0CA43" d="M83.267,78.658V22.003C83.267,9.85,93.146,0,105.332,0h56.052c12.184,0,22.062,9.849,22.062,22v56.664
		c0,12.149-9.876,21.998-22.06,21.999h-56.051c-12.186,0.001-22.066-9.848-22.067-22V78.658z"/>
	<polygon fill="#21222D" points="125.055,32.789 132.305,25.56 105.942,25.56 105.942,32.789 	"/>
	<polygon fill="#21222D" points="143.822,37.701 135.122,46.379 135.122,77.629 142.543,77.629 142.543,43.88 160.771,43.88 
		160.771,37.701 	"/>
	<polygon fill="#21222D" points="130.641,77.628 130.641,44.528 141.966,33.232 160.771,33.232 160.771,25.561 138.642,25.561 
		126.911,37.258 105.943,37.258 105.943,43.881 124.171,43.881 124.171,77.628 	"/>
	<polygon fill="#FFFFFF" points="29.223,150.86 18.498,150.86 18.498,183 10.667,183 10.667,150.86 0,150.86 0,143.39 
		29.223,143.39 	"/>
	<path fill="#FFFFFF" d="M62.924,175.87H47.092L44.709,183h-8.455l13.904-39.609h9.702L73.82,183h-8.514L62.924,175.87z
		 M60.484,168.569l-5.447-16.181l-5.447,16.181H60.484z"/>
	<path fill="#FFFFFF" d="M100.54,169.251h-5.959V183H86.75v-39.608h15.888c7.283-0.021,13.203,5.853,13.222,13.113v0.013
		c0,4.98-3.121,9.453-7.66,11.545L116.994,183h-8.454L100.54,169.251z M94.581,162.403h8.058c2.951,0,5.39-2.604,5.39-5.886
		c0-3.28-2.437-5.828-5.39-5.828h-8.058V162.403z"/>
	<polygon fill="#FFFFFF" points="169.535,183 161.762,183 161.762,157.309 150.583,175.699 149.675,175.699 138.498,157.367 
		138.498,183 130.665,183 130.665,143.391 138.722,143.391 150.128,162.12 161.478,143.391 169.535,143.391 	"/>
	<path fill="#FFFFFF" d="M209.134,175.87h-15.831L190.92,183h-8.455l13.903-39.609h9.703L220.03,183h-8.514L209.134,175.87z
		 M206.695,168.569l-5.447-16.181l-5.447,16.181H206.695z"/>
	<polygon fill="#FFFFFF" points="254.979,183 240.793,164.441 240.793,183 232.962,183 232.962,143.391 240.793,143.391 
		240.793,160.875 254.411,143.391 263.435,143.391 248.737,162.628 264,182.998 	"/>
</g>
</svg>
