<svg xmlns="http://www.w3.org/2000/svg" width="246.77" height="44.745" viewBox="0 0 246.77 44.745">
  <defs>
    <style>.a{fill:#ea4335;}.b{fill:#4285f4;}.c{fill:#34a853;}.d{fill:#fbbc05;}.e{fill:#5f6368;}</style>
  </defs>
  <path class="a" d="M75.071,15.983l1.78.031,4.835-4.835.233-2.049a21.72,21.72,0,0,0-35.41,10.553,2.617,2.617,0,0,1,1.657-.093L57.829,18s.5-.824.747-.773a12.071,12.071,0,0,1,16.5-1.244Z" transform="translate(-39.713 -3.633)"/>
  <path class="b" d="M81.424,17.738A21.763,21.763,0,0,0,74.865,7.166l-6.848,6.848a12.056,12.056,0,0,1,4.5,9.394v1.209a6.036,6.036,0,0,1,0,12.071H60.447L59.238,37.9v7.246l1.209,1.2H72.521a15.687,15.687,0,0,0,8.887-28.612Z" transform="translate(-32.641 -1.67)"/>
  <path class="c" d="M55.621,36.006H67.693V26.343H55.621a5.973,5.973,0,0,1-2.484-.54l-1.742.534L46.56,31.171,46.137,32.8a15.494,15.494,0,0,0,9.486,3.2Z" transform="translate(-39.919 8.684)"/>
  <path class="d" d="M57.842,12.175a15.7,15.7,0,0,0-9.48,28.209l7-7a6.035,6.035,0,1,1,7.98-7.98l7-7a15.675,15.675,0,0,0-12.507-6.222Z" transform="translate(-42.14 1.113)"/>
  <path class="e" d="M16.319,60.447a11.75,11.75,0,0,1-8.515-3.5,11.679,11.679,0,0,1,0-16.825,11.761,11.761,0,0,1,8.515-3.5A11.387,11.387,0,0,1,24.484,39.9l-2.3,2.3a8.276,8.276,0,0,0-5.869-2.326,8.166,8.166,0,0,0-6.061,2.531,8.8,8.8,0,0,0,0,12.26A8.167,8.167,0,0,0,16.318,57.2a8.1,8.1,0,0,0,6.02-2.386,6.879,6.879,0,0,0,1.773-4.1H16.324V47.457H27.281a10.394,10.394,0,0,1,.156,2.022,10.279,10.279,0,0,1-2.82,7.615A10.974,10.974,0,0,1,16.3,60.438ZM41.784,58.27a7.941,7.941,0,0,1-10.926,0,7.82,7.82,0,0,1,0-10.951,7.941,7.941,0,0,1,10.926,0,7.82,7.82,0,0,1,0,10.951Zm-8.515-2.147a4.189,4.189,0,0,0,6.107,0,5.013,5.013,0,0,0,.014-6.673,4.254,4.254,0,0,0-6.135,0,5.013,5.013,0,0,0,.014,6.673ZM58.583,58.27a7.941,7.941,0,0,1-10.926,0,7.82,7.82,0,0,1,0-10.951,7.941,7.941,0,0,1,10.926,0,7.82,7.82,0,0,1,0,10.951Zm-8.515-2.147a4.189,4.189,0,0,0,6.107,0,5.013,5.013,0,0,0,.014-6.673,4.254,4.254,0,0,0-6.135,0,5.013,5.013,0,0,0,.014,6.673ZM69.626,67.354a6.755,6.755,0,0,1-4.3-1.369,7.9,7.9,0,0,1-2.5-3.17L65.765,61.6a4.8,4.8,0,0,0,1.451,1.92,3.7,3.7,0,0,0,2.414.812,3.922,3.922,0,0,0,3.007-1.162,4.725,4.725,0,0,0,1.089-3.345V58.733H73.61a4.9,4.9,0,0,1-4.038,1.745,7.016,7.016,0,0,1-5.144-2.237,7.4,7.4,0,0,1-2.209-5.407,7.5,7.5,0,0,1,2.209-5.449,7,7,0,0,1,5.144-2.251,5.509,5.509,0,0,1,2.368.495,4.83,4.83,0,0,1,1.671,1.218h.117V45.612h3.2V59.39q0,4.013-2.05,6a7.241,7.241,0,0,1-5.247,1.991Zm.233-9.912a3.749,3.749,0,0,0,2.923-1.321,4.783,4.783,0,0,0,1.176-3.3,4.889,4.889,0,0,0-1.176-3.345,3.733,3.733,0,0,0-2.923-1.335,3.993,3.993,0,0,0-3.021,1.335,4.707,4.707,0,0,0-1.251,3.345,4.616,4.616,0,0,0,1.251,3.3,4.007,4.007,0,0,0,3.021,1.322ZM82.618,37.429V59.985H79.247V37.429Zm9.24,23.017a7.327,7.327,0,0,1-5.435-2.209,7.469,7.469,0,0,1-2.181-5.463,7.551,7.551,0,0,1,2.106-5.522,6.922,6.922,0,0,1,5.13-2.153,6.5,6.5,0,0,1,2.587.509,6.1,6.1,0,0,1,1.976,1.307,9.084,9.084,0,0,1,1.251,1.554,9.52,9.52,0,0,1,.756,1.512l.35.871L88.141,55.1a3.9,3.9,0,0,0,3.721,2.326,4.4,4.4,0,0,0,3.777-2.12l2.613,1.745a8.524,8.524,0,0,1-2.47,2.354,7.027,7.027,0,0,1-3.926,1.042Zm-4.272-7.9L94.432,49.7a2.332,2.332,0,0,0-1.089-1.176,3.516,3.516,0,0,0-1.773-.448A3.979,3.979,0,0,0,88.8,49.291a4.1,4.1,0,0,0-1.237,3.254Zm28.514,7.9a10.63,10.63,0,0,1-10.814-10.87A10.63,10.63,0,0,1,116.1,38.7a9.627,9.627,0,0,1,7.643,3.4l-1.859,1.8a7,7,0,0,0-5.787-2.645,7.935,7.935,0,0,0-8.1,8.312,8.06,8.06,0,0,0,2.34,6.02,7.885,7.885,0,0,0,5.756,2.3,8.153,8.153,0,0,0,6.378-3.021l1.859,1.859a10.127,10.127,0,0,1-3.578,2.718,10.92,10.92,0,0,1-4.673,1Zm13.31-.46h-2.676V39.176h2.676Zm4.36-12.538a7.47,7.47,0,0,1,10.522,0,8.151,8.151,0,0,1,0,10.842,7.47,7.47,0,0,1-10.522,0,8.151,8.151,0,0,1,0-10.842Zm1.991,9.152a4.491,4.491,0,0,0,6.533,0,5.054,5.054,0,0,0,1.381-3.733,5.108,5.108,0,0,0-1.381-3.733,4.491,4.491,0,0,0-6.533,0,5.054,5.054,0,0,0-1.381,3.733A5.108,5.108,0,0,0,135.762,56.6Zm25.387,3.387H158.59V58.01h-.117a4.779,4.779,0,0,1-1.859,1.711,5.452,5.452,0,0,1-2.645.716,5,5,0,0,1-4.052-1.629,6.53,6.53,0,0,1-1.381-4.36V45.727h2.676v8.282q0,3.985,3.516,3.982a3.267,3.267,0,0,0,2.7-1.335,4.869,4.869,0,0,0,1.045-3.082V45.727h2.676V59.971Zm9.066.462a6.265,6.265,0,0,1-4.766-2.181,8.3,8.3,0,0,1,0-10.814,6.267,6.267,0,0,1,4.766-2.181,6.116,6.116,0,0,1,2.924.7,4.873,4.873,0,0,1,1.934,1.745h.117l-.117-1.976V39.172h2.676V59.985H175.19V58.01h-.117a4.942,4.942,0,0,1-1.934,1.745,6.159,6.159,0,0,1-2.924.691Zm.436-2.442a4.262,4.262,0,0,0,3.212-1.4,5.932,5.932,0,0,0,0-7.467,4.364,4.364,0,0,0-6.411.014,5.889,5.889,0,0,0,0,7.467,4.247,4.247,0,0,0,3.2,1.409Z" transform="translate(69.021 -22.64)"/>
</svg>