<svg xmlns="http://www.w3.org/2000/svg" width="213.459" height="86.443" viewBox="0 0 213.459 86.443">
  <path d="M49.374,55.391A20.5,20.5,0,0,1,61.5,59.144l-1.238-3.2H73.438l4.609,15.8,1,3.57s.518-1.859,1.018-3.57l4.615-15.8H97.848l-1.256,3.247a20.524,20.524,0,0,1,12.194-3.8c.642,0,1.272.028,1.9.079L103.9,30.14,35.716,48.407l2.674,9.972a20.829,20.829,0,0,1,10.984-2.987" transform="translate(-35.716 -30.14)" fill="#0d9939"/>
  <path d="M90.2,56.577c-4.007,0-6.493,3.077-6.493,6.769a6.5,6.5,0,1,0,12.988,0,7.88,7.88,0,0,0-.164-1.575l-.23-.851a6.2,6.2,0,0,0-6.1-4.344" transform="translate(-17.124 -19.897)" fill="#0d9939"/>
  <path d="M53.87,63.346c0-3.692-2.493-6.769-6.495-6.769s-6.5,3.077-6.5,6.769a6.5,6.5,0,1,0,12.995,0" transform="translate(-33.717 -19.897)" fill="#0d9939"/>
  <path d="M105.591,78.243c-9.526,0-17.444-5.4-18.946-14.592L81.2,77.7H70.516l-5.4-13.962c-1.541,9.14-9.443,14.508-18.936,14.508-.742,0-1.487-.033-2.212-.1L50.787,103.6l68.18-18.267-2.621-9.8a21.546,21.546,0,0,1-10.755,2.707" transform="translate(-32.52 -17.156)" fill="#0d9939"/>
  <path d="M106.826,66.467c0,3.915,2.5,6.984,6.771,6.984,5.046,0,6.341-3.106,7.764-3.106a1.508,1.508,0,0,1,1.374,1.683c0,1.851-4.7,4.7-9.178,4.7-7.327,0-10.524-5.651-10.524-11.729,0-6.2,3.883-11.721,10.31-11.721,6.246,0,9.87,5.65,9.87,11.165,0,1.333-.479,2.027-2.116,2.027Zm12.594-2.841c0-3.281-1.9-7.075-6.077-7.075-4.7-.175-6.388,3.578-6.517,7.075Z" transform="translate(-9.635 -21.177)" fill="#0d9939"/>
  <path d="M119.784,55.3a1.9,1.9,0,1,1,3.786,0v.906l.092.085A7.843,7.843,0,0,1,130,53.275c3.539,0,7.979,2.241,7.979,8.7V74.7a1.9,1.9,0,1,1-3.792,0V62.2c0-4.012-2.808-5.65-5.307-5.65s-5.307,1.637-5.307,5.65V74.7a1.9,1.9,0,1,1-3.786,0Z" transform="translate(-3.145 -21.177)" fill="#0d9939"/>
  <path d="M138.9,66.467c0,3.915,2.5,6.984,6.762,6.984,5.043,0,6.338-3.106,7.761-3.106a1.511,1.511,0,0,1,1.378,1.683c0,1.851-4.7,4.7-9.178,4.7-7.327,0-10.517-5.651-10.517-11.729,0-6.2,3.876-11.721,10.3-11.721,6.252,0,9.87,5.65,9.87,11.165,0,1.333-.473,2.027-2.116,2.027Zm12.583-2.841c0-3.281-1.9-7.075-6.078-7.075-4.7-.175-6.382,3.578-6.5,7.075Z" transform="translate(2.791 -21.177)" fill="#0d9939"/>
  <path d="M151.85,55.3a1.9,1.9,0,1,1,3.793,0v1.937h.085c.86-1.768,2.97-3.963,5.171-3.963a1.93,1.93,0,0,1,2.116,1.942c0,1.074-.777,1.766-2.375,2.063-2.239.4-5,2.071-5,6.511V74.7a1.9,1.9,0,1,1-3.793,0Z" transform="translate(9.279 -21.177)" fill="#0d9939"/>
  <path d="M180.3,74.829c0,6.81-4.142,10.95-10.349,10.95-3.922,0-8.8-2.243-8.8-4.18a1.593,1.593,0,0,1,1.593-1.766c1.727,0,3.41,2.668,7.5,2.668,4.835,0,6.259-3.793,6.259-7.068V73.451h-.089a6.587,6.587,0,0,1-5.82,3.274c-6.465,0-10.084-5.65-10.084-11.728s3.618-11.721,10.084-11.721a7.758,7.758,0,0,1,5.82,2.887h.089V55.127a1.8,1.8,0,0,1,2.021-1.851,1.763,1.763,0,0,1,1.772,1.851Zm-9.7-1.378c4.655,0,6.292-4.569,6.292-8.454s-1.637-8.447-6.292-8.447S164.31,61.121,164.31,65s1.639,8.454,6.292,8.454" transform="translate(12.638 -21.176)" fill="#0d9939"/>
  <path d="M177.345,56.983a6.809,6.809,0,0,1-.518-2.114,1.676,1.676,0,0,1,1.727-1.593,1.94,1.94,0,0,1,1.891,1.424l5.268,15.735h.083L190.964,54.7a1.856,1.856,0,0,1,1.812-1.424,1.676,1.676,0,0,1,1.727,1.593,6.809,6.809,0,0,1-.518,2.114l-9.566,27.373a1.95,1.95,0,0,1-1.859,1.424,1.676,1.676,0,0,1-1.722-1.6,6.085,6.085,0,0,1,.558-2.11l2.416-6.421Z" transform="translate(18.956 -21.176)" fill="#0d9939"/>
</svg>