<svg xmlns="http://www.w3.org/2000/svg" width="32" height="32" viewBox="0 0 32 32">
  <path fill="#FF6382" d="M30.304,25.5796364 L32,25.5796364 L32,28.790303 L28.8,28.790303 L28.8,32.0009697 L25.6,32.0009697 L25.6,28.790303 L6.4,28.790303 L6.4,32.0009697 L3.2,32.0009697 L3.2,28.790303 L0,28.790303 L0,25.5796364 L15.5859394,25.5796364 L29.6242424,17.7551515 L31.1757576,20.5614545 L29.1878788,21.6707879 L30.304,25.5796364 Z M22.1740606,25.5796364 L26.9769697,25.5796364 L26.3166061,23.2707879 L22.1740606,25.5796364 Z M28.7893333,8.02618182 L21.6552727,11.2174545 L16.8930909,1.69987879 L28.7893333,8.02618182 Z M0,8.02618182 L11.8972121,1.69987879 L7.13890909,11.2174545 L0,8.02618182 Z M2.90909091,24.1192727 L1.03078788,21.6533333 C1.03078788,21.6533333 4.704,19.1825455 5.94909091,18.3932121 C7.776,17.2373333 8.90472727,17.5873939 9.89284848,18.3214545 C10.6686061,18.8945455 11.5287273,20.2366061 12.841697,20.7980606 C13.231353,20.9624761 13.6740668,20.9443408 14.0489697,20.7486061 C14.8964848,20.2860606 19.5248485,17.7512727 21.5282424,16.288 L23.4191515,18.8819394 C22.8712727,19.2814545 16.8969697,22.8489697 15.5869091,23.5626667 C14.3486414,24.2295365 12.8743629,24.2973276 11.5801212,23.7469091 C10.2590352,22.968798 9.05168098,22.0120513 7.99224242,20.9037576 L7.97187879,20.8921212 L2.90909091,24.1192727 Z M24.7951515,17.6077576 C23.4653837,17.6077576 22.3873939,16.5297678 22.3873939,15.2 C22.3873939,13.8702322 23.4653837,12.7922424 24.7951515,12.7922424 C26.1249193,12.7922424 27.2029091,13.8702322 27.2029091,15.2 C27.2029091,16.5297678 26.1249193,17.6077576 24.7951515,17.6077576 Z M16.0087273,17.6581818 L13.3100606,19.1689697 L12.7980606,18.7355152 L12.7980606,11.2368485 L8.98521212,11.2368485 L14.4029091,0 L19.8215758,11.2368485 L16.0087273,11.2368485 L16.0087273,17.6581818 Z"/>
</svg>
