<svg xmlns="http://www.w3.org/2000/svg" xmlns:xlink="http://www.w3.org/1999/xlink" id="Layer_1" width="26px" height="26px" x="0px" y="0px" enable-background="new 0 0 26 26" version="1.1" viewBox="0 0 26 26" xml:space="preserve">
    <g>
        <rect width="2.048" height="18.999" x="23.952" y="3.5" />
        <rect width="2.047" height="18.999" y="3.5" />
        <rect width="15.971" height="2.088" x="5.015" y="11.955" />
        <polygon  points="2.354,12.999 7.677,17.071 7.677,8.928 	"/>
        <polygon  points="23.646,12.999 18.323,8.928 18.323,17.071 	"/>
        <path  d="M20.985,3.5c0.735,0,1.331,0.607,1.331,1.356c0,0.75-0.596,1.357-1.331,1.357
		c-0.736,0-1.332-0.607-1.332-1.357C19.653,4.107,20.249,3.5,20.985,3.5"/>
        <path  d="M15.661,3.5c0.735,0,1.332,0.607,1.332,1.356c0,0.75-0.597,1.357-1.332,1.357
		c-0.734,0-1.33-0.607-1.33-1.357C14.331,4.107,14.927,3.5,15.661,3.5"/>
        <path  d="M10.339,3.5c0.735,0,1.331,0.607,1.331,1.356c0,0.75-0.596,1.357-1.331,1.357
		c-0.736,0-1.332-0.607-1.332-1.357C9.007,4.107,9.603,3.5,10.339,3.5"/>
        <path  d="M5.015,3.5c0.735,0,1.332,0.607,1.332,1.356c0,0.75-0.596,1.357-1.332,1.357
		c-0.735,0-1.331-0.607-1.331-1.357C3.684,4.107,4.28,3.5,5.015,3.5"/>
        <path  d="M20.985,19.785c0.735,0,1.331,0.607,1.331,1.356c0,0.751-0.596,1.358-1.331,1.358
		c-0.736,0-1.332-0.607-1.332-1.358C19.653,20.393,20.249,19.785,20.985,19.785"/>
        <path  d="M15.661,19.785c0.735,0,1.332,0.607,1.332,1.356c0,0.751-0.597,1.358-1.332,1.358
		c-0.734,0-1.33-0.607-1.33-1.358C14.331,20.393,14.927,19.785,15.661,19.785"/>
        <path  d="M10.339,19.785c0.735,0,1.331,0.607,1.331,1.356c0,0.751-0.596,1.358-1.331,1.358
		c-0.736,0-1.332-0.607-1.332-1.358C9.007,20.393,9.603,19.785,10.339,19.785"/>
        <path  d="M5.015,19.785c0.735,0,1.332,0.607,1.332,1.356c0,0.751-0.596,1.358-1.332,1.358
		c-0.735,0-1.331-0.607-1.331-1.358C3.684,20.393,4.28,19.785,5.015,19.785"/>
    </g>
</svg>
