<svg xmlns="http://www.w3.org/2000/svg" xmlns:xlink="http://www.w3.org/1999/xlink" id="Layer_1" width="26px" height="26px" x="0px" y="0px" enable-background="new 0 0 26 26" version="1.1" viewBox="0 0 26 26" xml:space="preserve">
    <path d="M26,1H0v22.667h10.56C10.917,24.441,11.869,25,13,25s2.083-0.559,2.441-1.333H26V1z M2.601,3.667h9.101V21
	H2.601V3.667z M23.4,21H14.3V3.667H23.4V21z"/>
    <rect width="3.899" height="2.667" x="15.601" y="5"/>
    <rect width="1.3" height="2.667" x="20.801" y="5"/>
    <rect width="3.899" height="2.667" x="15.601" y="9"/>
    <rect width="1.3" height="2.667" x="20.801" y="9"/>
    <rect width="3.899" height="2.667" x="3.9" y="13.001"/>
    <rect width="1.301" height="2.667" x="9.101" y="13.001"/>
    <rect width="3.899" height="2.668" x="3.9" y="17"/>
    <rect width="1.301" height="2.668" x="9.101" y="17"/>
    <rect width="3.899" height="2.667" x="3.9" y="5"/>
    <rect width="1.301" height="2.667" x="9.101" y="5"/>
    <rect width="3.899" height="2.667" x="3.9" y="9"/>
    <rect width="1.301" height="2.667" x="9.101" y="9"/>
</svg>
