<svg xmlns="http://www.w3.org/2000/svg" xmlns:xlink="http://www.w3.org/1999/xlink" id="Layer_1" width="26px" height="26px" x="0px" y="0px" enable-background="new 0 0 26 26" version="1.1" viewBox="0 0 26 26" xml:space="preserve">
    <path  d="M5.2,15.479c1.429,0,2.599,1.183,2.599,2.63c0,1.446-1.17,2.631-2.599,2.631
	c-1.43,0-2.601-1.185-2.601-2.631C2.6,16.662,3.771,15.479,5.2,15.479 M10.401,26h-5.07H5.07H0v-1.314c0,0,1.56-2.631,5.2-2.631
	c3.639,0,5.201,2.631,5.201,2.631V26z"/>
    <path  d="M20.801,15.479c1.431,0,2.601,1.183,2.601,2.63c0,1.446-1.17,2.631-2.601,2.631
	c-1.43,0-2.601-1.185-2.601-2.631C18.2,16.662,19.371,15.479,20.801,15.479 M26,26h-5.067h-0.132h-5.198v-1.314
	c0,0,1.558-2.631,5.198-2.631S26,24.686,26,24.686V26z"/>
    <path  d="M4.363,12.545H1.601V3.643C1.601,1.634,3.216,0,5.201,0H13c1.986,0,3.602,1.634,3.602,3.643v2.63
	c0,2.008-1.615,3.642-3.602,3.642H6.573L4.363,12.545z M5.201,2.023c-0.882,0-1.6,0.726-1.6,1.62v6.685l2.048-2.437H13
	c0.883,0,1.602-0.726,1.602-1.618v-2.63c0-0.894-0.719-1.62-1.602-1.62H5.201z"/>
    <path  d="M20.801,2.327h-5.198v3.946c0,1.446-1.171,2.63-2.603,2.63h-1.3c0,1.447,1.17,2.631,2.601,2.631h6.5
	l2.602,2.63V4.958C23.402,3.51,22.232,2.327,20.801,2.327"/>
</svg>
