<svg xmlns="http://www.w3.org/2000/svg" xmlns:xlink="http://www.w3.org/1999/xlink" id="Layer_1" width="130px" height="130px" x="0px" y="0px" enable-background="new 0 0 130 130" version="1.1" viewBox="0 0 130 130" xml:space="preserve">
    <path d="M129.8,79.11l-11.17-49.979c-0.588-2.565-2.357-4.859-4.685-6.007L68.742,0.886
	c-1.311-0.64-2.752-0.944-4.194-0.877c-1.146,0.068-2.293,0.372-3.309,0.877L16.034,23.125c-2.325,1.147-4.093,3.408-4.683,6.007
	L0.213,79.145c-0.524,2.294-0.065,4.791,1.18,6.782l0.491,0.71l31.282,40.055c1.605,2.061,4.16,3.309,6.749,3.309h50.151
	c2.588,0,5.145-1.248,6.749-3.309l31.283-40.09C129.736,84.543,130.358,81.708,129.8,79.11 M124.493,81.979l-32.984,42.318h-52.97
	L5.519,81.979l9.074-40.631l2.72-12.148L65.007,5.746l47.726,23.487L124.493,81.979z"/>
    <path d="M65.924,47.558c-0.098-0.203-0.261-0.372-0.492-0.474c-0.163-0.067-0.328-0.1-0.492-0.1
	c-0.359,0-0.719,0.235-0.883,0.574l-3.046,5.703c2.097,0.742,4.454,0.911,6.78,0.371c0.427-0.101,0.819-0.203,1.213-0.338
	L65.924,47.558z M66.873,34.834c0,0.236,0.1,0.438,0.231,0.641c0.36,0.474,0.983,0.541,1.441,0.203h0.033l5.142-3.745
	c-1.932-1.958-4.455-3.24-7.206-3.577L66.873,34.834z M57.407,70.572c-0.099-0.136-0.229-0.235-0.392-0.303
	c-0.163-0.068-0.328-0.136-0.557-0.136c-0.229,0-0.394,0.033-0.557,0.101s-0.295,0.169-0.393,0.303
	c-0.098,0.136-0.197,0.271-0.229,0.439c-0.067,0.17-0.099,0.338-0.132,0.507h2.556c0-0.17-0.032-0.338-0.099-0.507
	C57.538,70.809,57.506,70.707,57.407,70.572 M70.479,44.35c-0.067,0-0.165-0.033-0.231-0.033c-0.128,0-0.26,0.033-0.391,0.102
	c-0.525,0.271-0.755,0.875-0.525,1.417l2.425,6.041c2.358-1.553,4.093-3.848,5.011-6.479L70.479,44.35z M91.279,70.572
	c-0.098-0.136-0.229-0.235-0.393-0.303c-0.164-0.068-0.328-0.136-0.558-0.136c-0.229,0-0.393,0.033-0.555,0.101
	c-0.166,0.067-0.296,0.169-0.396,0.303c-0.096,0.136-0.195,0.271-0.227,0.439c-0.069,0.17-0.102,0.338-0.131,0.507h2.554
	c0-0.17-0.033-0.338-0.099-0.507C91.41,70.809,91.377,70.707,91.279,70.572"/>
    <path d="M78.177,70.572c-0.099-0.136-0.229-0.235-0.395-0.303c-0.162-0.068-0.327-0.136-0.556-0.136
	s-0.393,0.033-0.557,0.101s-0.294,0.169-0.394,0.302c-0.098,0.137-0.195,0.271-0.229,0.44c-0.067,0.17-0.098,0.338-0.13,0.507h2.556
	c0-0.17-0.033-0.338-0.1-0.507C78.308,70.809,78.274,70.707,78.177,70.572 M47.58,74.251c0.098,0.032,0.229,0.032,0.361,0.032
	c0.131,0,0.295,0.035,0.491,0.035c0.524,0,0.918-0.203,1.212-0.575c0.262-0.369,0.393-0.91,0.393-1.552
	c0-1.314-0.459-1.99-1.375-1.99c-0.196,0-0.393,0.034-0.588,0.068c-0.198,0.067-0.362,0.134-0.46,0.202v3.779H47.58z M60.748,45.229
	c-0.098-0.506-0.524-0.844-1.016-0.844c-0.067,0-0.131,0-0.197,0.034l-6.223,1.08c0.949,2.734,2.752,4.961,5.012,6.446l2.392-5.973
	l-0.033-0.034C60.781,45.702,60.781,45.464,60.748,45.229 M63.27,42.528l1.737,0.845l1.735-0.845l0.426-1.923l-1.211-1.552h-1.934
	l-1.178,1.518L63.27,42.528z M61.436,35.712c0.163,0.135,0.394,0.203,0.622,0.203c0.557,0,1.049-0.472,1.049-1.045h0.032
	l0.362-6.513c-0.427,0.066-0.852,0.135-1.278,0.237c-2.359,0.539-4.388,1.753-5.961,3.34L61.436,35.712z M70.902,38.716
	c-0.163,0.135-0.293,0.338-0.327,0.574c-0.13,0.574,0.198,1.147,0.754,1.282v0.034l6.093,1.823c0.131-1.35,0.066-2.767-0.261-4.151
	c-0.328-1.418-0.854-2.734-1.54-3.914L70.902,38.716z M58.684,40.64c0.229-0.068,0.426-0.203,0.557-0.406
	c0.361-0.472,0.294-1.113-0.13-1.518v-0.033l-4.718-4.354c-1.409,2.362-2.063,5.163-1.769,8.065L58.684,40.64z"/>
    <path d="M85.547,94.295h-0.722v2.667h0.722c0.753,0,1.277-0.54,1.277-1.316
	C86.856,94.835,86.333,94.295,85.547,94.295 M53.444,84.442h-1.705v2.295h1.737c0.819,0,1.311-0.474,1.311-1.147v-0.035
	C54.786,84.847,54.263,84.442,53.444,84.442"/>
    <path d="M100.024,78.772H29.989v23.42h70.035V78.772z M79.126,90.854h-1.703v-7.997h1.703V90.854z M56.752,90.854
	h-1.999l-1.67-2.563h-1.344v2.563h-1.704v-7.998h3.539c0.983,0,1.736,0.271,2.26,0.811c0.426,0.438,0.655,1.078,0.655,1.822v0.033
	c0,1.282-0.688,2.092-1.671,2.464L56.752,90.854z M47.678,86.062v1.552H44.01v1.688h4.224v1.553h-5.896v-7.997h5.865v1.552h-4.161
	v1.62h3.637L47.678,86.062L47.678,86.062z M37.263,96.523c0,0.878-0.657,1.35-1.572,1.35c-0.656,0-1.312-0.236-1.803-0.708
	l0.557-0.676c0.392,0.337,0.786,0.54,1.277,0.54c0.393,0,0.623-0.169,0.623-0.404c0-0.237-0.131-0.372-0.853-0.575
	c-0.851-0.235-1.407-0.472-1.407-1.351c0-0.809,0.622-1.315,1.507-1.315c0.623,0,1.145,0.203,1.572,0.575l-0.492,0.742
	c-0.393-0.271-0.753-0.438-1.113-0.438s-0.558,0.168-0.558,0.371c0,0.304,0.198,0.371,0.917,0.573
	C36.77,95.409,37.263,95.747,37.263,96.523 M33.527,86.905c0-2.295,1.671-4.151,4.062-4.151c1.474,0,2.325,0.507,3.047,1.248
	l-1.082,1.283c-0.589-0.573-1.212-0.911-1.999-0.911c-1.31,0-2.261,1.114-2.261,2.498v0.033c0,1.385,0.918,2.498,2.261,2.498
	c0.885,0,1.441-0.37,2.033-0.945l1.08,1.147c-0.787,0.878-1.671,1.418-3.177,1.418C35.199,90.986,33.527,89.199,33.527,86.905
	 M41.324,97.807h-3.242v-4.389h3.21v0.877h-2.295v0.879h1.999v0.845h-1.999v0.911h2.327V97.807z M44.763,97.807l-0.917-1.419h-0.753
	v1.419h-0.95v-4.389h1.964c0.557,0,0.951,0.169,1.247,0.44c0.23,0.235,0.36,0.607,0.36,1.012c0,0.709-0.36,1.148-0.917,1.349
	l1.047,1.588H44.763z M48.759,97.838H47.94l-1.736-4.42h1.049l1.113,3.104l1.114-3.104h1.015L48.759,97.838z M52.134,97.807h-0.951
	v-4.389h0.951V97.807z M55.18,97.873c-1.246,0-2.195-1.013-2.195-2.262c0-1.248,0.918-2.26,2.227-2.26
	c0.819,0,1.278,0.27,1.67,0.673l-0.588,0.71c-0.328-0.305-0.656-0.507-1.083-0.507c-0.72,0-1.245,0.607-1.245,1.384
	c0,0.743,0.492,1.384,1.245,1.384c0.492,0,0.787-0.202,1.115-0.506l0.589,0.607C56.49,97.603,56.031,97.873,55.18,97.873
	 M60.945,97.807h-3.244v-4.389h3.21v0.877h-2.294v0.879h1.999v0.845h-1.999v0.911h2.327V97.807z M61.829,90.854h-1.703v-6.377
	h-2.359v-1.62h6.42v1.62h-2.359V90.854z M66.972,94.938c0,1.012-0.751,1.553-1.736,1.553h-0.721v1.316h-0.95v-4.389h1.736
	C66.384,93.418,66.972,94.024,66.972,94.938 M67.562,90.854h-1.705v-7.998h1.705V90.854z M70.28,97.807l-0.917-1.419h-0.752v1.419
	h-0.95v-4.389h1.964c0.558,0,0.95,0.169,1.246,0.44c0.229,0.235,0.361,0.607,0.361,1.012c0,0.709-0.361,1.148-0.919,1.349
	l1.05,1.588H70.28z M71.494,90.854H69.79v-7.998h5.896v1.586h-4.191v1.688h3.701v1.585h-3.701V90.854z M76.44,95.612
	c0,1.248-0.951,2.262-2.26,2.262c-1.312,0-2.263-1.014-2.263-2.262s0.95-2.261,2.263-2.261C75.489,93.352,76.44,94.364,76.44,95.612
	 M79.453,97.838h-0.819l-1.735-4.42h1.047l1.113,3.104l1.113-3.104h1.017L79.453,97.838z M81.318,82.856h5.864v1.552h-4.16v1.62
	h3.671v1.553h-3.671v1.687h4.227v1.554h-5.896v-7.964L81.318,82.856L81.318,82.856z M82.828,97.807h-0.951v-4.389h0.951V97.807z
	 M87.839,95.612c0,1.248-0.917,2.194-2.26,2.194h-1.672v-4.389h1.672C86.889,93.418,87.839,94.364,87.839,95.612 M91.9,97.807
	h-3.242v-4.389h3.209v0.877h-2.291v0.879h1.997v0.845h-1.997v0.911H91.9V97.807z M89.019,90.854v-7.998h3.014
	c2.423,0,4.127,1.721,4.127,3.982v0.033c0,2.261-1.669,4.017-4.127,4.017h-3.014V90.854z M95.342,97.807l-0.919-1.419h-0.752v1.419
	h-0.95v-4.389h1.966c0.555,0,0.949,0.169,1.244,0.44c0.229,0.235,0.358,0.607,0.358,1.012c0,0.709-0.358,1.148-0.915,1.349
	l1.048,1.588H95.342z"/>
    <path d="M94.618,94.295h-0.916v1.249h0.949c0.46,0,0.723-0.236,0.723-0.607
	C95.342,94.498,95.079,94.295,94.618,94.295 M44.041,94.295h-0.916v1.249h0.95c0.458,0,0.719-0.236,0.719-0.607
	C44.763,94.498,44.501,94.295,44.041,94.295 M65.269,94.295h-0.72v1.351h0.754c0.457,0,0.753-0.306,0.753-0.676
	C66.021,94.531,65.727,94.295,65.269,94.295 M69.562,94.295H68.61v1.249h0.951c0.457,0,0.72-0.236,0.72-0.607
	C70.281,94.498,70.019,94.295,69.562,94.295 M74.147,94.228c-0.754,0-1.278,0.608-1.278,1.385c0,0.743,0.524,1.383,1.278,1.383
	c0.752,0,1.276-0.606,1.276-1.383C75.456,94.87,74.933,94.228,74.147,94.228 M92.066,84.442h-1.312v4.824h1.312
	c1.408,0,2.324-0.977,2.324-2.396v-0.033C94.391,85.453,93.475,84.442,92.066,84.442"/>
    <path d="M111.098,30.549L65.006,7.873L18.917,30.549l-2.522,11.239L7.649,80.916l-0.13,0.59l31.904,40.866h51.169
	l31.904-40.866L111.098,30.549z M97.83,73.847c0-0.168-0.099-0.304-0.295-0.439c-0.174-0.091-0.431-0.208-0.759-0.35
	c-0.021-0.007-0.039-0.015-0.06-0.021c-0.11-0.052-0.218-0.096-0.323-0.14c-0.162-0.069-0.319-0.143-0.473-0.22
	c-0.008-0.005-0.017-0.008-0.022-0.014c-0.002,0-0.003,0-0.005-0.002c-0.021-0.01-0.04-0.02-0.062-0.029
	c-0.038-0.021-0.073-0.05-0.111-0.074c-0.071-0.043-0.145-0.089-0.207-0.138c-0.112-0.085-0.218-0.172-0.304-0.26
	c-0.164-0.169-0.295-0.406-0.392-0.642c-0.1-0.271-0.133-0.573-0.133-0.91c0-0.676,0.229-1.217,0.721-1.62
	c0.492-0.406,1.146-0.609,1.966-0.609c0.426,0,0.818,0.035,1.211,0.103c0.226,0.056,0.416,0.104,0.583,0.153
	c0.002,0.001,0.004,0.001,0.007,0.002c0.121,0.036,0.232,0.073,0.326,0.114l-0.001,0.007c0.021,0.008,0.049,0.017,0.069,0.024
	l-0.329,1.621c-0.229-0.066-0.458-0.17-0.722-0.237c-0.261-0.065-0.556-0.101-0.882-0.101c-0.622,0-0.918,0.168-0.918,0.542
	c0,0.066,0,0.168,0.033,0.234c0.032,0.067,0.065,0.135,0.163,0.202c0.028,0.03,0.074,0.061,0.124,0.09
	c0.025,0.017,0.053,0.031,0.078,0.046c0.037,0.021,0.073,0.041,0.114,0.061l0.031,0.016c0.07,0.036,0.156,0.075,0.253,0.118
	c0.061,0.026,0.123,0.053,0.185,0.076c0.121,0.049,0.226,0.094,0.334,0.143c0.024,0.011,0.049,0.021,0.072,0.032
	c0.076,0.034,0.154,0.067,0.224,0.102c0.185,0.087,0.35,0.176,0.485,0.264c0.262,0.168,0.492,0.338,0.653,0.539
	c0.164,0.202,0.264,0.404,0.329,0.642c0.066,0.236,0.098,0.507,0.098,0.81c0,0.709-0.263,1.248-0.754,1.619s-1.21,0.54-2.16,0.54
	c-0.622,0-1.113-0.067-1.509-0.169c-0.391-0.102-0.687-0.203-0.851-0.27l0.002-0.008c-0.023-0.009-0.047-0.019-0.066-0.027
	l0.326-1.686c0.328,0.135,0.689,0.271,1.017,0.338c0.328,0.066,0.686,0.102,1.015,0.102c0.36,0,0.59-0.034,0.754-0.102
	C97.83,74.251,97.896,74.115,97.83,73.847 M87.282,70.607c0.196-0.474,0.426-0.878,0.72-1.216s0.657-0.573,1.048-0.742
	c0.393-0.169,0.787-0.235,1.213-0.235h0.005c0.01,0,0.02-0.001,0.029-0.001c0.95,0,1.736,0.304,2.292,0.944
	c0.558,0.643,0.852,1.586,0.852,2.802v0.404h0.001v0.37h-0.067h-0.001h-4.321c0.032,0.44,0.23,0.777,0.556,1.014
	c0.328,0.234,0.751,0.368,1.305,0.37c0.35-0.002,0.672-0.035,1.022-0.1c0.326-0.069,0.622-0.17,0.851-0.27l0.002,0.011
	c0.011-0.004,0.022-0.008,0.033-0.012l0.261,1.688c-0.098,0.067-0.228,0.134-0.426,0.168c-0.068,0.013-0.133,0.029-0.198,0.048
	c-0.082,0.021-0.172,0.043-0.26,0.059c-0.044,0.009-0.082,0.022-0.13,0.028l-0.689,0.101c-0.124,0.02-0.258,0.027-0.393,0.03
	c-0.123,0.005-0.247,0.005-0.36,0.005c-0.622,0-1.146-0.101-1.604-0.304c-0.461-0.202-0.82-0.474-1.147-0.81
	c-0.295-0.338-0.525-0.742-0.656-1.181c-0.13-0.473-0.229-0.945-0.229-1.484C86.987,71.653,87.087,71.079,87.282,70.607
	 M86.3,75.702c-0.23,0.101-0.491,0.202-0.787,0.27c-0.294,0.066-0.622,0.101-1.048,0.101c-0.263,0-0.501-0.017-0.719-0.056
	c-0.189-0.032-0.356-0.081-0.506-0.146c-0.027-0.012-0.058-0.02-0.086-0.033c-0.039-0.02-0.07-0.047-0.107-0.067
	c-0.274-0.144-0.489-0.311-0.657-0.52c-0.017-0.021-0.039-0.035-0.054-0.055c-0.012-0.015-0.018-0.034-0.027-0.05
	c-0.175-0.249-0.317-0.552-0.383-0.882c-0.004-0.017-0.012-0.03-0.016-0.046c-0.098-0.373-0.131-0.811-0.131-1.284v-6.107v-0.001
	l0.061-0.011l1.873-0.358v0.032h0.001v2.129h2.322v0.03h0.001v1.688h-0.001v0.001h-2.323v2.562c0,0.018,0.002,0.032,0.002,0.047
	c0.006,0.405,0.095,0.725,0.217,0.98c0.004,0.006,0.006,0.014,0.011,0.02c0.005,0.009,0.014,0.016,0.02,0.025
	c0.127,0.204,0.386,0.323,0.749,0.339c0.028,0.002,0.052,0.007,0.082,0.007c0.197,0,0.426-0.035,0.655-0.067
	c0.021-0.003,0.038-0.01,0.058-0.013c0.165-0.034,0.329-0.086,0.495-0.144c0.011-0.005,0.025-0.009,0.036-0.014L86.3,75.7V75.702
	L86.3,75.702z M44.201,44.962c0.185-0.227,0.446-0.402,0.761-0.475h0.033c0.099,0,0.23-0.033,0.327-0.067
	c0.426-0.101,0.753-0.069,1.147-0.101c0.852-0.103,1.539-0.169,2.162-0.372c0.025-0.013,0.049-0.034,0.073-0.052
	c0.134-0.124,0.259-0.304,0.351-0.423l0.062-0.017c0.013-0.015,0.026-0.034,0.038-0.049l0.387-0.105
	c-0.546-4.002,0.402-7.938,2.46-11.133l-0.393-0.372c-0.032-0.169-0.066-0.507-0.229-0.709c-0.459-0.472-1.082-0.843-1.802-1.284
	c-0.328-0.201-0.655-0.335-0.983-0.605c-0.066-0.068-0.164-0.136-0.262-0.203H48.3c-0.59-0.472-0.721-1.283-0.295-1.823
	c0.081-0.105,0.18-0.182,0.285-0.249c0.218-0.173,0.492-0.254,0.769-0.254c0.294,0.034,0.588,0.134,0.851,0.337
	c0.065,0.068,0.197,0.168,0.263,0.237c0.327,0.302,0.523,0.574,0.785,0.877c0.591,0.641,1.081,1.146,1.606,1.518
	c0.293,0.167,0.49,0.102,0.72,0.068c0.062,0.032,0.27,0.186,0.404,0.287c1.019-1.101,2.208-2.059,3.531-2.832
	c1.325-0.793,2.785-1.4,4.353-1.774c0.688-0.161,1.375-0.259,2.063-0.327l0.029-0.486c0.164-0.168,0.328-0.404,0.394-0.64
	c0.065-0.675-0.034-1.383-0.13-2.261c-0.067-0.406-0.164-0.744-0.164-1.183v-0.303v-0.034c0-0.59,0.303-1.081,0.75-1.283
	c0.169-0.104,0.361-0.167,0.562-0.167c0.687,0,1.212,0.607,1.212,1.384v0.337c0,0.438-0.096,0.775-0.164,1.18
	c-0.098,0.879-0.196,1.587-0.13,2.263c0.033,0.337,0.23,0.438,0.392,0.607c0,0.067,0.033,0.371,0.033,0.539
	c3.83,0.338,7.366,2.124,9.987,4.956l0.361-0.266c0.002,0,0.008,0.001,0.011,0.001l0.091-0.068c0.126,0.032,0.459,0.061,0.688-0.055
	c0.498-0.367,0.971-0.852,1.536-1.465c0.261-0.303,0.458-0.573,0.786-0.875c0.064-0.069,0.196-0.169,0.262-0.239
	c0.075-0.06,0.154-0.111,0.237-0.155c0.569-0.368,1.271-0.309,1.666,0.191c0.425,0.54,0.295,1.35-0.296,1.822
	c-0.063,0.068-0.195,0.169-0.261,0.237c-0.049,0.036-0.095,0.065-0.144,0.097c-0.312,0.249-0.63,0.383-0.974,0.578
	c-0.583,0.382-1.077,0.699-1.507,1.039c-0.064,0.059-0.134,0.115-0.193,0.176c-0.229,0.271-0.196,0.473-0.229,0.71
	c-0.066,0.067-0.295,0.303-0.427,0.404c1.049,1.585,1.835,3.408,2.263,5.366c0.457,1.958,0.522,3.879,0.261,5.769l0.491,0.136
	c0.099,0.135,0.262,0.438,0.524,0.54c0.623,0.203,1.31,0.271,2.162,0.371c0.393,0.035,0.72,0.035,1.146,0.103
	c0.098,0.033,0.262,0.067,0.36,0.1c0.721,0.202,1.146,0.843,1.016,1.517c-0.072,0.374-0.316,0.659-0.64,0.815
	c-0.285,0.182-0.643,0.253-1.002,0.166h-0.031h-0.033c-0.1-0.036-0.23-0.036-0.294-0.068c-0.428-0.101-0.723-0.27-1.082-0.438
	c-0.787-0.303-1.442-0.541-2.097-0.642c-0.153-0.016-0.271,0.016-0.373,0.065c-0.072,0.042-0.143,0.089-0.215,0.138
	c-0.001,0-0.005,0-0.006-0.001c-0.032,0.023-0.061,0.045-0.094,0.068c-0.085-0.03-0.291-0.059-0.453-0.088
	c-1.052,3.25-3.057,6.13-5.8,8.144c-0.169,0.125-0.352,0.236-0.528,0.355c-0.194,0.132-0.385,0.273-0.588,0.397
	c0.066,0.135,0.165,0.438,0.196,0.506c-0.064,0.236-0.195,0.405-0.098,0.743c0.263,0.607,0.622,1.215,1.083,1.958
	c0.228,0.337,0.456,0.606,0.654,0.979c0.063,0.101,0.131,0.236,0.164,0.336c0.271,0.623,0.093,1.327-0.397,1.671
	c-0.069,0.057-0.146,0.109-0.229,0.151c-0.59,0.304-1.341,0-1.67-0.71c-0.033-0.099-0.099-0.234-0.163-0.302
	c-0.164-0.405-0.23-0.742-0.362-1.147c-0.261-0.811-0.491-1.519-0.818-2.093c-0.197-0.271-0.391-0.303-0.623-0.371
	c-0.032-0.067-0.197-0.338-0.26-0.473c-0.655,0.271-1.345,0.473-2.064,0.642c-3.092,0.735-6.215,0.44-8.986-0.656l-0.216,0.419
	c-0.029,0.01-0.056,0.021-0.084,0.032l-0.017,0.034c-0.083,0.029-0.164,0.053-0.242,0.082c-0.065,0.037-0.131,0.071-0.182,0.124
	c-0.425,0.539-0.589,1.417-0.917,2.227c-0.132,0.405-0.197,0.742-0.361,1.146c-0.066,0.067-0.131,0.203-0.164,0.305
	c-0.168,0.362-0.448,0.617-0.761,0.741c-0.315,0.155-0.676,0.18-1.01,0.035c-0.59-0.304-0.82-1.081-0.525-1.755
	c0.034-0.101,0.099-0.235,0.165-0.337c0.196-0.372,0.425-0.641,0.655-0.978c0.459-0.742,0.851-1.384,1.081-2.025
	c0.066-0.203-0.033-0.506-0.097-0.709l0.229-0.54c-3.209-1.958-5.731-5.062-6.944-8.909l-0.523,0.1
	c-0.13-0.067-0.426-0.271-0.688-0.235c-0.655,0.1-1.31,0.337-2.097,0.64c-0.124,0.046-0.239,0.098-0.355,0.149
	c-0.031,0.014-0.062,0.027-0.094,0.042c-0.192,0.084-0.39,0.171-0.631,0.248c-0.096,0.033-0.195,0.033-0.326,0.067h-0.032h-0.033
	c-0.721,0.168-1.409-0.236-1.54-0.911C43.714,45.695,43.896,45.264,44.201,44.962 M76.507,73.947
	c0.325,0.234,0.748,0.368,1.302,0.37c0.349-0.002,0.672-0.035,1.022-0.1c0.326-0.069,0.622-0.17,0.851-0.27l0.002,0.012
	c0.011-0.005,0.023-0.009,0.033-0.013l0.262,1.688c-0.097,0.067-0.228,0.134-0.426,0.168c-0.071,0.013-0.137,0.03-0.205,0.05
	c-0.078,0.02-0.166,0.041-0.25,0.057c-0.045,0.009-0.083,0.021-0.133,0.028l-0.69,0.101c-0.123,0.02-0.258,0.027-0.392,0.031
	c-0.124,0.004-0.247,0.004-0.361,0.004c-0.623,0-1.147-0.101-1.604-0.304c-0.459-0.202-0.819-0.474-1.147-0.81
	c-0.294-0.338-0.525-0.742-0.656-1.181c-0.13-0.473-0.229-0.945-0.229-1.484c0-0.642,0.099-1.216,0.296-1.688
	c0.195-0.474,0.424-0.878,0.718-1.216c0.296-0.338,0.657-0.573,1.051-0.742c0.391-0.169,0.786-0.235,1.211-0.235h0.005
	c0.01,0,0.02-0.001,0.029-0.001c0.95,0,1.736,0.304,2.293,0.944c0.558,0.643,0.852,1.586,0.852,2.802v0.404
	c-0.034,0.134-0.034,0.27,0.001,0.37h-0.068l0,0h-4.319C75.981,73.374,76.179,73.711,76.507,73.947 M70.28,70.64
	c-0.162-0.268-0.454-0.403-0.911-0.404h-0.016c-0.103,0.001-0.214,0.02-0.335,0.027c-0.015,0.003-0.031,0.003-0.047,0.005
	c-0.132,0.035-0.294,0.035-0.426,0.035v5.603h-0.035h-1.932v-7.021c0.118-0.035,0.251-0.067,0.394-0.1
	c0.219-0.052,0.467-0.103,0.747-0.144c0.046-0.009,0.09-0.018,0.136-0.025c0.526-0.103,1.082-0.136,1.641-0.136
	c0.007,0,0.013,0.001,0.02,0.001c0.004,0,0.01-0.001,0.014-0.001c0.59,0,1.047,0.067,1.442,0.236
	c0.064,0.027,0.115,0.067,0.177,0.102c0.064,0.033,0.123,0.068,0.181,0.105c0.111,0.07,0.214,0.146,0.308,0.229
	c0.017,0.016,0.034,0.032,0.05,0.049c0.068,0.062,0.144,0.119,0.202,0.188c0.229,0.304,0.392,0.641,0.491,1.045
	c0.097,0.406,0.13,0.846,0.13,1.352v4.117h-0.034v0.001h-1.935v-3.848C70.541,71.382,70.444,70.91,70.28,70.64 M61.076,75.904V69.02
	c0.36-0.135,0.785-0.271,1.245-0.371c0.459-0.102,0.982-0.169,1.572-0.169c0.006,0,0.012,0.002,0.019,0.002
	c0.092,0,0.208,0.003,0.352,0.03c0.007,0,0.013,0.001,0.021,0.001c0.13,0,0.295,0.034,0.426,0.067c0.13,0,0.26,0.035,0.425,0.068
	c0.164,0,0.294,0.067,0.394,0.101l0,0h0.001l-0.327,1.687c-0.003,0-0.007,0-0.01-0.002c-0.191-0.031-0.384-0.063-0.606-0.129
	c-0.001-0.001-0.004-0.002-0.007-0.002c-0.23-0.035-0.491-0.067-0.754-0.067c-0.064,0-0.128,0.001-0.195,0.005
	c-0.022,0.001-0.047,0.007-0.069,0.009c-0.051,0.005-0.103,0.009-0.162,0.021c-0.163,0.034-0.293,0.034-0.393,0.068v5.567
	L61.076,75.904L61.076,75.904z M55.735,73.947c0.014,0.008,0.029,0.015,0.042,0.024c0.263,0.177,0.604,0.292,0.99,0.329
	c0.091,0.007,0.18,0.018,0.279,0.018c0.147,0,0.295-0.011,0.44-0.021c0.128-0.011,0.261-0.028,0.392-0.048
	c0.073-0.012,0.147-0.02,0.216-0.032c0.009-0.002,0.016-0.004,0.025-0.006c0.306-0.066,0.583-0.159,0.804-0.255
	c0.008-0.003,0.017-0.007,0.024-0.009v0.001l0.262,1.687c-0.098,0.067-0.229,0.101-0.425,0.169
	c-0.164,0.067-0.362,0.102-0.591,0.136c-0.229,0.033-0.426,0.066-0.687,0.1c-0.23,0.034-0.493,0.034-0.721,0.034
	c-0.623,0-1.146-0.101-1.604-0.304c-0.198-0.088-0.375-0.189-0.541-0.302c-0.068-0.047-0.132-0.094-0.195-0.143
	c-0.144-0.112-0.28-0.231-0.409-0.364c-0.001-0.001-0.002-0.001-0.002-0.002c-0.295-0.337-0.524-0.708-0.654-1.182
	c-0.164-0.438-0.231-0.944-0.231-1.484c0-0.641,0.099-1.215,0.296-1.686c0.164-0.474,0.425-0.878,0.721-1.217
	c0.293-0.337,0.654-0.573,1.047-0.742c0.394-0.168,0.787-0.235,1.213-0.235c0.125,0,0.24,0.02,0.359,0.031
	c0.799,0.066,1.439,0.353,1.922,0.903c0.003,0.004,0.007,0.006,0.011,0.01l0.001,0.001c0.557,0.642,0.851,1.552,0.851,2.802v0.404
	c0,0.005-0.001,0.01-0.001,0.014v0.355h-0.031l0,0h-4.356C55.212,73.374,55.409,73.711,55.735,73.947 M47.612,65.172v3.585
	c0.209-0.09,0.417-0.179,0.624-0.208c0.036-0.006,0.076-0.011,0.113-0.015c0.21-0.047,0.439-0.055,0.671-0.055
	c0.492,0,0.917,0.1,1.278,0.27c0.361,0.17,0.688,0.439,0.95,0.776c0.262,0.337,0.425,0.742,0.557,1.181
	c0.132,0.44,0.196,0.979,0.196,1.554c0,0.573-0.065,1.113-0.229,1.585c-0.164,0.474-0.393,0.877-0.689,1.215
	c-0.293,0.337-0.687,0.574-1.113,0.775c-0.424,0.202-0.949,0.271-1.506,0.271h-0.003c-0.01,0-0.019,0.001-0.029,0.001
	c-0.229,0-0.459,0-0.721-0.035c-0.262-0.034-0.491-0.067-0.752-0.101c-0.263-0.032-0.493-0.066-0.722-0.135
	c-0.074-0.021-0.142-0.038-0.208-0.056c-0.039-0.011-0.079-0.02-0.115-0.032c-0.097-0.023-0.186-0.049-0.266-0.083V65.51l1.9-0.335
	v0.009L47.612,65.172z M37.917,68.616L37.917,68.616L37.917,68.616l1.932-0.001v0.001v3.812c0,0.675,0.099,1.146,0.262,1.451
	c0.165,0.304,0.459,0.439,0.917,0.439c0.13,0,0.262-0.035,0.426-0.035h0.009c0.155-0.001,0.281-0.03,0.407-0.031
	c0.003-0.001,0.006-0.001,0.011-0.002v-5.603h1.932v7.018v0.001c-0.326,0.103-0.751,0.203-1.272,0.271c-0.002,0-0.003,0-0.005,0
	c-0.515,0.099-1.058,0.132-1.604,0.133c-0.01,0-0.022,0.002-0.033,0.002c-0.589,0-1.049-0.068-1.44-0.235
	c-0.003-0.002-0.005-0.004-0.008-0.005c-0.19-0.083-0.358-0.18-0.505-0.294c-0.004-0.004-0.011-0.008-0.016-0.012
	c-0.146-0.115-0.273-0.246-0.384-0.394l-0.006-0.005c-0.229-0.303-0.394-0.641-0.491-1.08c-0.098-0.404-0.131-0.877-0.131-1.385
	V68.616z M30.58,65.51l1.901-0.336v0.043l0.063-0.011v5.97c0.175-0.186,0.351-0.394,0.527-0.604l0.588-0.71
	c0.164-0.235,0.361-0.473,0.525-0.674c0.163-0.201,0.293-0.371,0.425-0.54h0.03h2.293c-0.458,0.574-0.917,1.113-1.342,1.619
	c-0.425,0.507-0.917,1.046-1.442,1.587c0.262,0.234,0.525,0.539,0.819,0.877c0.262,0.338,0.558,0.71,0.82,1.08
	c0.261,0.371,0.491,0.742,0.72,1.113s0.393,0.71,0.558,1.013h-0.034h-2.228c-0.129-0.235-0.293-0.506-0.458-0.81
	c-0.163-0.303-0.361-0.574-0.558-0.877c-0.196-0.304-0.393-0.573-0.623-0.844c-0.216-0.256-0.407-0.479-0.622-0.646v3.176h-1.933
	v-0.033H30.58V65.51z M100.025,102.193H29.99V78.772h70.036V102.193z"/>
</svg>
