<svg xmlns="http://www.w3.org/2000/svg" width="28.834" height="28.833" viewBox="0 0 28.834 28.833">
  <g id="Group_286" data-name="Group 286" transform="translate(-250.648 -405.102)">
    <g id="Group_167" data-name="Group 167">
      <path id="Path_115" data-name="Path 115" d="M265.065,433.935a14.417,14.417,0,1,1,14.417-14.417A14.433,14.433,0,0,1,265.065,433.935Zm0-26.938a12.522,12.522,0,1,0,12.522,12.521A12.536,12.536,0,0,0,265.065,407Z" fill="#51d8ba"/>
    </g>
    <g id="Group_168" data-name="Group 168">
      <path id="Path_116" data-name="Path 116" d="M265.065,426.453A6.934,6.934,0,1,1,272,419.518,6.942,6.942,0,0,1,265.065,426.453Zm0-11.974a5.04,5.04,0,1,0,5.039,5.039A5.045,5.045,0,0,0,265.065,414.479Z" fill="#51d8ba"/>
    </g>
    <g id="Group_169" data-name="Group 169">
      <rect id="Rectangle_54" data-name="Rectangle 54" width="5.986" height="8.98" transform="translate(262.072 406.049)" fill="#51d8ba"/>
    </g>
    <g id="Group_170" data-name="Group 170">
      <rect id="Rectangle_55" data-name="Rectangle 55" width="5.986" height="8.98" transform="translate(262.072 424.009)" fill="#51d8ba"/>
    </g>
    <g id="Group_171" data-name="Group 171">
      <rect id="Rectangle_56" data-name="Rectangle 56" width="8.98" height="5.986" transform="translate(251.595 416.526)" fill="#51d8ba"/>
    </g>
    <g id="Group_172" data-name="Group 172">
      <rect id="Rectangle_57" data-name="Rectangle 57" width="8.98" height="5.986" transform="translate(269.555 416.526)" fill="#51d8ba"/>
    </g>
  </g>
</svg>
