<svg xmlns="http://www.w3.org/2000/svg" width="49.16" height="67.333" viewBox="0 0 49.16 67.333">
  <g id="Group_288" data-name="Group 288" transform="translate(-779.501 -3295.536)">
    <g id="Group_70" data-name="Group 70">
      <path id="Path_57" data-name="Path 57" d="M804.081,3310.625a7.545,7.545,0,1,1,7.546-7.545A7.555,7.555,0,0,1,804.081,3310.625Zm0-10.059a2.515,2.515,0,1,0,2.515,2.514A2.517,2.517,0,0,0,804.081,3300.566Z" fill="#c7b299"/>
    </g>
    <g id="Group_71" data-name="Group 71">
      <path id="Path_58" data-name="Path 58" d="M821.686,3362.869h-35.21a6.983,6.983,0,0,1-6.975-6.977v-45.267a6.984,6.984,0,0,1,6.975-6.977h5.031a1.947,1.947,0,0,1,0,3.894h-5.031a3.086,3.086,0,0,0-3.081,3.083v45.267a3.086,3.086,0,0,0,3.081,3.083h35.21a3.087,3.087,0,0,0,3.082-3.083v-45.267a3.087,3.087,0,0,0-3.082-3.083h-5.031a1.947,1.947,0,0,1,0-3.894h5.031a6.984,6.984,0,0,1,6.975,6.977v45.267A6.983,6.983,0,0,1,821.686,3362.869Z" fill="#c7b299"/>
    </g>
    <g id="Group_72" data-name="Group 72">
      <path id="Path_59" data-name="Path 59" d="M809.111,3303.08a5.03,5.03,0,1,1-10.06,0h-7.544v5.03a5.028,5.028,0,0,0,5.029,5.029h15.09a5.028,5.028,0,0,0,5.029-5.029v-5.03Zm-5.03,17.6a15.089,15.089,0,1,0,15.089,15.089A15.088,15.088,0,0,0,804.081,3320.684Zm6.808,14.352-7.545,7.545a2.513,2.513,0,0,1-3.556,0l-3.264-3.265a2.514,2.514,0,0,1,3.556-3.556l1.486,1.487,5.767-5.767a2.514,2.514,0,0,1,3.556,3.556Z" fill="#c7b299"/>
    </g>
  </g>
</svg>
