<svg xmlns="http://www.w3.org/2000/svg" xmlns:xlink="http://www.w3.org/1999/xlink" id="Layer_1" width="26px" height="26px" x="0px" y="0px" enable-background="new 0 0 26 26" version="1.1" viewBox="0 0 26 26" xml:space="preserve">
    <path d="M21.707,17.028c-1.537-0.777-3.188-1.419-4.932-1.419c-1.742,0-3.183,0.642-4.516,1.419
	c-1.23,0.649-2.352,1.177-3.684,1.177c-0.271,0-0.521-0.04-0.775-0.079v2.596C8.055,20.76,8.306,20.8,8.576,20.8
	c1.742,0,3.088-0.641,4.42-1.42c1.23-0.648,2.345-1.176,3.779-1.176c1.436,0,2.755,0.656,4.292,1.176
	c1.537,0.649,3.191,1.42,4.933,1.42v-2.596C24.564,18.204,23.245,17.548,21.707,17.028"/>
    <path d="M8.551,15.6c1.741,0,3.088-0.641,4.42-1.419c1.229-0.648,2.346-1.177,3.778-1.177
	c1.437,0,2.755,0.657,4.293,1.177c1.536,0.648,3.191,1.419,4.933,1.419v-2.596c-1.436,0-2.754-0.656-4.292-1.176
	c-1.538-0.779-3.191-1.42-4.934-1.42s-3.183,0.641-4.515,1.42c-1.231,0.648-2.352,1.176-3.684,1.176
	c-0.264,0-0.505-0.039-0.75-0.077v2.597C8.046,15.561,8.287,15.6,8.551,15.6"/>
    <path d="M16.75,5.2c-1.742,0-3.185,0.641-4.517,1.419c-1.229,0.649-2.35,1.177-3.683,1.177
	c-0.264,0-0.504-0.039-0.75-0.076v2.595c0.246,0.038,0.486,0.076,0.75,0.076c1.742,0,3.088-0.641,4.42-1.419
	c1.229-0.648,2.345-1.176,3.779-1.176c1.436,0,2.754,0.656,4.293,1.176c1.537,0.648,3.189,1.419,4.932,1.419V7.796
	c-1.301,0-2.514-0.538-3.874-1.026V3.899C22.101,1.75,20.352,0,18.2,0H7.801C5.649,0,3.9,1.75,3.9,3.899v2.434
	C2.961,5.898,1.964,5.589,0.776,5.589C0.506,5.589,0.254,5.628,0,5.668v2.596c0.254-0.04,0.506-0.079,0.776-0.079
	c1.127,0,2.106,0.385,3.124,0.895v2.466c-0.948-0.442-1.953-0.757-3.15-0.757c-0.263,0-0.504,0.039-0.75,0.077v2.597
	c0.246-0.037,0.487-0.076,0.75-0.076c1.138,0,2.123,0.391,3.15,0.906v2.463c-0.948-0.442-1.953-0.757-3.15-0.757
	c-0.263,0-0.504,0.039-0.75,0.076v2.597c0.246-0.037,0.487-0.076,0.75-0.076c1.138-0.002,2.122,0.389,3.15,0.905v2.6
	c0,2.15,1.749,3.9,3.9,3.9H18.2c2.151,0,3.9-1.75,3.9-3.9v-0.991c-0.349-0.146-0.694-0.293-1.033-0.436
	c-0.546-0.185-1.06-0.38-1.567-0.563v1.99c0,0.718-0.582,1.3-1.3,1.3H7.801c-0.719,0-1.301-0.582-1.301-1.3v-18.2
	c0-0.717,0.582-1.3,1.301-1.3H18.2c0.718,0,1.3,0.583,1.3,1.3v1.796C18.61,5.397,17.695,5.2,16.75,5.2"/>
</svg>
