<svg xmlns="http://www.w3.org/2000/svg" xmlns:xlink="http://www.w3.org/1999/xlink" id="Layer_1" width="28px" height="28px" x="0px" y="0px" enable-background="new 0 0 28 28" version="1.1" viewBox="0 0 28 28" xml:space="preserve">
    <g>
        <path d="M28,22.142H0V2.5h28V22.142z M1.708,20.397h24.584V4.244H1.708V20.397z"/>
        <rect width="13.145" height="1.744" x="7.427" y="23.756" />
        <rect width="4.381" height="2.237" x="17.286" y="16.796" />
        <rect width="4.382" height="2.237" x="11.809" y="16.796" />
        <rect width="4.381" height="2.237" x="6.332" y="16.796" />
        <path d="M16.263,12.305c0.48-0.55,0.782-1.348,0.782-2.141c0-1.714-1.366-3.149-3.046-3.149
		c-1.679,0-3.045,1.375-3.045,3.088c0,0.794,0.301,1.663,0.782,2.212C10.607,13.071,9.859,14,9.859,16h1.708c0-2,1.09-3,2.429-3
		c0.001,0,0.001,0,0.002,0s0.002,0,0.003,0c1.34,0,2.43,1,2.43,3h1.708C18.14,14,17.392,13.062,16.263,12.305z M12.662,9.86
		c0-0.753,0.601-1.252,1.337-1.252c0.737,0,1.338,0.443,1.338,1.197c0,0.751-0.599,1.195-1.335,1.195c-0.001,0-0.002,0-0.003,0
		s-0.001,0-0.002,0C13.26,11,12.662,10.611,12.662,9.86z"/>
    </g>
</svg>
