<svg xmlns="http://www.w3.org/2000/svg" xmlns:xlink="http://www.w3.org/1999/xlink" id="Layer_1" width="26px" height="26px" x="0px" y="0px" enable-background="new 0 0 26 26" version="1.1" viewBox="0 0 26 26" xml:space="preserve">
    <path d="M12.524,17.169H7.626v-1.143c3.01-3.543,3.083-4.309,3.083-4.763c0-0.369-0.051-1.182-0.743-1.182
	c-0.839,0-0.856,1.194-0.856,1.394H7.488c-0.006-0.523,0.308-2.734,2.506-2.734c2.307,0,2.342,1.992,2.342,2.357
	c0,1.385-0.733,2.061-2.638,4.729h2.826V17.169z"/>
    <polygon points="7.8,7.8 1.3,7.8 1.3,1.3 "/>
    <path d="M17.805,14.03h0.709v1.343h-0.709v1.8h-1.617v-1.8h-2.753l-0.074-1.045l2.821-5.473h1.623V14.03z
	 M14.93,14.03h1.258v-2.782l-0.033,0.062L14.93,14.03z"/>
    <rect width="2.6" height="2.6" x="11.701" y="1.3"/>
    <rect width="2.6" height="2.601" x="11.701" y="22.1"/>
    <rect width="2.602" height="2.601" x="22.1" y="11.699"/>
    <rect width="2.601" height="2.601" x="1.299" y="11.699"/>
    <path d="M13,0C8.2,0,4.011,2.62,1.759,6.5h3.136C6.802,4.126,9.724,2.6,13,2.6c5.734,0,10.4,4.666,10.4,10.4
	c0,5.733-4.666,10.399-10.4,10.399C7.266,23.399,2.6,18.733,2.6,13c0-0.441,0.037-0.874,0.089-1.301H0.066
	C0.023,12.127,0,12.561,0,13c0,7.168,5.832,13,13,13s13-5.832,13-13C26,5.831,20.168,0,13,0"/>
</svg>
