<svg xmlns="http://www.w3.org/2000/svg" viewBox="0 0 37 37"><defs><style>.a{fill:#ff6382;}</style></defs><path class="a" d="M29.722,3H13.278A10.279,10.279,0,0,0,3,13.278V29.722A10.279,10.279,0,0,0,13.278,40H29.722A10.279,10.279,0,0,0,40,29.722V13.278A10.279,10.279,0,0,0,29.722,3ZM21.5,31.778A10.278,10.278,0,1,1,31.778,21.5,10.279,10.279,0,0,1,21.5,31.778ZM33.833,11.222a2.056,2.056,0,1,1,2.056-2.056A2.056,2.056,0,0,1,33.833,11.222Z" transform="translate(-3 -3)"/><ellipse class="a" cx="6.109" cy="6.109" rx="6.109" ry="6.109" transform="translate(12.391 12.391)"/></svg>