<svg xmlns="http://www.w3.org/2000/svg" width="25.768" height="28.764" viewBox="0 0 25.768 28.764">
  <g id="Group_292" data-name="Group 292" transform="translate(-1185.508 -3527.367)">
    <path id="Path_65" data-name="Path 65" d="M1201.088,3553.842v-6.189a1.7,1.7,0,0,1,1.7-1.7c.243,0,.524,1.078.7,1.189l3.6,1.8v-14.023l-7.551-7.551h-14.022v27.566h16A1.68,1.68,0,0,1,1201.088,3553.842Zm-1.8-25.037,6.352,6.352h-6.352Zm-1.8,8.749a5.393,5.393,0,0,1,5.393,5.394h-5.393Zm-2.4,13.184a5.394,5.394,0,0,1,0-10.787v5.394h5.393A5.392,5.392,0,0,1,1195.1,3550.738Z" fill="#c7b299"/>
    <path id="Path_66" data-name="Path 66" d="M1201.628,3556.131a1.179,1.179,0,0,1-1.139-1.138v-8.51a1.138,1.138,0,0,1,1.139-1.138.356.356,0,0,1,.239.06l8.45,4.194c.24.12.959.48.959,1.139s-.719,1.019-.959,1.139l-8.45,4.194A.356.356,0,0,1,1201.628,3556.131Zm.06-9.468v8.21l8.149-4.015c.06,0,.06-.06.12-.06-.06,0-.06-.06-.12-.06Z" fill="#c7b299"/>
  </g>
</svg>
