<svg version="1.1" id="Layer_1" xmlns="http://www.w3.org/2000/svg" xmlns:xlink="http://www.w3.org/1999/xlink" x="0px" y="0px"
	 width="80px" height="80px" viewBox="0 0 80 80" enable-background="new 0 0 80 80" xml:space="preserve">
<g>
	<path d="M80,11.293H0V0h80V11.293z M0.987,10.306h78.024V0.988H0.987V10.306z"/>
	<rect x="0.567" y="58.399" width="78.864" height="0.988"/>
	<path d="M72.817,59.388H7.182V10.306h65.635V59.388z M8.17,58.399h63.659V11.293H8.17V58.399z"/>
	<rect x="39.505" y="58.894" width="0.987" height="10.092"/>
	<path d="M39.999,80c-3.243,0-5.881-2.534-5.881-5.647s2.638-5.646,5.881-5.646c3.243,0,5.882,2.533,5.882,5.646
		S43.242,80,39.999,80z M39.999,69.693c-2.698,0-4.894,2.09-4.894,4.659s2.195,4.66,4.894,4.66c2.699,0,4.895-2.091,4.895-4.66
		S42.697,69.693,39.999,69.693z"/>
	<polygon points="58.45,38.282 57.462,38.282 57.462,25.034 47.182,25.034 47.182,24.046 58.45,24.046 	"/>
	<polygon points="22.536,38.282 21.548,38.282 21.548,24.046 32.816,24.046 32.816,25.034 22.536,25.034 	"/>
	<rect x="39.505" y="27.976" width="0.987" height="10.307"/>
	<path d="M47.676,28.469H32.322V17.176h15.354V28.469z M33.31,27.481h13.379v-9.317H33.31V27.481z"/>
	<path d="M45.88,49.082H34.118V37.789H45.88V49.082z M35.105,48.094h9.788v-9.318h-9.788V48.094z"/>
	<path d="M65.633,49.082H53.871V37.789h11.762V49.082z M54.859,48.094h9.787v-9.318h-9.787V48.094z"/>
	<path d="M26.127,49.082H14.365V37.789h11.762V49.082z M15.353,48.094h9.787v-9.318h-9.787V48.094z"/>
</g>
</svg>
