<svg xmlns="http://www.w3.org/2000/svg" width="31" height="31" viewBox="0 0 31 31">
  <path fill="#8A63FA" d="M18.054,0 L32,0.016 L32,13.956 L15.486,30.092 C14.913327,30.7013252 14.1055086,31.0337974 13.2698353,31.0041025 C12.4341621,30.9744075 11.6519795,30.585436 11.124,29.937 L1.934,20.791 C1.33455788,20.1957022 0.997444226,19.3858138 0.997444226,18.541 C0.997444226,17.6961862 1.33455788,16.8862978 1.934,16.291 L18.054,0 Z M22.546,17.135 L22.554,17.127 C23.7290466,15.9524894 24.1882404,14.2403169 23.7586076,12.6354414 C23.3289749,11.030566 22.0757869,9.77680621 20.4711076,9.34644139 C18.8664283,8.91607657 17.1540465,9.37448932 15.979,10.549 L13.788,12.742 L12.688,11.642 L11.588,12.742 L12.688,13.842 L11.588,14.942 C10.9828055,15.5466256 10.0021945,15.5466256 9.397,14.942 L7.206,17.135 L14.879,24.811 L17.058,22.626 L12.473,18.037 C12.9546597,17.8157899 13.3944653,17.5130007 13.773,17.142 L14.873,16.042 L17.064,18.235 L18.164,17.135 L15.973,14.942 L18.164,12.749 C18.7705067,12.1494364 19.7474333,12.1524712 20.3502033,12.7557914 C20.9529732,13.3591116 20.9551167,14.3360406 20.355,14.942 L22.546,17.135 Z M26.546,7.766 L26.547,7.766 C27.819622,7.73607516 28.8452495,6.71352633 28.879,5.441 C28.8526923,4.16942173 27.8143504,3.15233994 26.5425,3.15233994 C25.2706496,3.15233994 24.2323077,4.16942173 24.206,5.441 C24.2404279,6.71633372 25.2704713,7.73977427 26.546,7.766 Z" transform="translate(-1)"/>
</svg>
