<svg version="1.1" id="Layer_1" xmlns="http://www.w3.org/2000/svg" xmlns:xlink="http://www.w3.org/1999/xlink" x="0px" y="0px"
	 width="80px" height="80px" viewBox="0 0 80 80" enable-background="new 0 0 80 80" xml:space="preserve">
<g>
	<path d="M40,0C17.944,0,0,17.944,0,40C0,62.057,17.944,80,40,80C62.056,80,80,62.057,80,40C80,17.944,62.056,0,40,0z M40,79.013
		C18.489,79.013,0.987,61.512,0.987,40C0.987,18.489,18.489,0.988,40,0.988c21.511,0,39.011,17.501,39.011,39.012
		C79.012,61.512,61.511,79.013,40,79.013z"/>
	<path d="M40,13.742c-14.479,0-26.259,11.78-26.259,26.258c0,14.479,11.78,26.259,26.259,26.259
		c14.479,0,26.258-11.779,26.258-26.259C66.259,25.521,54.479,13.742,40,13.742z M40,65.271c-13.935,0-25.271-11.337-25.271-25.271
		c0-13.934,11.337-25.271,25.271-25.271c13.934,0,25.271,11.336,25.271,25.271C65.271,53.935,53.935,65.271,40,65.271z"/>
	<path d="M30.747,52.852L54.5,40L30.747,27.148V52.852z M31.747,28.805L52.438,40L31.747,51.195V28.805z"/>
</g>
</svg>