<svg xmlns="http://www.w3.org/2000/svg" viewBox="0 0 32 32">
    <defs>
        <style>
            .a,.b{fill:#1b1c29;}.b{fill-rule:evenodd;}
        </style>
    </defs>
    <g transform="translate(-1304 253)">
        <path d="M1180,32a16,16,0,1,1,16-15.951A16.028,16.028,0,0,1,1180,32m0-30.818a14.769,14.769,0,1,0,14.724,14.769A14.727,14.727,0,0,0,1180,1.182" class="a" transform="translate(140 -253)"/>
        <path d="M1180,5.8a10.116,10.116,0,0,0-10.1,10.145,10.233,10.233,0,0,0,6.9,9.658c.486.1.68-.2.68-.488V23.359c-2.817.585-3.4-1.366-3.4-1.366a2.647,2.647,0,0,0-1.166-1.463c-.874-.585.1-.585.1-.585a2.341,2.341,0,0,1,1.554,1.073,2.18,2.18,0,0,0,2.914.878,2.261,2.261,0,0,1,.68-1.366c-2.234-.293-4.565-1.171-4.565-4.975a3.841,3.841,0,0,1,1.068-2.731,3.632,3.632,0,0,1,.1-2.731s.874-.293,2.817,1.073a19.577,19.577,0,0,1,2.525-.39,7.213,7.213,0,0,1,2.525.39c1.943-1.268,2.817-1.073,2.817-1.073a3.675,3.675,0,0,1,.1,2.731,3.841,3.841,0,0,1,1.068,2.731c0,3.9-2.331,4.78-4.662,4.975a2.348,2.348,0,0,1,.68,1.853v2.829c0,.293.194.585.68.488a10.233,10.233,0,0,0,6.9-9.658A10.346,10.346,0,0,0,1180,5.8Z" class="b" transform="translate(140 -253)"/>
    </g>
</svg>
