<svg xmlns="http://www.w3.org/2000/svg" viewBox="0 0 24 20"><defs><style>.a{fill:#3f56ea;}</style></defs><path class="a" d="M28,8.616a9.642,9.642,0,0,1-2.828.795,5.041,5.041,0,0,0,2.165-2.793A9.717,9.717,0,0,1,24.21,7.842a4.861,4.861,0,0,0-3.594-1.594A4.988,4.988,0,0,0,15.692,11.3a5.243,5.243,0,0,0,.127,1.15A13.868,13.868,0,0,1,5.67,7.172a5.142,5.142,0,0,0,1.524,6.741,4.815,4.815,0,0,1-2.23-.632v.064A5.021,5.021,0,0,0,8.914,18.3a4.82,4.82,0,0,1-2.224.087,4.948,4.948,0,0,0,4.6,3.507A9.74,9.74,0,0,1,4,23.98a13.687,13.687,0,0,0,7.548,2.268c9.057,0,14.009-7.693,14.009-14.366,0-.218,0-.437-.014-.653A10.17,10.17,0,0,0,28,8.616Z" transform="translate(-4 -6.248)"/></svg>