<svg xmlns="http://www.w3.org/2000/svg" xmlns:xlink="http://www.w3.org/1999/xlink" id="Layer_1" width="26px" height="26px" x="0px" y="0px" enable-background="new 0 0 26 26" version="1.1" viewBox="0 0 26 26" xml:space="preserve">
    <path d="M10.884,10.66c0.138-0.26,0.274-0.521,0.274-0.909v-0.65c0-0.39-0.136-0.65-0.274-0.91
	c-0.137-0.26-0.41-0.39-0.681-0.39c-0.273,0-0.547,0.259-0.684,0.39c-0.137,0.26-0.273,0.521-0.273,0.91v0.65
	c0,0.389,0.136,0.649,0.273,0.909c0.136,0.261,0.411,0.391,0.684,0.391C10.474,11.051,10.747,10.921,10.884,10.66"/>
    <path d="M15.932,14.95c-0.272,0-0.547,0.13-0.682,0.391c-0.137,0.26-0.272,0.52-0.272,0.91V16.9
	c0,0.391,0.136,0.65,0.272,0.91c0.135,0.26,0.409,0.39,0.682,0.39c0.41,0,0.546-0.13,0.682-0.39c0.138-0.26,0.138-0.52,0.138-0.91
	v-0.649c0-0.391-0.138-0.65-0.273-0.91C16.478,15.08,16.205,14.95,15.932,14.95"/>
    <path d="M24.392,13.001l1.502-2.99c0.271-0.65,0-1.431-0.548-1.82L22.209,6.63l-0.547-3.25
	c-0.137-0.779-0.818-1.169-1.636-1.169l-3.412,0.52l-2.456-2.34c-0.546-0.521-1.365-0.521-1.909,0l-2.73,2.34l-3.412-0.52
	c-0.816-0.131-1.5,0.39-1.637,1.169L3.925,6.63L0.788,8.19c-0.684,0.39-0.956,1.17-0.684,1.82l1.638,2.99L0.241,15.99
	c-0.272,0.65,0,1.431,0.547,1.82l3.137,1.56l0.545,3.25c0.136,0.78,0.82,1.171,1.637,1.171l3.412-0.521l2.457,2.34
	c0.545,0.52,1.365,0.52,1.91,0l2.456-2.34l3.411,0.521c0.818,0.13,1.502-0.391,1.637-1.171l0.546-3.25l3.138-1.56
	c0.684-0.39,0.956-1.17,0.547-1.82L24.392,13.001z M8.291,11.7c-0.409-0.52-0.681-1.17-0.681-1.949v-0.65
	c0-0.78,0.272-1.301,0.681-1.82c0.411-0.52,1.091-0.779,1.911-0.779c0.82,0,1.5,0.26,1.911,0.779c0.544,0.52,0.681,1.04,0.681,1.82
	v0.65c0,0.779-0.273,1.43-0.681,1.819c-0.411,0.521-1.091,0.78-1.911,0.78C9.382,12.351,8.702,12.091,8.291,11.7 M10.884,18.33
	l-1.228-0.649L15.25,7.8l1.228,0.65L10.884,18.33z M18.524,16.9c0,0.78-0.273,1.43-0.682,1.82c-0.409,0.39-1.091,0.78-1.912,0.78
	c-0.818,0-1.499-0.261-1.909-0.78c-0.41-0.521-0.681-1.171-0.681-1.82v-0.649c0-0.78,0.271-1.301,0.681-1.82
	c0.41-0.521,1.091-0.78,1.909-0.78c0.821,0,1.503,0.26,1.912,0.78c0.408,0.52,0.682,1.17,0.682,1.82V16.9z"/>
</svg>
