<svg xmlns="http://www.w3.org/2000/svg" width="39" height="25" viewBox="0 0 39 25">
  <path fill="#3F56EA" d="M33.095,19.086 L33.0950189,2.63785322 C33.0971694,2.288003 32.8155224,2.00253589 32.473,2 L6.53432505,1.99997317 C6.18447761,2.00253589 5.90283062,2.288003 5.905,2.644 L5.90498111,19.0921468 C5.90283062,19.441997 6.18447761,19.7274641 6.527,19.73 L32.4684976,19.73 C32.8170361,19.7259273 33.0971635,19.4410391 33.095,19.086 Z M32.480325,21.7299732 L6.51967495,21.7299732 C5.06620781,21.7193262 3.89608451,20.5333319 3.905,19.086 L3.90501889,2.65014678 C3.89608451,1.1966681 5.06620781,0.0106738331 6.527,1.77635684e-15 L32.480325,2.68285359e-05 C33.9337922,0.0106738331 35.1039155,1.1966681 35.095,2.644 L35.0949811,19.0798532 C35.1039155,20.5333319 33.9337922,21.7193262 32.480325,21.7299732 Z M1.15463195e-14,25 L1.15463195e-14,23 L39,23 L39,25 L1.15463195e-14,25 Z"/>
</svg>
