<svg xmlns="http://www.w3.org/2000/svg" width="30" height="30" viewBox="0 0 30 30">
  <path fill="#FF6382" d="M4.022,6 C2.3668026,6 1.025,4.6581974 1.025,3.003 C1.025,1.3478026 2.3668026,0.006 4.022,0.006 C5.6771974,0.006 7.019,1.3478026 7.019,3.003 C7.019,4.6581974 5.6771974,6 4.022,6 Z M6.571,12.94 L18.111,24.521 C16.6803521,24.4908762 15.2632217,24.2371424 13.911,23.769 C13.311,23.619 11.211,23.318 10.311,24.069 C8.363,26.024 6.711,28.581 5.811,29.483 C4.911,30.385 3.563,30.083 2.211,28.731 C1.011,27.531 0.562,26.024 1.462,25.121 C3.39783783,23.7782284 5.25273013,22.3223633 7.017,20.761 C7.917,19.861 7.467,17.452 7.317,17.151 C6.78042328,15.813848 6.5264285,14.3801054 6.571,12.94 Z M27.552,3.465 C33.247,9.03 31.149,16.55 26.653,21.213 C25.0120537,22.8368823 22.9252868,23.9361333 20.658,24.371 L6.717,10.384 C7.08530212,8.08876068 8.19105549,5.97589416 9.867,4.365 C14.513,-0.145 22.007,-2.25 27.552,3.465 Z" transform="translate(-1)"/>
</svg>
