<svg xmlns="http://www.w3.org/2000/svg" width="26.517" height="25.7" viewBox="0 0 26.517 25.7">
  <g id="Group_291" data-name="Group 291" transform="translate(-907.136 -3531.464)">
    <path id="Path_64" data-name="Path 64" d="M915.912,3557.163a.581.581,0,0,1-.2-.037,13.259,13.259,0,1,1,9.372,0,.568.568,0,0,1-.441-.013.578.578,0,0,1-.3-.322l-2.853-7.555a.576.576,0,0,1,.335-.743,4.035,4.035,0,1,0-2.85,0,.577.577,0,0,1,.336.743l-2.854,7.554a.575.575,0,0,1-.3.322A.557.557,0,0,1,915.912,3557.163Z" fill="#c7b299"/>
  </g>
</svg>
