<svg xmlns="http://www.w3.org/2000/svg" xmlns:xlink="http://www.w3.org/1999/xlink" id="Layer_1" width="26px" height="26px" x="0px" y="0px" enable-background="new 0 0 26 26" version="1.1" viewBox="0 0 26 26" xml:space="preserve">
    <g>
        <polygon points="26,17.899 10.338,17.899 10.338,15.899 23.952,15.899 23.952,3.6 10.338,3.6 10.338,1.6 26,1.6 	
		"/>
        <rect width="2.047" height="2.6" x="13.308"/>
        <polygon points="15.661,16.899 13,16.899 16.993,24.699 19.654,24.699 	"/>
        <rect width="6.654" height="10.399" x="2.354" y="7.8"/>
        <path d="M2.047,18.199H0v-7.765C0,8.431,1.669,6.8,3.721,6.8h11.94v2H3.721c-0.923,0-1.674,0.733-1.674,1.634
		V18.199z"/>
        <rect width="2.047" height="10.365" x="2.661" y="15.635"/>
        <rect width="2.047" height="10.365" x="6.654" y="15.635"/>
        <path d="M5.681,0c1.837,0,3.327,1.455,3.327,3.25S7.518,6.5,5.681,6.5S2.354,5.045,2.354,3.25S3.843,0,5.681,0"/>
        <polygon points="13,16.899 10.338,22.532 10.338,24.699 11.668,24.699 15.662,16.899 	"/>
    </g>
</svg>
