<svg xmlns="http://www.w3.org/2000/svg" width="25.401" height="26" viewBox="0 0 25.401 26">
  <g id="Group_270" data-name="Group 270" transform="translate(-785.678 -2412.879)">
    <g id="Group_224" data-name="Group 224">
      <path id="Path_162" data-name="Path 162" d="M811.079,2430.78h-15.3v-2h13.3v-12.3h-13.3v-2h15.3Z" fill="#45cffd"/>
    </g>
    <g id="Group_225" data-name="Group 225">
      <rect id="Rectangle_68" data-name="Rectangle 68" width="2" height="2.601" transform="translate(798.678 2412.879)" fill="#45cffd"/>
    </g>
    <g id="Group_226" data-name="Group 226">
      <path id="Path_163" data-name="Path 163" d="M800.978,2429.78h-2.6l3.9,7.8h2.6Z" fill="#45cffd"/>
    </g>
    <g id="Group_227" data-name="Group 227">
      <rect id="Rectangle_69" data-name="Rectangle 69" width="6.5" height="10.4" transform="translate(787.978 2420.68)" fill="#45cffd"/>
    </g>
    <g id="Group_228" data-name="Group 228">
      <path id="Path_164" data-name="Path 164" d="M787.678,2431.08h-2v-7.765a3.64,3.64,0,0,1,3.635-3.636h11.665v2H789.313a1.638,1.638,0,0,0-1.635,1.636Z" fill="#45cffd"/>
    </g>
    <g id="Group_229" data-name="Group 229">
      <rect id="Rectangle_70" data-name="Rectangle 70" width="2" height="10.364" transform="translate(788.279 2428.515)" fill="#45cffd"/>
    </g>
    <g id="Group_230" data-name="Group 230">
      <rect id="Rectangle_71" data-name="Rectangle 71" width="2" height="10.364" transform="translate(792.178 2428.515)" fill="#45cffd"/>
    </g>
    <g id="Group_231" data-name="Group 231">
      <circle id="Ellipse_16" data-name="Ellipse 16" cx="3.25" cy="3.25" r="3.25" transform="translate(787.978 2412.88)" fill="#45cffd"/>
    </g>
    <g id="Group_232" data-name="Group 232">
      <path id="Path_165" data-name="Path 165" d="M798.378,2429.78l-2.6,5.633v2.167h1.3l3.9-7.8Z" fill="#45cffd"/>
    </g>
  </g>
</svg>
