<svg xmlns="http://www.w3.org/2000/svg" width="22.701" height="22.701" viewBox="0 0 22.701 22.701">
  <g id="Group_289" data-name="Group 289" transform="translate(-385.42 -3538.335)">
    <path id="Path_60" data-name="Path 60" d="M407.245,3549.686l.706-2.179a3.493,3.493,0,0,0-1.734-4.185l-2.039-1.042-1.042-2.04a3.491,3.491,0,0,0-4.185-1.733l-2.181.7-2.179-.706a3.493,3.493,0,0,0-4.185,1.734l-1.043,2.039-2.04,1.044a3.491,3.491,0,0,0-1.733,4.185l.706,2.179-.706,2.179a3.492,3.492,0,0,0,1.733,4.185l2.04,1.042,1.042,2.04a3.49,3.49,0,0,0,4.185,1.733l2.18-.705,2.179.706a3.491,3.491,0,0,0,4.185-1.733l1.042-2.04,2.04-1.042a3.49,3.49,0,0,0,1.733-4.185Zm-11.61,5.01-4.208-4.208,1.605-1.6,2.6,2.6,6.008-6.008,1.6,1.6Z" fill="#c7b299"/>
  </g>
</svg>
