<svg xmlns="http://www.w3.org/2000/svg" width="25" height="32" viewBox="0 0 25 32">
  <path fill="#FF6382" d="M11,0 L13.966,0 L13.966,2.966 L11,2.966 L11,0 Z M21.483,2.966 C23.1544145,2.98358813 24.4963235,4.3505461 24.483,6.022 L24.483,28.944 C24.4963235,30.6154539 23.1544145,31.9824119 21.483,32 L3.483,32 C1.81158553,31.9824119 0.469676537,30.6154539 0.483,28.944 L0.483,6.022 C0.469676537,4.3505461 1.81158553,2.98358813 3.483,2.966 L10.983,2.966 L10.983,6.022 L13.983,6.022 L13.983,2.966 L21.483,2.966 Z M12.483,10.607 C11.4733699,10.5976471 10.5033764,10.999422 9.7960616,11.71994 C9.08874681,12.440458 8.7049781,13.4177155 8.733,14.427 C8.701581,15.7873918 9.40937571,17.0581098 10.5825519,17.7475375 C11.7557281,18.4369652 13.2102719,18.4369652 14.3834481,17.7475375 C15.5566243,17.0581098 16.264419,15.7873918 16.233,14.427 C16.2610219,13.4177155 15.8772532,12.440458 15.1699384,11.71994 C14.4626236,10.999422 13.4926301,10.5976471 12.483,10.607 Z M19.983,25.888 L19.983,24.294 C19.983,21.627 16.583,19.775 12.483,19.775 C8.383,19.775 4.983,21.627 4.983,24.294 L4.983,25.888 L19.983,25.888 Z"/>
</svg>
