<svg xmlns="http://www.w3.org/2000/svg" xmlns:xlink="http://www.w3.org/1999/xlink" id="Layer_1" width="26px" height="26px" x="0px" y="0px" enable-background="new 0 0 26 26" version="1.1" viewBox="0 0 26 26" xml:space="preserve">
    <path d="M20.498,23.497H5.5V10.979h14.998V23.497z M20.498,8.475H5.5c-1.375,0-2.5,1.127-2.5,2.504v12.519
	C3,24.873,4.125,26,5.5,26h14.998C21.874,26,23,24.873,23,23.497V10.979C23,9.602,21.874,8.475,20.498,8.475"/>
    <path d="M20.211,9.727h-1.923V7.222c0-2.97-2.323-5.296-5.289-5.296c-2.51,0-4.642,1.748-5.185,4.25L5.936,5.767
	C6.672,2.371,9.577,0,13,0c4.044,0,7.211,3.172,7.211,7.222V9.727z"/>
    <path d="M13,14.734c1.381,0,2.5,1.121,2.5,2.503c0,1.383-1.118,2.504-2.5,2.504c-1.381,0-2.5-1.121-2.5-2.504
	C10.5,15.855,11.619,14.734,13,14.734"/>
</svg>
