<svg xmlns="http://www.w3.org/2000/svg" width="30" height="30" viewBox="0 0 30 30">
  <path fill="#51D8BA" d="M24.4059009,13.4871145 L9.744,28.273 L6.02900891,24.5280107 C5.33181338,24.8064612 5.01989615,25.2146676 4.64538867,26.108669 C4.61911949,26.1713772 4.59563689,26.2282679 4.5443174,26.3530348 C3.6907896,28.4252721 2.66681241,29.278 0,29.278 L0,27.278 C1.7622368,27.278 2.12463029,26.976213 2.6950409,25.5913417 C2.74635841,25.4665659 2.77207063,25.4042735 2.80070839,25.3359112 C3.24667012,24.2713386 3.74155203,23.5448787 4.55082948,23.0378952 L1.199,19.659 L15.8270356,4.90824918 L13.9798558,3.06106936 L29.2746936,6.11385624e-05 L26.2162362,15.2974497 L24.4059009,13.4871145 Z M17.5600174,6.64123093 L15.1008582,9.12110722 L22.5252527,11.9060165 L22.6744051,11.7556186 L17.5600174,6.64123093 Z M13.5569253,10.678047 L10.5419977,13.7183737 L17.966699,16.5026367 L20.9812373,13.4629253 L13.5569253,10.678047 Z M16.4226212,18.0596084 L8.99800241,15.2753764 L5.98374385,18.3150285 L13.4082017,21.0992002 L16.4226212,18.0596084 Z M11.8641238,22.6561719 L5.1125113,20.1243172 L9.744,24.794 L11.8641238,22.6561719 Z M24.9877638,11.2405503 L26.7253064,2.54993886 L18.0361442,4.28893064 L24.9877638,11.2405503 Z"/>
</svg>
