<svg xmlns="http://www.w3.org/2000/svg" viewBox="0 0 42 35"><defs><style>.a{fill:#8a63fa;fill-rule:evenodd;}</style></defs><path class="a" d="M42,4.143a16.9,16.9,0,0,1-4.949,1.391A8.827,8.827,0,0,0,40.84.646,17,17,0,0,1,35.368,2.79,8.508,8.508,0,0,0,29.078,0a8.729,8.729,0,0,0-8.617,8.836,9.086,9.086,0,0,0,.223,2.014A24.268,24.268,0,0,1,2.924,1.617a8.994,8.994,0,0,0,2.667,11.8,8.421,8.421,0,0,1-3.9-1.105c0,.037,0,.074,0,.111A8.788,8.788,0,0,0,8.6,21.084a8.43,8.43,0,0,1-3.891.151,8.656,8.656,0,0,0,8.049,6.136A17.053,17.053,0,0,1,0,31.03,23.953,23.953,0,0,0,13.209,35C29.058,35,37.725,21.536,37.725,9.86q0-.575-.025-1.143A17.767,17.767,0,0,0,42,4.143"/></svg>