<svg xmlns="http://www.w3.org/2000/svg" xmlns:xlink="http://www.w3.org/1999/xlink" id="Layer_1" width="54px" height="54px" x="0px" y="0px" enable-background="new 0 0 54 54" version="1.1" viewBox="0 0 54 54" xml:space="preserve">
    <g>
        <path d="M27,54C12.113,54,0,41.888,0,27S12.113,0,27,0c14.887,0,27,12.112,27,27S41.888,54,27,54z M27,1.958
		C13.192,1.958,1.958,13.192,1.958,27c0,13.809,11.234,25.042,25.043,25.042c13.809,0,25.042-11.233,25.042-25.042
		C52.042,13.192,40.81,1.958,27,1.958z"/>
        <path d="M27,39.544c-6.917,0-12.543-5.627-12.543-12.544c0-6.917,5.627-12.543,12.543-12.543
		c6.916,0,12.543,5.627,12.543,12.543C39.544,33.917,33.916,39.544,27,39.544z M27,16.414c-5.837,0-10.586,4.749-10.586,10.586
		c0,5.837,4.749,10.586,10.586,10.586c5.836,0,10.585-4.749,10.585-10.586C37.586,21.163,32.837,16.414,27,16.414z"/>
        <rect width="11.565" height="17.349" x="21.217" y="0.979"/>
        <rect width="11.565" height="17.347" x="21.217" y="35.675"/>
        <rect width="17.348" height="11.564" x="0.979" y="21.219"/>
        <rect width="17.349" height="11.564" x="35.673" y="21.219"/>
    </g>
</svg>
