<svg xmlns="http://www.w3.org/2000/svg" width="28" height="29" viewBox="0 0 28 29">
  <path fill="#3F56EA" d="M14.005,0 C18.6441919,1.55431223e-15 22.405,3.7608081 22.405,8.4 C22.405,14.397 14.005,23.791 14.005,23.791 C14.005,23.791 5.605,14.4 5.605,8.4 C5.605,3.7608081 9.3658081,0 14.005,0 Z M14.005,11.394 C15.6618542,11.394 17.005,10.0508542 17.005,8.394 C17.005,7.18061327 16.2740735,6.0867044 15.1530503,5.6223614 C14.0320271,5.1580184 12.7416736,5.41468567 11.8836797,6.27267966 C11.0256857,7.13067364 10.7690184,8.42102713 11.2333614,9.5420503 C11.6977044,10.6630735 12.7916133,11.394 14.005,11.394 Z M24.08,19.205 L28,29 L0,29 L3.92,19.205 L7.263,19.205 C7.942,20.229 8.623,21.177 9.25,22.005 L5.814,22.005 L4.134,26.205 L23.866,26.205 L22.186,22.005 L18.75,22.005 C19.378,21.175 20.058,20.228 20.737,19.205 L24.08,19.205 Z"/>
</svg>
