<svg version="1.1" id="Layer_1" xmlns="http://www.w3.org/2000/svg" xmlns:xlink="http://www.w3.org/1999/xlink" x="0px" y="0px"
	 width="80px" height="80px" viewBox="0 0 80 80" enable-background="new 0 0 80 80" xml:space="preserve">
<g>
	<path d="M10.777,13.549c1.276,0,2.313-1.021,2.313-2.276c0-0.447-0.137-0.332-0.364-0.684l0.912-0.361h3.432l2.663-3.129
		c0.359,0.226,0.783,0.096,1.24,0.096c1.28,0,2.322-1.154,2.322-2.409s-1.042-2.342-2.322-2.342c-1.276,0-2.313,0.988-2.313,2.243
		c0,0.452,0.138,1.377,0.369,1.731l-2.359,2.811h-3.432l-1.211,0.659c-0.36-0.229-0.788-0.628-1.248-0.628
		c-1.281,0-2.322,0.89-2.322,2.145C8.455,12.659,9.496,13.549,10.777,13.549z M19.646,4.653c0-0.71,0.596-1.289,1.327-1.289
		c0.736,0,1.334,0.578,1.334,1.289s-0.599,1.289-1.334,1.289c-0.176,0-0.343-0.037-0.497-0.098l0.85-0.829l-0.689-0.707
		l-0.878,0.857C19.687,5.007,19.646,4.835,19.646,4.653z M10.777,9.984c0.18,0,0.352,0.037,0.509,0.101l-0.855,0.834l0.69,0.707
		l0.876-0.856c0.068,0.154,0.106,0.324,0.106,0.502c0,0.71-0.596,1.289-1.327,1.289c-0.736,0-1.334-0.578-1.334-1.289
		C9.442,10.563,10.041,9.984,10.777,9.984z"/>
	<path d="M10.684,36.42c-0.462,0-1.1,0.136-1.462,0.365l-2.475-2.209V16.581c1-0.224,2.03-1.133,2.03-2.222
		c0-1.255-0.933-2.276-2.209-2.276c-1.28,0-2.485,1.021-2.485,2.276c0,1.089,0.664,2,1.664,2.222v18.411l2.766,2.487
		c-0.229,0.353-0.259,0.769-0.259,1.217c0,1.255,1.096,2.276,2.376,2.276c1.276,0,2.341-1.021,2.341-2.276
		C12.971,37.441,11.96,36.42,10.684,36.42z M5.123,14.359c0-0.71,0.708-1.289,1.443-1.289c0.731,0,1.17,0.579,1.17,1.289
		c0,0.541-0.989,1-0.989,1.192v-0.324h-1v0.327C4.747,15.364,5.123,14.901,5.123,14.359z M10.684,39.984
		c-0.736,0-1.334-0.578-1.334-1.289c0-0.18,0.039-0.351,0.108-0.506l0.881,0.86l0.69-0.707l-0.857-0.835
		c0.158-0.064,0.331-0.1,0.512-0.1c0.731,0,1.327,0.579,1.327,1.289C12.011,39.406,11.415,39.984,10.684,39.984z"/>
	<path d="M31.747,4.498v2.455l-10,9.321v17.539c-1,0.223-1.594,1.133-1.594,2.222c0,1.255,1.159,2.276,2.439,2.276
		s2.152-1.021,2.152-2.276c0-1.089-0.997-2-1.997-2.222V16.689l10-9.321v-2.87c1-0.222,1.825-1.133,1.825-2.222
		C34.572,1.021,33.53,0,32.25,0c-1.275,0-2.318,1.021-2.318,2.276C29.932,3.365,30.747,4.274,31.747,4.498z M23.815,36.034
		c0,0.71-0.485,1.289-1.22,1.289s-1.511-0.579-1.511-1.289c0-0.542,0.664-1.005,0.664-1.195v2.388h1v-2.388
		C23.747,35.029,23.815,35.492,23.815,36.034z M32.25,0.988c0.735,0,1.336,0.578,1.336,1.289c0,0.542-0.839,1.004-0.839,1.194V3.228
		h-1v0.24c-1-0.191-0.829-0.651-0.829-1.191C30.918,1.566,31.518,0.988,32.25,0.988z"/>
	<path d="M36.747,5.092v5.61l-9,8.356v14.854c-1,0.222-1.694,1.133-1.694,2.222c0,1.255,1.108,2.276,2.388,2.276
		c1.276,0,2.22-1.021,2.22-2.276c0-1.088-0.914-1.998-1.914-2.221V19.475l9-8.356V5.092c1-0.199,1.805-0.952,1.946-1.889
		c0.214,0.896,1.054,1.583,2.054,1.724v17.535l-7.474,7.058c-0.361-0.226-0.909-0.361-1.37-0.361c-1.28,0-2.383,1.017-2.383,2.268
		c0,1.255,1.011,2.276,2.292,2.276c1.28,0,2.306-1.021,2.306-2.276c0-0.448,0.105-0.864-0.125-1.216l7.754-7.333V4.863
		c0-0.275,1.431-1.142,1.431-2.178c0-1.255-1.167-2.276-2.447-2.276c-1.16,0-2.177,0.847-2.343,1.943
		c-0.24-1.005-1.188-1.758-2.286-1.758c-1.281,0-2.252,1.021-2.252,2.276C34.849,3.959,35.747,4.87,36.747,5.092z M29.708,36.134
		c0,0.71-0.532,1.289-1.264,1.289c-0.736,0-1.436-0.578-1.436-1.289c0-0.542,0.739-1.004,0.739-1.194v2.288h1v-2.285
		C29.747,35.134,29.708,35.594,29.708,36.134z M34.115,31.427c0,0.71-0.598,1.289-1.333,1.289c-0.736,0-1.334-0.578-1.334-1.289
		c0-0.706,0.598-1.281,1.334-1.281c0.179,0,0.349,0.035,0.506,0.097l-0.851,0.831l0.689,0.707l0.88-0.859
		C34.076,31.077,34.115,31.248,34.115,31.427z M41.604,1.396c0.736,0,1.586,0.578,1.586,1.289c0,0.485-0.443,0.904-0.443,1.124
		V3.228h-1v0.678c-1-0.151-1.225-0.629-1.225-1.22C40.522,1.975,40.874,1.396,41.604,1.396z M37.07,1.582
		c0.735,0,1.426,0.578,1.426,1.289c0,0.542-0.749,1.004-0.749,1.194V3.228h-1v0.837c-1-0.19-0.926-0.653-0.926-1.194
		C35.821,2.16,36.334,1.582,37.07,1.582z"/>
	<path d="M32.25,21.466c-1.276,0-2.314,1.021-2.314,2.276s1.038,2.276,2.314,2.276c1.28,0,2.321-1.021,2.321-2.276
		c0-0.448-0.138-0.864-0.367-1.217l2.06-2.011c0.337,0.188,0.722,0.304,1.137,0.304c1.276,0,2.314-1.021,2.314-2.276
		s-1.038-2.276-2.314-2.276c-1.28,0-2.321,1.021-2.321,2.276c0,0.494,0.165,0.948,0.438,1.321l-2.017,1.969
		C33.139,21.603,32.711,21.466,32.25,21.466z M33.583,23.742c0,0.71-0.598,1.289-1.333,1.289c-0.732,0-1.327-0.578-1.327-1.289
		s0.595-1.289,1.327-1.289c0.181,0,0.354,0.036,0.513,0.1l-0.943,0.92l0.69,0.707l0.967-0.944
		C33.545,23.392,33.583,23.563,33.583,23.742z M36.067,18.542c0-0.71,0.599-1.289,1.334-1.289c0.731,0,1.327,0.579,1.327,1.289
		c0,0.71-0.595,1.289-1.327,1.289c-0.132,0-0.256-0.024-0.377-0.059l0.645-0.629l-0.689-0.707l-0.742,0.725
		C36.133,18.975,36.067,18.767,36.067,18.542z"/>
	<path d="M19.61,19.452c0-1.255-1.023-2.276-2.303-2.276s-2.355,1.021-2.355,2.276c0,1.089,0.795,2,1.795,2.222v2.647
		c-1,0.223-1.787,1.133-1.787,2.222c0,1.255,1.063,2.276,2.343,2.276s2.297-1.021,2.297-2.276c0-1.089-0.854-1.999-1.854-2.222
		v-2.647C18.747,21.452,19.61,20.541,19.61,19.452z M15.949,19.452c0-0.71,0.619-1.289,1.355-1.289s1.309,0.578,1.309,1.289
		c0,0.542-0.865,1.004-0.865,1.194v-0.419h-1v0.419C15.747,20.457,15.949,19.994,15.949,19.452z M18.623,26.543
		c0,0.71-0.58,1.289-1.316,1.289c-0.735,0-1.368-0.579-1.368-1.289c0-0.542-0.192-1.004,0.808-1.194v1.879h1v-1.879
		C17.747,25.539,18.623,26.001,18.623,26.543z"/>
	<path d="M44.566,23.249c-1.28,0-2.065,1.021-2.065,2.276c0,1.144,0.246,2.083,2.246,2.243v10.859l-5.441,4.601H22.11
		c-0.231-1-1.156-1.671-2.263-1.671c-0.206,0-0.401-0.062-0.59-0.013c0.368-0.314,0.638-0.315,0.748-1.315h15.222l3.962-3.715
		c0.362,0.228,0.79,0.441,1.251,0.441c1.28,0,2.321-0.983,2.321-2.238s-1.041-2.257-2.321-2.257c-1.281,0-2.322,1.031-2.322,2.286
		c0,0.449,0.137,1.211,0.368,1.564l-3.662,3.919h-14.82c-0.23-1-1.153-2.124-2.255-2.124c-0.371,0-0.717-0.077-1.027,0.075
		c0.596-0.413,0.921-1.176,0.921-1.944c0-1.089-0.896-2.084-1.896-2.307v-2.685l-5-4.506V16.228h6.686l8.793-8.946
		c0.36,0.229,0.788,0.188,1.248,0.188c1.28,0,2.322-1.109,2.322-2.365s-1.042-2.32-2.322-2.32c-1.276,0-2.313,0.999-2.313,2.254
		c0,0.448,0.137,1.201,0.364,1.553l-8.495,8.637H9.747v11.925l5,4.506v2.27c-1,0.224-1.746,1.133-1.746,2.222
		c0,1.255,1.076,2.276,2.351,2.276c0.37,0,0.735-0.093,1.046-0.245c-0.597,0.413-0.98,1.09-0.98,1.858
		c0,1.255,1.046,2.276,2.326,2.276c0.206,0,0.403-0.035,0.592-0.084c-0.49,0.417-0.805,1.026-0.805,1.712
		c0,1.251,1.039,2.166,2.315,2.166c1.105,0,2.031-0.881,2.263-1.881h17.598l6.039-5.185V27.697c0-0.279,1.404-1.142,1.404-2.172
		C47.151,24.27,45.847,23.249,44.566,23.249z M39.106,34.753c0-0.71,0.599-1.289,1.334-1.289c0.735,0,1.334,0.579,1.334,1.289
		c0,0.71-0.599,1.289-1.334,1.289c-0.181,0-0.354-0.036-0.512-0.099l0.856-0.836l-0.69-0.707l-0.881,0.86
		C39.145,35.104,39.106,34.933,39.106,34.753z M26.148,5.016c0-0.71,0.596-1.289,1.327-1.289c0.736,0,1.334,0.578,1.334,1.289
		c0,0.71-0.599,1.289-1.334,1.289c-0.181,0-0.353-0.037-0.509-0.101l0.839-0.819l-0.689-0.707l-0.861,0.841
		C26.187,5.364,26.148,5.194,26.148,5.016z M15.389,37.438c-0.731,0-1.4-0.579-1.4-1.289c0-0.541-0.241-1,0.759-1.192v2.27h1v-2.272
		c0,0.19,0.909,0.653,0.909,1.195C16.656,36.86,16.125,37.438,15.389,37.438z M16.415,40.039c0-0.71,0.599-0.947,1.334-0.947
		c0.551,0,1.023,1.136,1.223,1.136h-1.225l0,0h1.225c-0.2,1-0.672,0.947-1.223,0.947C17.014,41.175,16.415,40.749,16.415,40.039z
		 M19.847,45.12c-0.732,0-1.327-0.522-1.327-1.229c0-0.71,0.595-1.373,1.327-1.373c0.554,0,1.03,0.71,1.231,0.71h-1.332v1h1.331
		C20.876,45.228,20.4,45.12,19.847,45.12z M44.566,26.813c-0.735,0-1.334-0.579-1.334-1.289c0-0.71,0.599-1.289,1.334-1.289
		c0.736,0,1.334,0.578,1.334,1.289C45.901,26.235,45.302,26.813,44.566,26.813z"/>
	<path d="M47.443,8.218c0,1.255,1.038,2.276,2.314,2.276c0.462,0,0.756-0.137,1.118-0.366l0.872,0.983v5.212
		c-1,0.226-1.677,1.133-1.677,2.219c0,1.255,1.105,2.276,2.381,2.276c1.28,0,2.227-1.021,2.227-2.276
		c0-1.092-1.931-2.004-1.931-2.224v-5.623l-1.163-1.261c0.229-0.353,0.431-0.768,0.431-1.216c0-1.255-1.009-2.276-2.29-2.276
		C48.449,5.941,47.443,6.962,47.443,8.218z M53.724,18.542c0,0.71-0.534,1.289-1.27,1.289c-0.731,0-1.43-0.578-1.43-1.289
		c0-0.538,0.723-0.997,0.723-1.19v1.876h1v-1.883C52.747,17.533,53.724,17.997,53.724,18.542z M51.092,8.218
		c0,0.179-0.038,0.349-0.107,0.504L50.226,7.98l-0.689,0.707l0.736,0.719c-0.158,0.065-0.333,0.101-0.515,0.101
		c-0.731,0-1.327-0.579-1.327-1.289c0-0.71,0.596-1.289,1.327-1.289C50.493,6.929,51.092,7.507,51.092,8.218z"/>
	<path d="M56.747,8.063v10.633l-4,4.036v9.305l6.374,6.191h15.525c0.294,1,1.167,1.276,2.207,1.276c1.28,0,2.322-1.186,2.322-2.441
		c0-1.255-1.042-2.036-2.322-2.036c-1.169,0-2.13,1.201-2.289,2.201H59.522l-5.775-5.606v-8.473l4-4.035V8.062
		c1-0.224,2.237-1.133,2.237-2.222c0-1.255-0.829-2.276-2.105-2.276c-1.28,0-2.641,1.021-2.641,2.276
		C55.238,6.93,55.747,7.84,56.747,8.063z M76.853,35.933c0.735,0,1.334,0.417,1.334,1.126c0,0.711-0.599,1.537-1.334,1.537
		c-0.48,0-0.898,0.631-1.133-0.369h1.027v-1h-1.184C75.711,37.228,76.231,35.933,76.853,35.933z M58.087,4.552
		c0.731,0,0.909,0.579,0.909,1.289c0,0.541-0.25,1-1.25,1.192V6.228h-1v0.808c0-0.19-0.417-0.653-0.417-1.195
		C56.33,5.131,57.352,4.552,58.087,4.552z"/>
	<path d="M61.747,11.964v10.938l-3.003,3.513c-0.36-0.229-0.491-0.366-0.953-0.366c-1.28,0-2.173,1.021-2.173,2.276
		s1.116,2.276,2.396,2.276c1.275,0,2.351-1.021,2.351-2.276c0-0.448-0.704-0.863-0.932-1.215l3.315-3.793V11.899
		c1-0.275,2.267-1.141,2.267-2.177c0-1.255-0.748-2.276-2.028-2.276s-2.768,1.021-2.768,2.276
		C60.218,10.861,60.747,11.798,61.747,11.964z M59.414,28.326c0,0.71-0.596,1.289-1.327,1.289c-0.735,0-1.334-0.578-1.334-1.289
		s0.599-1.289,1.334-1.289c0.18,0,0.352,0.037,0.509,0.1l-0.854,0.835l0.69,0.707l0.876-0.856
		C59.376,27.978,59.414,28.147,59.414,28.326z M63.278,8.434c0.735,0,0.748,0.578,0.748,1.289c0,0.485-0.279,0.904-1.279,1.124
		v-0.618h-1v0.733c0-0.149-0.396-0.645-0.396-1.239C61.352,9.012,62.542,8.434,63.278,8.434z"/>
	<path d="M66.747,16.582v9.151l3.207,2.852c-0.228,0.353-0.219,0.768-0.219,1.215c0,1.255,1.111,2.276,2.387,2.276
		c1.28,0,2.357-1.021,2.357-2.276s-1.023-2.276-2.304-2.276c-0.46,0-1.162,0.137-1.523,0.366l-2.905-2.572v-8.736
		c1-0.224,2.104-1.133,2.104-2.222c0-1.255-0.896-2.276-2.173-2.276c-1.28,0-2.541,1.021-2.541,2.276
		C65.138,15.449,65.747,16.359,66.747,16.582z M72.194,28.511c0.736,0,1.334,0.578,1.334,1.289s-0.599,1.289-1.334,1.289
		c-0.731,0-1.327-0.578-1.327-1.289c0-0.178,0.038-0.348,0.106-0.503l0.875,0.856l0.69-0.706l-0.855-0.835
		C71.842,28.547,72.013,28.511,72.194,28.511z M67.821,13.071c0.731,0,1.043,0.579,1.043,1.289c0,0.541-1.117,1-1.117,1.192v-0.324
		h-1v0.327c-1-0.19-0.551-0.653-0.551-1.195C66.196,13.649,67.085,13.071,67.821,13.071z"/>
	<path d="M73.004,24.992c0.454,0,0.655-0.133,1.014-0.354l2.729,2.878v4.274l-0.512,1.438H63.358c-0.231-1-1.156-2.038-2.263-2.038
		c-1.28,0-2.322,0.893-2.322,2.148c0,1.256,1.042,2.474,2.322,2.474c1.107,0,2.032-0.584,2.263-1.584h13.279l1.11-2.021v-5.108
		l-3.012-3.146c0.237-0.356,0.484-0.78,0.484-1.237c0-1.255-0.988-2.276-2.268-2.276s-2.295,1.021-2.295,2.276
		C70.656,23.971,71.724,24.992,73.004,24.992z M61.095,34.761c-0.735,0-1.334-0.709-1.334-1.42c0-0.71,0.599-1.098,1.334-1.098
		c0.554,0,1.031,0.985,1.231,0.985h-1.58v1h1.58C62.126,35.228,61.649,34.761,61.095,34.761z M73.004,21.427
		c0.735,0,1.334,0.579,1.334,1.289c0,0.188-0.044,0.365-0.119,0.526l-0.901-0.879l-0.689,0.707l0.864,0.843
		c-0.152,0.058-0.316,0.092-0.488,0.092c-0.735,0-1.334-0.578-1.334-1.289C71.669,22.006,72.269,21.427,73.004,21.427z"/>
	<path d="M80,42.207c0-1.255-1.041-2.02-2.322-2.02c-1.103,0-2.025,0.04-2.255,2.04H58.234l-2.905-3.097
		c0.251-0.363,0.397-0.931,0.397-1.402c0-1.255-1.038-2.34-2.313-2.34c-1.281,0-2.322,0.988-2.322,2.244s1.041,2.26,2.322,2.26
		c0.436,0,0.84,0.129,1.188-0.078l3.23,3.413h17.59c0.145,0,0.569,1.054,1.137,1.366c-0.973,0.122-1.76,0.634-1.97,1.634H50.747
		V22.979l-5-4.645V7.346l2.106-2.104c0.321,0.165,0.656,0.267,1.043,0.267c1.28,0,2.308-1.021,2.308-2.276s-1.047-2.276-2.327-2.276
		s-2.325,1.021-2.325,2.276c0,0.521,0.228,0.995,0.528,1.378l-2.333,2.318V18.75l5,4.645v23.833H74.59
		c0.231,1,1.156,1.634,2.263,1.634c1.28,0,2.322-1.097,2.322-2.353c0-0.854-0.488-1.628-1.2-2.018
		C79.113,44.347,80,43.363,80,42.207z M53.414,38.889c-0.736,0-1.334-0.578-1.334-1.289c0-0.71,0.599-1.289,1.334-1.289
		c0.731,0,1.327,0.579,1.327,1.289c0,0.202-0.058,0.387-0.144,0.557l-0.931-0.91l-0.691,0.706l0.871,0.851
		C53.709,38.85,53.566,38.889,53.414,38.889z M47.536,3.233c0-0.71,0.599-1.289,1.334-1.289c0.736,0,1.334,0.578,1.334,1.289
		s-0.598,1.289-1.334,1.289c-0.101,0-0.199-0.013-0.294-0.034l0.639-0.624l-0.689-0.707l-0.78,0.762
		C47.614,3.72,47.536,3.486,47.536,3.233z M76.853,47.874c-0.554,0-1.031-0.646-1.231-0.646h1.126v-1h-1.126
		c0.201-1,0.677-0.938,1.231-0.938c0.735,0,1.334,0.581,1.334,1.293C78.187,47.292,77.588,47.874,76.853,47.874z M77.678,43.759
		c-0.551,0-1.023-0.532-1.224-0.532h0.293v-1h-0.292c0.2-1,0.672-1.052,1.223-1.052c0.736,0,1.334,0.581,1.334,1.292
		C79.012,43.178,78.414,43.759,77.678,43.759z"/>
	<path d="M74.177,51.527c-0.067,0-0.13,0.014-0.195,0.02c0.424-0.413,0.688-0.984,0.688-1.616c0-1.255-1.038-2.381-2.313-2.381
		c-1.107,0-2.032,0.678-2.263,1.678H52.388l-3.641,3.604v22.671c-1,0.224-1.743,1.133-1.743,2.221c0,1.255,1.078,2.276,2.353,2.276
		c1.281,0,2.27-1.021,2.27-2.276c0-1.089-0.879-1.999-1.879-2.222V53.248l3.042-3.021h17.305c0.231,1,1.156,1.882,2.263,1.882
		c0.066,0,0.129-0.006,0.194-0.012c-0.311,0.302-0.532,1.13-0.63,1.13h-4.015l-3.409,3.371c-0.364-0.235-0.797-0.354-1.264-0.354
		c-1.28,0-2.322,1.031-2.322,2.286s1.042,2.281,2.322,2.281c1.276,0,2.313-1.019,2.313-2.273c0-0.442-0.134-0.884-0.355-1.233
		l3.117-3.078h3.613c0.23,1,1.153,1.818,2.256,1.818c1.28,0,2.321-1.006,2.321-2.26S75.457,51.527,74.177,51.527z M50.658,77.724
		c0,0.711-0.563,1.289-1.299,1.289c-0.731,0-1.386-0.578-1.386-1.289c0-0.541,0.773-1,0.773-1.191v1.695h1v-1.699
		C50.747,76.719,50.658,77.182,50.658,77.724z M71.124,50.228h0.623v-1h-0.623c0.202,0,0.678-0.689,1.232-0.689
		c0.731,0,1.326,0.629,1.326,1.34s-0.595,1.217-1.326,1.217C71.802,51.095,71.326,51.228,71.124,50.228z M64.559,58.542
		c0,0.711-0.596,1.288-1.327,1.288c-0.736,0-1.334-0.577-1.334-1.288s0.599-1.289,1.334-1.289c0.187,0,0.364,0.04,0.526,0.108
		l-0.848,0.827l0.689,0.706l0.858-0.837C64.521,58.207,64.559,58.37,64.559,58.542z M74.177,55.058c-0.551,0-1.024,0.17-1.225-0.83
		h0.795v-1h-0.795c0.2,0,0.673-0.753,1.225-0.753c0.735,0,1.333,0.58,1.333,1.292C75.51,54.477,74.912,55.058,74.177,55.058z"/>
	<path d="M62.923,56.046c1.276,0,2.313-1.006,2.313-2.26s-1.038-2.309-2.313-2.309c-1.107,0-2.032,0.75-2.263,1.75h-4.354
		l-2.559,1.418v7.584l-0.795,1.354c-0.36-0.229-0.493-0.366-0.954-0.366c-1.28,0-2.173,1.021-2.173,2.276s1.115,2.276,2.396,2.276
		c1.276,0,2.351-1.021,2.351-2.276c0-0.447-0.705-0.861-0.932-1.214l1.107-1.634v-7.585l1.959-0.834h3.955
		C60.892,55.228,61.816,56.046,62.923,56.046z M53.622,65.494c0,0.711-0.596,1.288-1.327,1.288c-0.736,0-1.334-0.577-1.334-1.288
		s0.599-1.289,1.334-1.289c0.181,0,0.353,0.037,0.51,0.101L51.95,65.14l0.689,0.708l0.876-0.855
		C53.584,65.146,53.622,65.315,53.622,65.494z M62.923,52.475c0.731,0,1.327,0.599,1.327,1.31c0,0.709-0.596,1.264-1.327,1.264
		c-0.555,0-1.031,0.18-1.231-0.82h0.055v-1h-0.055C61.893,53.228,62.369,52.475,62.923,52.475z"/>
	<path d="M44.747,75.502V52.955l-6.034-5.728h-7.148c-0.231-1-1.156-2.016-2.263-2.016c-1.28,0-2.321,0.904-2.321,2.159
		c0,1.254,1.041,2.458,2.321,2.458c1.107,0,2.032-0.601,2.263-1.601h6.746l5.436,5.145v22.13c-1,0.223-1.665,1.133-1.665,2.222
		c0,1.255,1.123,2.276,2.403,2.276s2.206-1.021,2.206-2.276C46.691,76.635,45.747,75.725,44.747,75.502z M29.303,48.782
		c-0.735,0-1.334-0.699-1.334-1.41c0-0.709,0.599-1.112,1.334-1.112c0.555,0,1.03-0.032,1.231,0.968h-1.787v1h1.787
		C30.333,48.228,29.857,48.782,29.303,48.782z M44.566,79.013c-0.735,0-1.497-0.578-1.497-1.289c0-0.542,0.678-1.005,0.678-1.195
		v1.699h1v-1.699c1,0.19,0.997,0.653,0.997,1.195C45.744,78.435,45.302,79.013,44.566,79.013z"/>
	<path d="M37.07,51.487c-1.107,0-2.032,0.74-2.263,1.74h-5.365l-3.283-3.162c0.23-0.353,0.368-0.748,0.368-1.197
		c0-1.256-1.042-2.266-2.322-2.266c-1.276,0-2.313,1.026-2.313,2.281s1.038,2.278,2.313,2.278c0.461,0,0.889-0.169,1.251-0.397
		l3.584,3.463h5.767c0.231,1,1.156,1.818,2.263,1.818c1.28,0,2.321-1.025,2.321-2.279C39.391,52.511,38.35,51.487,37.07,51.487z
		 M24.205,50.178c-0.731,0-1.327-0.578-1.327-1.289s0.596-1.288,1.327-1.288c0.736,0,1.334,0.577,1.334,1.288
		c0,0.181-0.039,0.352-0.108,0.508l-0.882-0.86l-0.689,0.707l0.856,0.835C24.558,50.142,24.386,50.178,24.205,50.178z M37.07,55.058
		c-0.555,0-1.031,0.17-1.232-0.83h0.909v-1h-0.909c0.201,0,0.677-0.753,1.232-0.753c0.735,0,1.334,0.58,1.334,1.292
		C38.404,54.477,37.805,55.058,37.07,55.058z"/>
	<path d="M4.617,20.324c0-1.255-1.012-2.276-2.288-2.276c-1.281,0-2.366,1.021-2.366,2.276c0,1.085,0.784,1.992,1.784,2.214v7.585
		c-1,0.222-1.771,1.133-1.771,2.222c0,1.255,1.07,2.276,2.35,2.276c1.277,0,2.278-1.021,2.278-2.276
		c0-1.088-0.856-1.998-1.856-2.221v-7.586C3.747,22.315,4.617,21.409,4.617,20.324z M0.963,20.324c0-0.71,0.627-1.289,1.362-1.289
		c0.732,0,1.291,0.578,1.291,1.289c0,0.537-0.869,0.994-0.869,1.184v-0.281h-1v0.284C0.747,21.323,0.963,20.863,0.963,20.324z
		 M3.63,32.346c0,0.71-0.569,1.289-1.301,1.289c-0.736,0-1.378-0.578-1.378-1.289c0-0.542-0.204-1.004,0.796-1.194v2.076h1v-2.074
		C2.747,31.346,3.63,31.805,3.63,32.346z"/>
</g>
</svg>
