<svg xmlns="http://www.w3.org/2000/svg" xmlns:xlink="http://www.w3.org/1999/xlink" id="Layer_1" width="28px" height="28px" x="0px" y="0px" enable-background="new 0 0 28 28" version="1.1" viewBox="0 0 28 28" xml:space="preserve">
    <path d="M17.298,28h-6.595v-2.377H5.676c-1.818,0-3.298-1.479-3.298-3.298v-3.568h1.84v3.568
	c0,0.804,0.654,1.458,1.458,1.458h5.026v-2.378h6.595V28z M12.542,26.16h2.916v-2.915h-2.916V26.16z M22.324,25.623h-3.566v-1.84
	h3.566c0.804,0,1.459-0.654,1.459-1.458v-3.568h1.84v3.568C25.623,24.144,24.143,25.623,22.324,25.623z M28,17.297h-6.596v-6.595
	h2.379V5.676c0-0.804-0.655-1.458-1.459-1.458h-3.566v-1.84h3.566c1.818,0,3.299,1.479,3.299,3.298v5.026H28V17.297z M23.244,15.457
	h2.916v-2.915h-2.916V15.457z M6.595,17.297H0v-6.595h2.378V5.676c0-1.819,1.479-3.298,3.298-3.298h5.026V0h6.595v6.596h-6.595
	V4.217H5.676c-0.804,0-1.458,0.655-1.458,1.458v5.026h2.377V17.297z M1.84,15.457h2.916v-2.915H1.84V15.457z M12.542,4.756h2.916
	V1.84h-2.916V4.756z"/>
</svg>
