<svg xmlns="http://www.w3.org/2000/svg" xmlns:xlink="http://www.w3.org/1999/xlink" id="Layer_1" width="26px" height="26px" x="0px" y="0px" enable-background="new 0 0 26 26" version="1.1" viewBox="0 0 26 26" xml:space="preserve">
    <path  d="M17.334,2.477c2.051,0,3.713,1.663,3.713,3.713c0,2.053-1.662,3.716-3.713,3.716
	c-2.052,0-3.714-1.663-3.714-3.716C13.62,4.14,15.282,2.477,17.334,2.477"/>
    <path  d="M18.571,11.143c1.047-0.015,1.712-0.003,2.477,0c1.284,0.004,2.09,0.723,2.477,2.477L26,26h-7.429
	l-2.433-8.667c0,0-1.207,1.187-1.951,1.917c-0.363,0.359-0.854,0.56-1.366,0.56H3.714v-3.715h8.667
	c1.489-1.393,3.234-3.793,4.376-4.384C17.303,11.429,17.647,11.206,18.571,11.143"/>
    <path  d="M8.666,0H3.715v12.381c0,1.368,1.108,2.477,2.475,2.477h0.003c1.366,0,2.473-1.107,2.473-2.474V0z"/>
    <path  d="M1.857,22.285c1.025,0,1.856,0.833,1.856,1.857C3.714,25.168,2.883,26,1.857,26C0.832,26,0,25.168,0,24.143
	C0,23.118,0.832,22.285,1.857,22.285"/>
</svg>
