<svg xmlns="http://www.w3.org/2000/svg" width="26.289" height="26.289" viewBox="0 0 26.289 26.289">
  <g id="icons8-life_cycle" transform="translate(-2 -2)">
    <path id="Path_975" data-name="Path 975" d="M15.145,2A13.183,13.183,0,0,0,2,15.145a11.99,11.99,0,0,0,1.191,5.381l4.724-8.01H5a10.508,10.508,0,0,1,18.28-4.067l1.479-2.383A13.673,13.673,0,0,0,15.145,2ZM27.1,9.763l-4.724,8.01h2.917A10.508,10.508,0,0,1,7.011,21.84L5.532,24.223a13.676,13.676,0,0,0,9.613,4.066A13.183,13.183,0,0,0,28.289,15.145,11.99,11.99,0,0,0,27.1,9.763Z" fill="#8a63fa"/>
    <path id="Path_976" data-name="Path 976" d="M13.572,15.2A9.669,9.669,0,0,0,7,17.83a7.691,7.691,0,0,0,6.572,3.943,7.691,7.691,0,0,0,6.572-3.943A9.669,9.669,0,0,0,13.572,15.2Zm0-9.2a3.943,3.943,0,1,0,3.943,3.943A3.943,3.943,0,0,0,13.572,6Z" transform="translate(1.572 1.258)" fill="#8a63fa"/>
  </g>
</svg>
