<svg xmlns="http://www.w3.org/2000/svg" width="28.129" height="26.773" viewBox="0 0 28.129 26.773">
  <g id="icons8-bavarian_beer_mug" transform="translate(-3 -2)">
    <path id="Path_56" data-name="Path 56" d="M19,19H17V17h2a.945.945,0,0,0,1-1V10a.945.945,0,0,0-1-1H17V7h2a2.946,2.946,0,0,1,3,3v6A2.946,2.946,0,0,1,19,19Z" transform="translate(9.129 4.233)" fill="#45cffd"/>
    <path id="Path_57" data-name="Path 57" d="M19.969,2H8.091C5.206,2,3,3.74,3,6.016V26.1c0,1.473,1.867,2.677,4.072,2.677H21.156c2.206,0,4.072-1.2,4.072-2.677V6.016C25.059,3.74,22.853,2,19.969,2ZM6.394,11.5a1.884,1.884,0,0,1,.848-.134,2.385,2.385,0,0,1,2.545,2.008,2.385,2.385,0,0,1-2.545,2.008,1.884,1.884,0,0,1-.848-.134ZM7.242,26.1a1.884,1.884,0,0,1-.848-.134V22.214a1.884,1.884,0,0,1,.848-.134,2.385,2.385,0,0,1,2.545,2.008A2.385,2.385,0,0,1,7.242,26.1Zm.848-7.363a2.385,2.385,0,0,1,2.545-2.008,2.385,2.385,0,0,1,2.545,2.008,2.385,2.385,0,0,1-2.545,2.008A2.385,2.385,0,0,1,8.091,18.733Zm3.394-5.355a2.385,2.385,0,0,1,2.545-2.008,2.385,2.385,0,0,1,2.545,2.008,2.385,2.385,0,0,1-2.545,2.008A2.385,2.385,0,0,1,11.484,13.379ZM14.03,26.1a2.385,2.385,0,0,1-2.545-2.008A2.385,2.385,0,0,1,14.03,22.08a2.385,2.385,0,0,1,2.545,2.008A2.385,2.385,0,0,1,14.03,26.1Zm.848-7.363a2.385,2.385,0,0,1,2.545-2.008,2.385,2.385,0,0,1,2.545,2.008,2.385,2.385,0,0,1-2.545,2.008A2.385,2.385,0,0,1,14.878,18.733Zm6.787,7.229a1.884,1.884,0,0,1-.848.134,2.385,2.385,0,0,1-2.545-2.008,2.385,2.385,0,0,1,2.545-2.008,1.884,1.884,0,0,1,.848.134Zm0-10.709a1.884,1.884,0,0,1-.848.134,2.385,2.385,0,0,1-2.545-2.008,2.385,2.385,0,0,1,2.545-2.008,1.884,1.884,0,0,1,.848.134ZM6.394,8.693V6.016c0-.8.679-1.339,1.7-1.339H19.969c1.018,0,1.7.535,1.7,1.339V8.693Z" fill="#45cffd"/>
  </g>
</svg>
