<svg xmlns="http://www.w3.org/2000/svg" viewBox="0 0 32 32"><defs><style>.a,.b{fill:#1b1c29;}.b{fill-rule:evenodd;}</style></defs><g transform="translate(-1358.5 253)"><path class="a" d="M1234.5,32a16,16,0,1,1,16-15.951A16.027,16.027,0,0,1,1234.5,32m0-30.818a14.769,14.769,0,1,0,14.724,14.769A14.727,14.727,0,0,0,1234.5,1.182" transform="translate(140 -253)"/><path class="b" d="M1247.6,14.7a4.139,4.139,0,0,0-2.8-.3,3.537,3.537,0,0,0-1.5-2.4l-.5-.4-.4.5a3.614,3.614,0,0,0-.6,2.5,2.378,2.378,0,0,0,.5,1.4,3.671,3.671,0,0,1-1.8.4h-16.4v.2a7.543,7.543,0,0,0,1.7,5.9c1.4,1.7,3.5,2.5,6.2,2.5,5.9,0,10.3-2.7,12.4-7.7a3.463,3.463,0,0,0,3.4-1.7,1.194,1.194,0,0,0,.2-.5l.1-.2Zm-12.9-4.1h2.5V8.3h-2.5Zm0,2.7h2.5V11h-2.5Zm-3,0h2.5V11h-2.5Zm-2.9,0h2.5V11h-2.5Zm-2.9,2.7h2.5V13.7h-2.5Zm2.9,0h2.5V13.7h-2.5Zm2.9,0h2.5V13.7h-2.5Zm3,0h2.5V13.7h-2.5Zm2.9,0h2.5V13.7h-2.5Z" transform="translate(139.399 -253.263)"/></g></svg>