<svg xmlns="http://www.w3.org/2000/svg" xmlns:xlink="http://www.w3.org/1999/xlink" id="Layer_1" width="26px" height="26px" x="0px" y="0px" enable-background="new 0 0 26 26" version="1.1" viewBox="0 0 26 26" xml:space="preserve">
    <g>
        <path d="M23.788,18.141l-6.632,0.022c0.755,0.817,2.252,1.331,3.437,1.331
		C21.779,19.494,23.027,18.923,23.788,18.141z"/>
        <path d="M0.936,7.232C0.72,7.542,0.786,7.96,1.097,8.177c0.122,0.081,0.257,0.122,0.392,0.122
		c0.216,0,0.419-0.095,0.527-0.283c1.218-1.705,2.758-3.056,4.598-4.003C10.481,2.012,15.441,2.012,19.322,4
		c1.825,0.934,3.367,2.271,4.585,3.975c0.216,0.311,0.635,0.378,0.945,0.162c0.312-0.216,0.378-0.649,0.162-0.946
		c-1.339-1.88-3.043-3.354-5.069-4.395C15.686,0.607,10.25,0.62,6.006,2.811C3.978,3.852,2.273,5.338,0.936,7.232z"/>
        <path d="M17.079,23.562c-1.907-0.527-3.138-1.301-4.422-2.571C11.806,20.146,11.161,19,10.733,18H9.297
		c0.482,2,1.296,2.854,2.414,3.965c1.474,1.447,2.88,2.279,5.029,2.874c0.055,0.015,0.122,0.044,0.177,0.044
		c0.283,0,0.568-0.191,0.636-0.504C17.646,24.027,17.443,23.658,17.079,23.562z"/>
        <path d="M21.824,21.17c-0.068-0.379-0.419-0.622-0.784-0.555c-0.542,0.096-1.081,0.136-1.407,0.136
		c-1.351,0-2.473-0.382-3.433-1.031C15.531,19.271,14.982,19,14.556,18h-1.559c0.553,1,1.383,2.122,2.444,2.843
		c1.163,0.799,2.584,1.237,4.191,1.237c0.19,0,0.865,0.006,1.638-0.145C21.649,21.869,21.891,21.535,21.824,21.17z"/>
        <path d="M3.707,20.724c0.353-0.122,0.528-0.584,0.393-0.936C3.867,19.172,3.706,19,3.576,18H2.208
		c0.159,1,0.36,1.531,0.634,2.262C2.963,20.6,3.355,20.859,3.707,20.724z"/>
        <path d="M7.938,20.112C7.588,19.491,7.325,19,7.118,18H5.702c0.237,1,0.587,1.956,1.047,2.776
		c0.907,1.634,1.541,2.428,2.718,3.604c0.121,0.134,0.297,0.221,0.473,0.221s0.352-0.06,0.5-0.194c0.257-0.27,0.257-0.722,0-0.991
		C9.398,22.36,8.804,21.667,7.938,20.112z"/>
        <polygon points="2,2 5,2 5,0 0,0 0,4 2,4 	"/>
        <polygon points="24,4 26,4 26,0 21,0 21,2 24,2 	"/>
        <polygon points="24,24 21,24 21,26 26,26 26,21 24,21 	"/>
        <polygon points="2,21 0,21 0,26 5,26 5,24 2,24 	"/>
        <path d="M24.052,15C23.739,8,18.879,4.68,12.927,4.68c-4.367,0-8.355,2.598-10.154,6.369
		C2.239,12.177,1.95,14,1.884,15H0v2h26v-2H24.052z M3.99,11.494c1.583-3.312,5.099-5.298,8.937-5.298
		c5.2,0,9.451,2.805,9.771,8.805h-2.096c-0.312-5-3.608-6.707-7.62-6.707C8.969,8.293,5.672,10,5.36,15H3.223
		C3.288,14,3.538,12.434,3.99,11.494z M17.044,15c-0.297-3-2.012-3.393-4.103-3.393C10.852,11.607,9.135,12,8.838,15H6.712
		c0.311-4,3.002-5.355,6.271-5.355c3.265,0,5.957,1.355,6.267,5.355H17.044z M13.23,15c-0.098,0-0.206-0.095-0.329-0.095
		c-0.123,0-0.231,0.095-0.33,0.095h-2.372c0.278-1,1.397-2.056,2.742-2.056c1.345,0,2.463,1.056,2.741,2.056H13.23z"/>
    </g>
</svg>
