<svg xmlns="http://www.w3.org/2000/svg" width="25.399" height="24.4" viewBox="0 0 25.399 24.4">
  <g id="Group_296" data-name="Group 296" transform="translate(-386.324 -4238.329)">
    <g id="Group_86" data-name="Group 86">
      <path id="Path_72" data-name="Path 72" d="M411.723,4254.63h-15.3v-2h13.3v-12.3h-13.3v-2h15.3Z" fill="#963384"/>
    </g>
    <g id="Group_88" data-name="Group 88">
      <path id="Path_73" data-name="Path 73" d="M401.623,4253.629h-2.6l3.9,7.8h2.6Z" fill="#963384"/>
    </g>
    <g id="Group_89" data-name="Group 89">
      <rect id="Rectangle_29" data-name="Rectangle 29" width="6.5" height="10.4" transform="translate(388.623 4244.529)" fill="#963384"/>
    </g>
    <g id="Group_90" data-name="Group 90">
      <path id="Path_74" data-name="Path 74" d="M388.324,4254.93h-2v-7.765a3.64,3.64,0,0,1,3.634-3.636h11.666v2H389.958a1.637,1.637,0,0,0-1.634,1.636Z" fill="#963384"/>
    </g>
    <g id="Group_91" data-name="Group 91">
      <rect id="Rectangle_30" data-name="Rectangle 30" width="2" height="10.365" transform="translate(388.923 4252.364)" fill="#963384"/>
    </g>
    <g id="Group_92" data-name="Group 92">
      <rect id="Rectangle_31" data-name="Rectangle 31" width="2" height="10.365" transform="translate(392.824 4252.364)" fill="#963384"/>
    </g>
    <g id="Group_94" data-name="Group 94">
      <path id="Path_75" data-name="Path 75" d="M399.023,4253.629l-2.6,5.633v2.167h1.3l3.9-7.8Z" fill="#963384"/>
    </g>
  </g>
</svg>
