<svg xmlns="http://www.w3.org/2000/svg" width="22" height="26" viewBox="0 0 22 26">
  <g id="Group_274" data-name="Group 274" transform="translate(-909.344 -2259.943)">
    <path id="Path_161" data-name="Path 161" d="M929.971,2272.571c1.291-8.873-3.849-12.628-9.627-12.628s-11.08,3.722-9.646,12.6a4.112,4.112,0,0,0-1.354,3.236c0,1.871,1.793,3.477,3.181,3.987,1.3,4.328,6.041,6.173,7.819,6.173s6.492-1.834,7.809-6.135a4.745,4.745,0,0,0,3.191-4.025A4.175,4.175,0,0,0,929.971,2272.571Zm-9.627,5.372a6,6,0,0,1,0-12v-2l4,3-4,3v-2a3.99,3.99,0,1,0,3.931,3.251,1,1,0,1,1,1.965-.373,6.009,6.009,0,0,1-5.9,7.122Z" fill="#51d8ba"/>
  </g>
</svg>
