<svg xmlns="http://www.w3.org/2000/svg" width="30.444" height="29.444" viewBox="0 0 30.444 29.444">
  <g id="icons8-stethoscope" transform="translate(-3 -4)">
    <path id="Path_992" data-name="Path 992" d="M6.37,6h0A2.37,2.37,0,0,0,4,8.37V19.037s3.161,3.556,7.111,3.556,7.111-3.556,7.111-3.556V8.37A2.37,2.37,0,0,0,15.852,6h0" transform="translate(0 0.37)" fill="none" stroke="#fd6382" stroke-miterlimit="10" stroke-width="2"/>
    <path id="Path_993" data-name="Path 993" d="M14.481,4a2.37,2.37,0,1,0,2.37,2.37A2.37,2.37,0,0,0,14.481,4ZM7.37,4a2.37,2.37,0,1,0,2.37,2.37A2.37,2.37,0,0,0,7.37,4Z" transform="translate(0.185)" fill="#fd6382"/>
    <path id="Path_994" data-name="Path 994" d="M10,20.926v3.556a5.927,5.927,0,0,0,5.926,5.926h0a5.927,5.927,0,0,0,5.926-5.926V18.556A3.555,3.555,0,0,1,25.407,15h0a3.555,3.555,0,0,1,3.556,3.556v2.37" transform="translate(1.111 2.037)" fill="none" stroke="#fd6382" stroke-miterlimit="10" stroke-width="2"/>
    <path id="Path_995" data-name="Path 995" d="M26.37,19a2.37,2.37,0,1,0,2.37,2.37A2.37,2.37,0,0,0,26.37,19Z" transform="translate(3.704 2.778)" fill="none" stroke="#fd6382" stroke-miterlimit="10" stroke-width="2"/>
  </g>
</svg>
