<svg xmlns="http://www.w3.org/2000/svg" xmlns:xlink="http://www.w3.org/1999/xlink" id="Layer_1" width="26px" height="26px" x="0px" y="0px" enable-background="new 0 0 26 26" version="1.1" viewBox="0 0 26 26" xml:space="preserve">
    <path  d="M15.601,2.6C12.577,5.622,5.199,16.899,5.199,16.899l3.901,3.9c0,0,11.276-7.378,14.3-10.4C26,7.8,26,0,26,0
	S18.199,0,15.601,2.6 M21.174,8.503c-1.016,1.016-2.66,1.016-3.677,0c-1.014-1.016-1.014-2.661,0-3.677
	c1.017-1.014,2.661-1.014,3.677,0C22.19,5.841,22.19,7.487,21.174,8.503"/>
    <path  d="M14.301,18.199c0,1.301,0.695,5.043-3.9,7.801l-1.3-5.199L14.301,18.199z"/>
    <path  d="M7.801,11.699c-1.301,0-5.044-0.696-7.801,3.9l5.199,1.3L7.801,11.699z"/>
    <path  d="M3.9,19.5c-3.899,1.3-3.836,6.436-3.836,6.436S5.2,26,6.501,22.1l-3.901,1.3L3.9,19.5z"/>
</svg>
