<svg xmlns="http://www.w3.org/2000/svg" xmlns:xlink="http://www.w3.org/1999/xlink" id="Layer_1" width="68px" height="54px" x="0px" y="0px" enable-background="new 0 0 68 54" version="1.1" viewBox="0 0 68 54" xml:space="preserve">
    <g>
        <path d="M0,0v45h68V0H0z M66,43H2V2h64V43z"/>
        <rect width="33" height="2" x="18" y="52"/>
        <rect width="11" height="6" x="42" y="33"/>
        <rect width="11" height="6" x="29" y="33"/>
        <rect width="11" height="6" x="15" y="33"/>
        <path d="M34.076,23.886c3.995,0,7.246,3.114,7.246,7.114h2c0-4-2.264-6.869-5.498-8.284
		c1.66-1.157,2.749-3.052,2.749-5.199c0-3.518-2.914-6.378-6.496-6.378c-3.583,0-6.499,2.863-6.499,6.38
		c0,2.146,1.089,4.039,2.75,5.195C27.094,24.129,24.831,27,24.831,31h2C26.831,27,30.081,23.886,34.076,23.886z M34.077,13.104
		c2.479,0,4.496,1.981,4.496,4.417c0,2.434-2.017,4.415-4.496,4.415c-2.48,0-4.499-1.981-4.499-4.415
		C29.578,15.085,31.597,13.104,34.077,13.104z"/>
    </g>
</svg>
