<svg xmlns="http://www.w3.org/2000/svg" xmlns:xlink="http://www.w3.org/1999/xlink" id="Layer_1" width="26px" height="26px" x="0px" y="0px" enable-background="new 0 0 26 26" version="1.1" viewBox="0 0 26 26" xml:space="preserve">
    <path d="M19.667,23h-12C3.368,23,0,19.74,0,15.58c0-2.316,1.075-4.474,2.896-5.848C3.814,5.808,7.438,3,11.667,3
	c4.649,0,8.486,3.429,8.952,7.811C23.661,11.257,26,13.805,26,16.87C26,20.25,23.159,23,19.667,23z M11.667,4.936
	c-3.451,0-6.281,2.272-6.883,5.525l-0.073,0.396l-0.342,0.229C2.863,12.094,2,13.732,2,15.58c0,3.075,2.489,5.484,5.667,5.484h12
	c2.39,0,4.333-1.882,4.333-4.194s-1.943-4.192-4.333-4.192h-1v-0.968C18.667,7.974,15.526,4.936,11.667,4.936z"/>
</svg>
