<svg xmlns="http://www.w3.org/2000/svg" width="32" height="32" viewBox="0 0 32 32">
  <path fill="#45CFFD" d="M19.9228649,5.96438608 C19.7854091,5.98780342 19.6441289,6 19.5,6 C18.6774325,6 17.9476508,5.60273627 17.4920496,4.98960333 L10,5.74275586 L10,6.15384615 C10,6.17598229 9.99370504,6.19546209 9.99370504,6.21759823 C13.0212591,7.75149956 14.9454334,10.801804 15,14.1538462 C15,14.1538462 13.4064748,16 7.5,16 C1.59352518,16 0,14.1538462 0,14.1538462 C0.054566643,10.801804 1.97874089,7.75149956 5.00629496,6.21759823 C5.00629496,6.19546209 5,6.17598229 5,6.15384615 L5,2.46153846 C5,1.10206831 6.11928813,-8.32435386e-17 7.5,0 C8.88071187,8.32435386e-17 10,1.10206831 10,2.46153846 L10,3.93031837 L17.0149385,3.22512834 C17.1517948,1.97374322 18.2121825,1 19.5,1 C20.8807119,1 22,2.11928813 22,3.5 C22,4.07292319 21.8072792,4.60083402 21.4831289,5.02244123 L28.0489786,12.4639463 C28.4581071,12.1718523 28.9589844,12 29.5,12 C30.8807119,12 32,13.1192881 32,14.5 C32,15.8807119 30.8807119,17 29.5,17 C29.3412204,17 29.185898,16.9851978 29.0353374,16.9568981 L22.7605477,28 L26.5714286,28 C27.2155258,28 27.8332424,28.2809516 28.2886879,28.7810486 C28.7441334,29.2811456 29,29.9594227 29,30.6666667 L29,32 L12,32 L12,30.6666667 C12,29.9594227 12.2558666,29.2811456 12.7113121,28.7810486 C13.1667576,28.2809516 13.7844742,28 14.4285714,28 L20.702256,28 L27.5117847,16.0158027 C27.1907057,15.5952985 27,15.0699201 27,14.5 C27,14.3408949 27.0148629,14.1852613 27.043276,14.0344118 L19.9228649,5.96438608 Z"/>
</svg>
