<svg xmlns="http://www.w3.org/2000/svg" width="26" height="26" viewBox="0 0 26 26">
  <g id="Group_266" data-name="Group 266" transform="translate(-1180.434 -2866.969)">
    <path id="Path_87" data-name="Path 87" d="M1202.142,2884a11.061,11.061,0,0,0-4.933-1.42,8.785,8.785,0,0,0-4.516,1.42,7.8,7.8,0,0,1-3.683,1.176,5,5,0,0,1-.776-.079v2.6a5.128,5.128,0,0,0,.776.078,8.445,8.445,0,0,0,4.42-1.42,7.808,7.808,0,0,1,3.779-1.176,13.982,13.982,0,0,1,4.293,1.176,13.034,13.034,0,0,0,4.932,1.42v-2.6A14.03,14.03,0,0,1,1202.142,2884Z" fill="#8a63fa"/>
    <path id="Path_88" data-name="Path 88" d="M1188.984,2882.569a8.444,8.444,0,0,0,4.42-1.42,7.813,7.813,0,0,1,3.779-1.176,13.982,13.982,0,0,1,4.293,1.176,13.03,13.03,0,0,0,4.932,1.42v-2.6a13.981,13.981,0,0,1-4.292-1.177,11.075,11.075,0,0,0-4.933-1.419,8.8,8.8,0,0,0-4.516,1.419,7.789,7.789,0,0,1-3.683,1.177,4.8,4.8,0,0,1-.75-.077v2.6A4.8,4.8,0,0,0,1188.984,2882.569Z" fill="#8a63fa"/>
    <path id="Path_89" data-name="Path 89" d="M1197.183,2872.169a8.785,8.785,0,0,0-4.516,1.42,7.8,7.8,0,0,1-3.683,1.176,4.8,4.8,0,0,1-.75-.077v2.6a4.922,4.922,0,0,0,.75.076,8.451,8.451,0,0,0,4.42-1.419,7.8,7.8,0,0,1,3.779-1.177,13.992,13.992,0,0,1,4.293,1.177,13.052,13.052,0,0,0,4.932,1.419v-2.6a11.8,11.8,0,0,1-3.874-1.026v-2.87a3.905,3.905,0,0,0-3.9-3.9h-10.4a3.905,3.905,0,0,0-3.9,3.9v2.434a7.224,7.224,0,0,0-3.124-.745,4.888,4.888,0,0,0-.776.079v2.6a4.917,4.917,0,0,1,.776-.079,6.873,6.873,0,0,1,3.124.894v2.466a7.252,7.252,0,0,0-3.15-.756,4.955,4.955,0,0,0-.75.076v2.6a4.832,4.832,0,0,1,.75-.077,6.909,6.909,0,0,1,3.15.907v2.462a7.252,7.252,0,0,0-3.15-.756,4.832,4.832,0,0,0-.75.077v2.6a4.832,4.832,0,0,1,.75-.077,6.9,6.9,0,0,1,3.15.906v2.6a3.905,3.905,0,0,0,3.9,3.9h10.4a3.905,3.905,0,0,0,3.9-3.9v-.992c-.348-.145-.694-.292-1.032-.435-.546-.185-1.061-.38-1.568-.563v1.99a1.3,1.3,0,0,1-1.3,1.3h-10.4a1.3,1.3,0,0,1-1.3-1.3v-18.2a1.3,1.3,0,0,1,1.3-1.3h10.4a1.3,1.3,0,0,1,1.3,1.3v1.8A8.66,8.66,0,0,0,1197.183,2872.169Z" fill="#8a63fa"/>
  </g>
</svg>
