<svg xmlns="http://www.w3.org/2000/svg" width="24.745" height="24.745" viewBox="0 0 24.745 24.745">
  <g id="Group_294" data-name="Group 294" transform="translate(-789.362 -3746.991)">
    <g id="Group_293" data-name="Group 293">
      <path id="Path_67" data-name="Path 67" d="M800.882,3754.382l-10.312,10.312a4.125,4.125,0,0,0,5.834,5.834l9.8-9.8Zm-7.4,15.291a2.063,2.063,0,1,1,2.063-2.062A2.062,2.062,0,0,1,793.486,3769.673Z" fill="#c7b299"/>
      <path id="Path_68" data-name="Path 68" d="M808.955,3757.3l-4.125-1.031-1.031-4.125,4.775-4.775a7.946,7.946,0,0,0-8.04,1.949c-3.106,3.106-2.112,7.147.994,10.253s7.147,4.1,10.253.994a7.949,7.949,0,0,0,1.95-8.04Z" fill="#c7b299"/>
    </g>
  </g>
</svg>
