<svg xmlns="http://www.w3.org/2000/svg" width="24.772" height="26" viewBox="0 0 24.772 26">
  <g id="Group_280" data-name="Group 280" transform="translate(-1181.048 -1776.942)">
    <path id="Path_54" data-name="Path 54" d="M1191.418,1787.6a1.879,1.879,0,0,0,.26-.91v-.65a1.879,1.879,0,0,0-.26-.91.715.715,0,0,0-.65-.39,1.105,1.105,0,0,0-.65.39,1.879,1.879,0,0,0-.26.91v.65a1.879,1.879,0,0,0,.26.91.737.737,0,0,0,1.3,0Z" fill="#51d8ba"/>
    <path id="Path_55" data-name="Path 55" d="M1196.228,1791.892a.715.715,0,0,0-.65.39,1.879,1.879,0,0,0-.26.91v.65a1.878,1.878,0,0,0,.26.91.715.715,0,0,0,.65.39.6.6,0,0,0,.65-.39,1.927,1.927,0,0,0,.13-.91v-.65a1.879,1.879,0,0,0-.26-.91C1196.748,1792.022,1196.488,1791.892,1196.228,1791.892Z" fill="#51d8ba"/>
    <path id="Path_56" data-name="Path 56" d="M1204.288,1789.942l1.43-2.99a1.608,1.608,0,0,0-.52-1.82l-2.99-1.56-.52-3.25a1.44,1.44,0,0,0-1.56-1.17l-3.25.52-2.34-2.34a1.257,1.257,0,0,0-1.82,0l-2.6,2.34-3.25-.52a1.343,1.343,0,0,0-1.56,1.17l-.52,3.25-2.99,1.56a1.5,1.5,0,0,0-.65,1.82l1.56,2.99-1.43,2.99a1.608,1.608,0,0,0,.52,1.82l2.99,1.56.52,3.25a1.44,1.44,0,0,0,1.56,1.17l3.25-.52,2.34,2.34a1.257,1.257,0,0,0,1.82,0l2.34-2.34,3.25.52a1.343,1.343,0,0,0,1.56-1.17l.52-3.25,2.99-1.56a1.315,1.315,0,0,0,.52-1.82Zm-15.34-1.3a3.193,3.193,0,0,1-.65-1.95v-.65a2.818,2.818,0,0,1,.65-1.82,2.513,2.513,0,0,1,3.64,0,2.264,2.264,0,0,1,.65,1.82v.65a2.571,2.571,0,0,1-.65,1.82,2.182,2.182,0,0,1-1.82.78A2.572,2.572,0,0,1,1188.948,1788.642Zm2.47,6.63-1.17-.65,5.33-9.88,1.17.65Zm7.28-1.43a2.572,2.572,0,0,1-.65,1.82,2.634,2.634,0,0,1-1.82.78,2.182,2.182,0,0,1-1.82-.78,3.106,3.106,0,0,1-.65-1.82v-.65a2.818,2.818,0,0,1,.65-1.82,2.514,2.514,0,0,1,3.64,0,3.106,3.106,0,0,1,.65,1.82Z" fill="#51d8ba"/>
  </g>
</svg>
