<svg xmlns="http://www.w3.org/2000/svg" xmlns:xlink="http://www.w3.org/1999/xlink" id="Layer_1" width="26px" height="26px" x="0px" y="0px" enable-background="new 0 0 26 26" version="1.1" viewBox="0 0 26 26" xml:space="preserve">
    <path  d="M3.9,11.659v10.658c0,0.256,1.965,2.394,1.965,2.394c0.394,0.387,0.921,0.387,1.313,0
	c0,0,1.919-2.138,1.919-2.394l-1.3-1.331l1.3-1.332l-1.3-1.333l1.3-1.333v-5.329H3.9z"/>
    <path  d="M6.5,1C2.91,1,0,3.982,0,7.662c0,3.677,2.91,6.661,6.5,6.661c3.589,0,6.5-2.983,6.5-6.661
	C13,3.982,10.089,1,6.5,1 M6.5,7.388c-1.279,0-2.316-1.067-2.316-2.382c0-1.315,1.037-2.381,2.316-2.381
	c1.278,0,2.315,1.067,2.315,2.381C8.815,6.322,7.778,7.388,6.5,7.388"/>
    <rect width="11.7" height="3.995" x="14.3" y="7.68" />
    <rect width="11.7" height="3.996" x="14.3" y="14.342" />
</svg>
