<svg xmlns="http://www.w3.org/2000/svg" width="28" height="27" viewBox="0 0 28 27">
  <path fill="#8A63FA" d="M25,21.375 L23,21.375 L23,19.375 L25,19.375 C25.2698634,19.3912218 25.5337519,19.2910853 25.7249186,19.0999186 C25.9160853,18.9087519 26.0162218,18.6448634 26,18.375 L26,12.375 C26.0162218,12.1051366 25.9160853,11.8412481 25.7249186,11.6500814 C25.5337519,11.4589147 25.2698634,11.3587782 25,11.375 L23,11.375 L23,9.375 L25,9.375 C25.8000963,9.3601948 26.5717904,9.67150879 27.1376408,10.2373592 C27.7034912,10.8032096 28.0148052,11.5749037 28,12.375 L28,18.375 C28.0148052,19.1750963 27.7034912,19.9467904 27.1376408,20.5126408 C26.5717904,21.0784912 25.8000963,21.3898052 25,21.375 Z M16.87,0 C19.738,0 21.931,1.755 22.098,4.05 L22.098,24.3 C22.098,25.785 20.242,27 18.049,27 L4.049,27 C1.856,27 0,25.785 0,24.3 L0,4.05 C0,1.755 2.193,0 5.061,0 L16.87,0 Z M3.37,9.585 L3.374,13.365 C3.6409284,13.4753002 3.92998416,13.5215354 4.218,13.5 C5.46033989,13.5898926 6.56201139,12.7070731 6.745,11.475 C6.56192231,10.2412831 5.45782293,9.35791632 4.214,9.45 C3.92598416,9.42846461 3.6369284,9.47469983 3.37,9.585 Z M4.218,24.3 C5.46182293,24.3920837 6.56592231,23.5087169 6.749,22.275 C6.56592231,21.0412831 5.46182293,20.1579163 4.218,20.25 C3.92998416,20.2284646 3.6409284,20.2746998 3.374,20.385 L3.374,24.165 C3.6409284,24.2753002 3.92998416,24.3215354 4.218,24.3 Z M5.062,16.875 L5.061,16.875 C5.24407769,18.1087169 6.34817707,18.9920837 7.592,18.9 C8.83619355,18.9926323 9.94090058,18.1091284 10.124,16.875 C9.94092231,15.6412831 8.83682293,14.7579163 7.593,14.85 C6.34917707,14.7579163 5.24507769,15.6412831 5.062,16.875 Z M8.436,11.475 L8.435,11.475 C8.61807769,12.7087169 9.72217707,13.5920837 10.966,13.5 C12.2109346,13.5937304 13.3168577,12.709952 13.5,11.475 C13.3168791,10.2404599 12.2115641,9.35681885 10.967,9.45 C9.72317707,9.35791632 8.61907769,10.2412831 8.436,11.475 Z M10.966,24.3 C12.2109346,24.3937304 13.3168577,23.509952 13.5,22.275 C13.3168577,21.040048 12.2109346,20.1562696 10.966,20.25 C9.72217707,20.1579163 8.61807769,21.0412831 8.435,22.275 C8.61807769,23.5087169 9.72217707,24.3920837 10.966,24.3 Z M11.81,16.875 L11.809,16.875 C11.9920777,18.1087169 13.0961771,18.9920837 14.34,18.9 C15.5838229,18.9920837 16.6879223,18.1087169 16.871,16.875 C16.6879223,15.6412831 15.5838229,14.7579163 14.34,14.85 C13.0965477,14.7584646 11.9930557,15.6416943 11.81,16.875 Z M18.558,24.165 L18.558,20.385 C18.2910716,20.2746998 18.0020158,20.2284646 17.714,20.25 C16.4701771,20.1579163 15.3660777,21.0412831 15.183,22.275 C15.3660777,23.5087169 16.4701771,24.3920837 17.714,24.3 C18.0020158,24.3215354 18.2910716,24.2753002 18.558,24.165 Z M18.558,13.365 L18.558,9.585 C18.2910716,9.47469983 18.0020158,9.42846461 17.714,9.45 C16.4701771,9.35791632 15.3660777,10.2412831 15.183,11.475 C15.3660777,12.7087169 16.4701771,13.5920837 17.714,13.5 C18.0020158,13.5215354 18.2910716,13.4753002 18.558,13.365 Z M3.374,6.75 L18.557,6.75 L18.557,4.05 C18.557,3.24 17.882,2.7 16.87,2.7 L5.061,2.7 C4.049,2.7 3.374,3.24 3.374,4.05 L3.374,6.75 Z"/>
</svg>
