<svg xmlns="http://www.w3.org/2000/svg" width="25.399" height="18.2" viewBox="0 0 25.399 18.2">
  <g id="Group_267" data-name="Group 267" transform="translate(-910.939 -3047.432)">
    <g id="Group_151" data-name="Group 151">
      <rect id="Rectangle_51" data-name="Rectangle 51" width="2" height="18.2" transform="translate(934.338 3047.432)" fill="#8a63fa"/>
    </g>
    <g id="Group_152" data-name="Group 152">
      <rect id="Rectangle_52" data-name="Rectangle 52" width="2" height="18.2" transform="translate(910.939 3047.432)" fill="#8a63fa"/>
    </g>
    <g id="Group_153" data-name="Group 153">
      <rect id="Rectangle_53" data-name="Rectangle 53" width="15.601" height="2" transform="translate(915.838 3055.532)" fill="#8a63fa"/>
    </g>
    <g id="Group_154" data-name="Group 154">
      <path id="Path_105" data-name="Path 105" d="M913.239,3056.532l5.2,3.9v-7.8Z" fill="#8a63fa"/>
    </g>
    <g id="Group_155" data-name="Group 155">
      <path id="Path_106" data-name="Path 106" d="M934.039,3056.532l-5.2-3.9v7.8Z" fill="#8a63fa"/>
    </g>
    <g id="Group_156" data-name="Group 156">
      <circle id="Ellipse_5" data-name="Ellipse 5" cx="1.3" cy="1.3" r="1.3" transform="translate(930.139 3047.432)" fill="#8a63fa"/>
    </g>
    <g id="Group_157" data-name="Group 157">
      <circle id="Ellipse_6" data-name="Ellipse 6" cx="1.3" cy="1.3" r="1.3" transform="translate(924.939 3047.432)" fill="#8a63fa"/>
    </g>
    <g id="Group_158" data-name="Group 158">
      <circle id="Ellipse_7" data-name="Ellipse 7" cx="1.3" cy="1.3" r="1.3" transform="translate(919.739 3047.432)" fill="#8a63fa"/>
    </g>
    <g id="Group_159" data-name="Group 159">
      <circle id="Ellipse_8" data-name="Ellipse 8" cx="1.3" cy="1.3" r="1.3" transform="translate(914.539 3047.432)" fill="#8a63fa"/>
    </g>
    <g id="Group_160" data-name="Group 160">
      <circle id="Ellipse_9" data-name="Ellipse 9" cx="1.3" cy="1.3" r="1.3" transform="translate(930.139 3063.032)" fill="#8a63fa"/>
    </g>
    <g id="Group_161" data-name="Group 161">
      <circle id="Ellipse_10" data-name="Ellipse 10" cx="1.3" cy="1.3" r="1.3" transform="translate(924.939 3063.032)" fill="#8a63fa"/>
    </g>
    <g id="Group_162" data-name="Group 162">
      <circle id="Ellipse_11" data-name="Ellipse 11" cx="1.3" cy="1.3" r="1.3" transform="translate(919.739 3063.032)" fill="#8a63fa"/>
    </g>
    <g id="Group_163" data-name="Group 163">
      <circle id="Ellipse_12" data-name="Ellipse 12" cx="1.3" cy="1.3" r="1.3" transform="translate(914.539 3063.032)" fill="#8a63fa"/>
    </g>
  </g>
</svg>
