<svg xmlns="http://www.w3.org/2000/svg" width="26" height="25.4" viewBox="0 0 26 25.4">
  <g id="Group_268" data-name="Group 268" transform="translate(-647.473 -3042.502)">
    <g id="Group_130" data-name="Group 130">
      <path id="Path_90" data-name="Path 90" d="M670.873,3060.4l-6.377.021a4.913,4.913,0,0,0,3.305,1.279A4.516,4.516,0,0,0,670.873,3060.4Z" fill="#8a63fa"/>
    </g>
    <g id="Group_131" data-name="Group 131">
      <path id="Path_91" data-name="Path 91" d="M660.43,3047.168a10.789,10.789,0,0,0-9.763,5.98,9.767,9.767,0,0,0-.884,4.212c0,.148.016.294.02.442h1.28c0-.148-.013-.313-.013-.442a8.364,8.364,0,0,1,.767-3.64,9.491,9.491,0,0,1,8.593-5.239,9.169,9.169,0,0,1,9.425,8.879,2.309,2.309,0,0,1-.048.442h1.3a3.422,3.422,0,0,0,.048-.455A10.472,10.472,0,0,0,660.43,3047.168Z" fill="#8a63fa"/>
    </g>
    <g id="Group_132" data-name="Group 132">
      <path id="Path_92" data-name="Path 92" d="M654.424,3057.36a6.069,6.069,0,0,1,12.116,0,.644.644,0,0,0,.176.442h.949a.643.643,0,0,0,.175-.442,7.367,7.367,0,0,0-14.716,0c0,.151.021.294.025.442h1.3C654.444,3057.654,654.424,3057.511,654.424,3057.36Z" fill="#8a63fa"/>
    </g>
    <g id="Group_133" data-name="Group 133">
      <path id="Path_93" data-name="Path 93" d="M661.054,3057.36a.65.65,0,1,0-1.3,0c0,.148.019.295.029.442h1.3C661.07,3057.655,661.054,3057.508,661.054,3057.36Z" fill="#8a63fa"/>
    </g>
    <g id="Group_134" data-name="Group 134">
      <path id="Path_94" data-name="Path 94" d="M664.447,3057.36a4.008,4.008,0,0,0-8.008,0c0,.148.015.295.023.442h1.3c-.008-.152-.023-.3-.023-.455a2.711,2.711,0,0,1,5.408,0,3.433,3.433,0,0,0,.049.455h1.3A2.234,2.234,0,0,1,664.447,3057.36Z" fill="#8a63fa"/>
    </g>
    <g id="Group_135" data-name="Group 135">
      <path id="Path_95" data-name="Path 95" d="M649.432,3050.938a.567.567,0,0,0,.507-.273,12.335,12.335,0,0,1,4.42-3.848,13.7,13.7,0,0,1,12.22-.013,12.2,12.2,0,0,1,4.407,3.822.653.653,0,0,0,1.066-.754,13.49,13.49,0,0,0-4.875-4.225,15.007,15.007,0,0,0-13.4.013,13.442,13.442,0,0,0-4.875,4.251.648.648,0,0,0,.156.91A.678.678,0,0,0,649.432,3050.938Z" fill="#8a63fa"/>
    </g>
    <g id="Group_136" data-name="Group 136">
      <path id="Path_96" data-name="Path 96" d="M664.421,3065.615a8.841,8.841,0,0,1-4.251-2.405,8.147,8.147,0,0,1-1.849-2.808h-1.382a9.477,9.477,0,0,0,2.321,3.744,10.142,10.142,0,0,0,4.836,2.73.765.765,0,0,0,.169.026.634.634,0,0,0,.611-.494A.645.645,0,0,0,664.421,3065.615Z" fill="#8a63fa"/>
    </g>
    <g id="Group_137" data-name="Group 137">
      <path id="Path_97" data-name="Path 97" d="M668.23,3062.781a8.58,8.58,0,0,1-1.352.13,5.7,5.7,0,0,1-3.3-.923A5.792,5.792,0,0,1,662,3060.4h-1.5a7.1,7.1,0,0,0,2.351,2.665,7,7,0,0,0,4.03,1.157,8.9,8.9,0,0,0,1.573-.156.653.653,0,0,0-.221-1.287Z" fill="#8a63fa"/>
    </g>
    <g id="Group_138" data-name="Group 138">
      <path id="Path_98" data-name="Path 98" d="M651.438,3060.4h-1.315a15.286,15.286,0,0,0,.609,2.106.645.645,0,0,0,.832.377.634.634,0,0,0,.377-.832A14.092,14.092,0,0,1,651.438,3060.4Z" fill="#8a63fa"/>
    </g>
    <g id="Group_139" data-name="Group 139">
      <path id="Path_99" data-name="Path 99" d="M655.633,3062.365a9.023,9.023,0,0,1-.789-1.963h-1.362a10.356,10.356,0,0,0,1.007,2.6,13.144,13.144,0,0,0,2.613,3.432.61.61,0,0,0,.455.195.713.713,0,0,0,.481-.195.668.668,0,0,0,0-.923A12.3,12.3,0,0,1,655.633,3062.365Z" fill="#8a63fa"/>
    </g>
    <g id="Group_140" data-name="Group 140">
      <path id="Path_100" data-name="Path 100" d="M649.773,3047.4h-2v-4.9h4.9v2h-2.9Z" fill="#8a63fa"/>
    </g>
    <g id="Group_141" data-name="Group 141">
      <path id="Path_101" data-name="Path 101" d="M673.173,3047.4h-2v-2.9h-2.9v-2h4.9Z" fill="#8a63fa"/>
    </g>
    <g id="Group_142" data-name="Group 142">
      <path id="Path_102" data-name="Path 102" d="M673.173,3067.9h-4.9v-2h2.9V3063h2Z" fill="#8a63fa"/>
    </g>
    <g id="Group_143" data-name="Group 143">
      <path id="Path_103" data-name="Path 103" d="M652.673,3067.9h-4.9V3063h2v2.9h2.9Z" fill="#8a63fa"/>
    </g>
    <g id="Group_144" data-name="Group 144">
      <line id="Line_5" data-name="Line 5" x2="26" transform="translate(647.473 3057.802)" fill="#8a63fa"/>
      <rect id="Rectangle_46" data-name="Rectangle 46" width="26" height="2" transform="translate(647.473 3056.802)" fill="#8a63fa"/>
    </g>
  </g>
</svg>
