<svg xmlns="http://www.w3.org/2000/svg" width="25.252" height="34.587" viewBox="0 0 25.252 34.587">
  <g id="Group_283" data-name="Group 283" transform="translate(-252.02 -588.282)">
    <g id="Group_207" data-name="Group 207">
      <path id="Path_144" data-name="Path 144" d="M264.646,596.033a3.876,3.876,0,1,1,3.876-3.876A3.881,3.881,0,0,1,264.646,596.033Zm0-5.167a1.291,1.291,0,1,0,1.292,1.291A1.293,1.293,0,0,0,264.646,590.866Z" fill="#c7b299"/>
    </g>
    <g id="Group_208" data-name="Group 208">
      <path id="Path_145" data-name="Path 145" d="M273.689,622.869H255.6a3.587,3.587,0,0,1-3.583-3.584V596.033a3.588,3.588,0,0,1,3.583-3.584h2.584a1,1,0,0,1,0,2H255.6a1.585,1.585,0,0,0-1.583,1.584v23.252a1.585,1.585,0,0,0,1.583,1.584h18.086a1.585,1.585,0,0,0,1.583-1.584V596.033a1.585,1.585,0,0,0-1.583-1.584h-2.584a1,1,0,0,1,0-2h2.584a3.588,3.588,0,0,1,3.583,3.584v23.252A3.587,3.587,0,0,1,273.689,622.869Z" fill="#c7b299"/>
    </g>
    <g id="Group_209" data-name="Group 209">
      <path id="Path_146" data-name="Path 146" d="M267.23,592.158a2.584,2.584,0,0,1-5.168,0h-3.875v2.583a2.583,2.583,0,0,0,2.584,2.584h7.75a2.583,2.583,0,0,0,2.584-2.584v-2.583Zm-2.584,9.042a7.751,7.751,0,1,0,7.751,7.751A7.751,7.751,0,0,0,264.646,601.2Zm3.5,7.372-3.876,3.876a1.292,1.292,0,0,1-1.826,0l-1.677-1.677a1.292,1.292,0,1,1,1.827-1.826l.763.763,2.962-2.962a1.292,1.292,0,0,1,1.827,1.826Z" fill="#c7b299"/>
    </g>
  </g>
</svg>
