<svg xmlns="http://www.w3.org/2000/svg" width="16" height="32" viewBox="0 0 16 32">
  <path fill="#51D8BA" d="M13.8560313,19.3379977 C14.2272183,19.4436557 14.5690839,19.6425629 14.8468466,19.9203256 C15.2759792,20.3494582 15.5168913,20.9315984 15.5165031,21.5379125 L15.5165036,32 L13.7323821,32 L13.732382,21.5373416 C13.7324673,21.4040306 13.6795475,21.2761551 13.5852823,21.1818899 C13.4910171,21.0876247 13.3631416,21.0347048 13.2286887,21.0347902 C13.0953776,21.0347048 12.9675021,21.0876247 12.8732369,21.1818899 C12.7789717,21.2761551 12.7260519,21.4040306 12.7261374,21.5379126 L12.7261374,22.235504 L10.942016,22.235504 L10.9420162,21.5384835 C10.9416349,20.9425997 11.173885,20.3705718 11.5885212,19.943813 L8.23502725,14.2956506 L6.9750223,31.3033006 L2.79036574,31.3033006 L2.02984801,21.03777 L0,20.1873327 L1.58461805e-15,13.2123104 C1.58461805e-15,10.5159193 2.18585688,8.33006244 4.88224799,8.33006244 C6.36211342,8.33006244 7.78136741,8.91793669 8.82779028,9.96435957 C9.40249684,10.5390661 9.83889031,11.2262306 10.1155467,11.9741307 L13.8560313,19.3379977 Z M7.66369313,6.97413024 C5.73784024,6.97413024 4.17662801,5.412918 4.17662801,3.48706512 C4.17662801,1.56121223 5.73784024,-1.77635684e-15 7.66369313,-1.77635684e-15 C9.58954601,-1.77635684e-15 11.1507582,1.56121223 11.1507582,3.48706512 C11.1507582,5.412918 9.58954601,6.97413024 7.66369313,6.97413024 Z"/>
</svg>
