<svg xmlns="http://www.w3.org/2000/svg" viewBox="0 0 32 32"><defs><style>.a{fill:#1b1c29;}</style></defs><g transform="translate(-1467.399 252.7)"><path class="a" d="M1350.8,10.4a6.983,6.983,0,0,1-2,.8,3.255,3.255,0,0,0-2.3-1,3.29,3.29,0,0,0-3.2,3.2,1.483,1.483,0,0,0,.1.7,8.588,8.588,0,0,1-6.5-3.4,2.934,2.934,0,0,0-.4,1.6,3.454,3.454,0,0,0,1.4,2.7,3.255,3.255,0,0,1-1.4-.4h0a3.242,3.242,0,0,0,2.5,3.2,2.2,2.2,0,0,1-.8.1,1.268,1.268,0,0,1-.6-.1,3.344,3.344,0,0,0,3,2.3,6.01,6.01,0,0,1-3.9,1.4h-.8a9.134,9.134,0,0,0,4.9,1.5,9.042,9.042,0,0,0,9-9.2v-.4a6.48,6.48,0,0,0,1.6-1.7,6.07,6.07,0,0,1-1.8.5,3.387,3.387,0,0,0,1.2-1.8" transform="translate(139.701 -253.3)"/><path class="a" d="M1343.4,32.3a16,16,0,1,1,16-16,16,16,0,0,1-16,16m0-30.724A14.724,14.724,0,1,0,1358.124,16.3,14.7,14.7,0,0,0,1343.4,1.576" transform="translate(140 -253)"/></g></svg>