<svg version="1.1" id="Layer_1" xmlns="http://www.w3.org/2000/svg" xmlns:xlink="http://www.w3.org/1999/xlink" x="0px" y="0px"
	 width="80px" height="80px" viewBox="0 0 80 80" enable-background="new 0 0 80 80" xml:space="preserve">
<g>
	<path d="M16.929,73.967L6.498,63.471l7.969-8.02c-1.375-2.455-2.429-6.29-3.212-9.505H0V34.562h11.256
		c0.783-3.213,1.836-7.047,3.212-9.506l-7.97-8.018L16.929,6.542l7.97,8.018c2.492-1.411,6.472-2.5,9.444-3.228V0h11.313v11.333
		c2.97,0.728,6.947,1.815,9.441,3.228l7.97-8.018l10.431,10.496l-7.967,8.015c1.398,2.503,2.482,6.513,3.209,9.509H80v11.384H68.743
		c-0.783,3.215-1.835,7.05-3.211,9.505l7.966,8.02L63.071,73.967l-8.249-8.295l0.714-0.72l7.535,7.576l8.999-9.058l-7.81-7.86
		l0.208-0.342c1.476-2.429,2.64-6.842,3.388-9.95l0.093-0.389h11.041v-9.351H67.945l-0.093-0.389
		c-0.742-3.101-1.901-7.505-3.384-9.953l-0.208-0.342l7.81-7.856L63.067,7.98l-7.812,7.86l-0.34-0.209
		c-2.441-1.5-6.809-2.661-9.882-3.404l-0.387-0.094V1.017h-9.293v11.117l-0.387,0.094c-3.076,0.743-7.447,1.905-9.885,3.404
		l-0.34,0.209l-7.812-7.86l-9.002,9.058l7.812,7.859l-0.208,0.342c-1.477,2.434-2.641,6.844-3.388,9.95l-0.093,0.389H1.01v9.351
		H12.05l0.093,0.389c0.748,3.108,1.913,7.521,3.388,9.95l0.208,0.342l-7.812,7.86l9.002,9.058l7.527-7.582l0.714,0.72L16.929,73.967
		z"/>
	<path d="M45.656,77.053H34.343v-7.93h11.313V77.053z M35.353,76.036h9.293V70.14h-9.293V76.036z"/>
	<rect x="39.494" y="76.545" width="1.011" height="3.455"/>
	<path d="M45.656,63.227H34.343v-4.039c-8.855-2.595-15.005-10.267-15.005-18.782c0-10.844,9.269-19.667,20.662-19.667
		s20.662,8.823,20.662,19.667c0,8.516-6.15,16.188-15.005,18.782V63.227z M35.353,62.209h9.293v-3.794l0.372-0.104
		c8.616-2.365,14.633-9.727,14.633-17.905c0-10.284-8.816-18.651-19.651-18.651s-19.651,8.367-19.651,18.651
		c0,8.179,6.017,15.54,14.633,17.905l0.372,0.104V62.209z"/>
</g>
</svg>