<svg xmlns="http://www.w3.org/2000/svg" width="27.3" height="27.3" viewBox="0 0 27.3 27.3">
  <g id="Group_279" data-name="Group 279" transform="translate(-909.774 -1778.264)">
    <circle id="Ellipse_1" data-name="Ellipse 1" cx="3.9" cy="3.9" r="3.9" transform="translate(924.074 1780.864)" fill="#45cffd"/>
    <path id="Path_52" data-name="Path 52" d="M929.274,1789.964c1.1-.016,1.8,0,2.6,0,1.348,0,2.194.759,2.6,2.6l2.6,13h-7.8l-2.553-9.1s-1.269,1.245-2.049,2.012a2.047,2.047,0,0,1-1.437.588h-9.561v-3.9h9.1c1.562-1.463,3.4-3.984,4.594-4.6A3.955,3.955,0,0,1,929.274,1789.964Z" fill="#45cffd"/>
    <path id="Path_53" data-name="Path 53" d="M918.874,1778.264h-5.2v13a2.6,2.6,0,0,0,2.6,2.6h0a2.6,2.6,0,0,0,2.6-2.6Z" fill="#45cffd"/>
    <circle id="Ellipse_2" data-name="Ellipse 2" cx="1.95" cy="1.95" r="1.95" transform="translate(909.774 1801.664)" fill="#45cffd"/>
  </g>
</svg>
