<svg xmlns="http://www.w3.org/2000/svg" width="28.834" height="28.834" viewBox="0 0 28.834 28.834">
  <g id="Group_284" data-name="Group 284" transform="translate(-250.648 -526.278)">
    <g id="Group_177" data-name="Group 177">
      <path id="Path_122" data-name="Path 122" d="M262.616,551.715h-6.123a2.448,2.448,0,0,1-2.449-2.449v-3.673m22.041,0v3.673a2.448,2.448,0,0,1-2.449,2.449h-3.673m0-22.041h3.673a2.448,2.448,0,0,1,2.449,2.449v6.123m-22.041,0v-6.123a2.448,2.448,0,0,1,2.449-2.449h6.123m0-2.449h4.9v4.9h-4.9Zm0,22.041h4.9v4.9h-4.9Zm11.02-11.02h4.9v4.9h-4.9Zm-22.041,0h4.9v4.9h-4.9Z" fill="none" stroke="#8a63fa" stroke-miterlimit="10" stroke-width="1.895"/>
    </g>
  </g>
</svg>
