<svg xmlns="http://www.w3.org/2000/svg" width="26" height="23.4" viewBox="0 0 26 23.4">
  <g id="Group_299" data-name="Group 299" transform="translate(-1180.434 -4236.756)">
    <g id="Group_104" data-name="Group 104">
      <path id="Path_82" data-name="Path 82" d="M1206.434,4236.756h-26v22.1h10.559a2.943,2.943,0,0,0,4.883,0h10.558Zm-23.4,2.6h9.1v16.9h-9.1Zm20.8,16.9h-9.1v-16.9h9.1Z" fill="#963384"/>
    </g>
    <g id="Group_105" data-name="Group 105">
      <rect id="Rectangle_34" data-name="Rectangle 34" width="3.9" height="2.6" transform="translate(1196.034 4240.656)" fill="#963384"/>
    </g>
    <g id="Group_106" data-name="Group 106">
      <rect id="Rectangle_35" data-name="Rectangle 35" width="1.3" height="2.6" transform="translate(1201.234 4240.656)" fill="#963384"/>
    </g>
    <g id="Group_107" data-name="Group 107">
      <rect id="Rectangle_36" data-name="Rectangle 36" width="3.9" height="2.6" transform="translate(1196.034 4244.556)" fill="#963384"/>
    </g>
    <g id="Group_108" data-name="Group 108">
      <rect id="Rectangle_37" data-name="Rectangle 37" width="1.3" height="2.6" transform="translate(1201.234 4244.556)" fill="#963384"/>
    </g>
    <g id="Group_109" data-name="Group 109">
      <rect id="Rectangle_38" data-name="Rectangle 38" width="3.9" height="2.6" transform="translate(1184.334 4248.456)" fill="#963384"/>
    </g>
    <g id="Group_110" data-name="Group 110">
      <rect id="Rectangle_39" data-name="Rectangle 39" width="1.3" height="2.6" transform="translate(1189.534 4248.456)" fill="#963384"/>
    </g>
    <g id="Group_111" data-name="Group 111">
      <rect id="Rectangle_40" data-name="Rectangle 40" width="3.9" height="2.6" transform="translate(1184.334 4252.355)" fill="#963384"/>
    </g>
    <g id="Group_112" data-name="Group 112">
      <rect id="Rectangle_41" data-name="Rectangle 41" width="1.3" height="2.6" transform="translate(1189.534 4252.355)" fill="#963384"/>
    </g>
    <g id="Group_113" data-name="Group 113">
      <rect id="Rectangle_42" data-name="Rectangle 42" width="3.9" height="2.6" transform="translate(1184.334 4240.656)" fill="#963384"/>
    </g>
    <g id="Group_114" data-name="Group 114">
      <rect id="Rectangle_43" data-name="Rectangle 43" width="1.3" height="2.6" transform="translate(1189.534 4240.656)" fill="#963384"/>
    </g>
    <g id="Group_115" data-name="Group 115">
      <rect id="Rectangle_44" data-name="Rectangle 44" width="3.9" height="2.6" transform="translate(1184.334 4244.556)" fill="#963384"/>
    </g>
    <g id="Group_116" data-name="Group 116">
      <rect id="Rectangle_45" data-name="Rectangle 45" width="1.3" height="2.6" transform="translate(1189.534 4244.556)" fill="#963384"/>
    </g>
  </g>
</svg>
