<svg xmlns="http://www.w3.org/2000/svg" viewBox="0 0 32 32">
    <defs>
        <style>
            .a{fill:#1b1c29;}
        </style>
    </defs>
    <g transform="translate(-1412.899 252.7)">
        <rect width="3" height="9.4" class="a" transform="translate(1422.109 -239.062)"/>
        <path d="M1293.4,14.2a3.042,3.042,0,0,0-3,1.6V14.3h-3.3v9.4h3.3V18.6a1.95,1.95,0,0,1,.1-.8,1.644,1.644,0,0,1,1.6-1.2c1.2,0,1.7.9,1.7,2.1v4.9h3.4V18.4c-.1-2.8-1.7-4.2-3.8-4.2" class="a" transform="translate(139.621 -253.361)"/>
        <path d="M1283.7,9.9a1.611,1.611,0,1,0,0,3.2h0a1.611,1.611,0,1,0,0-3.2" class="a" transform="translate(139.813 -253.196)"/>
        <path d="M1288.9,32.3a16,16,0,1,1,16-16,16,16,0,0,1-16,16m0-30.724A14.724,14.724,0,1,0,1303.624,16.3,14.7,14.7,0,0,0,1288.9,1.576" class="a" transform="translate(139.999 -253)"/>
    </g>
</svg>
