<svg xmlns="http://www.w3.org/2000/svg" width="54.51" height="54.51" viewBox="0 0 54.51 54.51">
  <g id="Group_276" data-name="Group 276" transform="translate(-782.774 -2041.204)">
    <g id="Group_234" data-name="Group 234">
      <path id="Path_166" data-name="Path 166" d="M786.667,2084.032h-3.893a19.5,19.5,0,0,1,11.842-17.912,13.626,13.626,0,1,1,15.256,0,19.394,19.394,0,0,1,3.254,1.774l-2.179,3.226a15.577,15.577,0,0,0-24.28,12.915Zm15.574-38.935a9.733,9.733,0,1,0,9.734,9.734A9.746,9.746,0,0,0,802.241,2045.1Z" fill="#45cffd"/>
    </g>
    <g id="Group_235" data-name="Group 235">
      <path id="Path_167" data-name="Path 167" d="M821.708,2095.714a15.575,15.575,0,1,1,15.576-15.575A15.593,15.593,0,0,1,821.708,2095.714Zm0-27.255a11.68,11.68,0,1,0,11.681,11.68A11.692,11.692,0,0,0,821.708,2068.459Z" fill="#45cffd"/>
    </g>
    <g id="Group_236" data-name="Group 236">
      <path id="Path_168" data-name="Path 168" d="M821.708,2086.785l-7.217-7.216,2.754-2.754,4.463,4.464,6.41-6.411,2.754,2.754Z" fill="#45cffd"/>
    </g>
  </g>
</svg>
