<svg xmlns="http://www.w3.org/2000/svg" width="25" height="28" viewBox="0 0 25 28">
  <g id="Group_290" data-name="Group 290" transform="translate(-647.973 -3530.464)">
    <rect id="Rectangle_23" data-name="Rectangle 23" width="2" height="6.646" transform="translate(666.567 3553.472) rotate(-45)" fill="#c7b299"/>
    <path id="Path_61" data-name="Path 61" d="M659.974,3549.464l4-4,4,4-4,4Z" fill="#c7b299"/>
    <path id="Path_62" data-name="Path 62" d="M661.973,3556.464a1,1,0,0,1-.707-.293l-4-4a1,1,0,1,1,1.414-1.414l4,4a1,1,0,0,1-.707,1.707Zm8-8a1,1,0,0,1-.707-.293l-4-4a1,1,0,1,1,1.414-1.414l4,4a1,1,0,0,1-.707,1.707Z" fill="#c7b299"/>
    <path id="Path_63" data-name="Path 63" d="M655.852,3553.585a2.988,2.988,0,0,1,2.384-5.1,2.022,2.022,0,0,1,.322-.44l4-4a1.954,1.954,0,0,1,.439-.322,2.98,2.98,0,0,1,4.975-2.483v-3.28a1,1,0,0,0-.293-.707l-6.5-6.5a1,1,0,0,0-.706-.293h-10.5a2,2,0,0,0-2,2v22a2,2,0,0,0,2,2h8.758Zm4.121-21.217,6.1,6.1h-5.1a1,1,0,0,1-1-1Zm12,24.1a1,1,0,1,0,1,1A1,1,0,0,0,671.973,3556.464Z" fill="#c7b299"/>
  </g>
</svg>
