<svg xmlns="http://www.w3.org/2000/svg" viewBox="0 0 24 24"><defs><style>.a{fill:#3f56ea;fill-rule:evenodd;}</style></defs><path class="a" d="M16,4A12.155,12.155,0,0,0,4,16.3a12.282,12.282,0,0,0,8.207,11.674c.6.113.819-.267.819-.593,0-.292-.01-1.066-.016-2.093-3.338.743-4.042-1.65-4.042-1.65a3.239,3.239,0,0,0-1.332-1.8c-1.09-.764.082-.747.082-.747a2.529,2.529,0,0,1,1.838,1.268,2.519,2.519,0,0,0,3.492,1.022,2.654,2.654,0,0,1,.762-1.645c-2.665-.311-5.466-1.366-5.466-6.081a4.826,4.826,0,0,1,1.235-3.3A4.532,4.532,0,0,1,9.7,9.1S10.7,8.773,13,10.365a11.1,11.1,0,0,1,6.008,0C21.3,8.773,22.3,9.1,22.3,9.1a4.517,4.517,0,0,1,.119,3.256,4.815,4.815,0,0,1,1.233,3.3c0,4.727-2.806,5.766-5.479,6.071a2.975,2.975,0,0,1,.815,2.278c0,1.645-.015,2.971-.015,3.375,0,.329.216.712.825.592A12.285,12.285,0,0,0,28,16.3,12.156,12.156,0,0,0,16,4Z" transform="translate(-4 -4)"/></svg>