<svg xmlns="http://www.w3.org/2000/svg" width="30" height="30" viewBox="0 0 30 30">
  <path fill="#51D8BA" d="M22.2207583,9.26978025 C22.7137819,9.40107774 23.077,9.85062181 23.077,10.385 C23.077,11.0223366 22.5603366,11.539 21.923,11.539 C21.7435537,11.539 21.5736736,11.498042 21.4221983,11.4249644 C20.6262852,11.1745796 14.3498012,9.197282 13.846,8.951 C13.418,8.742 13.317,8.982 13.072,9.206 C12.859,9.402 9.794,13.167 9.794,13.167 C9.794,13.167 11.706,13.979 13.014,14.516 C14.115,14.967 14.222,15.147 14.673,16.355 C15.021,17.287 16.945,22.016 17.089,22.394 C17.3419629,23.0559802 17.0437795,23.801221 16.404,24.106 C15.541,24.466 14.839,23.601 14.604,23.132 C14.369,22.663 11.809,17.254 11.809,17.254 C11.809,17.254 8.961,16.353 7.489,15.876 C6.155,15.445 5.082,15.003 4.582,14.045 C4.23106532,13.0685922 4.40957036,11.9801653 5.054,11.167 C5.582,10.415 6.813,8.906 8.147,7.343 C8.8485506,6.35299147 9.72124743,5.49621111 10.724,4.813 C11.464,4.439 12.383,4.879 13.532,5.413 C14.322127,5.77981047 21.6063566,8.99833915 22.2207583,9.26978025 Z M16.731,5.77 C15.1376585,5.77 13.846,4.4783415 13.846,2.885 C13.846,1.2916585 15.1376585,0 16.731,0 C18.3243415,0 19.616,1.2916585 19.616,2.885 C19.616,4.4783415 18.3243415,5.77 16.731,5.77 Z M5.769,18.462 C8.95490201,18.4625521 11.5374479,21.045098 11.538,24.231 C11.538,27.4171307 8.95513072,30 5.769,30 C2.58286928,30 -2.16654532e-15,27.4171307 -1.77635684e-15,24.231 C-1.38616836e-15,21.0448693 2.58286928,18.462 5.769,18.462 Z M5.769,20.77 C3.85790398,20.7722043 2.30920427,22.320904 2.307,24.232 C2.307,25.6322483 3.15048922,26.8946191 4.44414996,27.4304709 C5.73781069,27.9663228 7.22687861,27.6701287 8.21700368,26.6800037 C9.20712874,25.6898786 9.50332276,24.2008107 8.96747094,22.90715 C8.43161912,21.6134892 7.16924829,20.77 5.769,20.77 Z M24.231,13.846 C27.416902,13.8465521 29.9994479,16.429098 30,19.615 C30,22.8011307 27.4171307,25.384 24.231,25.384 C21.0448693,25.384 18.462,22.8011307 18.462,19.615 C18.462,16.4288693 21.0448693,13.846 24.231,13.846 Z M24.231,16.154 C22.319904,16.1562043 20.7712043,17.704904 20.769,19.616 C20.769,21.5280098 22.3189902,23.078 24.231,23.078 C26.1430098,23.078 27.693,21.5280098 27.693,19.616 C27.693,17.7039902 26.1430098,16.154 24.231,16.154 Z M8.578,4.351 L3.13,11.051 C3.13,11.051 0.508,10.077 1.308,7.873 C2.341,5.031 6.468,3.143 8.578,4.351 Z"/>
</svg>
