<svg id="icons8-student_male" xmlns="http://www.w3.org/2000/svg" width="32.917" height="29.802" viewBox="0 0 32.917 29.802">
  <path id="Path_988" data-name="Path 988" d="M5.372,11v1.745a2.731,2.731,0,0,0,1,5.075c1.566,4.082,4.826,6.9,8.605,6.9s7.039-2.814,8.605-6.9a2.731,2.731,0,0,0,1-5.075V11" transform="translate(1.486 4.087)" fill="none" stroke="#fd6382" stroke-miterlimit="10" stroke-width="2"/>
  <path id="Path_989" data-name="Path 989" d="M4,5v9.6H6.743V13.229a1.372,1.372,0,0,1,1.372-1.372H21.83A1.372,1.372,0,0,1,23.2,13.229V14.6h2.743V5Z" transform="translate(1.486 1.858)" fill="#fd6382"/>
  <path id="Path_990" data-name="Path 990" d="M16.458,13.715,0,6.858,16.458,0,32.917,6.858Z" fill="#fd6382"/>
  <path id="Path_991" data-name="Path 991" d="M22,5h2.743v8.229H22Z" transform="translate(8.174 1.858)" fill="#fd6382"/>
</svg>
