<svg xmlns="http://www.w3.org/2000/svg" xmlns:xlink="http://www.w3.org/1999/xlink" id="Layer_1" width="28px" height="28px" x="0px" y="0px" enable-background="new 0 0 28 28" version="1.1" viewBox="0 0 28 28" xml:space="preserve">
    <g>
        <path d="M14,28C6.28,28,0,21.72,0,14.001C0,6.28,6.28,0,14,0c7.721,0,14,6.28,14,14.001C28,21.72,21.721,28,14,28z
		 M14,1.839c-6.705,0-12.16,5.456-12.16,12.162C1.84,20.705,7.295,26.16,14,26.16s12.16-5.455,12.16-12.159
		C26.16,7.295,20.705,1.839,14,1.839z"/>
        <path d="M14,20.735c-3.713,0-6.733-3.021-6.733-6.735c0-3.713,3.02-6.734,6.733-6.734s6.733,3.021,6.733,6.734
		C20.733,17.714,17.713,20.735,14,20.735z M14,9.106c-2.698,0-4.894,2.196-4.894,4.894c0,2.699,2.196,4.896,4.894,4.896
		c2.698,0,4.894-2.196,4.894-4.896C18.894,11.302,16.698,9.106,14,9.106z"/>
        <rect width="5.813" height="8.72" x="11.093" y="0.92"/>
        <rect width="5.813" height="8.72" x="11.093" y="18.36"/>
        <rect width="8.719" height="5.813" x="0.92" y="11.094"/>
        <rect width="8.72" height="5.813" x="18.359" y="11.094"/>
    </g>
</svg>
