<svg xmlns="http://www.w3.org/2000/svg" xmlns:xlink="http://www.w3.org/1999/xlink" id="Layer_1" width="124px" height="28px" x="0px" y="0px" enable-background="new 0 0 124 28" version="1.1" viewBox="0 0 124 28" xml:space="preserve">
    <g>
        <path d="M30.136,20.381c0,0.38-0.146,0.745-0.409,1.017l-6.25,6.433c-0.352,0.363-0.953,0.106-0.953-0.406V13.006
		l7.523-7.704h0.087V20.381"/>
        <path d="M25.149,0.168c-0.219-0.224-0.572-0.224-0.79,0l-9.291,9.567h-0.129v10.799l0.129,0.283l7.457-7.679
		l7.61-7.836L25.149,0.168"/>
        <path d="M0,20.381c0,0.38,0.146,0.745,0.409,1.017l6.25,6.433c0.352,0.363,0.953,0.106,0.953-0.406V13.006
		L0.087,5.303H0V20.381"/>
        <path d="M5.776,0.168c-0.218-0.224-0.571-0.224-0.789,0L0,5.303l7.611,7.836l7.458,7.679V9.735L5.776,0.168"/>
        <path d="M37.557,20.351V5.158h3.928v2.038c0.907-1.557,2.226-2.32,4.012-2.32s3.131,0.793,4.094,2.434
		c1.539-1.67,2.72-2.434,4.562-2.434c3.323,0,5.191,1.924,5.191,5.461v10.014h-4.23v-8.232c0-2.121-0.44-3.083-2.062-3.083
		c-1.648,0-2.528,1.047-2.528,3.083v8.232h-4.258v-8.232c0-2.121-0.44-3.083-2.062-3.083c-1.647,0-2.526,1.047-2.526,3.083v8.232
		H37.557"/>
        <path d="M69.562,16.504c1.923,0,3.488-1.669,3.488-3.735c0-2.093-1.565-3.762-3.488-3.762s-3.49,1.669-3.49,3.762
		C66.071,14.834,67.664,16.504,69.562,16.504 M64.038,7.139c1.485-1.528,3.436-2.377,5.441-2.377c2.143,0,3.984,0.764,5.466,2.208
		c1.567,1.527,2.419,3.621,2.419,5.686c0,2.292-0.743,4.187-2.225,5.714c-1.513,1.556-3.381,2.376-5.605,2.376
		c-2.252,0-4.067-0.792-5.578-2.432c-1.428-1.527-2.17-3.48-2.17-5.602C61.786,10.591,62.583,8.638,64.038,7.139"/>
        <path d="M79.806,20.351V5.158h4.122l-0.055,2.038c0.904-1.527,2.279-2.32,4.229-2.32
		c3.051,0,5.029,1.981,5.029,5.461v10.014h-4.343v-8.232c0-2.121-0.439-3.083-2.114-3.083c-1.703,0-2.612,1.047-2.612,3.083v8.232
		H79.806"/>
        <path d="M116.195,16.504c1.923,0,3.49-1.669,3.49-3.735c0-2.093-1.567-3.762-3.49-3.762s-3.488,1.669-3.488,3.762
		C112.707,14.834,114.3,16.504,116.195,16.504 M110.674,7.139c1.483-1.528,3.436-2.377,5.438-2.377c2.145,0,3.985,0.764,5.469,2.208
		c1.567,1.527,2.419,3.621,2.419,5.686c0,2.292-0.743,4.187-2.227,5.714c-1.511,1.556-3.379,2.376-5.604,2.376
		c-2.253,0-4.067-0.792-5.578-2.432c-1.431-1.527-2.17-3.48-2.17-5.602C108.422,10.591,109.218,8.638,110.674,7.139"/>
        <polygon points="95.866,20.351 95.866,17.183 101.939,9.091 95.866,9.091 95.866,5.158 106.828,5.158 
		106.828,8.751 101.472,16.419 106.938,16.419 106.938,20.351 	"/>
    </g>
</svg>
