<svg xmlns="http://www.w3.org/2000/svg" xmlns:xlink="http://www.w3.org/1999/xlink" id="Layer_1" width="94px" height="28px" x="0px" y="0px" enable-background="new 0 0 94 28" version="1.1" viewBox="0 0 94 28" xml:space="preserve">
    <g>
        <path d="M58.675,19.868c-0.034-0.09-0.132-0.143-0.227-0.121l-0.028,0.009c-0.281,0.06-0.498,0.043-0.648-0.059
		c-0.215-0.143-0.32-0.466-0.32-0.986v-4.707c0-1.838-1.113-2.771-3.31-2.771c-1.965,0-3.506,0.917-3.506,2.086
		c0,0.602,0.372,1.037,0.922,1.103c0.358,0.042,0.701-0.118,0.949-0.376c0.483-0.503,0.422-1.101-0.165-1.742
		c0.348-0.358,0.96-0.569,1.661-0.569c1.142,0,1.629,0.666,1.629,2.229v1.19c-0.267,0.082-0.518,0.158-0.977,0.264
		c-0.923,0.214-2.191,0.499-3.147,1.02c-0.79,0.426-1.19,1.099-1.19,1.999c0,0.981,0.654,2.126,2.496,2.126
		c1.032,0,1.956-0.48,2.904-1.516c0.083,1.075,0.496,1.478,1.5,1.478c0.482,0,0.866-0.11,1.325-0.329
		C58.668,20.137,58.727,19.994,58.675,19.868 M55.633,18.431c-0.224,0.307-0.955,1.221-1.867,1.221c-1.231,0-1.49-0.851-1.49-1.565
		c0-1.175,0.914-1.717,3.357-2.312V18.431z M79.237,20.604c-2.609,0-4.576-2.013-4.576-4.685c0-2.616,2.053-4.743,4.576-4.743
		c2.557,0,4.56,2.047,4.56,4.665C83.797,18.783,81.43,20.604,79.237,20.604 M79.139,11.678c-1.126,0-2.422,0.478-2.422,4.202
		c0,2.841,0.851,4.222,2.602,4.222c1.675,0,2.422-1.301,2.422-4.222C81.74,13.053,80.888,11.678,79.139,11.678 M38.894,11.343
		c0,2.168-0.542,3.36-3.314,3.36h-1.47V8.157h1.529C38.508,8.157,38.894,9.768,38.894,11.343 M34.109,18.711v-3.405h1.331
		c1.986,0,3.497-0.414,4.491-1.23c1.041-0.854,1.258-1.936,1.258-2.693c0-3.113-3.051-3.767-5.609-3.767l0.011-0.001h-5.191
		c-0.116,0-0.213,0.096-0.213,0.21v0.014V7.835c0,0.106,0.066,0.201,0.168,0.238c0.462,0.167,1.717-0.067,1.717,1.258v9.378
		c0,0.682-0.307,1.163-1.71,1.294c-0.111,0.011-0.195,0.1-0.195,0.208v0.033c0,0.115,0.095,0.209,0.213,0.209h5.544
		c0.118,0,0.214-0.094,0.214-0.209v-0.029c0-0.108-0.088-0.199-0.199-0.209c-1.526-0.121-1.832-0.585-1.832-1.297v-3.397
		L34.109,18.711z M45.386,11.17c-2.414,0-4.377,2.153-4.377,4.799c0,2.678,1.841,4.622,4.377,4.622c2.131,0,3.169-1.254,3.763-2.197
		c0.059-0.093,0.033-0.216-0.057-0.28l-0.028-0.02c-0.093-0.065-0.221-0.046-0.292,0.042c-0.784,0.968-1.469,1.527-2.653,1.527
		c-1.499,0-3.1-1.017-3.1-3.87v-0.021c-0.003-0.125,0-0.298,0.005-0.459h6.13c0.018,0,0.03-0.014,0.031-0.03l0.003-0.048
		c0.087-1.17-0.249-2.222-0.945-2.96C47.561,11.553,46.572,11.17,45.386,11.17 M43.057,14.712c0.203-1.952,0.975-3.023,2.191-3.023
		c0.606,0,1.058,0.166,1.376,0.508c0.437,0.467,0.624,1.314,0.55,2.515H43.057z M70.793,14.817h-0.002
		c-1.676-0.464-2.328-0.933-2.328-1.673c0-0.843,0.679-1.455,1.613-1.455c1.102,0,1.574,0.519,2.736,2.433l0.015,0.025
		c0.006,0.011,0.017,0.016,0.017,0.016h0.17c0.118,0,0.215-0.095,0.215-0.21v-2.751c0-0.017-0.016-0.031-0.016-0.031h-0.228
		c-0.064,0-0.125,0.029-0.164,0.077l-0.372,0.444c-0.467-0.253-1.23-0.521-1.995-0.521c-1.926,0-3.271,1.172-3.271,2.85
		c0,1.575,1.061,2.165,2.893,2.652c1.778,0.479,2.409,0.979,2.409,1.906c0,1.031-1.015,1.494-1.734,1.494
		c-1.339,0-1.906-0.489-3.19-2.763l-0.015-0.026c-0.006-0.01-0.016-0.017-0.016-0.017h-0.172c-0.118,0-0.214,0.095-0.214,0.209
		v3.083c0,0.019,0.015,0.032,0.032,0.032h0.218c0.056,0,0.111-0.022,0.15-0.062l0.587-0.577c0.687,0.42,1.714,0.639,2.382,0.639
		c1.001,0,1.824-0.312,2.38-0.903c0.498-0.527,0.77-1.274,0.77-2.104C73.662,16.15,72.885,15.399,70.793,14.817 M60.65,19.348
		c0,0.476-0.124,0.631-0.892,0.679c-0.112,0.008-0.2,0.099-0.2,0.209c0,0.116,0.097,0.209,0.213,0.209h3.794
		c0.115,0,0.21-0.092,0.21-0.205c0-0.112-0.089-0.205-0.203-0.21c-0.876-0.041-1.104-0.182-1.104-0.682v-5.479
		c0.623-1.022,1.071-1.558,1.829-1.719c-0.036,0.129-0.059,0.283-0.059,0.41c0,0.664,0.471,1.13,1.146,1.13
		c0.663,0,1.128-0.466,1.128-1.13c0-0.629-0.4-1.365-1.525-1.365c-0.921,0-1.802,0.521-2.56,1.767v-1.409
		c0-0.143-0.121-0.26-0.267-0.256l-2.391,0.063c-0.115,0.004-0.206,0.096-0.206,0.209v0.03c0,0.103,0.077,0.192,0.178,0.206
		c0.798,0.112,0.907,0.484,0.907,0.871V19.348z M86.884,11.291c0.056,0,0.109,0.021,0.147,0.059c0.042,0.04,0.065,0.092,0.066,0.15
		l0.008,1.562c0,0,0.778-1.833,3.305-1.833h0.022c1.574,0,2.478,0.99,2.478,2.713v5.397c0,0.476,0.124,0.632,0.891,0.679
		C93.912,20.024,94,20.115,94,20.227c0,0.115-0.097,0.211-0.212,0.211h-3.407c-0.119,0-0.216-0.096-0.216-0.211
		c0-0.112,0.089-0.204,0.196-0.214c0.619-0.052,0.718-0.206,0.718-0.674V14.47c0-1.61-0.465-2.234-1.656-2.234
		c-0.805,0-1.463,0.691-1.874,1.272c0,0-0.211,0.259-0.438,0.748l0.025,5.083c0,0.467,0.097,0.622,0.697,0.673
		c0.107,0.01,0.193,0.103,0.193,0.21c0,0.12-0.096,0.216-0.212,0.216h-3.387c-0.117,0-0.213-0.096-0.213-0.211
		c0-0.111,0.088-0.202,0.199-0.21c0.768-0.047,0.889-0.202,0.889-0.678v-6.662c0-0.388-0.109-0.764-0.909-0.875
		c-0.101-0.015-0.179-0.104-0.179-0.208v-0.03c0-0.115,0.091-0.206,0.208-0.21L86.884,11.291z"/>
        <path d="M20.303,1.803C13.667-1.922,5.013,0.104,1.285,8.084c-2.57,5.495-1.402,15.044,4.574,18.467
		c5.976,3.422,13.996,0.551,17.67-6.17C27.708,12.732,26.31,5.174,20.303,1.803 M12.684,23.659
		c-0.235,0.188-0.539,0.288-0.875,0.288h-0.001c-0.155,0-0.309-0.022-0.46-0.063c-0.261-0.073-0.472-0.196-0.61-0.355
		c-0.122-0.14-0.205-0.33-0.241-0.549c-0.054-0.342,0.031-0.695,0.24-0.991c0.251-0.354,0.635-0.567,1.024-0.567
		c0.071,0,0.144,0.009,0.215,0.021c0.208,0.041,0.411,0.137,0.596,0.277c0.332,0.253,0.529,0.65,0.533,1.057
		C13.108,23.125,12.958,23.438,12.684,23.659 M21.501,12.253c-0.234,1.755-1.314,3.379-3.109,4.456
		c-1.425,0.854-3.295,1.194-5.136,1.211c-0.016,0.287-0.073,1.277-0.103,1.435c-0.042,0.23-0.126,0.355-0.227,0.484
		c-0.197,0.254-0.54,0.418-0.882,0.514c-0.269,0.075-0.537,0.108-0.729,0.108c-0.031,0-0.062-0.003-0.094-0.005
		c-0.199-0.022-0.422-0.115-0.56-0.267c-0.137-0.151-0.214-0.343-0.233-0.56l-0.014-0.195c-0.04-0.168-0.253-8.695-0.211-8.542
		c0.031-1.021,1.705-1.199,2.613-1.019c0.912,0.18,0.682,1.27,0.656,2.609c0,0-0.042,1.761-0.128,3.622
		c1.16-0.043,2.081-0.369,2.942-0.79c1.741-0.852,2.662-2.155,2.662-4.075c0-1.92-1.896-4.07-5.398-4.07
		c-3.502,0-5.004,0.869-6.698,2.251c-0.382,0.312-0.678,0.625-0.955,0.831c-0.279,0.207-1.019,0.238-1.215-0.245
		C4.442,9.424,4.888,8.775,5.15,8.459c0.412-0.493,1.427-1.488,2.553-2.065c1.289-0.662,2.866-1.377,5.063-1.432
		c1.985-0.049,5.121,0.109,7.381,2.623l0.016,0.017C21.34,8.839,21.705,10.715,21.501,12.253"/>
    </g>
</svg>
