<svg xmlns="http://www.w3.org/2000/svg" xmlns:xlink="http://www.w3.org/1999/xlink" id="Layer_1" width="142px" height="28px" x="0px" y="0px" enable-background="new 0 0 142 28" version="1.1" viewBox="0 0 142 28" xml:space="preserve">
    <g>
        <path d="M99.135,7.297c0.619,0,1.123,0.502,1.123,1.123v5.293v0.083v5.936c0,4.008-3.266,7.269-7.278,7.269
		c-1.519,0-2.974-0.462-4.209-1.338c-0.505-0.358-0.625-1.06-0.265-1.565c0.358-0.505,1.061-0.623,1.564-0.265
		c0.854,0.604,1.859,0.924,2.909,0.924c2.774,0,5.029-2.255,5.029-5.024v-0.689c-1.307,1.25-3.078,2.022-5.029,2.022
		c-4.013,0-7.278-3.261-7.278-7.269V8.419c0-0.621,0.502-1.123,1.123-1.123s1.124,0.502,1.124,1.123v5.376
		c0,2.771,2.257,5.023,5.031,5.023s5.029-2.253,5.029-5.023v-0.083V8.419C98.009,7.799,98.514,7.297,99.135,7.297"/>
        <path d="M75.397,18.618c-2.772,0-5.03-2.254-5.03-5.024c0-2.771,2.258-5.024,5.03-5.024
		c2.774,0,5.032,2.253,5.032,5.024C80.43,16.364,78.172,18.618,75.397,18.618 M75.397,6.325c-1.949,0-3.721,0.771-5.03,2.022V2.123
		c0-0.62-0.503-1.121-1.124-1.121S68.12,1.503,68.12,2.123v11.471c0,4.009,3.266,7.27,7.277,7.27c4.014,0,7.279-3.261,7.279-7.27
		C82.677,9.584,79.411,6.325,75.397,6.325"/>
        <path d="M117.189,18.618c-2.772,0-5.031-2.254-5.031-5.024c0-2.771,2.259-5.024,5.031-5.024
		c2.773,0,5.032,2.253,5.032,5.024C122.222,16.364,119.963,18.618,117.189,18.618 M117.189,6.325c-4.014,0-7.278,3.26-7.278,7.269
		c0,4.009,3.265,7.27,7.278,7.27s7.279-3.261,7.279-7.27C124.469,9.584,121.203,6.325,117.189,6.325"/>
        <path d="M57.44,18.618c-2.773,0-5.03-2.254-5.03-5.024c0-2.771,2.257-5.024,5.03-5.024
		c2.774,0,5.032,2.253,5.032,5.024C62.472,16.364,60.214,18.618,57.44,18.618 M57.44,6.325c-4.012,0-7.278,3.26-7.278,7.269
		c0,4.009,3.266,7.27,7.278,7.27c1.95,0,3.722-0.772,5.032-2.023v0.901c0,0.619,0.502,1.122,1.124,1.122
		c0.62,0,1.124-0.503,1.124-1.122v-6.147C64.719,9.584,61.454,6.325,57.44,6.325"/>
        <path d="M40.059,18.618c-2.774,0-5.032-2.254-5.032-5.024c0-2.771,2.258-5.024,5.032-5.024
		c2.772,0,5.03,2.253,5.03,5.024C45.088,16.364,42.831,18.618,40.059,18.618 M40.059,6.325c-1.951,0-3.722,0.771-5.032,2.022V2.123
		c0-0.62-0.502-1.121-1.124-1.121c-0.62,0-1.124,0.501-1.124,1.121v11.471c0,4.009,3.266,7.27,7.279,7.27
		c4.012,0,7.278-3.261,7.278-7.27C47.336,9.584,44.071,6.325,40.059,6.325"/>
        <path d="M105.486,1c0.619,0,1.124,0.503,1.124,1.124v17.618c0,0.62-0.505,1.122-1.124,1.122
		s-1.123-0.502-1.123-1.122V2.124C104.363,1.503,104.867,1,105.486,1"/>
        <path d="M134.721,6.325c4.014,0,7.279,3.26,7.279,7.269v6.019c0,0.619-0.504,1.122-1.124,1.122
		c-0.621,0-1.123-0.503-1.123-1.122v-6.019c0-2.771-2.259-5.024-5.032-5.024c-2.772,0-5.031,2.253-5.031,5.024v6.019
		c0,0.619-0.503,1.122-1.124,1.122c-0.619,0-1.123-0.503-1.123-1.122v-6.019C127.442,9.584,130.708,6.325,134.721,6.325"/>
        <defs>
            <filter id="Adobe_OpacityMaskFilter" width="25.105" height="22.161" x="0" y="1.889" filterUnits="userSpaceOnUse">
                <feColorMatrix type="matrix" values="1 0 0 0 0  0 1 0 0 0  0 0 1 0 0  0 0 0 1 0"/>
            </filter>
        </defs>
        <mask id="SVGID_1_" width="25.105" height="22.161" x="0" y="1.889" maskUnits="userSpaceOnUse">
            <g filter="url(#Adobe_OpacityMaskFilter)">
                <rect width="25.102" height="22.155" x="0.002" y="1.892"/>
                <g enable-background="new    "/>
            </g>
        </mask>
        <g mask="url(#SVGID_1_)">
            <g>
                <defs>
                    <rect id="SVGID_2_" width="25.105" height="22.161" y="1.889"/>
                </defs>
                <clipPath id="SVGID_3_">
                    <use overflow="visible" xlink:href="#SVGID_2_"/>
                </clipPath>
                <path d="M22.848,8.979c0,2.954-1.792,5.449-2.381,6.268l-0.085,0.119
				c-1.683,2.369-6.188,6.45-7.828,6.45c-1.644,0-6.147-4.081-7.832-6.451l-0.084-0.117c-0.589-0.82-2.38-3.314-2.38-6.269
				c0-2.677,2.202-4.856,4.907-4.856c1.647,0,2.822,1.207,3.753,2.387c0.868,1.098,1.636,2.006,1.636,2.006s0.765-0.908,1.632-2.006
				c0.933-1.18,2.108-2.387,3.754-2.387C20.646,4.123,22.848,6.302,22.848,8.979 M17.939,1.892c-2.023,0-4.005,1.123-5.386,3.028
				c-1.385-1.905-3.364-3.028-5.389-3.028c-3.949,0-7.162,3.18-7.162,7.087c0,2.433,0.94,4.976,2.797,7.561l0.079,0.109
				c1.07,1.505,6.41,7.397,9.675,7.397c3.263,0,8.603-5.893,9.673-7.397l0.079-0.109c1.855-2.585,2.797-5.128,2.797-7.561
				C25.103,5.071,21.889,1.892,17.939,1.892" clip-path="url(#SVGID_3_)"/>
            </g>
        </g>
        <path d="M99.135,7.297c0.619,0,1.123,0.502,1.123,1.123v5.293v0.083v5.936c0,4.008-3.266,7.269-7.278,7.269
		c-1.519,0-2.974-0.462-4.209-1.338c-0.505-0.358-0.625-1.06-0.265-1.565c0.358-0.505,1.061-0.623,1.564-0.265
		c0.854,0.604,1.859,0.924,2.909,0.924c2.774,0,5.029-2.255,5.029-5.024v-0.689c-1.307,1.25-3.078,2.022-5.029,2.022
		c-4.013,0-7.278-3.261-7.278-7.269V8.419c0-0.621,0.502-1.123,1.123-1.123s1.124,0.502,1.124,1.123v5.376
		c0,2.771,2.257,5.023,5.031,5.023s5.029-2.253,5.029-5.023v-0.083V8.419C98.009,7.799,98.514,7.297,99.135,7.297"/>
        <path d="M75.397,18.618c-2.772,0-5.03-2.254-5.03-5.024c0-2.771,2.258-5.024,5.03-5.024
		c2.774,0,5.032,2.253,5.032,5.024C80.43,16.364,78.172,18.618,75.397,18.618 M75.397,6.325c-1.949,0-3.721,0.771-5.03,2.022V2.123
		c0-0.62-0.503-1.121-1.124-1.121S68.12,1.503,68.12,2.123v11.471c0,4.009,3.266,7.27,7.277,7.27c4.014,0,7.279-3.261,7.279-7.27
		C82.677,9.584,79.411,6.325,75.397,6.325"/>
        <path d="M117.189,18.618c-2.772,0-5.031-2.254-5.031-5.024c0-2.771,2.259-5.024,5.031-5.024
		c2.773,0,5.032,2.253,5.032,5.024C122.222,16.364,119.963,18.618,117.189,18.618 M117.189,6.325c-4.014,0-7.278,3.26-7.278,7.269
		c0,4.009,3.265,7.27,7.278,7.27s7.279-3.261,7.279-7.27C124.469,9.584,121.203,6.325,117.189,6.325"/>
        <path d="M57.44,18.618c-2.773,0-5.03-2.254-5.03-5.024c0-2.771,2.257-5.024,5.03-5.024
		c2.774,0,5.032,2.253,5.032,5.024C62.472,16.364,60.214,18.618,57.44,18.618 M57.44,6.325c-4.012,0-7.278,3.26-7.278,7.269
		c0,4.009,3.266,7.27,7.278,7.27c1.95,0,3.722-0.772,5.032-2.023v0.901c0,0.619,0.502,1.122,1.124,1.122
		c0.62,0,1.124-0.503,1.124-1.122v-6.147C64.719,9.584,61.454,6.325,57.44,6.325"/>
        <path d="M40.059,18.618c-2.774,0-5.032-2.254-5.032-5.024c0-2.771,2.258-5.024,5.032-5.024
		c2.772,0,5.03,2.253,5.03,5.024C45.088,16.364,42.831,18.618,40.059,18.618 M40.059,6.325c-1.951,0-3.722,0.771-5.032,2.022V2.123
		c0-0.62-0.502-1.121-1.124-1.121c-0.62,0-1.124,0.501-1.124,1.121v11.471c0,4.009,3.266,7.27,7.279,7.27
		c4.012,0,7.278-3.261,7.278-7.27C47.336,9.584,44.071,6.325,40.059,6.325"/>
        <path d="M105.486,1c0.619,0,1.124,0.503,1.124,1.124v17.618c0,0.62-0.505,1.122-1.124,1.122
		s-1.123-0.502-1.123-1.122V2.124C104.363,1.503,104.867,1,105.486,1"/>
        <path d="M134.721,6.325c4.014,0,7.279,3.26,7.279,7.269v6.019c0,0.619-0.504,1.122-1.124,1.122
		c-0.621,0-1.123-0.503-1.123-1.122v-6.019c0-2.771-2.259-5.024-5.032-5.024c-2.772,0-5.031,2.253-5.031,5.024v6.019
		c0,0.619-0.503,1.122-1.124,1.122c-0.619,0-1.123-0.503-1.123-1.122v-6.019C127.442,9.584,130.708,6.325,134.721,6.325"/>
        <path d="M22.848,8.979c0,2.954-1.792,5.449-2.381,6.268l-0.085,0.119c-1.683,2.369-6.188,6.45-7.828,6.45
		c-1.644,0-6.147-4.081-7.832-6.451l-0.084-0.117c-0.589-0.82-2.38-3.314-2.38-6.269c0-2.677,2.202-4.856,4.907-4.856
		c1.647,0,2.822,1.207,3.753,2.387c0.868,1.098,1.636,2.006,1.636,2.006s0.765-0.908,1.632-2.006
		c0.933-1.18,2.108-2.387,3.754-2.387C20.646,4.123,22.848,6.302,22.848,8.979 M17.939,1.892c-2.023,0-4.005,1.123-5.386,3.028
		c-1.385-1.905-3.364-3.028-5.389-3.028c-3.949,0-7.162,3.18-7.162,7.087c0,2.433,0.94,4.976,2.797,7.561l0.079,0.109
		c1.07,1.505,6.41,7.397,9.675,7.397c3.263,0,8.603-5.893,9.673-7.397l0.079-0.109c1.855-2.585,2.797-5.128,2.797-7.561
		C25.103,5.071,21.889,1.892,17.939,1.892"/>
    </g>
</svg>
