<svg xmlns="http://www.w3.org/2000/svg" xmlns:xlink="http://www.w3.org/1999/xlink" id="Layer_1" width="180px" height="28px" x="0px" y="0px" enable-background="new 0 0 180 28" version="1.1" viewBox="0 0 180 28" xml:space="preserve">
    <g>
        <path d="M21.172,7.342h1.018l2.899-2.88l0.143-1.223C19.834-1.492,11.596-0.98,6.832,4.378
		c-1.323,1.49-2.284,3.26-2.806,5.177c0.323-0.131,0.68-0.153,1.016-0.062l5.801-0.95c0,0,0.295-0.484,0.449-0.455
		c2.58-2.813,6.923-3.141,9.901-0.747H21.172z"/>
        <path d="M29.223,9.555c-0.667-2.438-2.036-4.629-3.94-6.305l-4.069,4.042c1.719,1.395,2.697,3.495,2.655,5.699
		v0.717c2.001,0,3.623,1.61,3.623,3.597s-1.622,3.598-3.623,3.598h-7.245L15.9,21.629v4.314l0.724,0.719h7.245
		c5.206,0.039,9.458-4.116,9.498-9.284C33.39,14.247,31.834,11.31,29.223,9.555"/>
        <path d="M9.368,26.621h7.246v-5.76H9.368c-0.518,0-1.027-0.11-1.496-0.322l-1.019,0.312l-2.921,2.88l-0.254,1.01
		C5.317,25.971,7.314,26.63,9.368,26.621"/>
        <path d="M9.368,7.938C4.163,7.969-0.03,12.184,0,17.351c0.018,2.886,1.375,5.602,3.678,7.36l4.204-4.173
		c-1.825-0.818-2.634-2.948-1.81-4.76c0.823-1.809,2.97-2.615,4.792-1.796c0.804,0.361,1.448,0.999,1.811,1.796l4.201-4.172
		C15.089,9.285,12.312,7.928,9.368,7.938"/>
        <path d="M52.658,22.6c-2.52,0.031-4.944-0.956-6.716-2.738c-1.827-1.707-2.851-4.098-2.818-6.587
		c-0.031-2.491,0.993-4.881,2.818-6.589c1.763-1.8,4.189-2.807,6.716-2.788c2.409-0.033,4.729,0.896,6.442,2.577L57.29,8.302
		c-1.241-1.19-2.905-1.845-4.631-1.819c-1.808-0.021-3.544,0.711-4.782,2.022c-1.286,1.266-1.996,3-1.964,4.799
		c-0.017,1.777,0.692,3.486,1.964,4.739c2.62,2.593,6.844,2.642,9.525,0.11c0.798-0.868,1.289-1.973,1.393-3.143h-6.105v-2.587
		h8.641c0.085,0.521,0.119,1.05,0.101,1.577c0.109,2.206-0.696,4.36-2.228,5.961C57.497,21.726,55.118,22.684,52.658,22.6
		 M72.747,20.882c-2.409,2.293-6.209,2.293-8.618,0c-1.167-1.124-1.806-2.681-1.761-4.295c-0.043-1.612,0.595-3.169,1.761-4.294
		c2.411-2.288,6.207-2.288,8.618,0c1.166,1.125,1.805,2.682,1.761,4.294c0.042,1.616-0.6,3.173-1.77,4.295H72.747z M66.031,19.194
		c1.244,1.319,3.331,1.388,4.661,0.151c0.053-0.049,0.104-0.099,0.154-0.151c0.679-0.696,1.046-1.638,1.017-2.607
		c0.031-0.973-0.336-1.916-1.017-2.616c-1.281-1.326-3.4-1.37-4.735-0.1c-0.035,0.032-0.067,0.065-0.099,0.1
		c-0.681,0.7-1.048,1.643-1.018,2.616c-0.025,0.972,0.346,1.911,1.027,2.607H66.031z M85.997,20.882
		c-2.408,2.293-6.209,2.293-8.619,0c-1.167-1.124-1.805-2.681-1.76-4.295c-0.044-1.612,0.594-3.169,1.76-4.294
		c2.41-2.293,6.211-2.293,8.619,0c1.166,1.125,1.805,2.682,1.762,4.294C87.804,18.201,87.164,19.758,85.997,20.882 M79.282,19.194
		c1.243,1.319,3.33,1.388,4.659,0.151c0.054-0.049,0.105-0.099,0.154-0.151c0.678-0.696,1.046-1.638,1.017-2.607
		c0.03-0.973-0.337-1.916-1.017-2.616c-1.28-1.326-3.398-1.37-4.734-0.1c-0.034,0.032-0.067,0.065-0.101,0.1
		c-0.681,0.7-1.049,1.643-1.017,2.616c-0.026,0.972,0.343,1.911,1.027,2.607H79.282z M94.708,27.996
		c-1.219,0.039-2.416-0.34-3.388-1.072c-0.864-0.645-1.543-1.501-1.973-2.486l2.319-0.959c0.253,0.588,0.648,1.105,1.151,1.506
		c0.537,0.431,1.212,0.656,1.901,0.637c0.887,0.053,1.752-0.28,2.371-0.91c0.614-0.733,0.916-1.676,0.845-2.627v-0.869h-0.092
		c-0.786,0.929-1.967,1.433-3.185,1.364c-1.545,0.004-3.021-0.634-4.071-1.758c-1.139-1.116-1.768-2.646-1.74-4.234
		c-0.029-1.598,0.599-3.137,1.74-4.264c1.047-1.129,2.524-1.771,4.071-1.768c0.647-0.001,1.287,0.141,1.873,0.414
		c0.507,0.219,0.958,0.548,1.322,0.96h0.091v-0.96h2.525v10.762c0.134,1.719-0.452,3.419-1.619,4.698
		C97.74,27.485,96.246,28.05,94.708,27.996 M94.892,20.236c0.88,0.018,1.724-0.354,2.301-1.012c0.627-0.715,0.959-1.638,0.927-2.587
		c0.038-0.964-0.293-1.905-0.927-2.637c-0.576-0.66-1.421-1.031-2.301-1.01c-0.901-0.019-1.77,0.349-2.381,1.01
		c-0.674,0.706-1.038,1.645-1.018,2.617c-0.021,0.964,0.345,1.894,1.018,2.588C93.12,19.872,93.987,20.247,94.892,20.236
		 M104.956,22.235h-2.654V4.574h2.654V22.235z M112.244,22.6c-1.609,0.041-3.162-0.585-4.285-1.728
		c-1.14-1.134-1.762-2.683-1.721-4.285c-0.06-1.605,0.539-3.166,1.66-4.324c1.057-1.105,2.535-1.719,4.069-1.687
		c0.699-0.008,1.393,0.126,2.035,0.394c0.583,0.233,1.111,0.576,1.558,1.011c0.386,0.368,0.727,0.778,1.02,1.222
		c0.234,0.375,0.436,0.771,0.599,1.183l0.276,0.686l-8.142,3.325c0.504,1.149,1.669,1.872,2.931,1.818
		c1.219,0.003,2.352-0.63,2.98-1.668l2.036,1.364c-0.519,0.739-1.184,1.365-1.955,1.839C114.391,22.325,113.327,22.62,112.244,22.6
		 M108.846,16.404l5.412-2.232c-0.166-0.394-0.464-0.718-0.843-0.919c-0.426-0.237-0.907-0.36-1.396-0.353
		c-0.827,0.021-1.612,0.366-2.188,0.959C109.136,14.52,108.775,15.453,108.846,16.404"/>
        <path d="M131.366,22.599c-4.631,0.08-8.45-3.583-8.53-8.18c-0.002-0.113-0.001-0.224,0.001-0.337
		c-0.105-4.596,3.56-8.41,8.189-8.517c0.112-0.002,0.227-0.003,0.34-0.001c2.316-0.071,4.538,0.911,6.034,2.668l-1.465,1.414
		c-1.1-1.374-2.795-2.142-4.559-2.071c-1.695-0.038-3.331,0.613-4.529,1.799c-1.247,1.246-1.917,2.953-1.843,4.708
		c-0.074,1.756,0.596,3.463,1.843,4.709c1.198,1.187,2.834,1.837,4.529,1.799c1.969,0.021,3.843-0.849,5.088-2.364l1.465,1.454
		c-0.768,0.911-1.731,1.641-2.819,2.132C133.938,22.35,132.657,22.619,131.366,22.599"/>
        <rect width="2.106" height="16.318" x="139.761" y="5.917"/>
        <path d="M145.308,12.414c2.298-2.265,6.007-2.265,8.306,0c1.089,1.143,1.676,2.671,1.628,4.243
		c0.048,1.575-0.539,3.102-1.628,4.245c-2.299,2.266-6.008,2.266-8.306,0c-1.09-1.144-1.676-2.67-1.629-4.245
		C143.632,15.085,144.218,13.557,145.308,12.414 M146.875,19.588c1.349,1.415,3.597,1.477,5.021,0.139
		c0.049-0.045,0.095-0.091,0.139-0.139c0.745-0.792,1.137-1.848,1.088-2.931c0.049-1.081-0.343-2.137-1.088-2.93
		c-1.347-1.415-3.596-1.476-5.02-0.137c-0.049,0.045-0.095,0.09-0.14,0.137c-0.744,0.793-1.137,1.849-1.089,2.93
		c-0.042,1.081,0.354,2.133,1.1,2.921L146.875,19.588z"/>
        <path d="M166.913,22.235h-2.035v-1.546h-0.062c-0.361,0.588-0.875,1.069-1.485,1.396
		c-0.635,0.363-1.354,0.556-2.086,0.555c-1.205,0.082-2.382-0.386-3.197-1.273c-0.769-0.968-1.156-2.182-1.088-3.415v-6.871h2.107
		v6.487c0,2.082,0.926,3.122,2.777,3.122c0.835,0.026,1.631-0.351,2.137-1.01c0.546-0.688,0.837-1.54,0.824-2.416v-6.183h2.107
		V22.235z"/>
        <path d="M174.066,22.599c-1.446,0.005-2.82-0.619-3.766-1.707c-1.054-1.157-1.62-2.673-1.577-4.234
		c-0.043-1.56,0.523-3.076,1.577-4.233c0.945-1.087,2.319-1.711,3.766-1.708c0.801-0.011,1.592,0.176,2.3,0.547
		c0.623,0.311,1.151,0.781,1.528,1.363h0.09l-0.09-1.545V5.917H180v16.319h-2.035v-1.547h-0.092
		c-0.377,0.582-0.903,1.053-1.525,1.364C175.645,22.421,174.86,22.609,174.066,22.599 M174.413,20.689
		c0.964,0.016,1.887-0.384,2.533-1.091c0.716-0.81,1.082-1.866,1.019-2.941c0.063-1.075-0.303-2.13-1.019-2.939
		c-1.278-1.395-3.454-1.497-4.857-0.227c-0.081,0.071-0.158,0.147-0.23,0.227c-0.719,0.804-1.085,1.857-1.017,2.93
		c-0.068,1.073,0.298,2.127,1.017,2.931C172.509,20.298,173.439,20.705,174.413,20.689"/>
    </g>
</svg>
