<?xml version="1.0" encoding="UTF-8" standalone="no" ?>
<!DOCTYPE svg PUBLIC "-//W3C//DTD SVG 1.1//EN" "http://www.w3.org/Graphics/SVG/1.1/DTD/svg11.dtd">
<svg xmlns="http://www.w3.org/2000/svg" xmlns:xlink="http://www.w3.org/1999/xlink" version="1.1" width="65" height="70" viewBox="0 0 65 70" xml:space="preserve">
<desc>Created with Fabric.js 3.6.3</desc>
<defs>
</defs>
<g transform="matrix(1 0 0 1 32.47 28.49)" id="svg_17"  >
<path style="stroke: none; stroke-width: 1; stroke-dasharray: none; stroke-linecap: butt; stroke-dashoffset: 0; stroke-linejoin: miter; stroke-miterlimit: 4; fill: rgb(249,161,29); fill-rule: nonzero; opacity: 1;"  transform=" translate(-32.47, -28.49)" d="m 46.488998 37.568001 l -8.039997 0 l 0 -4.128002 c 0 -3.296997 -2.683002 -5.979 -5.98 -5.979 c -3.297001 0 -5.979 2.683002 -5.979 5.979 l 0 4.128002 l -8.040001 0 l 0 -4.128002 c 0 -7.73 6.288998 -14.019999 14.02 -14.019999 s 14.02 6.289 14.02 14.019999 l 0 4.128002 l -0.001003 0 z" stroke-linecap="round" />
</g>
<g transform="matrix(1 0 0 1 32.47 53.02)" id="svg_18"  >
<path style="stroke: none; stroke-width: 1; stroke-dasharray: none; stroke-linecap: butt; stroke-dashoffset: 0; stroke-linejoin: miter; stroke-miterlimit: 4; fill: rgb(44,60,105); fill-rule: nonzero; opacity: 1;"  transform=" translate(-32.47, -53.02)" d="m 49.731998 37.568001 l -34.524998 0 c -1.474001 0 -2.68 1.205997 -2.68 2.68 l 0 25.540001 c 0 1.473999 1.205999 2.68 2.68 2.68 l 34.524998 0 c 1.474003 0 2.68 -1.206001 2.68 -2.68 l 0 -25.540001 c 0 -1.474003 -1.205997 -2.68 -2.68 -2.68 z m -15.512997 16.769001 l 0 3.460995 c 0 0.966003 -0.784 1.749001 -1.749001 1.749001 s -1.749001 -0.783997 -1.749001 -1.749001 l 0 -3.459995 c -1.076 -0.611 -1.803001 -1.764 -1.803001 -3.09 c 0 -1.962002 1.591 -3.552002 3.552002 -3.552002 c 1.961998 0 3.551998 1.591 3.551998 3.552002 c 0 1.325001 -0.727001 2.478001 -1.802998 3.089001 z" stroke-linecap="round" />
</g>
<g transform="matrix(1 0 0 1 7.54 31.31)" id="svg_19"  >
<path style="stroke: none; stroke-width: 1; stroke-dasharray: none; stroke-linecap: butt; stroke-dashoffset: 0; stroke-linejoin: miter; stroke-miterlimit: 4; fill: rgb(249,161,29); fill-rule: nonzero; opacity: 1;"  transform=" translate(-7.54, -31.31)" d="m 11.707001 33.759998 l -8.331 0 c -1.351001 0 -2.446 -1.094997 -2.446 -2.445999 s 1.094999 -2.445999 2.446 -2.445999 l 8.331 0 c 1.351 0 2.445999 1.095001 2.445999 2.445999 s -1.096001 2.445999 -2.445999 2.445999 z" stroke-linecap="round" />
</g>
<g transform="matrix(1 0 0 1 14.28 15.5)" id="svg_20"  >
<path style="stroke: none; stroke-width: 1; stroke-dasharray: none; stroke-linecap: butt; stroke-dashoffset: 0; stroke-linejoin: miter; stroke-miterlimit: 4; fill: rgb(249,161,29); fill-rule: nonzero; opacity: 1;"  transform=" translate(-14.28, -15.5)" d="m 17.575001 20.655001 c -0.546001 0 -1.097 -0.182001 -1.552 -0.557001 l -6.59 -5.418999 c -1.043001 -0.858002 -1.194 -2.399 -0.335001 -3.443001 c 0.858 -1.042999 2.399 -1.194 3.443001 -0.336 l 6.59 5.419001 c 1.042999 0.858 1.194 2.399 0.334999 3.442999 c -0.483 0.589001 -1.184 0.893002 -1.890999 0.893002 z" stroke-linecap="round" />
</g>
<g transform="matrix(1 0 0 1 32.47 8.25)" id="svg_21"  >
<path style="stroke: none; stroke-width: 1; stroke-dasharray: none; stroke-linecap: butt; stroke-dashoffset: 0; stroke-linejoin: miter; stroke-miterlimit: 4; fill: rgb(249,161,29); fill-rule: nonzero; opacity: 1;"  transform=" translate(-32.47, -8.25)" d="m 32.469002 14.895 c -1.351002 0 -2.446003 -1.095001 -2.446003 -2.446001 l 0 -8.396999 c 0 -1.351 1.095001 -2.446 2.446003 -2.446 s 2.445999 1.095 2.445999 2.446 l 0 8.396999 c 0 1.351 -1.095001 2.446001 -2.445999 2.446001 z" stroke-linecap="round" />
</g>
<g transform="matrix(1 0 0 1 50.66 15.5)" id="svg_24"  >
<path style="stroke: none; stroke-width: 1; stroke-dasharray: none; stroke-linecap: butt; stroke-dashoffset: 0; stroke-linejoin: miter; stroke-miterlimit: 4; fill: rgb(249,161,29); fill-rule: nonzero; opacity: 1;"  transform=" translate(-50.66, -15.5)" d="m 47.362999 20.655001 c -0.707001 0 -1.406998 -0.304001 -1.890999 -0.893002 c -0.858002 -1.042999 -0.708 -2.584999 0.334999 -3.442999 l 6.59 -5.419001 c 1.044003 -0.858 2.585003 -0.706999 3.442997 0.336 c 0.858002 1.042999 0.708 2.584999 -0.334999 3.443001 l -6.589996 5.418999 c -0.455002 0.375 -1.005001 0.557001 -1.552002 0.557001 z" stroke-linecap="round" />
</g>
<g transform="matrix(1 0 0 1 57.36 31.31)" id="svg_25"  >
<path style="stroke: none; stroke-width: 1; stroke-dasharray: none; stroke-linecap: butt; stroke-dashoffset: 0; stroke-linejoin: miter; stroke-miterlimit: 4; fill: rgb(249,161,29); fill-rule: nonzero; opacity: 1;"  transform=" translate(-57.36, -31.31)" d="m 61.563004 33.759998 l -8.410004 0 c -1.351002 0 -2.445999 -1.094997 -2.445999 -2.445999 s 1.094997 -2.445999 2.445999 -2.445999 l 8.410004 0 c 1.350998 0 2.445999 1.095001 2.445999 2.445999 s -1.095001 2.445999 -2.445999 2.445999 z" stroke-linecap="round" />
</g>
</svg>