<svg width="77" height="75" viewBox="0 0 77 75" fill="none" xmlns="http://www.w3.org/2000/svg">
<g clipPath="url(#clip0_0_246)">
<path d="M76.9022 37.4999C76.9022 41.5502 74.4235 45.1587 73.2401 48.809C72.0117 52.5965 71.8548 56.9652 69.5623 60.1181C67.2468 63.3025 63.1285 64.7915 59.9467 67.1088C56.7962 69.4031 54.1208 72.8764 50.3373 74.1068C46.6856 75.2933 42.4972 74.0953 38.4511 74.0953C34.405 74.0953 30.2166 75.2933 26.566 74.1068C22.7815 72.8764 20.106 69.4031 16.9556 67.1088C13.7737 64.7915 9.65542 63.3025 7.33992 60.1181C5.04744 56.9662 4.89049 52.5975 3.66211 48.809C2.47663 45.1545 0 41.546 0 37.4999C0 33.4537 2.47873 29.8411 3.66211 26.1908C4.89049 22.4033 5.04744 18.0346 7.33992 14.8817C9.65542 11.6984 13.7737 10.2083 16.9556 7.89201C20.106 5.59773 22.7815 2.12332 26.566 0.893977C30.2166 -0.292433 34.405 0.904448 38.4511 0.904448C42.4972 0.904448 46.6856 -0.292433 50.3362 0.893977C54.1208 2.12332 56.7962 5.59773 59.9467 7.89201C63.1285 10.2083 67.2468 11.6984 69.5623 14.8817C71.8548 18.0346 72.0117 22.4033 73.2401 26.1908C74.4235 29.8411 76.9022 33.4506 76.9022 37.4999Z" fill="#326CE5"/>
<path d="M38.4491 4.81215C20.4106 4.81215 5.78723 19.447 5.78723 37.4997C5.78723 55.5524 20.4106 70.1872 38.4491 70.1872C56.4876 70.1872 71.1109 55.5565 71.1109 37.4997C71.1109 19.4428 56.4876 4.81215 38.4491 4.81215ZM38.4407 67.3432C21.9675 67.3432 8.63217 53.9911 8.62903 37.5049C8.62903 21.0009 21.9989 7.63 38.4836 7.66142C54.9683 7.69283 68.2837 21.0439 68.2691 37.5279C68.2545 54.012 54.9139 67.3484 38.4407 67.3432Z" fill="white"/>
<path d="M40.6666 25V30.3333C40.6666 30.687 40.8071 31.0261 41.0572 31.2761C41.3072 31.5262 41.6463 31.6667 42 31.6667H47.3333" stroke="white" strokeWidth="2.5" strokeLinecap="round" strokeLinejoin="round"/>
<path d="M28.6666 31.6667V27.6667C28.6666 26.9594 28.9476 26.2811 29.4477 25.781C29.9478 25.281 30.626 25 31.3333 25H40.6666L47.3333 31.6667V46.3333C47.3333 47.0406 47.0523 47.7189 46.5522 48.219C46.0521 48.719 45.3739 49 44.6666 49H38" stroke="white" strokeWidth="2.5" strokeLinecap="round" strokeLinejoin="round"/>
<path d="M30 43.6667C32.2091 43.6667 34 41.8758 34 39.6667C34 37.4575 32.2091 35.6667 30 35.6667C27.7909 35.6667 26 37.4575 26 39.6667C26 41.8758 27.7909 43.6667 30 43.6667Z" stroke="white" strokeWidth="2.5" strokeLinecap="round" strokeLinejoin="round"/>
<path d="M28 43.6667L26 50.3333L30 48.3333L34 50.3333L32 43.6667" stroke="white" strokeWidth="2.5" strokeLinecap="round" strokeLinejoin="round"/>
</g>
<defs>
<clipPath id="clip0_0_246">
<rect width="76.9022" height="74.2618" fill="white" transform="translate(0 0.369141)"/>
</clipPath>
</defs>
</svg>
