<svg width="77" height="75" viewBox="0 0 77 75" fill="none" xmlns="http://www.w3.org/2000/svg">
<g clipPath="url(#clip0_0_260)">
<path d="M76.9022 37.1307C76.9022 41.1811 74.4235 44.7895 73.2401 48.4398C72.0117 52.2274 71.8548 56.596 69.5623 59.749C67.2468 62.9333 63.1285 64.4223 59.9467 66.7397C56.7962 69.034 54.1208 72.5073 50.3373 73.7377C46.6856 74.9241 42.4972 73.7262 38.4511 73.7262C34.405 73.7262 30.2166 74.9241 26.566 73.7377C22.7815 72.5073 20.106 69.034 16.9556 66.7397C13.7737 64.4223 9.65542 62.9333 7.33992 59.749C5.04744 56.5971 4.89049 52.2284 3.66211 48.4398C2.47663 44.7853 0 41.1769 0 37.1307C0 33.0846 2.47873 29.472 3.66211 25.8216C4.89049 22.0341 5.04744 17.6655 7.33992 14.5125C9.65542 11.3292 13.7737 9.83914 16.9556 7.52287C20.106 5.22859 22.7815 1.75418 26.566 0.524836C30.2166 -0.661573 34.405 0.535307 38.4511 0.535307C42.4972 0.535307 46.6856 -0.661573 50.3362 0.524836C54.1208 1.75418 56.7962 5.22859 59.9467 7.52287C63.1285 9.83914 67.2468 11.3292 69.5623 14.5125C71.8548 17.6655 72.0117 22.0341 73.2401 25.8216C74.4235 29.472 76.9022 33.0815 76.9022 37.1307Z" fill="#326CE5"/>
<path d="M38.4491 4.44301C20.4106 4.44301 5.78723 19.0778 5.78723 37.1305C5.78723 55.1832 20.4106 69.818 38.4491 69.818C56.4876 69.818 71.1109 55.1874 71.1109 37.1305C71.1109 19.0736 56.4876 4.44301 38.4491 4.44301ZM38.4407 66.974C21.9675 66.974 8.63217 53.6219 8.62903 37.1358C8.62903 20.6318 21.9989 7.26086 38.4836 7.29228C54.9683 7.32369 68.2837 20.6747 68.2691 37.1588C68.2545 53.6429 54.9139 66.9793 38.4407 66.974Z" fill="white"/>
<path d="M34 37L36.6667 39.6667L42 34.3333" stroke="white" strokeWidth="2.5" strokeLinecap="round" strokeLinejoin="round"/>
<path d="M38.0001 25C41.1145 27.7554 45.1794 29.1901 49.3334 29C49.9382 31.0574 50.1232 33.2153 49.8776 35.3456C49.6319 37.4759 48.9605 39.535 47.9033 41.4007C46.846 43.2664 45.4246 44.9005 43.7233 46.206C42.0221 47.5114 40.0758 48.4616 38.0001 49C35.9243 48.4616 33.978 47.5114 32.2768 46.206C30.5755 44.9005 29.1541 43.2664 28.0969 41.4007C27.0396 39.535 26.3682 37.4759 26.1226 35.3456C25.8769 33.2153 26.0619 31.0574 26.6667 29C30.8208 29.1901 34.8856 27.7554 38.0001 25" stroke="white" strokeWidth="2.5" strokeLinecap="round" strokeLinejoin="round"/>
</g>
<defs>
<clipPath id="clip0_0_260">
<rect width="76.9022" height="74.2618" fill="white"/>
</clipPath>
</defs>
</svg>
