<svg width="77" height="75" viewBox="0 0 77 75" fill="none" xmlns="http://www.w3.org/2000/svg">
<g clipPath="url(#clip0_0_288)">
<path d="M76.9022 37.1307C76.9022 41.1811 74.4235 44.7895 73.2401 48.4398C72.0117 52.2274 71.8548 56.596 69.5623 59.749C67.2468 62.9333 63.1285 64.4223 59.9467 66.7397C56.7962 69.034 54.1208 72.5073 50.3373 73.7377C46.6856 74.9241 42.4972 73.7262 38.4511 73.7262C34.405 73.7262 30.2166 74.9241 26.566 73.7377C22.7815 72.5073 20.106 69.034 16.9556 66.7397C13.7737 64.4223 9.65542 62.9333 7.33992 59.749C5.04744 56.5971 4.89049 52.2284 3.66211 48.4398C2.47663 44.7853 0 41.1769 0 37.1307C0 33.0846 2.47873 29.472 3.66211 25.8216C4.89049 22.0341 5.04744 17.6655 7.33992 14.5125C9.65542 11.3292 13.7737 9.83914 16.9556 7.52287C20.106 5.22859 22.7815 1.75418 26.566 0.524836C30.2166 -0.661573 34.405 0.535307 38.4511 0.535307C42.4972 0.535307 46.6856 -0.661573 50.3362 0.524836C54.1208 1.75418 56.7962 5.22859 59.9467 7.52287C63.1285 9.83914 67.2468 11.3292 69.5623 14.5125C71.8548 17.6655 72.0117 22.0341 73.2401 25.8216C74.4235 29.472 76.9022 33.0815 76.9022 37.1307Z" fill="#326CE5"/>
<path d="M38.4491 4.44301C20.4106 4.44301 5.78723 19.0778 5.78723 37.1305C5.78723 55.1832 20.4106 69.818 38.4491 69.818C56.4876 69.818 71.1109 55.1874 71.1109 37.1305C71.1109 19.0736 56.4876 4.44301 38.4491 4.44301ZM38.4407 66.974C21.9675 66.974 8.63217 53.6219 8.62903 37.1358C8.62903 20.6318 21.9989 7.26086 38.4836 7.29228C54.9683 7.32369 68.2837 20.6747 68.2691 37.1588C68.2545 53.6429 54.9139 66.9793 38.4407 66.974Z" fill="white"/>
<path d="M45.7333 47.4227L42.8373 48.94C42.7513 48.9847 42.6547 49.0047 42.558 48.9977C42.4614 48.9906 42.3686 48.9569 42.2901 48.9002C42.2115 48.8435 42.1503 48.766 42.1132 48.6765C42.0761 48.587 42.0646 48.489 42.08 48.3933L42.6333 45.1787L40.2906 42.9027C40.2207 42.8351 40.1712 42.7492 40.1477 42.6548C40.1243 42.5604 40.1279 42.4613 40.158 42.3689C40.1882 42.2764 40.2438 42.1943 40.3184 42.1319C40.393 42.0695 40.4836 42.0293 40.58 42.016L43.8173 41.5467L45.2653 38.6227C45.3086 38.5356 45.3753 38.4623 45.458 38.4111C45.5407 38.3598 45.636 38.3327 45.7333 38.3327C45.8305 38.3327 45.9259 38.3598 46.0086 38.4111C46.0912 38.4623 46.158 38.5356 46.2013 38.6227L47.6493 41.5467L50.8866 42.016C50.9827 42.0298 51.0729 42.0702 51.1472 42.1327C51.2215 42.1951 51.2768 42.2771 51.3069 42.3694C51.337 42.4616 51.3407 42.5605 51.3176 42.6547C51.2944 42.749 51.2454 42.8348 51.176 42.9027L48.8333 45.1787L49.3853 48.392C49.4019 48.4878 49.3912 48.5864 49.3546 48.6764C49.318 48.7665 49.2568 48.8445 49.1781 48.9016C49.0993 48.9587 49.0062 48.9925 48.9092 48.9993C48.8122 49.0061 48.7152 48.9855 48.6293 48.94L45.7333 47.4227V47.4227Z" stroke="white" strokeWidth="2.5" strokeLinecap="round" strokeLinejoin="round"/>
<path d="M30.2667 47.4227L27.3707 48.94C27.2848 48.9847 27.1881 49.0047 27.0915 48.9977C26.9948 48.9906 26.9021 48.9569 26.8235 48.9002C26.745 48.8435 26.6837 48.766 26.6466 48.6765C26.6095 48.587 26.598 48.489 26.6134 48.3933L27.1667 45.1787L24.8241 42.9027C24.7541 42.8351 24.7046 42.7492 24.6812 42.6548C24.6577 42.5604 24.6613 42.4613 24.6915 42.3689C24.7217 42.2764 24.7772 42.1943 24.8518 42.1319C24.9264 42.0695 25.0171 42.0293 25.1134 42.016L28.3507 41.5467L29.7987 38.6227C29.842 38.5356 29.9088 38.4623 29.9915 38.4111C30.0741 38.3598 30.1695 38.3327 30.2667 38.3327C30.364 38.3327 30.4593 38.3598 30.542 38.4111C30.6247 38.4623 30.6914 38.5356 30.7347 38.6227L32.1827 41.5467L35.4201 42.016C35.5161 42.0298 35.6064 42.0702 35.6807 42.1327C35.7549 42.1951 35.8103 42.2771 35.8404 42.3694C35.8705 42.4616 35.8742 42.5605 35.851 42.6547C35.8279 42.749 35.7788 42.8348 35.7094 42.9027L33.3667 45.1787L33.9187 48.392C33.9353 48.4878 33.9247 48.5864 33.888 48.6764C33.8514 48.7665 33.7903 48.8445 33.7115 48.9016C33.6328 48.9587 33.5396 48.9925 33.4426 48.9993C33.3456 49.0061 33.2486 48.9855 33.1627 48.94L30.2667 47.4227V47.4227Z" stroke="white" strokeWidth="2.5" strokeLinecap="round" strokeLinejoin="round"/>
<path d="M38 34.0893L35.104 35.6067C35.0181 35.6514 34.9214 35.6714 34.8248 35.6643C34.7281 35.6573 34.6354 35.6235 34.5568 35.5668C34.4782 35.5101 34.417 35.4327 34.3799 35.3432C34.3428 35.2537 34.3313 35.1556 34.3467 35.06L34.9 31.8453L32.5573 29.5693C32.4874 29.5017 32.4379 29.4158 32.4145 29.3214C32.391 29.2271 32.3946 29.128 32.4248 29.0355C32.4549 28.9431 32.5105 28.861 32.5851 28.7986C32.6597 28.7362 32.7503 28.696 32.8467 28.6827L36.084 28.2133L37.532 25.2893C37.5753 25.2022 37.6421 25.129 37.7247 25.0777C37.8074 25.0265 37.9027 24.9994 38 24.9994C38.0973 24.9994 38.1926 25.0265 38.2753 25.0777C38.358 25.129 38.4247 25.2022 38.468 25.2893L39.916 28.2133L43.1533 28.6827C43.2494 28.6965 43.3397 28.7369 43.4139 28.7993C43.4882 28.8618 43.5435 28.9438 43.5736 29.036C43.6037 29.1283 43.6074 29.2271 43.5843 29.3214C43.5611 29.4156 43.5121 29.5015 43.4427 29.5693L41.1 31.8453L41.652 35.0587C41.6686 35.1545 41.6579 35.253 41.6213 35.3431C41.5847 35.4332 41.5235 35.5112 41.4448 35.5683C41.3661 35.6253 41.2729 35.6592 41.1759 35.666C41.0789 35.6728 40.9819 35.6522 40.896 35.6067L38 34.0893V34.0893Z" stroke="white" strokeWidth="2.5" strokeLinecap="round" strokeLinejoin="round"/>
</g>
<defs>
<clipPath id="clip0_0_288">
<rect width="76.9022" height="74.2618" fill="white"/>
</clipPath>
</defs>
</svg>
