<?xml version="1.0" encoding="UTF-8" standalone="no"?>
<svg
   xmlns:dc="http://purl.org/dc/elements/1.1/"
   xmlns:cc="http://creativecommons.org/ns#"
   xmlns:rdf="http://www.w3.org/1999/02/22-rdf-syntax-ns#"
   xmlns:svg="http://www.w3.org/2000/svg"
   xmlns="http://www.w3.org/2000/svg"
   xmlns:sodipodi="http://sodipodi.sourceforge.net/DTD/sodipodi-0.dtd"
   xmlns:inkscape="http://www.inkscape.org/namespaces/inkscape"
   version="1.0"
   width="445pt"
   height="445pt"
   viewBox="0 0 445 445"
   preserveAspectRatio="xMidYMid meet"
   id="svg26"
   sodipodi:docname="Cert-Manager-Stamp-Final.svg"
   inkscape:version="1.0.2 (e86c8708, 2021-01-15)">
  <metadata
     id="metadata32">
    <rdf:RDF>
      <cc:Work
         rdf:about="">
        <dc:format>image/svg+xml</dc:format>
        <dc:type
           rdf:resource="http://purl.org/dc/dcmitype/StillImage" />
      </cc:Work>
    </rdf:RDF>
  </metadata>
  <defs
     id="defs30" />
  <sodipodi:namedview
     pagecolor="#ffffff"
     bordercolor="#666666"
     borderopacity="1"
     objecttolerance="10"
     gridtolerance="10"
     guidetolerance="10"
     inkscape:pageopacity="0"
     inkscape:pageshadow="2"
     inkscape:window-width="2051"
     inkscape:window-height="1031"
     id="namedview28"
     showgrid="false"
     inkscape:snap-object-midpoints="false"
     inkscape:zoom="1.3755579"
     inkscape:cx="138.95393"
     inkscape:cy="302.29924"
     inkscape:window-x="0"
     inkscape:window-y="25"
     inkscape:window-maximized="0"
     inkscape:current-layer="layer2" />
  <g
     inkscape:groupmode="layer"
     id="layer2"
     inkscape:label="background">
    <circle
       style="fill:#ffffff;fill-opacity:1;stroke-width:0.420521;stroke-miterlimit:4;stroke-dasharray:none"
       id="path873"
       cx="224.0051"
       cy="214.73126"
       r="191.83147" />
  </g>
  <g
     transform="translate(-315,495) scale(0.06,-0.06)"
     fill="#326ce5"
     stroke="none"
     id="g24">
    <path
       d="M8026 8220 c-286 -33 -452 -128 -866 -495 -218 -193 -315 -264 -550 -400 -481 -279 -628 -421 -752 -720 -40 -98 -82 -252 -148 -545 -57 -250 -85 -335 -205 -615 -163 -378 -194 -475 -215 -662 -24 -224 24 -422 203 -830 134 -305 161 -388 256 -810 51 -223 88 -338 151 -468 112 -231 252 -359 660 -600 332 -196 354 -212 714 -530 268 -236 440 -336 656 -381 117 -24 372 -23 650 5 253 25 484 27 695 6 311 -31 459 -38 578 -26 312 30 472 118 887 487 232 206 322 272 568 414 456 264 613 411 732 688 50 115 77 211 141 490 71 316 105 420 226 701 173 403 215 546 216 751 1 209 -36 338 -207 740 -132 307 -159 388 -216 640 -103 457 -153 602 -260 760 -113 166 -252 276 -640 505 -267 158 -324 200 -560 409 -415 369 -575 457 -887 487 -119 12 -267 5 -578 -26 -206 -20 -442 -19 -685 5 -254 24 -461 32 -564 20z m1159 -420 c763 -55 1467 -384 2006 -937 331 -340 576 -739 724 -1178 320 -954 163 -2006 -422 -2822 -150 -210 -387 -458 -591 -621 -933 -743 -2214 -890 -3289 -377 -337 161 -592 342 -864 614 -174 175 -279 302 -404 491 -611 923 -681 2118 -184 3111 146 293 321 538 554 778 651 669 1539 1008 2470 941z"
       id="path10"
       style="stroke-width:1.00000003;stroke-miterlimit:4;stroke-dasharray:none;fill:#326ce5;fill-opacity:1" />
    <path
       d="M8730 7524 c-671 -61 -1277 -335 -1756 -796 -374 -360 -645 -827 -775 -1334 -67 -265 -83 -399 -83 -709 0 -230 3 -291 22 -414 80 -510 275 -960 593 -1362 104 -132 334 -360 470 -466 439 -341 959 -545 1514 -594 183 -15 477 -6 659 21 937 141 1735 730 2147 1585 122 255 205 524 251 816 19 123 22 184 22 414 0 310 -16 444 -83 709 -257 1003 -1044 1790 -2047 2047 -237 60 -392 80 -659 84 -126 1 -250 1 -275 -1z m-17 -497 c6 -26 6 -42 -1 -49 -6 -6 -51 -18 -99 -27 -88 -16 -105 -28 -84 -59 7 -12 22 -11 92 2 78 15 85 15 97 -1 6 -9 12 -32 12 -50 0 -39 -15 -47 -102 -58 -66 -8 -81 -16 -76 -41 4 -21 34 -23 150 -9 l66 8 7 -47 c4 -26 5 -49 2 -52 -12 -13 -308 -57 -317 -48 -17 17 -82 422 -67 425 91 19 260 46 282 45 25 -1 31 -6 38 -39z m642 23 c112 -21 160 -39 189 -69 56 -59 42 -182 -25 -217 -34 -17 -35 -20 -9 -108 11 -38 17 -73 14 -77 -7 -13 -59 -11 -88 2 -25 12 -45 49 -65 126 -8 28 -18 42 -33 46 -27 7 -34 -2 -42 -57 -8 -50 -31 -76 -65 -76 -35 0 -70 25 -65 47 2 10 20 101 39 203 20 101 42 188 48 192 7 4 19 6 27 3 8 -2 42 -9 75 -15z m865 -329 c131 -83 160 -105 160 -121 0 -5 -13 -24 -29 -42 l-28 -32 -37 22 c-20 12 -46 22 -56 22 -13 0 -42 -38 -97 -125 -55 -88 -84 -125 -97 -125 -20 0 -86 45 -86 59 0 4 36 65 80 135 44 70 80 132 80 137 0 5 -18 20 -40 34 -27 17 -40 32 -40 48 0 30 27 67 48 67 9 0 73 -36 142 -79z m-2327 45 c41 -17 71 -51 63 -71 -10 -28 -76 -49 -118 -38 -29 8 -44 7 -65 -4 -56 -29 -57 -66 -3 -150 36 -58 42 -63 75 -63 43 0 85 37 85 74 0 28 63 89 88 84 22 -4 37 -65 27 -114 -9 -52 -93 -137 -150 -153 -86 -24 -141 -7 -198 60 -100 116 -114 233 -39 312 62 66 164 93 235 63z m1209 -783 c77 -36 139 -97 176 -173 23 -48 27 -67 27 -145 -1 -71 -5 -100 -23 -138 -31 -70 -72 -117 -136 -157 l-56 -35 0 -67 0 -68 129 0 c95 0 136 4 157 15 16 8 49 15 73 15 35 0 49 -6 76 -33 108 -108 -17 -271 -152 -199 -26 14 -54 16 -157 14 l-126 -3 0 -560 0 -559 53 0 c70 0 217 25 303 51 115 35 195 90 276 192 42 54 46 67 20 67 -22 0 -42 19 -42 40 0 9 61 74 135 144 103 97 139 126 154 121 15 -4 27 -39 60 -170 22 -91 41 -174 41 -184 0 -27 -31 -42 -68 -35 -28 6 -32 2 -66 -56 -86 -147 -206 -275 -341 -365 -131 -87 -334 -175 -440 -190 -45 -6 -58 -14 -126 -81 -42 -41 -85 -74 -95 -74 -10 0 -55 36 -100 80 -47 46 -90 80 -102 80 -39 0 -158 43 -256 92 -236 117 -399 269 -531 492 -41 71 -42 71 -91 76 -36 4 -50 10 -52 23 -3 15 70 263 100 340 6 15 18 27 28 27 25 0 272 -266 268 -288 -2 -9 -16 -23 -31 -30 -15 -7 -27 -17 -27 -21 0 -17 88 -128 131 -165 58 -50 100 -70 206 -101 99 -30 334 -67 346 -56 4 4 6 257 5 562 l-3 554 -130 1 c-105 0 -138 -3 -174 -18 -83 -35 -152 -14 -185 57 -24 50 -14 99 29 142 27 27 41 33 76 33 24 0 57 -7 73 -15 21 -11 64 -15 172 -15 l144 0 0 63 0 64 -52 24 c-69 32 -134 97 -166 167 -36 77 -39 212 -5 284 31 67 70 114 128 152 110 74 230 83 347 29z m-1179 -898 c31 -8 117 -42 190 -74 184 -81 250 -96 422 -95 89 1 163 6 203 16 59 15 62 14 62 -3 0 -32 -69 -44 -265 -44 -211 0 -246 7 -432 91 -174 78 -248 95 -413 95 -154 1 -242 -15 -360 -66 -41 -18 -107 -46 -145 -63 -116 -50 -214 -65 -389 -59 -167 6 -226 18 -348 74 -57 26 -78 41 -78 54 0 11 2 19 4 19 2 0 38 -16 80 -36 134 -61 211 -77 381 -77 178 0 243 15 413 92 97 44 199 79 282 95 55 10 336 -3 393 -19z m3392 0 c101 -28 223 -84 228 -106 3 -10 2 -19 -2 -19 -4 0 -48 17 -97 39 -131 57 -215 73 -374 73 -165 -1 -236 -17 -417 -97 -177 -79 -213 -87 -393 -92 -180 -5 -253 6 -385 61 -47 20 -124 52 -172 72 -102 42 -100 41 -86 55 14 14 51 2 208 -67 169 -75 230 -88 405 -88 173 1 240 16 425 99 110 49 192 76 270 88 66 11 330 -2 390 -18z m-3380 -393 c39 -12 124 -45 190 -75 166 -75 239 -92 405 -91 120 0 200 9 253 29 14 6 17 2 17 -24 0 -27 -5 -32 -42 -43 -29 -9 -106 -13 -228 -13 -214 0 -249 8 -449 100 -145 67 -236 87 -401 87 -160 0 -238 -18 -408 -93 -199 -88 -226 -94 -437 -94 -202 0 -260 11 -407 80 -72 33 -78 38 -78 65 0 17 2 30 4 30 2 0 42 -18 89 -40 143 -67 218 -83 392 -83 175 0 246 16 390 83 202 94 277 111 485 106 118 -3 172 -9 225 -24z m1630 13 c87 -16 137 -34 278 -98 l98 -44 -25 -17 c-14 -9 -29 -16 -34 -16 -5 0 -53 20 -106 45 -53 25 -122 52 -154 61 -119 31 -324 35 -450 8 -32 -7 -33 -6 -30 22 3 26 8 30 58 41 79 16 275 16 365 -2z m1764 -14 c40 -12 109 -38 152 -58 72 -33 79 -38 79 -64 0 -16 -2 -29 -5 -29 -3 0 -45 18 -94 40 -139 63 -224 81 -376 81 -151 1 -241 -15 -347 -61 -280 -122 -322 -132 -523 -128 l-139 3 -12 31 -13 30 67 -8 c91 -12 257 -1 343 23 38 11 119 42 180 69 192 86 258 100 464 96 117 -3 166 -9 224 -25z m-3559 -479 l0 -38 -112 -1 c-141 -3 -225 -23 -390 -97 -193 -85 -222 -91 -438 -91 -166 0 -193 3 -260 24 -80 25 -150 57 -150 69 0 4 -4 23 -9 43 l-8 36 77 -33 c124 -54 197 -68 355 -68 173 1 228 13 411 95 166 73 267 97 417 98 l107 1 0 -38z m1795 23 c56 -10 81 -20 95 -37 18 -22 18 -24 1 -41 -16 -16 -23 -17 -62 -7 -103 28 -330 30 -434 4 -23 -6 -25 -4 -25 29 0 20 5 39 11 42 41 26 300 32 414 10z m1704 0 c44 -9 113 -29 153 -45 40 -17 74 -30 76 -30 6 0 1 -56 -6 -68 -7 -10 -21 -7 -64 13 -106 48 -200 66 -353 66 -168 0 -240 -16 -401 -89 -187 -85 -261 -102 -441 -102 -70 0 -155 5 -190 11 l-64 11 19 32 c14 23 25 30 43 28 13 -2 94 -4 179 -4 182 -2 238 10 418 91 100 45 209 82 282 94 64 11 274 6 349 -8z m-2469 -185 c0 -37 -2 -40 -37 -49 -87 -21 -110 -21 -204 3 -178 45 -180 51 -17 53 94 1 160 6 193 16 28 8 53 16 58 16 4 1 7 -17 7 -39z m-1508 -497 c36 -34 35 -59 -1 -153 -17 -43 -25 -77 -20 -79 6 -2 46 2 89 8 68 10 83 10 109 -4 29 -14 51 -42 51 -64 0 -5 -57 -56 -127 -113 -209 -170 -199 -166 -243 -102 l-24 36 29 27 c17 14 48 41 70 59 l40 32 -56 0 c-30 0 -60 5 -67 12 -15 15 -16 57 -2 94 6 15 9 28 7 30 -2 2 -32 -18 -66 -46 -34 -27 -69 -50 -76 -50 -19 0 -68 67 -62 84 6 16 297 255 311 256 6 0 23 -12 38 -27z m3474 -56 c21 -23 36 -51 40 -76 6 -39 7 -39 68 -50 113 -22 119 -30 61 -88 -32 -32 -39 -35 -73 -29 -105 19 -115 19 -128 1 -12 -16 -8 -22 36 -57 28 -22 50 -46 50 -53 0 -21 -50 -75 -68 -75 -16 0 -195 135 -286 215 l-39 34 18 28 c39 60 129 165 154 179 17 9 45 13 80 11 47 -3 59 -9 87 -40z m-497 -383 c34 -43 27 -58 -49 -110 -72 -49 -81 -63 -55 -84 11 -9 26 -3 79 35 43 30 72 44 84 41 15 -5 52 -54 52 -69 0 -3 -32 -29 -71 -57 -70 -51 -77 -64 -47 -83 11 -8 34 3 91 43 l77 54 25 -24 c46 -43 36 -61 -87 -149 -62 -45 -121 -81 -130 -81 -18 0 -240 300 -242 327 -1 16 218 181 241 182 6 1 21 -11 32 -25z m-2358 -149 c6 -14 -5 -78 -40 -220 -43 -178 -51 -200 -69 -203 -33 -5 -72 40 -72 81 0 32 -6 38 -64 75 -57 36 -67 39 -83 26 -10 -7 -27 -14 -37 -14 -24 0 -86 40 -86 56 0 10 79 74 273 222 l69 52 50 -27 c27 -16 54 -37 59 -48z m1826 -170 c120 -50 82 -116 -57 -100 -51 6 -61 4 -79 -14 -38 -38 -13 -153 41 -194 24 -18 30 -18 58 -7 52 22 70 76 22 65 -34 -7 -49 7 -58 53 -6 29 -4 33 29 47 20 8 57 20 82 27 43 11 48 11 60 -6 8 -10 19 -44 26 -74 16 -76 1 -120 -57 -171 -88 -77 -208 -73 -278 9 -30 36 -66 145 -66 202 0 122 156 213 277 163z m-1410 -17 c6 -5 29 -60 49 -121 21 -62 40 -105 43 -97 2 8 14 49 26 90 l21 75 43 -1 c79 -2 80 -9 26 -201 -67 -240 -57 -218 -95 -215 -57 4 -66 16 -106 134 -20 62 -40 106 -43 98 -2 -8 -14 -49 -26 -90 l-21 -75 -43 1 c-79 2 -79 6 -20 220 28 104 54 193 56 197 6 10 73 -1 90 -15z m752 -112 c26 -28 153 -352 149 -381 -3 -17 -11 -20 -53 -20 -44 0 -51 3 -63 28 -12 26 -17 27 -83 27 -67 0 -72 -1 -103 -35 -26 -27 -41 -35 -69 -35 -20 0 -38 4 -42 10 -11 17 113 393 136 413 32 26 100 23 128 -7z"
       id="path12"
       style="fill:#326ce5;fill-opacity:1" />
    <path
       d="M9342 6928 c-33 -33 1 -78 58 -78 63 0 79 54 24 79 -32 14 -67 14 -82 -1z"
       id="path14" />
    <path
       d="M8885 5826 c-132 -61 -140 -244 -15 -315 34 -19 52 -23 99 -19 68 5 112 34 141 93 56 116 -16 243 -143 252 -31 2 -64 -2 -82 -11z"
       id="path16" />
    <path
       d="M10615 3399 c-41 -36 -43 -44 -12 -70 31 -26 45 -24 67 14 25 41 25 63 0 77 -16 8 -26 5 -55 -21z"
       id="path18" />
    <path
       d="M7735 2845 l-40 -35 24 -20 c13 -11 27 -20 31 -20 9 0 34 84 29 99 -2 6 -22 -5 -44 -24z"
       id="path20" />
    <path
       d="M8998 2489 c-20 -59 -14 -72 28 -67 33 3 34 17 5 82 l-16 39 -17 -54z"
       id="path22" />
  </g>
  <g
     inkscape:groupmode="layer"
     id="layer1"
     inkscape:label="main" />
</svg>
